  0
SECTION
  2
BLOCKS
  0
ENDSEC
  0
SECTION
  2
ENTITIES
  0
LINE
  8
0
 10
35.82
 20
21.25
 11
35.8239
 21
21.4095
  0
LINE
  8
0
 10
35.8239
 20
21.4095
 11
35.8356
 21
21.5685
  0
LINE
  8
0
 10
35.8356
 20
21.5685
 11
35.8552
 21
21.7269
  0
LINE
  8
0
 10
35.8552
 20
21.7269
 11
35.8824
 21
21.884
  0
LINE
  8
0
 10
35.8824
 20
21.884
 11
35.9174
 21
22.0397
  0
LINE
  8
0
 10
35.9174
 20
22.0397
 11
35.9599
 21
22.1934
  0
LINE
  8
0
 10
35.9599
 20
22.1934
 11
36.01
 21
22.3449
  0
LINE
  8
0
 10
36.01
 20
22.3449
 11
36.0674
 21
22.4937
  0
LINE
  8
0
 10
36.0674
 20
22.4937
 11
36.132
 21
22.6395
  0
LINE
  8
0
 10
36.132
 20
22.6395
 11
36.2038
 21
22.782
  0
LINE
  8
0
 10
36.2038
 20
22.782
 11
36.2824
 21
22.9208
  0
LINE
  8
0
 10
36.2824
 20
22.9208
 11
36.3677
 21
23.0556
  0
LINE
  8
0
 10
36.3677
 20
23.0556
 11
36.4596
 21
23.186
  0
LINE
  8
0
 10
36.4596
 20
23.186
 11
36.5577
 21
23.3118
  0
LINE
  8
0
 10
36.5577
 20
23.3118
 11
36.6619
 21
23.4326
  0
LINE
  8
0
 10
36.6619
 20
23.4326
 11
36.7719
 21
23.5481
  0
LINE
  8
0
 10
36.7719
 20
23.5481
 11
36.8874
 21
23.6581
  0
LINE
  8
0
 10
36.8874
 20
23.6581
 11
37.0082
 21
23.7623
  0
LINE
  8
0
 10
37.0082
 20
23.7623
 11
37.134
 21
23.8604
  0
LINE
  8
0
 10
37.134
 20
23.8604
 11
37.2644
 21
23.9523
  0
LINE
  8
0
 10
37.2644
 20
23.9523
 11
37.3992
 21
24.0376
  0
LINE
  8
0
 10
37.3992
 20
24.0376
 11
37.5379
 21
24.1162
  0
LINE
  8
0
 10
37.5379
 20
24.1162
 11
37.6804
 21
24.188
  0
LINE
  8
0
 10
37.6804
 20
24.188
 11
37.8263
 21
24.2526
  0
LINE
  8
0
 10
37.8263
 20
24.2526
 11
37.9751
 21
24.31
  0
LINE
  8
0
 10
37.9751
 20
24.31
 11
38.1266
 21
24.36
  0
LINE
  8
0
 10
38.1266
 20
24.36
 11
38.2803
 21
24.4026
  0
LINE
  8
0
 10
38.2803
 20
24.4026
 11
38.4359
 21
24.4375
  0
LINE
  8
0
 10
38.4359
 20
24.4375
 11
38.5931
 21
24.4648
  0
LINE
  8
0
 10
38.5931
 20
24.4648
 11
38.7514
 21
24.4843
  0
LINE
  8
0
 10
38.7514
 20
24.4843
 11
38.9105
 21
24.4961
  0
LINE
  8
0
 10
38.9105
 20
24.4961
 11
39.07
 21
24.5
  0
LINE
  8
0
 10
39.07
 20
24.5
 11
39.2295
 21
24.4961
  0
LINE
  8
0
 10
39.2295
 20
24.4961
 11
39.3885
 21
24.4843
  0
LINE
  8
0
 10
39.3885
 20
24.4843
 11
39.5469
 21
24.4648
  0
LINE
  8
0
 10
39.5469
 20
24.4648
 11
39.704
 21
24.4375
  0
LINE
  8
0
 10
39.704
 20
24.4375
 11
39.8597
 21
24.4026
  0
LINE
  8
0
 10
39.8597
 20
24.4026
 11
40.0134
 21
24.36
  0
LINE
  8
0
 10
40.0134
 20
24.36
 11
40.1649
 21
24.31
  0
LINE
  8
0
 10
40.1649
 20
24.31
 11
40.3137
 21
24.2526
  0
LINE
  8
0
 10
40.3137
 20
24.2526
 11
40.4595
 21
24.188
  0
LINE
  8
0
 10
40.4595
 20
24.188
 11
40.602
 21
24.1162
  0
LINE
  8
0
 10
40.602
 20
24.1162
 11
40.7408
 21
24.0376
  0
LINE
  8
0
 10
40.7408
 20
24.0376
 11
40.8756
 21
23.9523
  0
LINE
  8
0
 10
40.8756
 20
23.9523
 11
41.006
 21
23.8604
  0
LINE
  8
0
 10
41.006
 20
23.8604
 11
41.1318
 21
23.7623
  0
LINE
  8
0
 10
41.1318
 20
23.7623
 11
41.2526
 21
23.6581
  0
LINE
  8
0
 10
41.2526
 20
23.6581
 11
41.3681
 21
23.5481
  0
LINE
  8
0
 10
41.3681
 20
23.5481
 11
41.4781
 21
23.4326
  0
LINE
  8
0
 10
41.4781
 20
23.4326
 11
41.5823
 21
23.3118
  0
LINE
  8
0
 10
41.5823
 20
23.3118
 11
41.6804
 21
23.186
  0
LINE
  8
0
 10
41.6804
 20
23.186
 11
41.7723
 21
23.0556
  0
LINE
  8
0
 10
41.7723
 20
23.0556
 11
41.8576
 21
22.9208
  0
LINE
  8
0
 10
41.8576
 20
22.9208
 11
41.9362
 21
22.782
  0
LINE
  8
0
 10
41.9362
 20
22.782
 11
42.008
 21
22.6395
  0
LINE
  8
0
 10
42.008
 20
22.6395
 11
42.0726
 21
22.4937
  0
LINE
  8
0
 10
42.0726
 20
22.4937
 11
42.13
 21
22.3449
  0
LINE
  8
0
 10
42.13
 20
22.3449
 11
42.1801
 21
22.1934
  0
LINE
  8
0
 10
42.1801
 20
22.1934
 11
42.2226
 21
22.0397
  0
LINE
  8
0
 10
42.2226
 20
22.0397
 11
42.2575
 21
21.884
  0
LINE
  8
0
 10
42.2575
 20
21.884
 11
42.2848
 21
21.7269
  0
LINE
  8
0
 10
42.2848
 20
21.7269
 11
42.3043
 21
21.5685
  0
LINE
  8
0
 10
42.3043
 20
21.5685
 11
42.3161
 21
21.4095
  0
LINE
  8
0
 10
42.3161
 20
21.4095
 11
42.3239
 21
21.0905
  0
LINE
  8
0
 10
42.3239
 20
21.0905
 11
42.3356
 21
20.9314
  0
LINE
  8
0
 10
42.3356
 20
20.9314
 11
42.3552
 21
20.7731
  0
LINE
  8
0
 10
42.3552
 20
20.7731
 11
42.3824
 21
20.616
  0
LINE
  8
0
 10
42.3824
 20
20.616
 11
42.4174
 21
20.4603
  0
LINE
  8
0
 10
42.4174
 20
20.4603
 11
42.4599
 21
20.3066
  0
LINE
  8
0
 10
42.4599
 20
20.3066
 11
42.51
 21
20.1551
  0
LINE
  8
0
 10
42.51
 20
20.1551
 11
42.5674
 21
20.0063
  0
LINE
  8
0
 10
42.5674
 20
20.0063
 11
42.632
 21
19.8604
  0
LINE
  8
0
 10
42.632
 20
19.8604
 11
42.7038
 21
19.718
  0
LINE
  8
0
 10
42.7038
 20
19.718
 11
42.7824
 21
19.5792
  0
LINE
  8
0
 10
42.7824
 20
19.5792
 11
42.8677
 21
19.4444
  0
LINE
  8
0
 10
42.8677
 20
19.4444
 11
42.9596
 21
19.314
  0
LINE
  8
0
 10
42.9596
 20
19.314
 11
43.0577
 21
19.1882
  0
LINE
  8
0
 10
43.0577
 20
19.1882
 11
43.1619
 21
19.0674
  0
LINE
  8
0
 10
43.1619
 20
19.0674
 11
43.2719
 21
18.9519
  0
LINE
  8
0
 10
43.2719
 20
18.9519
 11
43.3874
 21
18.8419
  0
LINE
  8
0
 10
43.3874
 20
18.8419
 11
43.5082
 21
18.7377
  0
LINE
  8
0
 10
43.5082
 20
18.7377
 11
43.634
 21
18.6396
  0
LINE
  8
0
 10
43.634
 20
18.6396
 11
43.7644
 21
18.5477
  0
LINE
  8
0
 10
43.7644
 20
18.5477
 11
43.8992
 21
18.4624
  0
LINE
  8
0
 10
43.8992
 20
18.4624
 11
44.0379
 21
18.3837
  0
LINE
  8
0
 10
44.0379
 20
18.3837
 11
44.1804
 21
18.312
  0
LINE
  8
0
 10
44.1804
 20
18.312
 11
44.3263
 21
18.2474
  0
LINE
  8
0
 10
44.3263
 20
18.2474
 11
44.4751
 21
18.19
  0
LINE
  8
0
 10
44.4751
 20
18.19
 11
44.6266
 21
18.1399
  0
LINE
  8
0
 10
44.6266
 20
18.1399
 11
44.7803
 21
18.0974
  0
LINE
  8
0
 10
44.7803
 20
18.0974
 11
44.9359
 21
18.0624
  0
LINE
  8
0
 10
44.9359
 20
18.0624
 11
45.0931
 21
18.0352
  0
LINE
  8
0
 10
45.0931
 20
18.0352
 11
45.2514
 21
18.0156
  0
LINE
  8
0
 10
45.2514
 20
18.0156
 11
45.4105
 21
18.0039
  0
LINE
  8
0
 10
45.4105
 20
18.0039
 11
45.57
 21
18
  0
LINE
  8
0
 10
45.57
 20
18
 11
72
 21
18
  0
LINE
  8
0
 10
72
 20
18
 11
112
 21
381.82
  0
LINE
  8
0
 10
112
 20
381.82
 11
76.2367
 21
381.82
  0
LINE
  8
0
 10
76.2367
 20
381.82
 11
76.0772
 21
381.816
  0
LINE
  8
0
 10
76.0772
 20
381.816
 11
75.9181
 21
381.804
  0
LINE
  8
0
 10
75.9181
 20
381.804
 11
75.7598
 21
381.785
  0
LINE
  8
0
 10
75.7598
 20
381.785
 11
75.6026
 21
381.758
  0
LINE
  8
0
 10
75.6026
 20
381.758
 11
75.447
 21
381.723
  0
LINE
  8
0
 10
75.447
 20
381.723
 11
75.2932
 21
381.68
  0
LINE
  8
0
 10
75.2932
 20
381.68
 11
75.1418
 21
381.63
  0
LINE
  8
0
 10
75.1418
 20
381.63
 11
74.9929
 21
381.573
  0
LINE
  8
0
 10
74.9929
 20
381.573
 11
74.8471
 21
381.508
  0
LINE
  8
0
 10
74.8471
 20
381.508
 11
74.7046
 21
381.436
  0
LINE
  8
0
 10
74.7046
 20
381.436
 11
74.5658
 21
381.358
  0
LINE
  8
0
 10
74.5658
 20
381.358
 11
74.4311
 21
381.272
  0
LINE
  8
0
 10
74.4311
 20
381.272
 11
74.3006
 21
381.18
  0
LINE
  8
0
 10
74.3006
 20
381.18
 11
74.1749
 21
381.082
  0
LINE
  8
0
 10
74.1749
 20
381.082
 11
74.0541
 21
380.978
  0
LINE
  8
0
 10
74.0541
 20
380.978
 11
73.9386
 21
380.868
  0
LINE
  8
0
 10
73.9386
 20
380.868
 11
73.8286
 21
380.753
  0
LINE
  8
0
 10
73.8286
 20
380.753
 11
73.7244
 21
380.632
  0
LINE
  8
0
 10
73.7244
 20
380.632
 11
73.6262
 21
380.506
  0
LINE
  8
0
 10
73.6262
 20
380.506
 11
73.5344
 21
380.376
  0
LINE
  8
0
 10
73.5344
 20
380.376
 11
73.449
 21
380.241
  0
LINE
  8
0
 10
73.449
 20
380.241
 11
73.3704
 21
380.102
  0
LINE
  8
0
 10
73.3704
 20
380.102
 11
73.2987
 21
379.96
  0
LINE
  8
0
 10
73.2987
 20
379.96
 11
73.2341
 21
379.814
  0
LINE
  8
0
 10
73.2341
 20
379.814
 11
73.1766
 21
379.665
  0
LINE
  8
0
 10
73.1766
 20
379.665
 11
73.1266
 21
379.513
  0
LINE
  8
0
 10
73.1266
 20
379.513
 11
73.0841
 21
379.36
  0
LINE
  8
0
 10
73.0841
 20
379.36
 11
73.0491
 21
379.204
  0
LINE
  8
0
 10
73.0491
 20
379.204
 11
73.0218
 21
379.047
  0
LINE
  8
0
 10
73.0218
 20
379.047
 11
73.0023
 21
378.889
  0
LINE
  8
0
 10
73.0023
 20
378.889
 11
72.9906
 21
378.729
  0
LINE
  8
0
 10
72.9906
 20
378.729
 11
72.9827
 21
378.411
  0
LINE
  8
0
 10
72.9827
 20
378.411
 11
72.971
 21
378.251
  0
LINE
  8
0
 10
72.971
 20
378.251
 11
72.9515
 21
378.093
  0
LINE
  8
0
 10
72.9515
 20
378.093
 11
72.9242
 21
377.936
  0
LINE
  8
0
 10
72.9242
 20
377.936
 11
72.8893
 21
377.78
  0
LINE
  8
0
 10
72.8893
 20
377.78
 11
72.8467
 21
377.627
  0
LINE
  8
0
 10
72.8467
 20
377.627
 11
72.7967
 21
377.475
  0
LINE
  8
0
 10
72.7967
 20
377.475
 11
72.7393
 21
377.326
  0
LINE
  8
0
 10
72.7393
 20
377.326
 11
72.6746
 21
377.18
  0
LINE
  8
0
 10
72.6746
 20
377.18
 11
72.6029
 21
377.038
  0
LINE
  8
0
 10
72.6029
 20
377.038
 11
72.5243
 21
376.899
  0
LINE
  8
0
 10
72.5243
 20
376.899
 11
72.4389
 21
376.764
  0
LINE
  8
0
 10
72.4389
 20
376.764
 11
72.3471
 21
376.634
  0
LINE
  8
0
 10
72.3471
 20
376.634
 11
72.2489
 21
376.508
  0
LINE
  8
0
 10
72.2489
 20
376.508
 11
72.1447
 21
376.387
  0
LINE
  8
0
 10
72.1447
 20
376.387
 11
72.0348
 21
376.272
  0
LINE
  8
0
 10
72.0348
 20
376.272
 11
71.9192
 21
376.162
  0
LINE
  8
0
 10
71.9192
 20
376.162
 11
71.7984
 21
376.058
  0
LINE
  8
0
 10
71.7984
 20
376.058
 11
71.6727
 21
375.96
  0
LINE
  8
0
 10
71.6727
 20
375.96
 11
71.5423
 21
375.868
  0
LINE
  8
0
 10
71.5423
 20
375.868
 11
71.4075
 21
375.782
  0
LINE
  8
0
 10
71.4075
 20
375.782
 11
71.2687
 21
375.704
  0
LINE
  8
0
 10
71.2687
 20
375.704
 11
71.1262
 21
375.632
  0
LINE
  8
0
 10
71.1262
 20
375.632
 11
70.9804
 21
375.567
  0
LINE
  8
0
 10
70.9804
 20
375.567
 11
70.8316
 21
375.51
  0
LINE
  8
0
 10
70.8316
 20
375.51
 11
70.6801
 21
375.46
  0
LINE
  8
0
 10
70.6801
 20
375.46
 11
70.5264
 21
375.417
  0
LINE
  8
0
 10
70.5264
 20
375.417
 11
70.3707
 21
375.382
  0
LINE
  8
0
 10
70.3707
 20
375.382
 11
70.2135
 21
375.355
  0
LINE
  8
0
 10
70.2135
 20
375.355
 11
70.0552
 21
375.336
  0
LINE
  8
0
 10
70.0552
 20
375.336
 11
69.8961
 21
375.324
  0
LINE
  8
0
 10
69.8961
 20
375.324
 11
69.7367
 21
375.32
  0
LINE
  8
0
 10
69.7367
 20
375.32
 11
69.5772
 21
375.324
  0
LINE
  8
0
 10
69.5772
 20
375.324
 11
69.4181
 21
375.336
  0
LINE
  8
0
 10
69.4181
 20
375.336
 11
69.2598
 21
375.355
  0
LINE
  8
0
 10
69.2598
 20
375.355
 11
69.1026
 21
375.382
  0
LINE
  8
0
 10
69.1026
 20
375.382
 11
68.947
 21
375.417
  0
LINE
  8
0
 10
68.947
 20
375.417
 11
68.7932
 21
375.46
  0
LINE
  8
0
 10
68.7932
 20
375.46
 11
68.6418
 21
375.51
  0
LINE
  8
0
 10
68.6418
 20
375.51
 11
68.4929
 21
375.567
  0
LINE
  8
0
 10
68.4929
 20
375.567
 11
68.3471
 21
375.632
  0
LINE
  8
0
 10
68.3471
 20
375.632
 11
68.2046
 21
375.704
  0
LINE
  8
0
 10
68.2046
 20
375.704
 11
68.0658
 21
375.782
  0
LINE
  8
0
 10
68.0658
 20
375.782
 11
67.9311
 21
375.868
  0
LINE
  8
0
 10
67.9311
 20
375.868
 11
67.8006
 21
375.96
  0
LINE
  8
0
 10
67.8006
 20
375.96
 11
67.6749
 21
376.058
  0
LINE
  8
0
 10
67.6749
 20
376.058
 11
67.5541
 21
376.162
  0
LINE
  8
0
 10
67.5541
 20
376.162
 11
67.4386
 21
376.272
  0
LINE
  8
0
 10
67.4386
 20
376.272
 11
67.3286
 21
376.387
  0
LINE
  8
0
 10
67.3286
 20
376.387
 11
67.2244
 21
376.508
  0
LINE
  8
0
 10
67.2244
 20
376.508
 11
67.1262
 21
376.634
  0
LINE
  8
0
 10
67.1262
 20
376.634
 11
67.0344
 21
376.764
  0
LINE
  8
0
 10
67.0344
 20
376.764
 11
66.949
 21
376.899
  0
LINE
  8
0
 10
66.949
 20
376.899
 11
66.8704
 21
377.038
  0
LINE
  8
0
 10
66.8704
 20
377.038
 11
66.7987
 21
377.18
  0
LINE
  8
0
 10
66.7987
 20
377.18
 11
66.7341
 21
377.326
  0
LINE
  8
0
 10
66.7341
 20
377.326
 11
66.6766
 21
377.475
  0
LINE
  8
0
 10
66.6766
 20
377.475
 11
66.6266
 21
377.627
  0
LINE
  8
0
 10
66.6266
 20
377.627
 11
66.5841
 21
377.78
  0
LINE
  8
0
 10
66.5841
 20
377.78
 11
66.5491
 21
377.936
  0
LINE
  8
0
 10
66.5491
 20
377.936
 11
66.5218
 21
378.093
  0
LINE
  8
0
 10
66.5218
 20
378.093
 11
66.5023
 21
378.251
  0
LINE
  8
0
 10
66.5023
 20
378.251
 11
66.4906
 21
378.411
  0
LINE
  8
0
 10
66.4906
 20
378.411
 11
66.4867
 21
378.57
  0
LINE
  8
0
 10
66.4867
 20
378.57
 11
66.4867
 21
403.25
  0
LINE
  8
0
 10
66.4867
 20
403.25
 11
66.4906
 21
403.409
  0
LINE
  8
0
 10
66.4906
 20
403.409
 11
66.5023
 21
403.569
  0
LINE
  8
0
 10
66.5023
 20
403.569
 11
66.5218
 21
403.727
  0
LINE
  8
0
 10
66.5218
 20
403.727
 11
66.5491
 21
403.884
  0
LINE
  8
0
 10
66.5491
 20
403.884
 11
66.5841
 21
404.04
  0
LINE
  8
0
 10
66.5841
 20
404.04
 11
66.6266
 21
404.193
  0
LINE
  8
0
 10
66.6266
 20
404.193
 11
66.6766
 21
404.345
  0
LINE
  8
0
 10
66.6766
 20
404.345
 11
66.7341
 21
404.494
  0
LINE
  8
0
 10
66.7341
 20
404.494
 11
66.7987
 21
404.64
  0
LINE
  8
0
 10
66.7987
 20
404.64
 11
66.8704
 21
404.782
  0
LINE
  8
0
 10
66.8704
 20
404.782
 11
66.949
 21
404.921
  0
LINE
  8
0
 10
66.949
 20
404.921
 11
67.0344
 21
405.056
  0
LINE
  8
0
 10
67.0344
 20
405.056
 11
67.1262
 21
405.186
  0
LINE
  8
0
 10
67.1262
 20
405.186
 11
67.2244
 21
405.312
  0
LINE
  8
0
 10
67.2244
 20
405.312
 11
67.3286
 21
405.433
  0
LINE
  8
0
 10
67.3286
 20
405.433
 11
67.4386
 21
405.548
  0
LINE
  8
0
 10
67.4386
 20
405.548
 11
67.5541
 21
405.658
  0
LINE
  8
0
 10
67.5541
 20
405.658
 11
67.6749
 21
405.762
  0
LINE
  8
0
 10
67.6749
 20
405.762
 11
67.8006
 21
405.86
  0
LINE
  8
0
 10
67.8006
 20
405.86
 11
67.9311
 21
405.952
  0
LINE
  8
0
 10
67.9311
 20
405.952
 11
68.0658
 21
406.038
  0
LINE
  8
0
 10
68.0658
 20
406.038
 11
68.2046
 21
406.116
  0
LINE
  8
0
 10
68.2046
 20
406.116
 11
68.3471
 21
406.188
  0
LINE
  8
0
 10
68.3471
 20
406.188
 11
68.4929
 21
406.253
  0
LINE
  8
0
 10
68.4929
 20
406.253
 11
68.6418
 21
406.31
  0
LINE
  8
0
 10
68.6418
 20
406.31
 11
68.7932
 21
406.36
  0
LINE
  8
0
 10
68.7932
 20
406.36
 11
68.947
 21
406.403
  0
LINE
  8
0
 10
68.947
 20
406.403
 11
69.1026
 21
406.438
  0
LINE
  8
0
 10
69.1026
 20
406.438
 11
69.2598
 21
406.465
  0
LINE
  8
0
 10
69.2598
 20
406.465
 11
69.4181
 21
406.484
  0
LINE
  8
0
 10
69.4181
 20
406.484
 11
69.5772
 21
406.496
  0
LINE
  8
0
 10
69.5772
 20
406.496
 11
69.7367
 21
406.5
  0
LINE
  8
0
 10
69.7367
 20
406.5
 11
69.8961
 21
406.496
  0
LINE
  8
0
 10
69.8961
 20
406.496
 11
70.0552
 21
406.484
  0
LINE
  8
0
 10
70.0552
 20
406.484
 11
70.2135
 21
406.465
  0
LINE
  8
0
 10
70.2135
 20
406.465
 11
70.3707
 21
406.438
  0
LINE
  8
0
 10
70.3707
 20
406.438
 11
70.5264
 21
406.403
  0
LINE
  8
0
 10
70.5264
 20
406.403
 11
70.6801
 21
406.36
  0
LINE
  8
0
 10
70.6801
 20
406.36
 11
70.8316
 21
406.31
  0
LINE
  8
0
 10
70.8316
 20
406.31
 11
70.9804
 21
406.253
  0
LINE
  8
0
 10
70.9804
 20
406.253
 11
71.1262
 21
406.188
  0
LINE
  8
0
 10
71.1262
 20
406.188
 11
71.2687
 21
406.116
  0
LINE
  8
0
 10
71.2687
 20
406.116
 11
71.4075
 21
406.038
  0
LINE
  8
0
 10
71.4075
 20
406.038
 11
71.5423
 21
405.952
  0
LINE
  8
0
 10
71.5423
 20
405.952
 11
71.6727
 21
405.86
  0
LINE
  8
0
 10
71.6727
 20
405.86
 11
71.7984
 21
405.762
  0
LINE
  8
0
 10
71.7984
 20
405.762
 11
71.9192
 21
405.658
  0
LINE
  8
0
 10
71.9192
 20
405.658
 11
72.0348
 21
405.548
  0
LINE
  8
0
 10
72.0348
 20
405.548
 11
72.1447
 21
405.433
  0
LINE
  8
0
 10
72.1447
 20
405.433
 11
72.2489
 21
405.312
  0
LINE
  8
0
 10
72.2489
 20
405.312
 11
72.3471
 21
405.186
  0
LINE
  8
0
 10
72.3471
 20
405.186
 11
72.4389
 21
405.056
  0
LINE
  8
0
 10
72.4389
 20
405.056
 11
72.5243
 21
404.921
  0
LINE
  8
0
 10
72.5243
 20
404.921
 11
72.6029
 21
404.782
  0
LINE
  8
0
 10
72.6029
 20
404.782
 11
72.6746
 21
404.64
  0
LINE
  8
0
 10
72.6746
 20
404.64
 11
72.7393
 21
404.494
  0
LINE
  8
0
 10
72.7393
 20
404.494
 11
72.7967
 21
404.345
  0
LINE
  8
0
 10
72.7967
 20
404.345
 11
72.8467
 21
404.193
  0
LINE
  8
0
 10
72.8467
 20
404.193
 11
72.8893
 21
404.04
  0
LINE
  8
0
 10
72.8893
 20
404.04
 11
72.9242
 21
403.884
  0
LINE
  8
0
 10
72.9242
 20
403.884
 11
72.9515
 21
403.727
  0
LINE
  8
0
 10
72.9515
 20
403.727
 11
72.971
 21
403.569
  0
LINE
  8
0
 10
72.971
 20
403.569
 11
72.9827
 21
403.409
  0
LINE
  8
0
 10
72.9827
 20
403.409
 11
72.9906
 21
403.091
  0
LINE
  8
0
 10
72.9906
 20
403.091
 11
73.0023
 21
402.931
  0
LINE
  8
0
 10
73.0023
 20
402.931
 11
73.0218
 21
402.773
  0
LINE
  8
0
 10
73.0218
 20
402.773
 11
73.0491
 21
402.616
  0
LINE
  8
0
 10
73.0491
 20
402.616
 11
73.0841
 21
402.46
  0
LINE
  8
0
 10
73.0841
 20
402.46
 11
73.1266
 21
402.307
  0
LINE
  8
0
 10
73.1266
 20
402.307
 11
73.1766
 21
402.155
  0
LINE
  8
0
 10
73.1766
 20
402.155
 11
73.2341
 21
402.006
  0
LINE
  8
0
 10
73.2341
 20
402.006
 11
73.2987
 21
401.86
  0
LINE
  8
0
 10
73.2987
 20
401.86
 11
73.3704
 21
401.718
  0
LINE
  8
0
 10
73.3704
 20
401.718
 11
73.449
 21
401.579
  0
LINE
  8
0
 10
73.449
 20
401.579
 11
73.5344
 21
401.444
  0
LINE
  8
0
 10
73.5344
 20
401.444
 11
73.6262
 21
401.314
  0
LINE
  8
0
 10
73.6262
 20
401.314
 11
73.7244
 21
401.188
  0
LINE
  8
0
 10
73.7244
 20
401.188
 11
73.8286
 21
401.067
  0
LINE
  8
0
 10
73.8286
 20
401.067
 11
73.9386
 21
400.952
  0
LINE
  8
0
 10
73.9386
 20
400.952
 11
74.0541
 21
400.842
  0
LINE
  8
0
 10
74.0541
 20
400.842
 11
74.1749
 21
400.738
  0
LINE
  8
0
 10
74.1749
 20
400.738
 11
74.3006
 21
400.64
  0
LINE
  8
0
 10
74.3006
 20
400.64
 11
74.4311
 21
400.548
  0
LINE
  8
0
 10
74.4311
 20
400.548
 11
74.5658
 21
400.462
  0
LINE
  8
0
 10
74.5658
 20
400.462
 11
74.7046
 21
400.384
  0
LINE
  8
0
 10
74.7046
 20
400.384
 11
74.8471
 21
400.312
  0
LINE
  8
0
 10
74.8471
 20
400.312
 11
74.9929
 21
400.247
  0
LINE
  8
0
 10
74.9929
 20
400.247
 11
75.1418
 21
400.19
  0
LINE
  8
0
 10
75.1418
 20
400.19
 11
75.2932
 21
400.14
  0
LINE
  8
0
 10
75.2932
 20
400.14
 11
75.447
 21
400.097
  0
LINE
  8
0
 10
75.447
 20
400.097
 11
75.6026
 21
400.062
  0
LINE
  8
0
 10
75.6026
 20
400.062
 11
75.7598
 21
400.035
  0
LINE
  8
0
 10
75.7598
 20
400.035
 11
75.9181
 21
400.016
  0
LINE
  8
0
 10
75.9181
 20
400.016
 11
76.0772
 21
400.004
  0
LINE
  8
0
 10
76.0772
 20
400.004
 11
76.2367
 21
400
  0
LINE
  8
0
 10
76.2367
 20
400
 11
118.15
 21
400
  0
LINE
  8
0
 10
118.15
 20
400
 11
119.346
 21
402.7
  0
LINE
  8
0
 10
119.346
 20
402.7
 11
121.277
 21
406.612
  0
LINE
  8
0
 10
121.277
 20
406.612
 11
123.397
 21
410.425
  0
LINE
  8
0
 10
123.397
 20
410.425
 11
125.702
 21
414.13
  0
LINE
  8
0
 10
125.702
 20
414.13
 11
128.186
 21
417.716
  0
LINE
  8
0
 10
128.186
 20
417.716
 11
130.843
 21
421.177
  0
LINE
  8
0
 10
130.843
 20
421.177
 11
133.666
 21
424.503
  0
LINE
  8
0
 10
133.666
 20
424.503
 11
136.649
 21
427.687
  0
LINE
  8
0
 10
136.649
 20
427.687
 11
139.785
 21
430.72
  0
LINE
  8
0
 10
139.785
 20
430.72
 11
143.066
 21
433.596
  0
LINE
  8
0
 10
143.066
 20
433.596
 11
146.484
 21
436.307
  0
LINE
  8
0
 10
146.484
 20
436.307
 11
150.031
 21
438.848
  0
LINE
  8
0
 10
150.031
 20
438.848
 11
153.699
 21
441.211
  0
LINE
  8
0
 10
153.699
 20
441.211
 11
157.478
 21
443.391
  0
LINE
  8
0
 10
157.478
 20
443.391
 11
161.359
 21
445.384
  0
LINE
  8
0
 10
161.359
 20
445.384
 11
165.333
 21
447.184
  0
LINE
  8
0
 10
165.333
 20
447.184
 11
169.391
 21
448.786
  0
LINE
  8
0
 10
169.391
 20
448.786
 11
173.523
 21
450.187
  0
LINE
  8
0
 10
173.523
 20
450.187
 11
177.718
 21
451.384
  0
LINE
  8
0
 10
177.718
 20
451.384
 11
181.968
 21
452.374
  0
LINE
  8
0
 10
181.968
 20
452.374
 11
186.26
 21
453.154
  0
LINE
  8
0
 10
186.26
 20
453.154
 11
190.586
 21
453.722
  0
LINE
  8
0
 10
190.586
 20
453.722
 11
194.934
 21
454.078
  0
LINE
  8
0
 10
194.934
 20
454.078
 11
199.295
 21
454.219
  0
LINE
  8
0
 10
199.295
 20
454.219
 11
203.657
 21
454.147
  0
LINE
  8
0
 10
203.657
 20
454.147
 11
208.011
 21
453.861
  0
LINE
  8
0
 10
208.011
 20
453.861
 11
212.345
 21
453.361
  0
LINE
  8
0
 10
212.345
 20
453.361
 11
216.649
 21
452.649
  0
LINE
  8
0
 10
216.649
 20
452.649
 11
220.914
 21
451.727
  0
LINE
  8
0
 10
220.914
 20
451.727
 11
225.128
 21
450.597
  0
LINE
  8
0
 10
225.128
 20
450.597
 11
229.281
 21
449.261
  0
LINE
  8
0
 10
229.281
 20
449.261
 11
233.364
 21
447.723
  0
LINE
  8
0
 10
233.364
 20
447.723
 11
237.366
 21
445.987
  0
LINE
  8
0
 10
237.366
 20
445.987
 11
241.279
 21
444.056
  0
LINE
  8
0
 10
241.279
 20
444.056
 11
245.092
 21
441.936
  0
LINE
  8
0
 10
245.092
 20
441.936
 11
248.796
 21
439.631
  0
LINE
  8
0
 10
248.796
 20
439.631
 11
252.383
 21
437.147
  0
LINE
  8
0
 10
252.383
 20
437.147
 11
255.844
 21
434.491
  0
LINE
  8
0
 10
255.844
 20
434.491
 11
259.17
 21
431.667
  0
LINE
  8
0
 10
259.17
 20
431.667
 11
262.353
 21
428.684
  0
LINE
  8
0
 10
262.353
 20
428.684
 11
265.387
 21
425.548
  0
LINE
  8
0
 10
265.387
 20
425.548
 11
268.263
 21
422.267
  0
LINE
  8
0
 10
268.263
 20
422.267
 11
270.974
 21
418.849
  0
LINE
  8
0
 10
270.974
 20
418.849
 11
273.514
 21
415.302
  0
LINE
  8
0
 10
273.514
 20
415.302
 11
275.878
 21
411.635
  0
LINE
  8
0
 10
275.878
 20
411.635
 11
278.058
 21
407.856
  0
LINE
  8
0
 10
278.058
 20
407.856
 11
280.051
 21
403.974
  0
LINE
  8
0
 10
280.051
 20
403.974
 11
281.85
 21
400
  0
LINE
  8
0
 10
281.85
 20
400
 11
323.763
 21
400
  0
LINE
  8
0
 10
323.763
 20
400
 11
323.923
 21
400.004
  0
LINE
  8
0
 10
323.923
 20
400.004
 11
324.082
 21
400.016
  0
LINE
  8
0
 10
324.082
 20
400.016
 11
324.24
 21
400.035
  0
LINE
  8
0
 10
324.24
 20
400.035
 11
324.397
 21
400.062
  0
LINE
  8
0
 10
324.397
 20
400.062
 11
324.553
 21
400.097
  0
LINE
  8
0
 10
324.553
 20
400.097
 11
324.707
 21
400.14
  0
LINE
  8
0
 10
324.707
 20
400.14
 11
324.858
 21
400.19
  0
LINE
  8
0
 10
324.858
 20
400.19
 11
325.007
 21
400.247
  0
LINE
  8
0
 10
325.007
 20
400.247
 11
325.153
 21
400.312
  0
LINE
  8
0
 10
325.153
 20
400.312
 11
325.295
 21
400.384
  0
LINE
  8
0
 10
325.295
 20
400.384
 11
325.434
 21
400.462
  0
LINE
  8
0
 10
325.434
 20
400.462
 11
325.569
 21
400.548
  0
LINE
  8
0
 10
325.569
 20
400.548
 11
325.699
 21
400.64
  0
LINE
  8
0
 10
325.699
 20
400.64
 11
325.825
 21
400.738
  0
LINE
  8
0
 10
325.825
 20
400.738
 11
325.946
 21
400.842
  0
LINE
  8
0
 10
325.946
 20
400.842
 11
326.061
 21
400.952
  0
LINE
  8
0
 10
326.061
 20
400.952
 11
326.171
 21
401.067
  0
LINE
  8
0
 10
326.171
 20
401.067
 11
326.276
 21
401.188
  0
LINE
  8
0
 10
326.276
 20
401.188
 11
326.374
 21
401.314
  0
LINE
  8
0
 10
326.374
 20
401.314
 11
326.466
 21
401.444
  0
LINE
  8
0
 10
326.466
 20
401.444
 11
326.551
 21
401.579
  0
LINE
  8
0
 10
326.551
 20
401.579
 11
326.63
 21
401.718
  0
LINE
  8
0
 10
326.63
 20
401.718
 11
326.701
 21
401.86
  0
LINE
  8
0
 10
326.701
 20
401.86
 11
326.766
 21
402.006
  0
LINE
  8
0
 10
326.766
 20
402.006
 11
326.823
 21
402.155
  0
LINE
  8
0
 10
326.823
 20
402.155
 11
326.873
 21
402.307
  0
LINE
  8
0
 10
326.873
 20
402.307
 11
326.916
 21
402.46
  0
LINE
  8
0
 10
326.916
 20
402.46
 11
326.951
 21
402.616
  0
LINE
  8
0
 10
326.951
 20
402.616
 11
326.978
 21
402.773
  0
LINE
  8
0
 10
326.978
 20
402.773
 11
326.998
 21
402.931
  0
LINE
  8
0
 10
326.998
 20
402.931
 11
327.009
 21
403.091
  0
LINE
  8
0
 10
327.009
 20
403.091
 11
327.017
 21
403.409
  0
LINE
  8
0
 10
327.017
 20
403.409
 11
327.029
 21
403.569
  0
LINE
  8
0
 10
327.029
 20
403.569
 11
327.049
 21
403.727
  0
LINE
  8
0
 10
327.049
 20
403.727
 11
327.076
 21
403.884
  0
LINE
  8
0
 10
327.076
 20
403.884
 11
327.111
 21
404.04
  0
LINE
  8
0
 10
327.111
 20
404.04
 11
327.153
 21
404.193
  0
LINE
  8
0
 10
327.153
 20
404.193
 11
327.203
 21
404.345
  0
LINE
  8
0
 10
327.203
 20
404.345
 11
327.261
 21
404.494
  0
LINE
  8
0
 10
327.261
 20
404.494
 11
327.325
 21
404.64
  0
LINE
  8
0
 10
327.325
 20
404.64
 11
327.397
 21
404.782
  0
LINE
  8
0
 10
327.397
 20
404.782
 11
327.476
 21
404.921
  0
LINE
  8
0
 10
327.476
 20
404.921
 11
327.561
 21
405.056
  0
LINE
  8
0
 10
327.561
 20
405.056
 11
327.653
 21
405.186
  0
LINE
  8
0
 10
327.653
 20
405.186
 11
327.751
 21
405.312
  0
LINE
  8
0
 10
327.751
 20
405.312
 11
327.855
 21
405.433
  0
LINE
  8
0
 10
327.855
 20
405.433
 11
327.965
 21
405.548
  0
LINE
  8
0
 10
327.965
 20
405.548
 11
328.081
 21
405.658
  0
LINE
  8
0
 10
328.081
 20
405.658
 11
328.202
 21
405.762
  0
LINE
  8
0
 10
328.202
 20
405.762
 11
328.327
 21
405.86
  0
LINE
  8
0
 10
328.327
 20
405.86
 11
328.458
 21
405.952
  0
LINE
  8
0
 10
328.458
 20
405.952
 11
328.592
 21
406.038
  0
LINE
  8
0
 10
328.592
 20
406.038
 11
328.731
 21
406.116
  0
LINE
  8
0
 10
328.731
 20
406.116
 11
328.874
 21
406.188
  0
LINE
  8
0
 10
328.874
 20
406.188
 11
329.02
 21
406.253
  0
LINE
  8
0
 10
329.02
 20
406.253
 11
329.168
 21
406.31
  0
LINE
  8
0
 10
329.168
 20
406.31
 11
329.32
 21
406.36
  0
LINE
  8
0
 10
329.32
 20
406.36
 11
329.474
 21
406.403
  0
LINE
  8
0
 10
329.474
 20
406.403
 11
329.629
 21
406.438
  0
LINE
  8
0
 10
329.629
 20
406.438
 11
329.786
 21
406.465
  0
LINE
  8
0
 10
329.786
 20
406.465
 11
329.945
 21
406.484
  0
LINE
  8
0
 10
329.945
 20
406.484
 11
330.104
 21
406.496
  0
LINE
  8
0
 10
330.104
 20
406.496
 11
330.263
 21
406.5
  0
LINE
  8
0
 10
330.263
 20
406.5
 11
330.423
 21
406.496
  0
LINE
  8
0
 10
330.423
 20
406.496
 11
330.582
 21
406.484
  0
LINE
  8
0
 10
330.582
 20
406.484
 11
330.74
 21
406.465
  0
LINE
  8
0
 10
330.74
 20
406.465
 11
330.897
 21
406.438
  0
LINE
  8
0
 10
330.897
 20
406.438
 11
331.053
 21
406.403
  0
LINE
  8
0
 10
331.053
 20
406.403
 11
331.207
 21
406.36
  0
LINE
  8
0
 10
331.207
 20
406.36
 11
331.358
 21
406.31
  0
LINE
  8
0
 10
331.358
 20
406.31
 11
331.507
 21
406.253
  0
LINE
  8
0
 10
331.507
 20
406.253
 11
331.653
 21
406.188
  0
LINE
  8
0
 10
331.653
 20
406.188
 11
331.795
 21
406.116
  0
LINE
  8
0
 10
331.795
 20
406.116
 11
331.934
 21
406.038
  0
LINE
  8
0
 10
331.934
 20
406.038
 11
332.069
 21
405.952
  0
LINE
  8
0
 10
332.069
 20
405.952
 11
332.199
 21
405.86
  0
LINE
  8
0
 10
332.199
 20
405.86
 11
332.325
 21
405.762
  0
LINE
  8
0
 10
332.325
 20
405.762
 11
332.446
 21
405.658
  0
LINE
  8
0
 10
332.446
 20
405.658
 11
332.561
 21
405.548
  0
LINE
  8
0
 10
332.561
 20
405.548
 11
332.671
 21
405.433
  0
LINE
  8
0
 10
332.671
 20
405.433
 11
332.776
 21
405.312
  0
LINE
  8
0
 10
332.776
 20
405.312
 11
332.874
 21
405.186
  0
LINE
  8
0
 10
332.874
 20
405.186
 11
332.966
 21
405.056
  0
LINE
  8
0
 10
332.966
 20
405.056
 11
333.051
 21
404.921
  0
LINE
  8
0
 10
333.051
 20
404.921
 11
333.13
 21
404.782
  0
LINE
  8
0
 10
333.13
 20
404.782
 11
333.201
 21
404.64
  0
LINE
  8
0
 10
333.201
 20
404.64
 11
333.266
 21
404.494
  0
LINE
  8
0
 10
333.266
 20
404.494
 11
333.323
 21
404.345
  0
LINE
  8
0
 10
333.323
 20
404.345
 11
333.373
 21
404.193
  0
LINE
  8
0
 10
333.373
 20
404.193
 11
333.416
 21
404.04
  0
LINE
  8
0
 10
333.416
 20
404.04
 11
333.451
 21
403.884
  0
LINE
  8
0
 10
333.451
 20
403.884
 11
333.478
 21
403.727
  0
LINE
  8
0
 10
333.478
 20
403.727
 11
333.498
 21
403.569
  0
LINE
  8
0
 10
333.498
 20
403.569
 11
333.509
 21
403.409
  0
LINE
  8
0
 10
333.509
 20
403.409
 11
333.513
 21
403.25
  0
LINE
  8
0
 10
333.513
 20
403.25
 11
333.513
 21
378.57
  0
LINE
  8
0
 10
333.513
 20
378.57
 11
333.509
 21
378.411
  0
LINE
  8
0
 10
333.509
 20
378.411
 11
333.498
 21
378.251
  0
LINE
  8
0
 10
333.498
 20
378.251
 11
333.478
 21
378.093
  0
LINE
  8
0
 10
333.478
 20
378.093
 11
333.451
 21
377.936
  0
LINE
  8
0
 10
333.451
 20
377.936
 11
333.416
 21
377.78
  0
LINE
  8
0
 10
333.416
 20
377.78
 11
333.373
 21
377.627
  0
LINE
  8
0
 10
333.373
 20
377.627
 11
333.323
 21
377.475
  0
LINE
  8
0
 10
333.323
 20
377.475
 11
333.266
 21
377.326
  0
LINE
  8
0
 10
333.266
 20
377.326
 11
333.201
 21
377.18
  0
LINE
  8
0
 10
333.201
 20
377.18
 11
333.13
 21
377.038
  0
LINE
  8
0
 10
333.13
 20
377.038
 11
333.051
 21
376.899
  0
LINE
  8
0
 10
333.051
 20
376.899
 11
332.966
 21
376.764
  0
LINE
  8
0
 10
332.966
 20
376.764
 11
332.874
 21
376.634
  0
LINE
  8
0
 10
332.874
 20
376.634
 11
332.776
 21
376.508
  0
LINE
  8
0
 10
332.776
 20
376.508
 11
332.671
 21
376.387
  0
LINE
  8
0
 10
332.671
 20
376.387
 11
332.561
 21
376.272
  0
LINE
  8
0
 10
332.561
 20
376.272
 11
332.446
 21
376.162
  0
LINE
  8
0
 10
332.446
 20
376.162
 11
332.325
 21
376.058
  0
LINE
  8
0
 10
332.325
 20
376.058
 11
332.199
 21
375.96
  0
LINE
  8
0
 10
332.199
 20
375.96
 11
332.069
 21
375.868
  0
LINE
  8
0
 10
332.069
 20
375.868
 11
331.934
 21
375.782
  0
LINE
  8
0
 10
331.934
 20
375.782
 11
331.795
 21
375.704
  0
LINE
  8
0
 10
331.795
 20
375.704
 11
331.653
 21
375.632
  0
LINE
  8
0
 10
331.653
 20
375.632
 11
331.507
 21
375.567
  0
LINE
  8
0
 10
331.507
 20
375.567
 11
331.358
 21
375.51
  0
LINE
  8
0
 10
331.358
 20
375.51
 11
331.207
 21
375.46
  0
LINE
  8
0
 10
331.207
 20
375.46
 11
331.053
 21
375.417
  0
LINE
  8
0
 10
331.053
 20
375.417
 11
330.897
 21
375.382
  0
LINE
  8
0
 10
330.897
 20
375.382
 11
330.74
 21
375.355
  0
LINE
  8
0
 10
330.74
 20
375.355
 11
330.582
 21
375.336
  0
LINE
  8
0
 10
330.582
 20
375.336
 11
330.423
 21
375.324
  0
LINE
  8
0
 10
330.423
 20
375.324
 11
330.263
 21
375.32
  0
LINE
  8
0
 10
330.263
 20
375.32
 11
330.104
 21
375.324
  0
LINE
  8
0
 10
330.104
 20
375.324
 11
329.945
 21
375.336
  0
LINE
  8
0
 10
329.945
 20
375.336
 11
329.786
 21
375.355
  0
LINE
  8
0
 10
329.786
 20
375.355
 11
329.629
 21
375.382
  0
LINE
  8
0
 10
329.629
 20
375.382
 11
329.474
 21
375.417
  0
LINE
  8
0
 10
329.474
 20
375.417
 11
329.32
 21
375.46
  0
LINE
  8
0
 10
329.32
 20
375.46
 11
329.168
 21
375.51
  0
LINE
  8
0
 10
329.168
 20
375.51
 11
329.02
 21
375.567
  0
LINE
  8
0
 10
329.02
 20
375.567
 11
328.874
 21
375.632
  0
LINE
  8
0
 10
328.874
 20
375.632
 11
328.731
 21
375.704
  0
LINE
  8
0
 10
328.731
 20
375.704
 11
328.592
 21
375.782
  0
LINE
  8
0
 10
328.592
 20
375.782
 11
328.458
 21
375.868
  0
LINE
  8
0
 10
328.458
 20
375.868
 11
328.327
 21
375.96
  0
LINE
  8
0
 10
328.327
 20
375.96
 11
328.202
 21
376.058
  0
LINE
  8
0
 10
328.202
 20
376.058
 11
328.081
 21
376.162
  0
LINE
  8
0
 10
328.081
 20
376.162
 11
327.965
 21
376.272
  0
LINE
  8
0
 10
327.965
 20
376.272
 11
327.855
 21
376.387
  0
LINE
  8
0
 10
327.855
 20
376.387
 11
327.751
 21
376.508
  0
LINE
  8
0
 10
327.751
 20
376.508
 11
327.653
 21
376.634
  0
LINE
  8
0
 10
327.653
 20
376.634
 11
327.561
 21
376.764
  0
LINE
  8
0
 10
327.561
 20
376.764
 11
327.476
 21
376.899
  0
LINE
  8
0
 10
327.476
 20
376.899
 11
327.397
 21
377.038
  0
LINE
  8
0
 10
327.397
 20
377.038
 11
327.325
 21
377.18
  0
LINE
  8
0
 10
327.325
 20
377.18
 11
327.261
 21
377.326
  0
LINE
  8
0
 10
327.261
 20
377.326
 11
327.203
 21
377.475
  0
LINE
  8
0
 10
327.203
 20
377.475
 11
327.153
 21
377.627
  0
LINE
  8
0
 10
327.153
 20
377.627
 11
327.111
 21
377.78
  0
LINE
  8
0
 10
327.111
 20
377.78
 11
327.076
 21
377.936
  0
LINE
  8
0
 10
327.076
 20
377.936
 11
327.049
 21
378.093
  0
LINE
  8
0
 10
327.049
 20
378.093
 11
327.029
 21
378.251
  0
LINE
  8
0
 10
327.029
 20
378.251
 11
327.017
 21
378.411
  0
LINE
  8
0
 10
327.017
 20
378.411
 11
327.009
 21
378.729
  0
LINE
  8
0
 10
327.009
 20
378.729
 11
326.998
 21
378.889
  0
LINE
  8
0
 10
326.998
 20
378.889
 11
326.978
 21
379.047
  0
LINE
  8
0
 10
326.978
 20
379.047
 11
326.951
 21
379.204
  0
LINE
  8
0
 10
326.951
 20
379.204
 11
326.916
 21
379.36
  0
LINE
  8
0
 10
326.916
 20
379.36
 11
326.873
 21
379.513
  0
LINE
  8
0
 10
326.873
 20
379.513
 11
326.823
 21
379.665
  0
LINE
  8
0
 10
326.823
 20
379.665
 11
326.766
 21
379.814
  0
LINE
  8
0
 10
326.766
 20
379.814
 11
326.701
 21
379.96
  0
LINE
  8
0
 10
326.701
 20
379.96
 11
326.63
 21
380.102
  0
LINE
  8
0
 10
326.63
 20
380.102
 11
326.551
 21
380.241
  0
LINE
  8
0
 10
326.551
 20
380.241
 11
326.466
 21
380.376
  0
LINE
  8
0
 10
326.466
 20
380.376
 11
326.374
 21
380.506
  0
LINE
  8
0
 10
326.374
 20
380.506
 11
326.276
 21
380.632
  0
LINE
  8
0
 10
326.276
 20
380.632
 11
326.171
 21
380.753
  0
LINE
  8
0
 10
326.171
 20
380.753
 11
326.061
 21
380.868
  0
LINE
  8
0
 10
326.061
 20
380.868
 11
325.946
 21
380.978
  0
LINE
  8
0
 10
325.946
 20
380.978
 11
325.825
 21
381.082
  0
LINE
  8
0
 10
325.825
 20
381.082
 11
325.699
 21
381.18
  0
LINE
  8
0
 10
325.699
 20
381.18
 11
325.569
 21
381.272
  0
LINE
  8
0
 10
325.569
 20
381.272
 11
325.434
 21
381.358
  0
LINE
  8
0
 10
325.434
 20
381.358
 11
325.295
 21
381.436
  0
LINE
  8
0
 10
325.295
 20
381.436
 11
325.153
 21
381.508
  0
LINE
  8
0
 10
325.153
 20
381.508
 11
325.007
 21
381.573
  0
LINE
  8
0
 10
325.007
 20
381.573
 11
324.858
 21
381.63
  0
LINE
  8
0
 10
324.858
 20
381.63
 11
324.707
 21
381.68
  0
LINE
  8
0
 10
324.707
 20
381.68
 11
324.553
 21
381.723
  0
LINE
  8
0
 10
324.553
 20
381.723
 11
324.397
 21
381.758
  0
LINE
  8
0
 10
324.397
 20
381.758
 11
324.24
 21
381.785
  0
LINE
  8
0
 10
324.24
 20
381.785
 11
324.082
 21
381.804
  0
LINE
  8
0
 10
324.082
 20
381.804
 11
323.923
 21
381.816
  0
LINE
  8
0
 10
323.923
 20
381.816
 11
323.763
 21
381.82
  0
LINE
  8
0
 10
323.763
 20
381.82
 11
288
 21
381.82
  0
LINE
  8
0
 10
288
 20
381.82
 11
328
 21
18
  0
LINE
  8
0
 10
328
 20
18
 11
354.43
 21
18
  0
LINE
  8
0
 10
354.43
 20
18
 11
354.589
 21
18.0039
  0
LINE
  8
0
 10
354.589
 20
18.0039
 11
354.749
 21
18.0156
  0
LINE
  8
0
 10
354.749
 20
18.0156
 11
354.907
 21
18.0352
  0
LINE
  8
0
 10
354.907
 20
18.0352
 11
355.064
 21
18.0624
  0
LINE
  8
0
 10
355.064
 20
18.0624
 11
355.22
 21
18.0974
  0
LINE
  8
0
 10
355.22
 20
18.0974
 11
355.373
 21
18.1399
  0
LINE
  8
0
 10
355.373
 20
18.1399
 11
355.525
 21
18.19
  0
LINE
  8
0
 10
355.525
 20
18.19
 11
355.674
 21
18.2474
  0
LINE
  8
0
 10
355.674
 20
18.2474
 11
355.82
 21
18.312
  0
LINE
  8
0
 10
355.82
 20
18.312
 11
355.962
 21
18.3837
  0
LINE
  8
0
 10
355.962
 20
18.3837
 11
356.101
 21
18.4624
  0
LINE
  8
0
 10
356.101
 20
18.4624
 11
356.236
 21
18.5477
  0
LINE
  8
0
 10
356.236
 20
18.5477
 11
356.366
 21
18.6396
  0
LINE
  8
0
 10
356.366
 20
18.6396
 11
356.492
 21
18.7377
  0
LINE
  8
0
 10
356.492
 20
18.7377
 11
356.613
 21
18.8419
  0
LINE
  8
0
 10
356.613
 20
18.8419
 11
356.728
 21
18.9519
  0
LINE
  8
0
 10
356.728
 20
18.9519
 11
356.838
 21
19.0674
  0
LINE
  8
0
 10
356.838
 20
19.0674
 11
356.942
 21
19.1882
  0
LINE
  8
0
 10
356.942
 20
19.1882
 11
357.04
 21
19.314
  0
LINE
  8
0
 10
357.04
 20
19.314
 11
357.132
 21
19.4444
  0
LINE
  8
0
 10
357.132
 20
19.4444
 11
357.218
 21
19.5792
  0
LINE
  8
0
 10
357.218
 20
19.5792
 11
357.296
 21
19.718
  0
LINE
  8
0
 10
357.296
 20
19.718
 11
357.368
 21
19.8604
  0
LINE
  8
0
 10
357.368
 20
19.8604
 11
357.433
 21
20.0063
  0
LINE
  8
0
 10
357.433
 20
20.0063
 11
357.49
 21
20.1551
  0
LINE
  8
0
 10
357.49
 20
20.1551
 11
357.54
 21
20.3066
  0
LINE
  8
0
 10
357.54
 20
20.3066
 11
357.583
 21
20.4603
  0
LINE
  8
0
 10
357.583
 20
20.4603
 11
357.618
 21
20.616
  0
LINE
  8
0
 10
357.618
 20
20.616
 11
357.645
 21
20.7731
  0
LINE
  8
0
 10
357.645
 20
20.7731
 11
357.664
 21
20.9314
  0
LINE
  8
0
 10
357.664
 20
20.9314
 11
357.676
 21
21.0905
  0
LINE
  8
0
 10
357.676
 20
21.0905
 11
357.684
 21
21.4095
  0
LINE
  8
0
 10
357.684
 20
21.4095
 11
357.696
 21
21.5685
  0
LINE
  8
0
 10
357.696
 20
21.5685
 11
357.715
 21
21.7269
  0
LINE
  8
0
 10
357.715
 20
21.7269
 11
357.742
 21
21.884
  0
LINE
  8
0
 10
357.742
 20
21.884
 11
357.777
 21
22.0397
  0
LINE
  8
0
 10
357.777
 20
22.0397
 11
357.82
 21
22.1934
  0
LINE
  8
0
 10
357.82
 20
22.1934
 11
357.87
 21
22.3449
  0
LINE
  8
0
 10
357.87
 20
22.3449
 11
357.927
 21
22.4937
  0
LINE
  8
0
 10
357.927
 20
22.4937
 11
357.992
 21
22.6395
  0
LINE
  8
0
 10
357.992
 20
22.6395
 11
358.064
 21
22.782
  0
LINE
  8
0
 10
358.064
 20
22.782
 11
358.142
 21
22.9208
  0
LINE
  8
0
 10
358.142
 20
22.9208
 11
358.228
 21
23.0556
  0
LINE
  8
0
 10
358.228
 20
23.0556
 11
358.32
 21
23.186
  0
LINE
  8
0
 10
358.32
 20
23.186
 11
358.418
 21
23.3118
  0
LINE
  8
0
 10
358.418
 20
23.3118
 11
358.522
 21
23.4326
  0
LINE
  8
0
 10
358.522
 20
23.4326
 11
358.632
 21
23.5481
  0
LINE
  8
0
 10
358.632
 20
23.5481
 11
358.747
 21
23.6581
  0
LINE
  8
0
 10
358.747
 20
23.6581
 11
358.868
 21
23.7623
  0
LINE
  8
0
 10
358.868
 20
23.7623
 11
358.994
 21
23.8604
  0
LINE
  8
0
 10
358.994
 20
23.8604
 11
359.124
 21
23.9523
  0
LINE
  8
0
 10
359.124
 20
23.9523
 11
359.259
 21
24.0376
  0
LINE
  8
0
 10
359.259
 20
24.0376
 11
359.398
 21
24.1162
  0
LINE
  8
0
 10
359.398
 20
24.1162
 11
359.54
 21
24.188
  0
LINE
  8
0
 10
359.54
 20
24.188
 11
359.686
 21
24.2526
  0
LINE
  8
0
 10
359.686
 20
24.2526
 11
359.835
 21
24.31
  0
LINE
  8
0
 10
359.835
 20
24.31
 11
359.987
 21
24.36
  0
LINE
  8
0
 10
359.987
 20
24.36
 11
360.14
 21
24.4026
  0
LINE
  8
0
 10
360.14
 20
24.4026
 11
360.296
 21
24.4375
  0
LINE
  8
0
 10
360.296
 20
24.4375
 11
360.453
 21
24.4648
  0
LINE
  8
0
 10
360.453
 20
24.4648
 11
360.611
 21
24.4843
  0
LINE
  8
0
 10
360.611
 20
24.4843
 11
360.771
 21
24.4961
  0
LINE
  8
0
 10
360.771
 20
24.4961
 11
360.93
 21
24.5
  0
LINE
  8
0
 10
360.93
 20
24.5
 11
361.089
 21
24.4961
  0
LINE
  8
0
 10
361.089
 20
24.4961
 11
361.249
 21
24.4843
  0
LINE
  8
0
 10
361.249
 20
24.4843
 11
361.407
 21
24.4648
  0
LINE
  8
0
 10
361.407
 20
24.4648
 11
361.564
 21
24.4375
  0
LINE
  8
0
 10
361.564
 20
24.4375
 11
361.72
 21
24.4026
  0
LINE
  8
0
 10
361.72
 20
24.4026
 11
361.873
 21
24.36
  0
LINE
  8
0
 10
361.873
 20
24.36
 11
362.025
 21
24.31
  0
LINE
  8
0
 10
362.025
 20
24.31
 11
362.174
 21
24.2526
  0
LINE
  8
0
 10
362.174
 20
24.2526
 11
362.32
 21
24.188
  0
LINE
  8
0
 10
362.32
 20
24.188
 11
362.462
 21
24.1162
  0
LINE
  8
0
 10
362.462
 20
24.1162
 11
362.601
 21
24.0376
  0
LINE
  8
0
 10
362.601
 20
24.0376
 11
362.736
 21
23.9523
  0
LINE
  8
0
 10
362.736
 20
23.9523
 11
362.866
 21
23.8604
  0
LINE
  8
0
 10
362.866
 20
23.8604
 11
362.992
 21
23.7623
  0
LINE
  8
0
 10
362.992
 20
23.7623
 11
363.113
 21
23.6581
  0
LINE
  8
0
 10
363.113
 20
23.6581
 11
363.228
 21
23.5481
  0
LINE
  8
0
 10
363.228
 20
23.5481
 11
363.338
 21
23.4326
  0
LINE
  8
0
 10
363.338
 20
23.4326
 11
363.442
 21
23.3118
  0
LINE
  8
0
 10
363.442
 20
23.3118
 11
363.54
 21
23.186
  0
LINE
  8
0
 10
363.54
 20
23.186
 11
363.632
 21
23.0556
  0
LINE
  8
0
 10
363.632
 20
23.0556
 11
363.718
 21
22.9208
  0
LINE
  8
0
 10
363.718
 20
22.9208
 11
363.796
 21
22.782
  0
LINE
  8
0
 10
363.796
 20
22.782
 11
363.868
 21
22.6395
  0
LINE
  8
0
 10
363.868
 20
22.6395
 11
363.933
 21
22.4937
  0
LINE
  8
0
 10
363.933
 20
22.4937
 11
363.99
 21
22.3449
  0
LINE
  8
0
 10
363.99
 20
22.3449
 11
364.04
 21
22.1934
  0
LINE
  8
0
 10
364.04
 20
22.1934
 11
364.083
 21
22.0397
  0
LINE
  8
0
 10
364.083
 20
22.0397
 11
364.118
 21
21.884
  0
LINE
  8
0
 10
364.118
 20
21.884
 11
364.145
 21
21.7269
  0
LINE
  8
0
 10
364.145
 20
21.7269
 11
364.164
 21
21.5685
  0
LINE
  8
0
 10
364.164
 20
21.5685
 11
364.176
 21
21.4095
  0
LINE
  8
0
 10
364.176
 20
21.4095
 11
364.18
 21
21.25
  0
LINE
  8
0
 10
364.18
 20
21.25
 11
364.18
 21
0
  0
LINE
  8
0
 10
364.18
 20
0
 11
381.82
 21
0
  0
LINE
  8
0
 10
381.82
 20
0
 11
381.82
 21
190.25
  0
LINE
  8
0
 10
381.82
 20
190.25
 11
381.816
 21
190.409
  0
LINE
  8
0
 10
381.816
 20
190.409
 11
381.804
 21
190.569
  0
LINE
  8
0
 10
381.804
 20
190.569
 11
381.785
 21
190.727
  0
LINE
  8
0
 10
381.785
 20
190.727
 11
381.758
 21
190.884
  0
LINE
  8
0
 10
381.758
 20
190.884
 11
381.723
 21
191.04
  0
LINE
  8
0
 10
381.723
 20
191.04
 11
381.68
 21
191.193
  0
LINE
  8
0
 10
381.68
 20
191.193
 11
381.63
 21
191.345
  0
LINE
  8
0
 10
381.63
 20
191.345
 11
381.573
 21
191.494
  0
LINE
  8
0
 10
381.573
 20
191.494
 11
381.508
 21
191.64
  0
LINE
  8
0
 10
381.508
 20
191.64
 11
381.436
 21
191.782
  0
LINE
  8
0
 10
381.436
 20
191.782
 11
381.358
 21
191.921
  0
LINE
  8
0
 10
381.358
 20
191.921
 11
381.272
 21
192.056
  0
LINE
  8
0
 10
381.272
 20
192.056
 11
381.18
 21
192.186
  0
LINE
  8
0
 10
381.18
 20
192.186
 11
381.082
 21
192.312
  0
LINE
  8
0
 10
381.082
 20
192.312
 11
380.978
 21
192.433
  0
LINE
  8
0
 10
380.978
 20
192.433
 11
380.868
 21
192.548
  0
LINE
  8
0
 10
380.868
 20
192.548
 11
380.753
 21
192.658
  0
LINE
  8
0
 10
380.753
 20
192.658
 11
380.632
 21
192.762
  0
LINE
  8
0
 10
380.632
 20
192.762
 11
380.506
 21
192.86
  0
LINE
  8
0
 10
380.506
 20
192.86
 11
380.376
 21
192.952
  0
LINE
  8
0
 10
380.376
 20
192.952
 11
380.241
 21
193.038
  0
LINE
  8
0
 10
380.241
 20
193.038
 11
380.102
 21
193.116
  0
LINE
  8
0
 10
380.102
 20
193.116
 11
379.96
 21
193.188
  0
LINE
  8
0
 10
379.96
 20
193.188
 11
379.814
 21
193.253
  0
LINE
  8
0
 10
379.814
 20
193.253
 11
379.665
 21
193.31
  0
LINE
  8
0
 10
379.665
 20
193.31
 11
379.513
 21
193.36
  0
LINE
  8
0
 10
379.513
 20
193.36
 11
379.36
 21
193.403
  0
LINE
  8
0
 10
379.36
 20
193.403
 11
379.204
 21
193.438
  0
LINE
  8
0
 10
379.204
 20
193.438
 11
379.047
 21
193.465
  0
LINE
  8
0
 10
379.047
 20
193.465
 11
378.889
 21
193.484
  0
LINE
  8
0
 10
378.889
 20
193.484
 11
378.729
 21
193.496
  0
LINE
  8
0
 10
378.729
 20
193.496
 11
378.411
 21
193.504
  0
LINE
  8
0
 10
378.411
 20
193.504
 11
378.251
 21
193.516
  0
LINE
  8
0
 10
378.251
 20
193.516
 11
378.093
 21
193.535
  0
LINE
  8
0
 10
378.093
 20
193.535
 11
377.936
 21
193.562
  0
LINE
  8
0
 10
377.936
 20
193.562
 11
377.78
 21
193.597
  0
LINE
  8
0
 10
377.78
 20
193.597
 11
377.627
 21
193.64
  0
LINE
  8
0
 10
377.627
 20
193.64
 11
377.475
 21
193.69
  0
LINE
  8
0
 10
377.475
 20
193.69
 11
377.326
 21
193.747
  0
LINE
  8
0
 10
377.326
 20
193.747
 11
377.18
 21
193.812
  0
LINE
  8
0
 10
377.18
 20
193.812
 11
377.038
 21
193.884
  0
LINE
  8
0
 10
377.038
 20
193.884
 11
376.899
 21
193.962
  0
LINE
  8
0
 10
376.899
 20
193.962
 11
376.764
 21
194.048
  0
LINE
  8
0
 10
376.764
 20
194.048
 11
376.634
 21
194.14
  0
LINE
  8
0
 10
376.634
 20
194.14
 11
376.508
 21
194.238
  0
LINE
  8
0
 10
376.508
 20
194.238
 11
376.387
 21
194.342
  0
LINE
  8
0
 10
376.387
 20
194.342
 11
376.272
 21
194.452
  0
LINE
  8
0
 10
376.272
 20
194.452
 11
376.162
 21
194.567
  0
LINE
  8
0
 10
376.162
 20
194.567
 11
376.058
 21
194.688
  0
LINE
  8
0
 10
376.058
 20
194.688
 11
375.96
 21
194.814
  0
LINE
  8
0
 10
375.96
 20
194.814
 11
375.868
 21
194.944
  0
LINE
  8
0
 10
375.868
 20
194.944
 11
375.782
 21
195.079
  0
LINE
  8
0
 10
375.782
 20
195.079
 11
375.704
 21
195.218
  0
LINE
  8
0
 10
375.704
 20
195.218
 11
375.632
 21
195.36
  0
LINE
  8
0
 10
375.632
 20
195.36
 11
375.567
 21
195.506
  0
LINE
  8
0
 10
375.567
 20
195.506
 11
375.51
 21
195.655
  0
LINE
  8
0
 10
375.51
 20
195.655
 11
375.46
 21
195.807
  0
LINE
  8
0
 10
375.46
 20
195.807
 11
375.417
 21
195.96
  0
LINE
  8
0
 10
375.417
 20
195.96
 11
375.382
 21
196.116
  0
LINE
  8
0
 10
375.382
 20
196.116
 11
375.355
 21
196.273
  0
LINE
  8
0
 10
375.355
 20
196.273
 11
375.336
 21
196.431
  0
LINE
  8
0
 10
375.336
 20
196.431
 11
375.324
 21
196.591
  0
LINE
  8
0
 10
375.324
 20
196.591
 11
375.32
 21
196.75
  0
LINE
  8
0
 10
375.32
 20
196.75
 11
375.324
 21
196.909
  0
LINE
  8
0
 10
375.324
 20
196.909
 11
375.336
 21
197.069
  0
LINE
  8
0
 10
375.336
 20
197.069
 11
375.355
 21
197.227
  0
LINE
  8
0
 10
375.355
 20
197.227
 11
375.382
 21
197.384
  0
LINE
  8
0
 10
375.382
 20
197.384
 11
375.417
 21
197.54
  0
LINE
  8
0
 10
375.417
 20
197.54
 11
375.46
 21
197.693
  0
LINE
  8
0
 10
375.46
 20
197.693
 11
375.51
 21
197.845
  0
LINE
  8
0
 10
375.51
 20
197.845
 11
375.567
 21
197.994
  0
LINE
  8
0
 10
375.567
 20
197.994
 11
375.632
 21
198.14
  0
LINE
  8
0
 10
375.632
 20
198.14
 11
375.704
 21
198.282
  0
LINE
  8
0
 10
375.704
 20
198.282
 11
375.782
 21
198.421
  0
LINE
  8
0
 10
375.782
 20
198.421
 11
375.868
 21
198.556
  0
LINE
  8
0
 10
375.868
 20
198.556
 11
375.96
 21
198.686
  0
LINE
  8
0
 10
375.96
 20
198.686
 11
376.058
 21
198.812
  0
LINE
  8
0
 10
376.058
 20
198.812
 11
376.162
 21
198.933
  0
LINE
  8
0
 10
376.162
 20
198.933
 11
376.272
 21
199.048
  0
LINE
  8
0
 10
376.272
 20
199.048
 11
376.387
 21
199.158
  0
LINE
  8
0
 10
376.387
 20
199.158
 11
376.508
 21
199.262
  0
LINE
  8
0
 10
376.508
 20
199.262
 11
376.634
 21
199.36
  0
LINE
  8
0
 10
376.634
 20
199.36
 11
376.764
 21
199.452
  0
LINE
  8
0
 10
376.764
 20
199.452
 11
376.899
 21
199.538
  0
LINE
  8
0
 10
376.899
 20
199.538
 11
377.038
 21
199.616
  0
LINE
  8
0
 10
377.038
 20
199.616
 11
377.18
 21
199.688
  0
LINE
  8
0
 10
377.18
 20
199.688
 11
377.326
 21
199.753
  0
LINE
  8
0
 10
377.326
 20
199.753
 11
377.475
 21
199.81
  0
LINE
  8
0
 10
377.475
 20
199.81
 11
377.627
 21
199.86
  0
LINE
  8
0
 10
377.627
 20
199.86
 11
377.78
 21
199.903
  0
LINE
  8
0
 10
377.78
 20
199.903
 11
377.936
 21
199.938
  0
LINE
  8
0
 10
377.936
 20
199.938
 11
378.093
 21
199.965
  0
LINE
  8
0
 10
378.093
 20
199.965
 11
378.251
 21
199.984
  0
LINE
  8
0
 10
378.251
 20
199.984
 11
378.411
 21
199.996
  0
LINE
  8
0
 10
378.411
 20
199.996
 11
378.57
 21
200
  0
LINE
  8
0
 10
378.57
 20
200
 11
400
 21
200
  0
LINE
  8
0
 10
400
 20
200
 11
400
 21
500
  0
LINE
  8
0
 10
400
 20
500
 11
378.57
 21
500
  0
LINE
  8
0
 10
378.57
 20
500
 11
378.411
 21
500.004
  0
LINE
  8
0
 10
378.411
 20
500.004
 11
378.251
 21
500.016
  0
LINE
  8
0
 10
378.251
 20
500.016
 11
378.093
 21
500.035
  0
LINE
  8
0
 10
378.093
 20
500.035
 11
377.936
 21
500.062
  0
LINE
  8
0
 10
377.936
 20
500.062
 11
377.78
 21
500.097
  0
LINE
  8
0
 10
377.78
 20
500.097
 11
377.627
 21
500.14
  0
LINE
  8
0
 10
377.627
 20
500.14
 11
377.475
 21
500.19
  0
LINE
  8
0
 10
377.475
 20
500.19
 11
377.326
 21
500.247
  0
LINE
  8
0
 10
377.326
 20
500.247
 11
377.18
 21
500.312
  0
LINE
  8
0
 10
377.18
 20
500.312
 11
377.038
 21
500.384
  0
LINE
  8
0
 10
377.038
 20
500.384
 11
376.899
 21
500.462
  0
LINE
  8
0
 10
376.899
 20
500.462
 11
376.764
 21
500.548
  0
LINE
  8
0
 10
376.764
 20
500.548
 11
376.634
 21
500.64
  0
LINE
  8
0
 10
376.634
 20
500.64
 11
376.508
 21
500.738
  0
LINE
  8
0
 10
376.508
 20
500.738
 11
376.387
 21
500.842
  0
LINE
  8
0
 10
376.387
 20
500.842
 11
376.272
 21
500.952
  0
LINE
  8
0
 10
376.272
 20
500.952
 11
376.162
 21
501.067
  0
LINE
  8
0
 10
376.162
 20
501.067
 11
376.058
 21
501.188
  0
LINE
  8
0
 10
376.058
 20
501.188
 11
375.96
 21
501.314
  0
LINE
  8
0
 10
375.96
 20
501.314
 11
375.868
 21
501.444
  0
LINE
  8
0
 10
375.868
 20
501.444
 11
375.782
 21
501.579
  0
LINE
  8
0
 10
375.782
 20
501.579
 11
375.704
 21
501.718
  0
LINE
  8
0
 10
375.704
 20
501.718
 11
375.632
 21
501.86
  0
LINE
  8
0
 10
375.632
 20
501.86
 11
375.567
 21
502.006
  0
LINE
  8
0
 10
375.567
 20
502.006
 11
375.51
 21
502.155
  0
LINE
  8
0
 10
375.51
 20
502.155
 11
375.46
 21
502.307
  0
LINE
  8
0
 10
375.46
 20
502.307
 11
375.417
 21
502.46
  0
LINE
  8
0
 10
375.417
 20
502.46
 11
375.382
 21
502.616
  0
LINE
  8
0
 10
375.382
 20
502.616
 11
375.355
 21
502.773
  0
LINE
  8
0
 10
375.355
 20
502.773
 11
375.336
 21
502.931
  0
LINE
  8
0
 10
375.336
 20
502.931
 11
375.324
 21
503.091
  0
LINE
  8
0
 10
375.324
 20
503.091
 11
375.32
 21
503.25
  0
LINE
  8
0
 10
375.32
 20
503.25
 11
375.324
 21
503.409
  0
LINE
  8
0
 10
375.324
 20
503.409
 11
375.336
 21
503.569
  0
LINE
  8
0
 10
375.336
 20
503.569
 11
375.355
 21
503.727
  0
LINE
  8
0
 10
375.355
 20
503.727
 11
375.382
 21
503.884
  0
LINE
  8
0
 10
375.382
 20
503.884
 11
375.417
 21
504.04
  0
LINE
  8
0
 10
375.417
 20
504.04
 11
375.46
 21
504.193
  0
LINE
  8
0
 10
375.46
 20
504.193
 11
375.51
 21
504.345
  0
LINE
  8
0
 10
375.51
 20
504.345
 11
375.567
 21
504.494
  0
LINE
  8
0
 10
375.567
 20
504.494
 11
375.632
 21
504.64
  0
LINE
  8
0
 10
375.632
 20
504.64
 11
375.704
 21
504.782
  0
LINE
  8
0
 10
375.704
 20
504.782
 11
375.782
 21
504.921
  0
LINE
  8
0
 10
375.782
 20
504.921
 11
375.868
 21
505.056
  0
LINE
  8
0
 10
375.868
 20
505.056
 11
375.96
 21
505.186
  0
LINE
  8
0
 10
375.96
 20
505.186
 11
376.058
 21
505.312
  0
LINE
  8
0
 10
376.058
 20
505.312
 11
376.162
 21
505.433
  0
LINE
  8
0
 10
376.162
 20
505.433
 11
376.272
 21
505.548
  0
LINE
  8
0
 10
376.272
 20
505.548
 11
376.387
 21
505.658
  0
LINE
  8
0
 10
376.387
 20
505.658
 11
376.508
 21
505.762
  0
LINE
  8
0
 10
376.508
 20
505.762
 11
376.634
 21
505.86
  0
LINE
  8
0
 10
376.634
 20
505.86
 11
376.764
 21
505.952
  0
LINE
  8
0
 10
376.764
 20
505.952
 11
376.899
 21
506.038
  0
LINE
  8
0
 10
376.899
 20
506.038
 11
377.038
 21
506.116
  0
LINE
  8
0
 10
377.038
 20
506.116
 11
377.18
 21
506.188
  0
LINE
  8
0
 10
377.18
 20
506.188
 11
377.326
 21
506.253
  0
LINE
  8
0
 10
377.326
 20
506.253
 11
377.475
 21
506.31
  0
LINE
  8
0
 10
377.475
 20
506.31
 11
377.627
 21
506.36
  0
LINE
  8
0
 10
377.627
 20
506.36
 11
377.78
 21
506.403
  0
LINE
  8
0
 10
377.78
 20
506.403
 11
377.936
 21
506.438
  0
LINE
  8
0
 10
377.936
 20
506.438
 11
378.093
 21
506.465
  0
LINE
  8
0
 10
378.093
 20
506.465
 11
378.251
 21
506.484
  0
LINE
  8
0
 10
378.251
 20
506.484
 11
378.411
 21
506.496
  0
LINE
  8
0
 10
378.411
 20
506.496
 11
378.729
 21
506.504
  0
LINE
  8
0
 10
378.729
 20
506.504
 11
378.889
 21
506.516
  0
LINE
  8
0
 10
378.889
 20
506.516
 11
379.047
 21
506.535
  0
LINE
  8
0
 10
379.047
 20
506.535
 11
379.204
 21
506.562
  0
LINE
  8
0
 10
379.204
 20
506.562
 11
379.36
 21
506.597
  0
LINE
  8
0
 10
379.36
 20
506.597
 11
379.513
 21
506.64
  0
LINE
  8
0
 10
379.513
 20
506.64
 11
379.665
 21
506.69
  0
LINE
  8
0
 10
379.665
 20
506.69
 11
379.814
 21
506.747
  0
LINE
  8
0
 10
379.814
 20
506.747
 11
379.96
 21
506.812
  0
LINE
  8
0
 10
379.96
 20
506.812
 11
380.102
 21
506.884
  0
LINE
  8
0
 10
380.102
 20
506.884
 11
380.241
 21
506.962
  0
LINE
  8
0
 10
380.241
 20
506.962
 11
380.376
 21
507.048
  0
LINE
  8
0
 10
380.376
 20
507.048
 11
380.506
 21
507.14
  0
LINE
  8
0
 10
380.506
 20
507.14
 11
380.632
 21
507.238
  0
LINE
  8
0
 10
380.632
 20
507.238
 11
380.753
 21
507.342
  0
LINE
  8
0
 10
380.753
 20
507.342
 11
380.868
 21
507.452
  0
LINE
  8
0
 10
380.868
 20
507.452
 11
380.978
 21
507.567
  0
LINE
  8
0
 10
380.978
 20
507.567
 11
381.082
 21
507.688
  0
LINE
  8
0
 10
381.082
 20
507.688
 11
381.18
 21
507.814
  0
LINE
  8
0
 10
381.18
 20
507.814
 11
381.272
 21
507.944
  0
LINE
  8
0
 10
381.272
 20
507.944
 11
381.358
 21
508.079
  0
LINE
  8
0
 10
381.358
 20
508.079
 11
381.436
 21
508.218
  0
LINE
  8
0
 10
381.436
 20
508.218
 11
381.508
 21
508.36
  0
LINE
  8
0
 10
381.508
 20
508.36
 11
381.573
 21
508.506
  0
LINE
  8
0
 10
381.573
 20
508.506
 11
381.63
 21
508.655
  0
LINE
  8
0
 10
381.63
 20
508.655
 11
381.68
 21
508.807
  0
LINE
  8
0
 10
381.68
 20
508.807
 11
381.723
 21
508.96
  0
LINE
  8
0
 10
381.723
 20
508.96
 11
381.758
 21
509.116
  0
LINE
  8
0
 10
381.758
 20
509.116
 11
381.785
 21
509.273
  0
LINE
  8
0
 10
381.785
 20
509.273
 11
381.804
 21
509.431
  0
LINE
  8
0
 10
381.804
 20
509.431
 11
381.816
 21
509.591
  0
LINE
  8
0
 10
381.816
 20
509.591
 11
381.82
 21
509.75
  0
LINE
  8
0
 10
381.82
 20
509.75
 11
381.82
 21
582
  0
LINE
  8
0
 10
381.82
 20
582
 11
276.417
 21
582
  0
LINE
  8
0
 10
276.417
 20
582
 11
276.257
 21
581.996
  0
LINE
  8
0
 10
276.257
 20
581.996
 11
276.098
 21
581.984
  0
LINE
  8
0
 10
276.098
 20
581.984
 11
275.94
 21
581.965
  0
LINE
  8
0
 10
275.94
 20
581.965
 11
275.783
 21
581.938
  0
LINE
  8
0
 10
275.783
 20
581.938
 11
275.627
 21
581.903
  0
LINE
  8
0
 10
275.627
 20
581.903
 11
275.473
 21
581.86
  0
LINE
  8
0
 10
275.473
 20
581.86
 11
275.322
 21
581.81
  0
LINE
  8
0
 10
275.322
 20
581.81
 11
275.173
 21
581.753
  0
LINE
  8
0
 10
275.173
 20
581.753
 11
275.027
 21
581.688
  0
LINE
  8
0
 10
275.027
 20
581.688
 11
274.885
 21
581.616
  0
LINE
  8
0
 10
274.885
 20
581.616
 11
274.746
 21
581.538
  0
LINE
  8
0
 10
274.746
 20
581.538
 11
274.611
 21
581.452
  0
LINE
  8
0
 10
274.611
 20
581.452
 11
274.481
 21
581.36
  0
LINE
  8
0
 10
274.481
 20
581.36
 11
274.355
 21
581.262
  0
LINE
  8
0
 10
274.355
 20
581.262
 11
274.234
 21
581.158
  0
LINE
  8
0
 10
274.234
 20
581.158
 11
274.119
 21
581.048
  0
LINE
  8
0
 10
274.119
 20
581.048
 11
274.009
 21
580.933
  0
LINE
  8
0
 10
274.009
 20
580.933
 11
273.904
 21
580.812
  0
LINE
  8
0
 10
273.904
 20
580.812
 11
273.806
 21
580.686
  0
LINE
  8
0
 10
273.806
 20
580.686
 11
273.714
 21
580.556
  0
LINE
  8
0
 10
273.714
 20
580.556
 11
273.629
 21
580.421
  0
LINE
  8
0
 10
273.629
 20
580.421
 11
273.55
 21
580.282
  0
LINE
  8
0
 10
273.55
 20
580.282
 11
273.479
 21
580.14
  0
LINE
  8
0
 10
273.479
 20
580.14
 11
273.414
 21
579.994
  0
LINE
  8
0
 10
273.414
 20
579.994
 11
273.357
 21
579.845
  0
LINE
  8
0
 10
273.357
 20
579.845
 11
273.307
 21
579.693
  0
LINE
  8
0
 10
273.307
 20
579.693
 11
273.264
 21
579.54
  0
LINE
  8
0
 10
273.264
 20
579.54
 11
273.229
 21
579.384
  0
LINE
  8
0
 10
273.229
 20
579.384
 11
273.202
 21
579.227
  0
LINE
  8
0
 10
273.202
 20
579.227
 11
273.182
 21
579.069
  0
LINE
  8
0
 10
273.182
 20
579.069
 11
273.171
 21
578.909
  0
LINE
  8
0
 10
273.171
 20
578.909
 11
273.163
 21
578.591
  0
LINE
  8
0
 10
273.163
 20
578.591
 11
273.151
 21
578.431
  0
LINE
  8
0
 10
273.151
 20
578.431
 11
273.131
 21
578.273
  0
LINE
  8
0
 10
273.131
 20
578.273
 11
273.104
 21
578.116
  0
LINE
  8
0
 10
273.104
 20
578.116
 11
273.069
 21
577.96
  0
LINE
  8
0
 10
273.069
 20
577.96
 11
273.027
 21
577.807
  0
LINE
  8
0
 10
273.027
 20
577.807
 11
272.977
 21
577.655
  0
LINE
  8
0
 10
272.977
 20
577.655
 11
272.919
 21
577.506
  0
LINE
  8
0
 10
272.919
 20
577.506
 11
272.855
 21
577.36
  0
LINE
  8
0
 10
272.855
 20
577.36
 11
272.783
 21
577.218
  0
LINE
  8
0
 10
272.783
 20
577.218
 11
272.704
 21
577.079
  0
LINE
  8
0
 10
272.704
 20
577.079
 11
272.619
 21
576.944
  0
LINE
  8
0
 10
272.619
 20
576.944
 11
272.527
 21
576.814
  0
LINE
  8
0
 10
272.527
 20
576.814
 11
272.429
 21
576.688
  0
LINE
  8
0
 10
272.429
 20
576.688
 11
272.325
 21
576.567
  0
LINE
  8
0
 10
272.325
 20
576.567
 11
272.215
 21
576.452
  0
LINE
  8
0
 10
272.215
 20
576.452
 11
272.099
 21
576.342
  0
LINE
  8
0
 10
272.099
 20
576.342
 11
271.978
 21
576.238
  0
LINE
  8
0
 10
271.978
 20
576.238
 11
271.853
 21
576.14
  0
LINE
  8
0
 10
271.853
 20
576.14
 11
271.722
 21
576.048
  0
LINE
  8
0
 10
271.722
 20
576.048
 11
271.587
 21
575.962
  0
LINE
  8
0
 10
271.587
 20
575.962
 11
271.449
 21
575.884
  0
LINE
  8
0
 10
271.449
 20
575.884
 11
271.306
 21
575.812
  0
LINE
  8
0
 10
271.306
 20
575.812
 11
271.16
 21
575.747
  0
LINE
  8
0
 10
271.16
 20
575.747
 11
271.012
 21
575.69
  0
LINE
  8
0
 10
271.012
 20
575.69
 11
270.86
 21
575.64
  0
LINE
  8
0
 10
270.86
 20
575.64
 11
270.706
 21
575.597
  0
LINE
  8
0
 10
270.706
 20
575.597
 11
270.551
 21
575.562
  0
LINE
  8
0
 10
270.551
 20
575.562
 11
270.394
 21
575.535
  0
LINE
  8
0
 10
270.394
 20
575.535
 11
270.235
 21
575.516
  0
LINE
  8
0
 10
270.235
 20
575.516
 11
270.076
 21
575.504
  0
LINE
  8
0
 10
270.076
 20
575.504
 11
269.917
 21
575.5
  0
LINE
  8
0
 10
269.917
 20
575.5
 11
269.757
 21
575.504
  0
LINE
  8
0
 10
269.757
 20
575.504
 11
269.598
 21
575.516
  0
LINE
  8
0
 10
269.598
 20
575.516
 11
269.44
 21
575.535
  0
LINE
  8
0
 10
269.44
 20
575.535
 11
269.283
 21
575.562
  0
LINE
  8
0
 10
269.283
 20
575.562
 11
269.127
 21
575.597
  0
LINE
  8
0
 10
269.127
 20
575.597
 11
268.973
 21
575.64
  0
LINE
  8
0
 10
268.973
 20
575.64
 11
268.822
 21
575.69
  0
LINE
  8
0
 10
268.822
 20
575.69
 11
268.673
 21
575.747
  0
LINE
  8
0
 10
268.673
 20
575.747
 11
268.527
 21
575.812
  0
LINE
  8
0
 10
268.527
 20
575.812
 11
268.385
 21
575.884
  0
LINE
  8
0
 10
268.385
 20
575.884
 11
268.246
 21
575.962
  0
LINE
  8
0
 10
268.246
 20
575.962
 11
268.111
 21
576.048
  0
LINE
  8
0
 10
268.111
 20
576.048
 11
267.981
 21
576.14
  0
LINE
  8
0
 10
267.981
 20
576.14
 11
267.855
 21
576.238
  0
LINE
  8
0
 10
267.855
 20
576.238
 11
267.734
 21
576.342
  0
LINE
  8
0
 10
267.734
 20
576.342
 11
267.619
 21
576.452
  0
LINE
  8
0
 10
267.619
 20
576.452
 11
267.509
 21
576.567
  0
LINE
  8
0
 10
267.509
 20
576.567
 11
267.404
 21
576.688
  0
LINE
  8
0
 10
267.404
 20
576.688
 11
267.306
 21
576.814
  0
LINE
  8
0
 10
267.306
 20
576.814
 11
267.214
 21
576.944
  0
LINE
  8
0
 10
267.214
 20
576.944
 11
267.129
 21
577.079
  0
LINE
  8
0
 10
267.129
 20
577.079
 11
267.05
 21
577.218
  0
LINE
  8
0
 10
267.05
 20
577.218
 11
266.979
 21
577.36
  0
LINE
  8
0
 10
266.979
 20
577.36
 11
266.914
 21
577.506
  0
LINE
  8
0
 10
266.914
 20
577.506
 11
266.857
 21
577.655
  0
LINE
  8
0
 10
266.857
 20
577.655
 11
266.807
 21
577.807
  0
LINE
  8
0
 10
266.807
 20
577.807
 11
266.764
 21
577.96
  0
LINE
  8
0
 10
266.764
 20
577.96
 11
266.729
 21
578.116
  0
LINE
  8
0
 10
266.729
 20
578.116
 11
266.702
 21
578.273
  0
LINE
  8
0
 10
266.702
 20
578.273
 11
266.682
 21
578.431
  0
LINE
  8
0
 10
266.682
 20
578.431
 11
266.671
 21
578.591
  0
LINE
  8
0
 10
266.671
 20
578.591
 11
266.667
 21
578.75
  0
LINE
  8
0
 10
266.667
 20
578.75
 11
266.667
 21
600
  0
LINE
  8
0
 10
266.667
 20
600
 11
133.333
 21
600
  0
LINE
  8
0
 10
133.333
 20
600
 11
133.333
 21
578.75
  0
LINE
  8
0
 10
133.333
 20
578.75
 11
133.329
 21
578.591
  0
LINE
  8
0
 10
133.329
 20
578.591
 11
133.318
 21
578.431
  0
LINE
  8
0
 10
133.318
 20
578.431
 11
133.298
 21
578.273
  0
LINE
  8
0
 10
133.298
 20
578.273
 11
133.271
 21
578.116
  0
LINE
  8
0
 10
133.271
 20
578.116
 11
133.236
 21
577.96
  0
LINE
  8
0
 10
133.236
 20
577.96
 11
133.193
 21
577.807
  0
LINE
  8
0
 10
133.193
 20
577.807
 11
133.143
 21
577.655
  0
LINE
  8
0
 10
133.143
 20
577.655
 11
133.086
 21
577.506
  0
LINE
  8
0
 10
133.086
 20
577.506
 11
133.021
 21
577.36
  0
LINE
  8
0
 10
133.021
 20
577.36
 11
132.95
 21
577.218
  0
LINE
  8
0
 10
132.95
 20
577.218
 11
132.871
 21
577.079
  0
LINE
  8
0
 10
132.871
 20
577.079
 11
132.786
 21
576.944
  0
LINE
  8
0
 10
132.786
 20
576.944
 11
132.694
 21
576.814
  0
LINE
  8
0
 10
132.694
 20
576.814
 11
132.596
 21
576.688
  0
LINE
  8
0
 10
132.596
 20
576.688
 11
132.491
 21
576.567
  0
LINE
  8
0
 10
132.491
 20
576.567
 11
132.381
 21
576.452
  0
LINE
  8
0
 10
132.381
 20
576.452
 11
132.266
 21
576.342
  0
LINE
  8
0
 10
132.266
 20
576.342
 11
132.145
 21
576.238
  0
LINE
  8
0
 10
132.145
 20
576.238
 11
132.019
 21
576.14
  0
LINE
  8
0
 10
132.019
 20
576.14
 11
131.889
 21
576.048
  0
LINE
  8
0
 10
131.889
 20
576.048
 11
131.754
 21
575.962
  0
LINE
  8
0
 10
131.754
 20
575.962
 11
131.615
 21
575.884
  0
LINE
  8
0
 10
131.615
 20
575.884
 11
131.473
 21
575.812
  0
LINE
  8
0
 10
131.473
 20
575.812
 11
131.327
 21
575.747
  0
LINE
  8
0
 10
131.327
 20
575.747
 11
131.178
 21
575.69
  0
LINE
  8
0
 10
131.178
 20
575.69
 11
131.027
 21
575.64
  0
LINE
  8
0
 10
131.027
 20
575.64
 11
130.873
 21
575.597
  0
LINE
  8
0
 10
130.873
 20
575.597
 11
130.717
 21
575.562
  0
LINE
  8
0
 10
130.717
 20
575.562
 11
130.56
 21
575.535
  0
LINE
  8
0
 10
130.56
 20
575.535
 11
130.402
 21
575.516
  0
LINE
  8
0
 10
130.402
 20
575.516
 11
130.243
 21
575.504
  0
LINE
  8
0
 10
130.243
 20
575.504
 11
130.083
 21
575.5
  0
LINE
  8
0
 10
130.083
 20
575.5
 11
129.924
 21
575.504
  0
LINE
  8
0
 10
129.924
 20
575.504
 11
129.765
 21
575.516
  0
LINE
  8
0
 10
129.765
 20
575.516
 11
129.606
 21
575.535
  0
LINE
  8
0
 10
129.606
 20
575.535
 11
129.449
 21
575.562
  0
LINE
  8
0
 10
129.449
 20
575.562
 11
129.294
 21
575.597
  0
LINE
  8
0
 10
129.294
 20
575.597
 11
129.14
 21
575.64
  0
LINE
  8
0
 10
129.14
 20
575.64
 11
128.988
 21
575.69
  0
LINE
  8
0
 10
128.988
 20
575.69
 11
128.84
 21
575.747
  0
LINE
  8
0
 10
128.84
 20
575.747
 11
128.694
 21
575.812
  0
LINE
  8
0
 10
128.694
 20
575.812
 11
128.551
 21
575.884
  0
LINE
  8
0
 10
128.551
 20
575.884
 11
128.412
 21
575.962
  0
LINE
  8
0
 10
128.412
 20
575.962
 11
128.278
 21
576.048
  0
LINE
  8
0
 10
128.278
 20
576.048
 11
128.147
 21
576.14
  0
LINE
  8
0
 10
128.147
 20
576.14
 11
128.022
 21
576.238
  0
LINE
  8
0
 10
128.022
 20
576.238
 11
127.901
 21
576.342
  0
LINE
  8
0
 10
127.901
 20
576.342
 11
127.785
 21
576.452
  0
LINE
  8
0
 10
127.785
 20
576.452
 11
127.675
 21
576.567
  0
LINE
  8
0
 10
127.675
 20
576.567
 11
127.571
 21
576.688
  0
LINE
  8
0
 10
127.571
 20
576.688
 11
127.473
 21
576.814
  0
LINE
  8
0
 10
127.473
 20
576.814
 11
127.381
 21
576.944
  0
LINE
  8
0
 10
127.381
 20
576.944
 11
127.296
 21
577.079
  0
LINE
  8
0
 10
127.296
 20
577.079
 11
127.217
 21
577.218
  0
LINE
  8
0
 10
127.217
 20
577.218
 11
127.145
 21
577.36
  0
LINE
  8
0
 10
127.145
 20
577.36
 11
127.081
 21
577.506
  0
LINE
  8
0
 10
127.081
 20
577.506
 11
127.023
 21
577.655
  0
LINE
  8
0
 10
127.023
 20
577.655
 11
126.973
 21
577.807
  0
LINE
  8
0
 10
126.973
 20
577.807
 11
126.931
 21
577.96
  0
LINE
  8
0
 10
126.931
 20
577.96
 11
126.896
 21
578.116
  0
LINE
  8
0
 10
126.896
 20
578.116
 11
126.868
 21
578.273
  0
LINE
  8
0
 10
126.868
 20
578.273
 11
126.849
 21
578.431
  0
LINE
  8
0
 10
126.849
 20
578.431
 11
126.837
 21
578.591
  0
LINE
  8
0
 10
126.837
 20
578.591
 11
126.829
 21
578.909
  0
LINE
  8
0
 10
126.829
 20
578.909
 11
126.818
 21
579.069
  0
LINE
  8
0
 10
126.818
 20
579.069
 11
126.798
 21
579.227
  0
LINE
  8
0
 10
126.798
 20
579.227
 11
126.771
 21
579.384
  0
LINE
  8
0
 10
126.771
 20
579.384
 11
126.736
 21
579.54
  0
LINE
  8
0
 10
126.736
 20
579.54
 11
126.693
 21
579.693
  0
LINE
  8
0
 10
126.693
 20
579.693
 11
126.643
 21
579.845
  0
LINE
  8
0
 10
126.643
 20
579.845
 11
126.586
 21
579.994
  0
LINE
  8
0
 10
126.586
 20
579.994
 11
126.521
 21
580.14
  0
LINE
  8
0
 10
126.521
 20
580.14
 11
126.45
 21
580.282
  0
LINE
  8
0
 10
126.45
 20
580.282
 11
126.371
 21
580.421
  0
LINE
  8
0
 10
126.371
 20
580.421
 11
126.286
 21
580.556
  0
LINE
  8
0
 10
126.286
 20
580.556
 11
126.194
 21
580.686
  0
LINE
  8
0
 10
126.194
 20
580.686
 11
126.096
 21
580.812
  0
LINE
  8
0
 10
126.096
 20
580.812
 11
125.991
 21
580.933
  0
LINE
  8
0
 10
125.991
 20
580.933
 11
125.881
 21
581.048
  0
LINE
  8
0
 10
125.881
 20
581.048
 11
125.766
 21
581.158
  0
LINE
  8
0
 10
125.766
 20
581.158
 11
125.645
 21
581.262
  0
LINE
  8
0
 10
125.645
 20
581.262
 11
125.519
 21
581.36
  0
LINE
  8
0
 10
125.519
 20
581.36
 11
125.389
 21
581.452
  0
LINE
  8
0
 10
125.389
 20
581.452
 11
125.254
 21
581.538
  0
LINE
  8
0
 10
125.254
 20
581.538
 11
125.115
 21
581.616
  0
LINE
  8
0
 10
125.115
 20
581.616
 11
124.973
 21
581.688
  0
LINE
  8
0
 10
124.973
 20
581.688
 11
124.827
 21
581.753
  0
LINE
  8
0
 10
124.827
 20
581.753
 11
124.678
 21
581.81
  0
LINE
  8
0
 10
124.678
 20
581.81
 11
124.527
 21
581.86
  0
LINE
  8
0
 10
124.527
 20
581.86
 11
124.373
 21
581.903
  0
LINE
  8
0
 10
124.373
 20
581.903
 11
124.217
 21
581.938
  0
LINE
  8
0
 10
124.217
 20
581.938
 11
124.06
 21
581.965
  0
LINE
  8
0
 10
124.06
 20
581.965
 11
123.902
 21
581.984
  0
LINE
  8
0
 10
123.902
 20
581.984
 11
123.743
 21
581.996
  0
LINE
  8
0
 10
123.743
 20
581.996
 11
123.583
 21
582
  0
LINE
  8
0
 10
123.583
 20
582
 11
18.18
 21
582
  0
LINE
  8
0
 10
18.18
 20
582
 11
18.18
 21
509.75
  0
LINE
  8
0
 10
18.18
 20
509.75
 11
18.1839
 21
509.591
  0
LINE
  8
0
 10
18.1839
 20
509.591
 11
18.1956
 21
509.431
  0
LINE
  8
0
 10
18.1956
 20
509.431
 11
18.2152
 21
509.273
  0
LINE
  8
0
 10
18.2152
 20
509.273
 11
18.2424
 21
509.116
  0
LINE
  8
0
 10
18.2424
 20
509.116
 11
18.2774
 21
508.96
  0
LINE
  8
0
 10
18.2774
 20
508.96
 11
18.3199
 21
508.807
  0
LINE
  8
0
 10
18.3199
 20
508.807
 11
18.37
 21
508.655
  0
LINE
  8
0
 10
18.37
 20
508.655
 11
18.4274
 21
508.506
  0
LINE
  8
0
 10
18.4274
 20
508.506
 11
18.492
 21
508.36
  0
LINE
  8
0
 10
18.492
 20
508.36
 11
18.5638
 21
508.218
  0
LINE
  8
0
 10
18.5638
 20
508.218
 11
18.6424
 21
508.079
  0
LINE
  8
0
 10
18.6424
 20
508.079
 11
18.7277
 21
507.944
  0
LINE
  8
0
 10
18.7277
 20
507.944
 11
18.8196
 21
507.814
  0
LINE
  8
0
 10
18.8196
 20
507.814
 11
18.9177
 21
507.688
  0
LINE
  8
0
 10
18.9177
 20
507.688
 11
19.0219
 21
507.567
  0
LINE
  8
0
 10
19.0219
 20
507.567
 11
19.1319
 21
507.452
  0
LINE
  8
0
 10
19.1319
 20
507.452
 11
19.2474
 21
507.342
  0
LINE
  8
0
 10
19.2474
 20
507.342
 11
19.3682
 21
507.238
  0
LINE
  8
0
 10
19.3682
 20
507.238
 11
19.494
 21
507.14
  0
LINE
  8
0
 10
19.494
 20
507.14
 11
19.6244
 21
507.048
  0
LINE
  8
0
 10
19.6244
 20
507.048
 11
19.7592
 21
506.962
  0
LINE
  8
0
 10
19.7592
 20
506.962
 11
19.8979
 21
506.884
  0
LINE
  8
0
 10
19.8979
 20
506.884
 11
20.0404
 21
506.812
  0
LINE
  8
0
 10
20.0404
 20
506.812
 11
20.1863
 21
506.747
  0
LINE
  8
0
 10
20.1863
 20
506.747
 11
20.3351
 21
506.69
  0
LINE
  8
0
 10
20.3351
 20
506.69
 11
20.4866
 21
506.64
  0
LINE
  8
0
 10
20.4866
 20
506.64
 11
20.6403
 21
506.597
  0
LINE
  8
0
 10
20.6403
 20
506.597
 11
20.7959
 21
506.562
  0
LINE
  8
0
 10
20.7959
 20
506.562
 11
20.9531
 21
506.535
  0
LINE
  8
0
 10
20.9531
 20
506.535
 11
21.1114
 21
506.516
  0
LINE
  8
0
 10
21.1114
 20
506.516
 11
21.2705
 21
506.504
  0
LINE
  8
0
 10
21.2705
 20
506.504
 11
21.5895
 21
506.496
  0
LINE
  8
0
 10
21.5895
 20
506.496
 11
21.7486
 21
506.484
  0
LINE
  8
0
 10
21.7486
 20
506.484
 11
21.9069
 21
506.465
  0
LINE
  8
0
 10
21.9069
 20
506.465
 11
22.064
 21
506.438
  0
LINE
  8
0
 10
22.064
 20
506.438
 11
22.2197
 21
506.403
  0
LINE
  8
0
 10
22.2197
 20
506.403
 11
22.3734
 21
506.36
  0
LINE
  8
0
 10
22.3734
 20
506.36
 11
22.5249
 21
506.31
  0
LINE
  8
0
 10
22.5249
 20
506.31
 11
22.6737
 21
506.253
  0
LINE
  8
0
 10
22.6737
 20
506.253
 11
22.8195
 21
506.188
  0
LINE
  8
0
 10
22.8195
 20
506.188
 11
22.962
 21
506.116
  0
LINE
  8
0
 10
22.962
 20
506.116
 11
23.1008
 21
506.038
  0
LINE
  8
0
 10
23.1008
 20
506.038
 11
23.2356
 21
505.952
  0
LINE
  8
0
 10
23.2356
 20
505.952
 11
23.366
 21
505.86
  0
LINE
  8
0
 10
23.366
 20
505.86
 11
23.4918
 21
505.762
  0
LINE
  8
0
 10
23.4918
 20
505.762
 11
23.6126
 21
505.658
  0
LINE
  8
0
 10
23.6126
 20
505.658
 11
23.7281
 21
505.548
  0
LINE
  8
0
 10
23.7281
 20
505.548
 11
23.8381
 21
505.433
  0
LINE
  8
0
 10
23.8381
 20
505.433
 11
23.9423
 21
505.312
  0
LINE
  8
0
 10
23.9423
 20
505.312
 11
24.0404
 21
505.186
  0
LINE
  8
0
 10
24.0404
 20
505.186
 11
24.1323
 21
505.056
  0
LINE
  8
0
 10
24.1323
 20
505.056
 11
24.2176
 21
504.921
  0
LINE
  8
0
 10
24.2176
 20
504.921
 11
24.2962
 21
504.782
  0
LINE
  8
0
 10
24.2962
 20
504.782
 11
24.368
 21
504.64
  0
LINE
  8
0
 10
24.368
 20
504.64
 11
24.4326
 21
504.494
  0
LINE
  8
0
 10
24.4326
 20
504.494
 11
24.49
 21
504.345
  0
LINE
  8
0
 10
24.49
 20
504.345
 11
24.5401
 21
504.193
  0
LINE
  8
0
 10
24.5401
 20
504.193
 11
24.5826
 21
504.04
  0
LINE
  8
0
 10
24.5826
 20
504.04
 11
24.6175
 21
503.884
  0
LINE
  8
0
 10
24.6175
 20
503.884
 11
24.6448
 21
503.727
  0
LINE
  8
0
 10
24.6448
 20
503.727
 11
24.6643
 21
503.569
  0
LINE
  8
0
 10
24.6643
 20
503.569
 11
24.6761
 21
503.409
  0
LINE
  8
0
 10
24.6761
 20
503.409
 11
24.68
 21
503.25
  0
LINE
  8
0
 10
24.68
 20
503.25
 11
24.6761
 21
503.091
  0
LINE
  8
0
 10
24.6761
 20
503.091
 11
24.6643
 21
502.931
  0
LINE
  8
0
 10
24.6643
 20
502.931
 11
24.6448
 21
502.773
  0
LINE
  8
0
 10
24.6448
 20
502.773
 11
24.6175
 21
502.616
  0
LINE
  8
0
 10
24.6175
 20
502.616
 11
24.5826
 21
502.46
  0
LINE
  8
0
 10
24.5826
 20
502.46
 11
24.5401
 21
502.307
  0
LINE
  8
0
 10
24.5401
 20
502.307
 11
24.49
 21
502.155
  0
LINE
  8
0
 10
24.49
 20
502.155
 11
24.4326
 21
502.006
  0
LINE
  8
0
 10
24.4326
 20
502.006
 11
24.368
 21
501.86
  0
LINE
  8
0
 10
24.368
 20
501.86
 11
24.2962
 21
501.718
  0
LINE
  8
0
 10
24.2962
 20
501.718
 11
24.2176
 21
501.579
  0
LINE
  8
0
 10
24.2176
 20
501.579
 11
24.1323
 21
501.444
  0
LINE
  8
0
 10
24.1323
 20
501.444
 11
24.0404
 21
501.314
  0
LINE
  8
0
 10
24.0404
 20
501.314
 11
23.9423
 21
501.188
  0
LINE
  8
0
 10
23.9423
 20
501.188
 11
23.8381
 21
501.067
  0
LINE
  8
0
 10
23.8381
 20
501.067
 11
23.7281
 21
500.952
  0
LINE
  8
0
 10
23.7281
 20
500.952
 11
23.6126
 21
500.842
  0
LINE
  8
0
 10
23.6126
 20
500.842
 11
23.4918
 21
500.738
  0
LINE
  8
0
 10
23.4918
 20
500.738
 11
23.366
 21
500.64
  0
LINE
  8
0
 10
23.366
 20
500.64
 11
23.2356
 21
500.548
  0
LINE
  8
0
 10
23.2356
 20
500.548
 11
23.1008
 21
500.462
  0
LINE
  8
0
 10
23.1008
 20
500.462
 11
22.962
 21
500.384
  0
LINE
  8
0
 10
22.962
 20
500.384
 11
22.8195
 21
500.312
  0
LINE
  8
0
 10
22.8195
 20
500.312
 11
22.6737
 21
500.247
  0
LINE
  8
0
 10
22.6737
 20
500.247
 11
22.5249
 21
500.19
  0
LINE
  8
0
 10
22.5249
 20
500.19
 11
22.3734
 21
500.14
  0
LINE
  8
0
 10
22.3734
 20
500.14
 11
22.2197
 21
500.097
  0
LINE
  8
0
 10
22.2197
 20
500.097
 11
22.064
 21
500.062
  0
LINE
  8
0
 10
22.064
 20
500.062
 11
21.9069
 21
500.035
  0
LINE
  8
0
 10
21.9069
 20
500.035
 11
21.7486
 21
500.016
  0
LINE
  8
0
 10
21.7486
 20
500.016
 11
21.5895
 21
500.004
  0
LINE
  8
0
 10
21.5895
 20
500.004
 11
21.43
 21
500
  0
LINE
  8
0
 10
21.43
 20
500
 11
0
 21
500
  0
LINE
  8
0
 10
0
 20
500
 11
0
 21
200
  0
LINE
  8
0
 10
0
 20
200
 11
21.43
 21
200
  0
LINE
  8
0
 10
21.43
 20
200
 11
21.5895
 21
199.996
  0
LINE
  8
0
 10
21.5895
 20
199.996
 11
21.7486
 21
199.984
  0
LINE
  8
0
 10
21.7486
 20
199.984
 11
21.9069
 21
199.965
  0
LINE
  8
0
 10
21.9069
 20
199.965
 11
22.064
 21
199.938
  0
LINE
  8
0
 10
22.064
 20
199.938
 11
22.2197
 21
199.903
  0
LINE
  8
0
 10
22.2197
 20
199.903
 11
22.3734
 21
199.86
  0
LINE
  8
0
 10
22.3734
 20
199.86
 11
22.5249
 21
199.81
  0
LINE
  8
0
 10
22.5249
 20
199.81
 11
22.6737
 21
199.753
  0
LINE
  8
0
 10
22.6737
 20
199.753
 11
22.8195
 21
199.688
  0
LINE
  8
0
 10
22.8195
 20
199.688
 11
22.962
 21
199.616
  0
LINE
  8
0
 10
22.962
 20
199.616
 11
23.1008
 21
199.538
  0
LINE
  8
0
 10
23.1008
 20
199.538
 11
23.2356
 21
199.452
  0
LINE
  8
0
 10
23.2356
 20
199.452
 11
23.366
 21
199.36
  0
LINE
  8
0
 10
23.366
 20
199.36
 11
23.4918
 21
199.262
  0
LINE
  8
0
 10
23.4918
 20
199.262
 11
23.6126
 21
199.158
  0
LINE
  8
0
 10
23.6126
 20
199.158
 11
23.7281
 21
199.048
  0
LINE
  8
0
 10
23.7281
 20
199.048
 11
23.8381
 21
198.933
  0
LINE
  8
0
 10
23.8381
 20
198.933
 11
23.9423
 21
198.812
  0
LINE
  8
0
 10
23.9423
 20
198.812
 11
24.0404
 21
198.686
  0
LINE
  8
0
 10
24.0404
 20
198.686
 11
24.1323
 21
198.556
  0
LINE
  8
0
 10
24.1323
 20
198.556
 11
24.2176
 21
198.421
  0
LINE
  8
0
 10
24.2176
 20
198.421
 11
24.2962
 21
198.282
  0
LINE
  8
0
 10
24.2962
 20
198.282
 11
24.368
 21
198.14
  0
LINE
  8
0
 10
24.368
 20
198.14
 11
24.4326
 21
197.994
  0
LINE
  8
0
 10
24.4326
 20
197.994
 11
24.49
 21
197.845
  0
LINE
  8
0
 10
24.49
 20
197.845
 11
24.5401
 21
197.693
  0
LINE
  8
0
 10
24.5401
 20
197.693
 11
24.5826
 21
197.54
  0
LINE
  8
0
 10
24.5826
 20
197.54
 11
24.6175
 21
197.384
  0
LINE
  8
0
 10
24.6175
 20
197.384
 11
24.6448
 21
197.227
  0
LINE
  8
0
 10
24.6448
 20
197.227
 11
24.6643
 21
197.069
  0
LINE
  8
0
 10
24.6643
 20
197.069
 11
24.6761
 21
196.909
  0
LINE
  8
0
 10
24.6761
 20
196.909
 11
24.68
 21
196.75
  0
LINE
  8
0
 10
24.68
 20
196.75
 11
24.6761
 21
196.591
  0
LINE
  8
0
 10
24.6761
 20
196.591
 11
24.6643
 21
196.431
  0
LINE
  8
0
 10
24.6643
 20
196.431
 11
24.6448
 21
196.273
  0
LINE
  8
0
 10
24.6448
 20
196.273
 11
24.6175
 21
196.116
  0
LINE
  8
0
 10
24.6175
 20
196.116
 11
24.5826
 21
195.96
  0
LINE
  8
0
 10
24.5826
 20
195.96
 11
24.5401
 21
195.807
  0
LINE
  8
0
 10
24.5401
 20
195.807
 11
24.49
 21
195.655
  0
LINE
  8
0
 10
24.49
 20
195.655
 11
24.4326
 21
195.506
  0
LINE
  8
0
 10
24.4326
 20
195.506
 11
24.368
 21
195.36
  0
LINE
  8
0
 10
24.368
 20
195.36
 11
24.2962
 21
195.218
  0
LINE
  8
0
 10
24.2962
 20
195.218
 11
24.2176
 21
195.079
  0
LINE
  8
0
 10
24.2176
 20
195.079
 11
24.1323
 21
194.944
  0
LINE
  8
0
 10
24.1323
 20
194.944
 11
24.0404
 21
194.814
  0
LINE
  8
0
 10
24.0404
 20
194.814
 11
23.9423
 21
194.688
  0
LINE
  8
0
 10
23.9423
 20
194.688
 11
23.8381
 21
194.567
  0
LINE
  8
0
 10
23.8381
 20
194.567
 11
23.7281
 21
194.452
  0
LINE
  8
0
 10
23.7281
 20
194.452
 11
23.6126
 21
194.342
  0
LINE
  8
0
 10
23.6126
 20
194.342
 11
23.4918
 21
194.238
  0
LINE
  8
0
 10
23.4918
 20
194.238
 11
23.366
 21
194.14
  0
LINE
  8
0
 10
23.366
 20
194.14
 11
23.2356
 21
194.048
  0
LINE
  8
0
 10
23.2356
 20
194.048
 11
23.1008
 21
193.962
  0
LINE
  8
0
 10
23.1008
 20
193.962
 11
22.962
 21
193.884
  0
LINE
  8
0
 10
22.962
 20
193.884
 11
22.8195
 21
193.812
  0
LINE
  8
0
 10
22.8195
 20
193.812
 11
22.6737
 21
193.747
  0
LINE
  8
0
 10
22.6737
 20
193.747
 11
22.5249
 21
193.69
  0
LINE
  8
0
 10
22.5249
 20
193.69
 11
22.3734
 21
193.64
  0
LINE
  8
0
 10
22.3734
 20
193.64
 11
22.2197
 21
193.597
  0
LINE
  8
0
 10
22.2197
 20
193.597
 11
22.064
 21
193.562
  0
LINE
  8
0
 10
22.064
 20
193.562
 11
21.9069
 21
193.535
  0
LINE
  8
0
 10
21.9069
 20
193.535
 11
21.7486
 21
193.516
  0
LINE
  8
0
 10
21.7486
 20
193.516
 11
21.5895
 21
193.504
  0
LINE
  8
0
 10
21.5895
 20
193.504
 11
21.2705
 21
193.496
  0
LINE
  8
0
 10
21.2705
 20
193.496
 11
21.1114
 21
193.484
  0
LINE
  8
0
 10
21.1114
 20
193.484
 11
20.9531
 21
193.465
  0
LINE
  8
0
 10
20.9531
 20
193.465
 11
20.7959
 21
193.438
  0
LINE
  8
0
 10
20.7959
 20
193.438
 11
20.6403
 21
193.403
  0
LINE
  8
0
 10
20.6403
 20
193.403
 11
20.4866
 21
193.36
  0
LINE
  8
0
 10
20.4866
 20
193.36
 11
20.3351
 21
193.31
  0
LINE
  8
0
 10
20.3351
 20
193.31
 11
20.1863
 21
193.253
  0
LINE
  8
0
 10
20.1863
 20
193.253
 11
20.0404
 21
193.188
  0
LINE
  8
0
 10
20.0404
 20
193.188
 11
19.8979
 21
193.116
  0
LINE
  8
0
 10
19.8979
 20
193.116
 11
19.7592
 21
193.038
  0
LINE
  8
0
 10
19.7592
 20
193.038
 11
19.6244
 21
192.952
  0
LINE
  8
0
 10
19.6244
 20
192.952
 11
19.494
 21
192.86
  0
LINE
  8
0
 10
19.494
 20
192.86
 11
19.3682
 21
192.762
  0
LINE
  8
0
 10
19.3682
 20
192.762
 11
19.2474
 21
192.658
  0
LINE
  8
0
 10
19.2474
 20
192.658
 11
19.1319
 21
192.548
  0
LINE
  8
0
 10
19.1319
 20
192.548
 11
19.0219
 21
192.433
  0
LINE
  8
0
 10
19.0219
 20
192.433
 11
18.9177
 21
192.312
  0
LINE
  8
0
 10
18.9177
 20
192.312
 11
18.8196
 21
192.186
  0
LINE
  8
0
 10
18.8196
 20
192.186
 11
18.7277
 21
192.056
  0
LINE
  8
0
 10
18.7277
 20
192.056
 11
18.6424
 21
191.921
  0
LINE
  8
0
 10
18.6424
 20
191.921
 11
18.5638
 21
191.782
  0
LINE
  8
0
 10
18.5638
 20
191.782
 11
18.492
 21
191.64
  0
LINE
  8
0
 10
18.492
 20
191.64
 11
18.4274
 21
191.494
  0
LINE
  8
0
 10
18.4274
 20
191.494
 11
18.37
 21
191.345
  0
LINE
  8
0
 10
18.37
 20
191.345
 11
18.3199
 21
191.193
  0
LINE
  8
0
 10
18.3199
 20
191.193
 11
18.2774
 21
191.04
  0
LINE
  8
0
 10
18.2774
 20
191.04
 11
18.2424
 21
190.884
  0
LINE
  8
0
 10
18.2424
 20
190.884
 11
18.2152
 21
190.727
  0
LINE
  8
0
 10
18.2152
 20
190.727
 11
18.1956
 21
190.569
  0
LINE
  8
0
 10
18.1956
 20
190.569
 11
18.1839
 21
190.409
  0
LINE
  8
0
 10
18.1839
 20
190.409
 11
18.18
 21
190.25
  0
LINE
  8
0
 10
18.18
 20
190.25
 11
18.18
 21
0
  0
LINE
  8
0
 10
18.18
 20
0
 11
35.82
 21
0
  0
LINE
  8
0
 10
35.82
 20
0
 11
35.82
 21
21.25
  0
LINE
  8
0
 10
199.914
 20
589.252
 11
199.828
 21
589.258
  0
LINE
  8
0
 10
199.828
 20
589.258
 11
199.743
 21
589.269
  0
LINE
  8
0
 10
199.743
 20
589.269
 11
199.659
 21
589.284
  0
LINE
  8
0
 10
199.659
 20
589.284
 11
199.575
 21
589.302
  0
LINE
  8
0
 10
199.575
 20
589.302
 11
199.492
 21
589.325
  0
LINE
  8
0
 10
199.492
 20
589.325
 11
199.41
 21
589.352
  0
LINE
  8
0
 10
199.41
 20
589.352
 11
199.33
 21
589.383
  0
LINE
  8
0
 10
199.33
 20
589.383
 11
199.252
 21
589.418
  0
LINE
  8
0
 10
199.252
 20
589.418
 11
199.175
 21
589.457
  0
LINE
  8
0
 10
199.175
 20
589.457
 11
199.1
 21
589.499
  0
LINE
  8
0
 10
199.1
 20
589.499
 11
199.028
 21
589.545
  0
LINE
  8
0
 10
199.028
 20
589.545
 11
198.958
 21
589.594
  0
LINE
  8
0
 10
198.958
 20
589.594
 11
198.89
 21
589.647
  0
LINE
  8
0
 10
198.89
 20
589.647
 11
198.825
 21
589.703
  0
LINE
  8
0
 10
198.825
 20
589.703
 11
198.763
 21
589.763
  0
LINE
  8
0
 10
198.763
 20
589.763
 11
198.703
 21
589.825
  0
LINE
  8
0
 10
198.703
 20
589.825
 11
198.647
 21
589.89
  0
LINE
  8
0
 10
198.647
 20
589.89
 11
198.594
 21
589.958
  0
LINE
  8
0
 10
198.594
 20
589.958
 11
198.545
 21
590.028
  0
LINE
  8
0
 10
198.545
 20
590.028
 11
198.499
 21
590.1
  0
LINE
  8
0
 10
198.499
 20
590.1
 11
198.457
 21
590.175
  0
LINE
  8
0
 10
198.457
 20
590.175
 11
198.418
 21
590.252
  0
LINE
  8
0
 10
198.418
 20
590.252
 11
198.383
 21
590.33
  0
LINE
  8
0
 10
198.383
 20
590.33
 11
198.352
 21
590.41
  0
LINE
  8
0
 10
198.352
 20
590.41
 11
198.325
 21
590.492
  0
LINE
  8
0
 10
198.325
 20
590.492
 11
198.302
 21
590.575
  0
LINE
  8
0
 10
198.302
 20
590.575
 11
198.284
 21
590.659
  0
LINE
  8
0
 10
198.284
 20
590.659
 11
198.269
 21
590.743
  0
LINE
  8
0
 10
198.269
 20
590.743
 11
198.258
 21
590.828
  0
LINE
  8
0
 10
198.258
 20
590.828
 11
198.252
 21
590.914
  0
LINE
  8
0
 10
198.252
 20
590.914
 11
198.25
 21
591
  0
LINE
  8
0
 10
198.25
 20
591
 11
198.252
 21
591.086
  0
LINE
  8
0
 10
198.252
 20
591.086
 11
198.258
 21
591.172
  0
LINE
  8
0
 10
198.258
 20
591.172
 11
198.269
 21
591.257
  0
LINE
  8
0
 10
198.269
 20
591.257
 11
198.284
 21
591.341
  0
LINE
  8
0
 10
198.284
 20
591.341
 11
198.302
 21
591.425
  0
LINE
  8
0
 10
198.302
 20
591.425
 11
198.325
 21
591.508
  0
LINE
  8
0
 10
198.325
 20
591.508
 11
198.352
 21
591.59
  0
LINE
  8
0
 10
198.352
 20
591.59
 11
198.383
 21
591.67
  0
LINE
  8
0
 10
198.383
 20
591.67
 11
198.418
 21
591.748
  0
LINE
  8
0
 10
198.418
 20
591.748
 11
198.457
 21
591.825
  0
LINE
  8
0
 10
198.457
 20
591.825
 11
198.499
 21
591.9
  0
LINE
  8
0
 10
198.499
 20
591.9
 11
198.545
 21
591.972
  0
LINE
  8
0
 10
198.545
 20
591.972
 11
198.594
 21
592.042
  0
LINE
  8
0
 10
198.594
 20
592.042
 11
198.647
 21
592.11
  0
LINE
  8
0
 10
198.647
 20
592.11
 11
198.703
 21
592.175
  0
LINE
  8
0
 10
198.703
 20
592.175
 11
198.763
 21
592.237
  0
LINE
  8
0
 10
198.763
 20
592.237
 11
198.825
 21
592.297
  0
LINE
  8
0
 10
198.825
 20
592.297
 11
198.89
 21
592.353
  0
LINE
  8
0
 10
198.89
 20
592.353
 11
198.958
 21
592.406
  0
LINE
  8
0
 10
198.958
 20
592.406
 11
199.028
 21
592.455
  0
LINE
  8
0
 10
199.028
 20
592.455
 11
199.1
 21
592.501
  0
LINE
  8
0
 10
199.1
 20
592.501
 11
199.175
 21
592.543
  0
LINE
  8
0
 10
199.175
 20
592.543
 11
199.252
 21
592.582
  0
LINE
  8
0
 10
199.252
 20
592.582
 11
199.33
 21
592.617
  0
LINE
  8
0
 10
199.33
 20
592.617
 11
199.41
 21
592.648
  0
LINE
  8
0
 10
199.41
 20
592.648
 11
199.492
 21
592.675
  0
LINE
  8
0
 10
199.492
 20
592.675
 11
199.575
 21
592.698
  0
LINE
  8
0
 10
199.575
 20
592.698
 11
199.659
 21
592.716
  0
LINE
  8
0
 10
199.659
 20
592.716
 11
199.743
 21
592.731
  0
LINE
  8
0
 10
199.743
 20
592.731
 11
199.828
 21
592.742
  0
LINE
  8
0
 10
199.828
 20
592.742
 11
199.914
 21
592.748
  0
LINE
  8
0
 10
199.914
 20
592.748
 11
200
 21
592.75
  0
LINE
  8
0
 10
200
 20
592.75
 11
200.086
 21
592.748
  0
LINE
  8
0
 10
200.086
 20
592.748
 11
200.172
 21
592.742
  0
LINE
  8
0
 10
200.172
 20
592.742
 11
200.257
 21
592.731
  0
LINE
  8
0
 10
200.257
 20
592.731
 11
200.341
 21
592.716
  0
LINE
  8
0
 10
200.341
 20
592.716
 11
200.425
 21
592.698
  0
LINE
  8
0
 10
200.425
 20
592.698
 11
200.508
 21
592.675
  0
LINE
  8
0
 10
200.508
 20
592.675
 11
200.59
 21
592.648
  0
LINE
  8
0
 10
200.59
 20
592.648
 11
200.67
 21
592.617
  0
LINE
  8
0
 10
200.67
 20
592.617
 11
200.748
 21
592.582
  0
LINE
  8
0
 10
200.748
 20
592.582
 11
200.825
 21
592.543
  0
LINE
  8
0
 10
200.825
 20
592.543
 11
200.9
 21
592.501
  0
LINE
  8
0
 10
200.9
 20
592.501
 11
200.972
 21
592.455
  0
LINE
  8
0
 10
200.972
 20
592.455
 11
201.042
 21
592.406
  0
LINE
  8
0
 10
201.042
 20
592.406
 11
201.11
 21
592.353
  0
LINE
  8
0
 10
201.11
 20
592.353
 11
201.175
 21
592.297
  0
LINE
  8
0
 10
201.175
 20
592.297
 11
201.237
 21
592.237
  0
LINE
  8
0
 10
201.237
 20
592.237
 11
201.297
 21
592.175
  0
LINE
  8
0
 10
201.297
 20
592.175
 11
201.353
 21
592.11
  0
LINE
  8
0
 10
201.353
 20
592.11
 11
201.406
 21
592.042
  0
LINE
  8
0
 10
201.406
 20
592.042
 11
201.455
 21
591.972
  0
LINE
  8
0
 10
201.455
 20
591.972
 11
201.501
 21
591.9
  0
LINE
  8
0
 10
201.501
 20
591.9
 11
201.543
 21
591.825
  0
LINE
  8
0
 10
201.543
 20
591.825
 11
201.582
 21
591.748
  0
LINE
  8
0
 10
201.582
 20
591.748
 11
201.617
 21
591.67
  0
LINE
  8
0
 10
201.617
 20
591.67
 11
201.648
 21
591.59
  0
LINE
  8
0
 10
201.648
 20
591.59
 11
201.675
 21
591.508
  0
LINE
  8
0
 10
201.675
 20
591.508
 11
201.698
 21
591.425
  0
LINE
  8
0
 10
201.698
 20
591.425
 11
201.716
 21
591.341
  0
LINE
  8
0
 10
201.716
 20
591.341
 11
201.731
 21
591.257
  0
LINE
  8
0
 10
201.731
 20
591.257
 11
201.742
 21
591.172
  0
LINE
  8
0
 10
201.742
 20
591.172
 11
201.748
 21
591.086
  0
LINE
  8
0
 10
201.748
 20
591.086
 11
201.75
 21
591
  0
LINE
  8
0
 10
201.75
 20
591
 11
201.748
 21
590.914
  0
LINE
  8
0
 10
201.748
 20
590.914
 11
201.742
 21
590.828
  0
LINE
  8
0
 10
201.742
 20
590.828
 11
201.731
 21
590.743
  0
LINE
  8
0
 10
201.731
 20
590.743
 11
201.716
 21
590.659
  0
LINE
  8
0
 10
201.716
 20
590.659
 11
201.698
 21
590.575
  0
LINE
  8
0
 10
201.698
 20
590.575
 11
201.675
 21
590.492
  0
LINE
  8
0
 10
201.675
 20
590.492
 11
201.648
 21
590.41
  0
LINE
  8
0
 10
201.648
 20
590.41
 11
201.617
 21
590.33
  0
LINE
  8
0
 10
201.617
 20
590.33
 11
201.582
 21
590.252
  0
LINE
  8
0
 10
201.582
 20
590.252
 11
201.543
 21
590.175
  0
LINE
  8
0
 10
201.543
 20
590.175
 11
201.501
 21
590.1
  0
LINE
  8
0
 10
201.501
 20
590.1
 11
201.455
 21
590.028
  0
LINE
  8
0
 10
201.455
 20
590.028
 11
201.406
 21
589.958
  0
LINE
  8
0
 10
201.406
 20
589.958
 11
201.353
 21
589.89
  0
LINE
  8
0
 10
201.353
 20
589.89
 11
201.297
 21
589.825
  0
LINE
  8
0
 10
201.297
 20
589.825
 11
201.237
 21
589.763
  0
LINE
  8
0
 10
201.237
 20
589.763
 11
201.175
 21
589.703
  0
LINE
  8
0
 10
201.175
 20
589.703
 11
201.11
 21
589.647
  0
LINE
  8
0
 10
201.11
 20
589.647
 11
201.042
 21
589.594
  0
LINE
  8
0
 10
201.042
 20
589.594
 11
200.972
 21
589.545
  0
LINE
  8
0
 10
200.972
 20
589.545
 11
200.9
 21
589.499
  0
LINE
  8
0
 10
200.9
 20
589.499
 11
200.825
 21
589.457
  0
LINE
  8
0
 10
200.825
 20
589.457
 11
200.748
 21
589.418
  0
LINE
  8
0
 10
200.748
 20
589.418
 11
200.67
 21
589.383
  0
LINE
  8
0
 10
200.67
 20
589.383
 11
200.59
 21
589.352
  0
LINE
  8
0
 10
200.59
 20
589.352
 11
200.508
 21
589.325
  0
LINE
  8
0
 10
200.508
 20
589.325
 11
200.425
 21
589.302
  0
LINE
  8
0
 10
200.425
 20
589.302
 11
200.341
 21
589.284
  0
LINE
  8
0
 10
200.341
 20
589.284
 11
200.257
 21
589.269
  0
LINE
  8
0
 10
200.257
 20
589.269
 11
200.172
 21
589.258
  0
LINE
  8
0
 10
200.172
 20
589.258
 11
200.086
 21
589.252
  0
LINE
  8
0
 10
200.086
 20
589.252
 11
200
 21
589.25
  0
LINE
  8
0
 10
200
 20
589.25
 11
199.914
 21
589.252
  0
LINE
  8
0
 10
366.581
 20
389.252
 11
366.495
 21
389.258
  0
LINE
  8
0
 10
366.495
 20
389.258
 11
366.41
 21
389.269
  0
LINE
  8
0
 10
366.41
 20
389.269
 11
366.325
 21
389.284
  0
LINE
  8
0
 10
366.325
 20
389.284
 11
366.241
 21
389.302
  0
LINE
  8
0
 10
366.241
 20
389.302
 11
366.159
 21
389.325
  0
LINE
  8
0
 10
366.159
 20
389.325
 11
366.077
 21
389.352
  0
LINE
  8
0
 10
366.077
 20
389.352
 11
365.997
 21
389.383
  0
LINE
  8
0
 10
365.997
 20
389.383
 11
365.918
 21
389.418
  0
LINE
  8
0
 10
365.918
 20
389.418
 11
365.842
 21
389.457
  0
LINE
  8
0
 10
365.842
 20
389.457
 11
365.767
 21
389.499
  0
LINE
  8
0
 10
365.767
 20
389.499
 11
365.694
 21
389.545
  0
LINE
  8
0
 10
365.694
 20
389.545
 11
365.624
 21
389.594
  0
LINE
  8
0
 10
365.624
 20
389.594
 11
365.556
 21
389.647
  0
LINE
  8
0
 10
365.556
 20
389.647
 11
365.491
 21
389.703
  0
LINE
  8
0
 10
365.491
 20
389.703
 11
365.429
 21
389.763
  0
LINE
  8
0
 10
365.429
 20
389.763
 11
365.37
 21
389.825
  0
LINE
  8
0
 10
365.37
 20
389.825
 11
365.314
 21
389.89
  0
LINE
  8
0
 10
365.314
 20
389.89
 11
365.261
 21
389.958
  0
LINE
  8
0
 10
365.261
 20
389.958
 11
365.212
 21
390.028
  0
LINE
  8
0
 10
365.212
 20
390.028
 11
365.166
 21
390.1
  0
LINE
  8
0
 10
365.166
 20
390.1
 11
365.123
 21
390.175
  0
LINE
  8
0
 10
365.123
 20
390.175
 11
365.085
 21
390.252
  0
LINE
  8
0
 10
365.085
 20
390.252
 11
365.05
 21
390.33
  0
LINE
  8
0
 10
365.05
 20
390.33
 11
365.019
 21
390.41
  0
LINE
  8
0
 10
365.019
 20
390.41
 11
364.992
 21
390.492
  0
LINE
  8
0
 10
364.992
 20
390.492
 11
364.969
 21
390.575
  0
LINE
  8
0
 10
364.969
 20
390.575
 11
364.95
 21
390.659
  0
LINE
  8
0
 10
364.95
 20
390.659
 11
364.936
 21
390.743
  0
LINE
  8
0
 10
364.936
 20
390.743
 11
364.925
 21
390.828
  0
LINE
  8
0
 10
364.925
 20
390.828
 11
364.919
 21
390.914
  0
LINE
  8
0
 10
364.919
 20
390.914
 11
364.917
 21
391
  0
LINE
  8
0
 10
364.917
 20
391
 11
364.919
 21
391.086
  0
LINE
  8
0
 10
364.919
 20
391.086
 11
364.925
 21
391.172
  0
LINE
  8
0
 10
364.925
 20
391.172
 11
364.936
 21
391.257
  0
LINE
  8
0
 10
364.936
 20
391.257
 11
364.95
 21
391.341
  0
LINE
  8
0
 10
364.95
 20
391.341
 11
364.969
 21
391.425
  0
LINE
  8
0
 10
364.969
 20
391.425
 11
364.992
 21
391.508
  0
LINE
  8
0
 10
364.992
 20
391.508
 11
365.019
 21
391.59
  0
LINE
  8
0
 10
365.019
 20
391.59
 11
365.05
 21
391.67
  0
LINE
  8
0
 10
365.05
 20
391.67
 11
365.085
 21
391.748
  0
LINE
  8
0
 10
365.085
 20
391.748
 11
365.123
 21
391.825
  0
LINE
  8
0
 10
365.123
 20
391.825
 11
365.166
 21
391.9
  0
LINE
  8
0
 10
365.166
 20
391.9
 11
365.212
 21
391.972
  0
LINE
  8
0
 10
365.212
 20
391.972
 11
365.261
 21
392.042
  0
LINE
  8
0
 10
365.261
 20
392.042
 11
365.314
 21
392.11
  0
LINE
  8
0
 10
365.314
 20
392.11
 11
365.37
 21
392.175
  0
LINE
  8
0
 10
365.37
 20
392.175
 11
365.429
 21
392.237
  0
LINE
  8
0
 10
365.429
 20
392.237
 11
365.491
 21
392.297
  0
LINE
  8
0
 10
365.491
 20
392.297
 11
365.556
 21
392.353
  0
LINE
  8
0
 10
365.556
 20
392.353
 11
365.624
 21
392.406
  0
LINE
  8
0
 10
365.624
 20
392.406
 11
365.694
 21
392.455
  0
LINE
  8
0
 10
365.694
 20
392.455
 11
365.767
 21
392.501
  0
LINE
  8
0
 10
365.767
 20
392.501
 11
365.842
 21
392.543
  0
LINE
  8
0
 10
365.842
 20
392.543
 11
365.918
 21
392.582
  0
LINE
  8
0
 10
365.918
 20
392.582
 11
365.997
 21
392.617
  0
LINE
  8
0
 10
365.997
 20
392.617
 11
366.077
 21
392.648
  0
LINE
  8
0
 10
366.077
 20
392.648
 11
366.159
 21
392.675
  0
LINE
  8
0
 10
366.159
 20
392.675
 11
366.241
 21
392.698
  0
LINE
  8
0
 10
366.241
 20
392.698
 11
366.325
 21
392.716
  0
LINE
  8
0
 10
366.325
 20
392.716
 11
366.41
 21
392.731
  0
LINE
  8
0
 10
366.41
 20
392.731
 11
366.495
 21
392.742
  0
LINE
  8
0
 10
366.495
 20
392.742
 11
366.581
 21
392.748
  0
LINE
  8
0
 10
366.581
 20
392.748
 11
366.667
 21
392.75
  0
LINE
  8
0
 10
366.667
 20
392.75
 11
366.753
 21
392.748
  0
LINE
  8
0
 10
366.753
 20
392.748
 11
366.838
 21
392.742
  0
LINE
  8
0
 10
366.838
 20
392.742
 11
366.923
 21
392.731
  0
LINE
  8
0
 10
366.923
 20
392.731
 11
367.008
 21
392.716
  0
LINE
  8
0
 10
367.008
 20
392.716
 11
367.092
 21
392.698
  0
LINE
  8
0
 10
367.092
 20
392.698
 11
367.175
 21
392.675
  0
LINE
  8
0
 10
367.175
 20
392.675
 11
367.256
 21
392.648
  0
LINE
  8
0
 10
367.256
 20
392.648
 11
367.336
 21
392.617
  0
LINE
  8
0
 10
367.336
 20
392.617
 11
367.415
 21
392.582
  0
LINE
  8
0
 10
367.415
 20
392.582
 11
367.492
 21
392.543
  0
LINE
  8
0
 10
367.492
 20
392.543
 11
367.566
 21
392.501
  0
LINE
  8
0
 10
367.566
 20
392.501
 11
367.639
 21
392.455
  0
LINE
  8
0
 10
367.639
 20
392.455
 11
367.709
 21
392.406
  0
LINE
  8
0
 10
367.709
 20
392.406
 11
367.777
 21
392.353
  0
LINE
  8
0
 10
367.777
 20
392.353
 11
367.842
 21
392.297
  0
LINE
  8
0
 10
367.842
 20
392.297
 11
367.904
 21
392.237
  0
LINE
  8
0
 10
367.904
 20
392.237
 11
367.963
 21
392.175
  0
LINE
  8
0
 10
367.963
 20
392.175
 11
368.019
 21
392.11
  0
LINE
  8
0
 10
368.019
 20
392.11
 11
368.072
 21
392.042
  0
LINE
  8
0
 10
368.072
 20
392.042
 11
368.122
 21
391.972
  0
LINE
  8
0
 10
368.122
 20
391.972
 11
368.168
 21
391.9
  0
LINE
  8
0
 10
368.168
 20
391.9
 11
368.21
 21
391.825
  0
LINE
  8
0
 10
368.21
 20
391.825
 11
368.249
 21
391.748
  0
LINE
  8
0
 10
368.249
 20
391.748
 11
368.283
 21
391.67
  0
LINE
  8
0
 10
368.283
 20
391.67
 11
368.314
 21
391.59
  0
LINE
  8
0
 10
368.314
 20
391.59
 11
368.341
 21
391.508
  0
LINE
  8
0
 10
368.341
 20
391.508
 11
368.364
 21
391.425
  0
LINE
  8
0
 10
368.364
 20
391.425
 11
368.383
 21
391.341
  0
LINE
  8
0
 10
368.383
 20
391.341
 11
368.398
 21
391.257
  0
LINE
  8
0
 10
368.398
 20
391.257
 11
368.408
 21
391.172
  0
LINE
  8
0
 10
368.408
 20
391.172
 11
368.415
 21
391.086
  0
LINE
  8
0
 10
368.415
 20
391.086
 11
368.417
 21
391
  0
LINE
  8
0
 10
368.417
 20
391
 11
368.415
 21
390.914
  0
LINE
  8
0
 10
368.415
 20
390.914
 11
368.408
 21
390.828
  0
LINE
  8
0
 10
368.408
 20
390.828
 11
368.398
 21
390.743
  0
LINE
  8
0
 10
368.398
 20
390.743
 11
368.383
 21
390.659
  0
LINE
  8
0
 10
368.383
 20
390.659
 11
368.364
 21
390.575
  0
LINE
  8
0
 10
368.364
 20
390.575
 11
368.341
 21
390.492
  0
LINE
  8
0
 10
368.341
 20
390.492
 11
368.314
 21
390.41
  0
LINE
  8
0
 10
368.314
 20
390.41
 11
368.283
 21
390.33
  0
LINE
  8
0
 10
368.283
 20
390.33
 11
368.249
 21
390.252
  0
LINE
  8
0
 10
368.249
 20
390.252
 11
368.21
 21
390.175
  0
LINE
  8
0
 10
368.21
 20
390.175
 11
368.168
 21
390.1
  0
LINE
  8
0
 10
368.168
 20
390.1
 11
368.122
 21
390.028
  0
LINE
  8
0
 10
368.122
 20
390.028
 11
368.072
 21
389.958
  0
LINE
  8
0
 10
368.072
 20
389.958
 11
368.019
 21
389.89
  0
LINE
  8
0
 10
368.019
 20
389.89
 11
367.963
 21
389.825
  0
LINE
  8
0
 10
367.963
 20
389.825
 11
367.904
 21
389.763
  0
LINE
  8
0
 10
367.904
 20
389.763
 11
367.842
 21
389.703
  0
LINE
  8
0
 10
367.842
 20
389.703
 11
367.777
 21
389.647
  0
LINE
  8
0
 10
367.777
 20
389.647
 11
367.709
 21
389.594
  0
LINE
  8
0
 10
367.709
 20
389.594
 11
367.639
 21
389.545
  0
LINE
  8
0
 10
367.639
 20
389.545
 11
367.566
 21
389.499
  0
LINE
  8
0
 10
367.566
 20
389.499
 11
367.492
 21
389.457
  0
LINE
  8
0
 10
367.492
 20
389.457
 11
367.415
 21
389.418
  0
LINE
  8
0
 10
367.415
 20
389.418
 11
367.336
 21
389.383
  0
LINE
  8
0
 10
367.336
 20
389.383
 11
367.256
 21
389.352
  0
LINE
  8
0
 10
367.256
 20
389.352
 11
367.175
 21
389.325
  0
LINE
  8
0
 10
367.175
 20
389.325
 11
367.092
 21
389.302
  0
LINE
  8
0
 10
367.092
 20
389.302
 11
367.008
 21
389.284
  0
LINE
  8
0
 10
367.008
 20
389.284
 11
366.923
 21
389.269
  0
LINE
  8
0
 10
366.923
 20
389.269
 11
366.838
 21
389.258
  0
LINE
  8
0
 10
366.838
 20
389.258
 11
366.753
 21
389.252
  0
LINE
  8
0
 10
366.753
 20
389.252
 11
366.667
 21
389.25
  0
LINE
  8
0
 10
366.667
 20
389.25
 11
366.581
 21
389.252
  0
LINE
  8
0
 10
33.2475
 20
389.252
 11
33.1618
 21
389.258
  0
LINE
  8
0
 10
33.1618
 20
389.258
 11
33.0766
 21
389.269
  0
LINE
  8
0
 10
33.0766
 20
389.269
 11
32.9919
 21
389.284
  0
LINE
  8
0
 10
32.9919
 20
389.284
 11
32.9081
 21
389.302
  0
LINE
  8
0
 10
32.9081
 20
389.302
 11
32.8253
 21
389.325
  0
LINE
  8
0
 10
32.8253
 20
389.325
 11
32.7438
 21
389.352
  0
LINE
  8
0
 10
32.7438
 20
389.352
 11
32.6636
 21
389.383
  0
LINE
  8
0
 10
32.6636
 20
389.383
 11
32.5851
 21
389.418
  0
LINE
  8
0
 10
32.5851
 20
389.418
 11
32.5084
 21
389.457
  0
LINE
  8
0
 10
32.5084
 20
389.457
 11
32.4336
 21
389.499
  0
LINE
  8
0
 10
32.4336
 20
389.499
 11
32.3611
 21
389.545
  0
LINE
  8
0
 10
32.3611
 20
389.545
 11
32.2908
 21
389.594
  0
LINE
  8
0
 10
32.2908
 20
389.594
 11
32.2231
 21
389.647
  0
LINE
  8
0
 10
32.2231
 20
389.647
 11
32.1581
 21
389.703
  0
LINE
  8
0
 10
32.1581
 20
389.703
 11
32.0959
 21
389.763
  0
LINE
  8
0
 10
32.0959
 20
389.763
 11
32.0367
 21
389.825
  0
LINE
  8
0
 10
32.0367
 20
389.825
 11
31.9806
 21
389.89
  0
LINE
  8
0
 10
31.9806
 20
389.89
 11
31.9277
 21
389.958
  0
LINE
  8
0
 10
31.9277
 20
389.958
 11
31.8783
 21
390.028
  0
LINE
  8
0
 10
31.8783
 20
390.028
 11
31.8323
 21
390.1
  0
LINE
  8
0
 10
31.8323
 20
390.1
 11
31.79
 21
390.175
  0
LINE
  8
0
 10
31.79
 20
390.175
 11
31.7513
 21
390.252
  0
LINE
  8
0
 10
31.7513
 20
390.252
 11
31.7165
 21
390.33
  0
LINE
  8
0
 10
31.7165
 20
390.33
 11
31.6856
 21
390.41
  0
LINE
  8
0
 10
31.6856
 20
390.41
 11
31.6587
 21
390.492
  0
LINE
  8
0
 10
31.6587
 20
390.492
 11
31.6358
 21
390.575
  0
LINE
  8
0
 10
31.6358
 20
390.575
 11
31.617
 21
390.659
  0
LINE
  8
0
 10
31.617
 20
390.659
 11
31.6023
 21
390.743
  0
LINE
  8
0
 10
31.6023
 20
390.743
 11
31.5918
 21
390.828
  0
LINE
  8
0
 10
31.5918
 20
390.828
 11
31.5854
 21
390.914
  0
LINE
  8
0
 10
31.5854
 20
390.914
 11
31.5833
 21
391
  0
LINE
  8
0
 10
31.5833
 20
391
 11
31.5854
 21
391.086
  0
LINE
  8
0
 10
31.5854
 20
391.086
 11
31.5918
 21
391.172
  0
LINE
  8
0
 10
31.5918
 20
391.172
 11
31.6023
 21
391.257
  0
LINE
  8
0
 10
31.6023
 20
391.257
 11
31.617
 21
391.341
  0
LINE
  8
0
 10
31.617
 20
391.341
 11
31.6358
 21
391.425
  0
LINE
  8
0
 10
31.6358
 20
391.425
 11
31.6587
 21
391.508
  0
LINE
  8
0
 10
31.6587
 20
391.508
 11
31.6856
 21
391.59
  0
LINE
  8
0
 10
31.6856
 20
391.59
 11
31.7165
 21
391.67
  0
LINE
  8
0
 10
31.7165
 20
391.67
 11
31.7513
 21
391.748
  0
LINE
  8
0
 10
31.7513
 20
391.748
 11
31.79
 21
391.825
  0
LINE
  8
0
 10
31.79
 20
391.825
 11
31.8323
 21
391.9
  0
LINE
  8
0
 10
31.8323
 20
391.9
 11
31.8783
 21
391.972
  0
LINE
  8
0
 10
31.8783
 20
391.972
 11
31.9277
 21
392.042
  0
LINE
  8
0
 10
31.9277
 20
392.042
 11
31.9806
 21
392.11
  0
LINE
  8
0
 10
31.9806
 20
392.11
 11
32.0367
 21
392.175
  0
LINE
  8
0
 10
32.0367
 20
392.175
 11
32.0959
 21
392.237
  0
LINE
  8
0
 10
32.0959
 20
392.237
 11
32.1581
 21
392.297
  0
LINE
  8
0
 10
32.1581
 20
392.297
 11
32.2231
 21
392.353
  0
LINE
  8
0
 10
32.2231
 20
392.353
 11
32.2908
 21
392.406
  0
LINE
  8
0
 10
32.2908
 20
392.406
 11
32.3611
 21
392.455
  0
LINE
  8
0
 10
32.3611
 20
392.455
 11
32.4336
 21
392.501
  0
LINE
  8
0
 10
32.4336
 20
392.501
 11
32.5084
 21
392.543
  0
LINE
  8
0
 10
32.5084
 20
392.543
 11
32.5851
 21
392.582
  0
LINE
  8
0
 10
32.5851
 20
392.582
 11
32.6636
 21
392.617
  0
LINE
  8
0
 10
32.6636
 20
392.617
 11
32.7438
 21
392.648
  0
LINE
  8
0
 10
32.7438
 20
392.648
 11
32.8253
 21
392.675
  0
LINE
  8
0
 10
32.8253
 20
392.675
 11
32.9081
 21
392.698
  0
LINE
  8
0
 10
32.9081
 20
392.698
 11
32.9919
 21
392.716
  0
LINE
  8
0
 10
32.9919
 20
392.716
 11
33.0766
 21
392.731
  0
LINE
  8
0
 10
33.0766
 20
392.731
 11
33.1618
 21
392.742
  0
LINE
  8
0
 10
33.1618
 20
392.742
 11
33.2475
 21
392.748
  0
LINE
  8
0
 10
33.2475
 20
392.748
 11
33.3333
 21
392.75
  0
LINE
  8
0
 10
33.3333
 20
392.75
 11
33.4192
 21
392.748
  0
LINE
  8
0
 10
33.4192
 20
392.748
 11
33.5049
 21
392.742
  0
LINE
  8
0
 10
33.5049
 20
392.742
 11
33.5901
 21
392.731
  0
LINE
  8
0
 10
33.5901
 20
392.731
 11
33.6747
 21
392.716
  0
LINE
  8
0
 10
33.6747
 20
392.716
 11
33.7585
 21
392.698
  0
LINE
  8
0
 10
33.7585
 20
392.698
 11
33.8413
 21
392.675
  0
LINE
  8
0
 10
33.8413
 20
392.675
 11
33.9229
 21
392.648
  0
LINE
  8
0
 10
33.9229
 20
392.648
 11
34.003
 21
392.617
  0
LINE
  8
0
 10
34.003
 20
392.617
 11
34.0815
 21
392.582
  0
LINE
  8
0
 10
34.0815
 20
392.582
 11
34.1583
 21
392.543
  0
LINE
  8
0
 10
34.1583
 20
392.543
 11
34.233
 21
392.501
  0
LINE
  8
0
 10
34.233
 20
392.501
 11
34.3056
 21
392.455
  0
LINE
  8
0
 10
34.3056
 20
392.455
 11
34.3758
 21
392.406
  0
LINE
  8
0
 10
34.3758
 20
392.406
 11
34.4435
 21
392.353
  0
LINE
  8
0
 10
34.4435
 20
392.353
 11
34.5086
 21
392.297
  0
LINE
  8
0
 10
34.5086
 20
392.297
 11
34.5708
 21
392.237
  0
LINE
  8
0
 10
34.5708
 20
392.237
 11
34.63
 21
392.175
  0
LINE
  8
0
 10
34.63
 20
392.175
 11
34.6861
 21
392.11
  0
LINE
  8
0
 10
34.6861
 20
392.11
 11
34.7389
 21
392.042
  0
LINE
  8
0
 10
34.7389
 20
392.042
 11
34.7884
 21
391.972
  0
LINE
  8
0
 10
34.7884
 20
391.972
 11
34.8344
 21
391.9
  0
LINE
  8
0
 10
34.8344
 20
391.9
 11
34.8767
 21
391.825
  0
LINE
  8
0
 10
34.8767
 20
391.825
 11
34.9153
 21
391.748
  0
LINE
  8
0
 10
34.9153
 20
391.748
 11
34.9501
 21
391.67
  0
LINE
  8
0
 10
34.9501
 20
391.67
 11
34.981
 21
391.59
  0
LINE
  8
0
 10
34.981
 20
391.59
 11
35.008
 21
391.508
  0
LINE
  8
0
 10
35.008
 20
391.508
 11
35.0309
 21
391.425
  0
LINE
  8
0
 10
35.0309
 20
391.425
 11
35.0497
 21
391.341
  0
LINE
  8
0
 10
35.0497
 20
391.341
 11
35.0644
 21
391.257
  0
LINE
  8
0
 10
35.0644
 20
391.257
 11
35.0749
 21
391.172
  0
LINE
  8
0
 10
35.0749
 20
391.172
 11
35.0812
 21
391.086
  0
LINE
  8
0
 10
35.0812
 20
391.086
 11
35.0833
 21
391
  0
LINE
  8
0
 10
35.0833
 20
391
 11
35.0812
 21
390.914
  0
LINE
  8
0
 10
35.0812
 20
390.914
 11
35.0749
 21
390.828
  0
LINE
  8
0
 10
35.0749
 20
390.828
 11
35.0644
 21
390.743
  0
LINE
  8
0
 10
35.0644
 20
390.743
 11
35.0497
 21
390.659
  0
LINE
  8
0
 10
35.0497
 20
390.659
 11
35.0309
 21
390.575
  0
LINE
  8
0
 10
35.0309
 20
390.575
 11
35.008
 21
390.492
  0
LINE
  8
0
 10
35.008
 20
390.492
 11
34.981
 21
390.41
  0
LINE
  8
0
 10
34.981
 20
390.41
 11
34.9501
 21
390.33
  0
LINE
  8
0
 10
34.9501
 20
390.33
 11
34.9153
 21
390.252
  0
LINE
  8
0
 10
34.9153
 20
390.252
 11
34.8767
 21
390.175
  0
LINE
  8
0
 10
34.8767
 20
390.175
 11
34.8344
 21
390.1
  0
LINE
  8
0
 10
34.8344
 20
390.1
 11
34.7884
 21
390.028
  0
LINE
  8
0
 10
34.7884
 20
390.028
 11
34.7389
 21
389.958
  0
LINE
  8
0
 10
34.7389
 20
389.958
 11
34.6861
 21
389.89
  0
LINE
  8
0
 10
34.6861
 20
389.89
 11
34.63
 21
389.825
  0
LINE
  8
0
 10
34.63
 20
389.825
 11
34.5708
 21
389.763
  0
LINE
  8
0
 10
34.5708
 20
389.763
 11
34.5086
 21
389.703
  0
LINE
  8
0
 10
34.5086
 20
389.703
 11
34.4435
 21
389.647
  0
LINE
  8
0
 10
34.4435
 20
389.647
 11
34.3758
 21
389.594
  0
LINE
  8
0
 10
34.3758
 20
389.594
 11
34.3056
 21
389.545
  0
LINE
  8
0
 10
34.3056
 20
389.545
 11
34.233
 21
389.499
  0
LINE
  8
0
 10
34.233
 20
389.499
 11
34.1583
 21
389.457
  0
LINE
  8
0
 10
34.1583
 20
389.457
 11
34.0815
 21
389.418
  0
LINE
  8
0
 10
34.0815
 20
389.418
 11
34.003
 21
389.383
  0
LINE
  8
0
 10
34.003
 20
389.383
 11
33.9229
 21
389.352
  0
LINE
  8
0
 10
33.9229
 20
389.352
 11
33.8413
 21
389.325
  0
LINE
  8
0
 10
33.8413
 20
389.325
 11
33.7585
 21
389.302
  0
LINE
  8
0
 10
33.7585
 20
389.302
 11
33.6747
 21
389.284
  0
LINE
  8
0
 10
33.6747
 20
389.284
 11
33.5901
 21
389.269
  0
LINE
  8
0
 10
33.5901
 20
389.269
 11
33.5049
 21
389.258
  0
LINE
  8
0
 10
33.5049
 20
389.258
 11
33.4192
 21
389.252
  0
LINE
  8
0
 10
33.4192
 20
389.252
 11
33.3333
 21
389.25
  0
LINE
  8
0
 10
33.3333
 20
389.25
 11
33.2475
 21
389.252
  0
LINE
  8
0
 10
390.914
 20
271.252
 11
390.828
 21
271.258
  0
LINE
  8
0
 10
390.828
 20
271.258
 11
390.743
 21
271.269
  0
LINE
  8
0
 10
390.743
 20
271.269
 11
390.659
 21
271.284
  0
LINE
  8
0
 10
390.659
 20
271.284
 11
390.575
 21
271.302
  0
LINE
  8
0
 10
390.575
 20
271.302
 11
390.492
 21
271.325
  0
LINE
  8
0
 10
390.492
 20
271.325
 11
390.41
 21
271.352
  0
LINE
  8
0
 10
390.41
 20
271.352
 11
390.33
 21
271.383
  0
LINE
  8
0
 10
390.33
 20
271.383
 11
390.252
 21
271.418
  0
LINE
  8
0
 10
390.252
 20
271.418
 11
390.175
 21
271.457
  0
LINE
  8
0
 10
390.175
 20
271.457
 11
390.1
 21
271.499
  0
LINE
  8
0
 10
390.1
 20
271.499
 11
390.028
 21
271.545
  0
LINE
  8
0
 10
390.028
 20
271.545
 11
389.958
 21
271.594
  0
LINE
  8
0
 10
389.958
 20
271.594
 11
389.89
 21
271.647
  0
LINE
  8
0
 10
389.89
 20
271.647
 11
389.825
 21
271.703
  0
LINE
  8
0
 10
389.825
 20
271.703
 11
389.763
 21
271.763
  0
LINE
  8
0
 10
389.763
 20
271.763
 11
389.703
 21
271.825
  0
LINE
  8
0
 10
389.703
 20
271.825
 11
389.647
 21
271.89
  0
LINE
  8
0
 10
389.647
 20
271.89
 11
389.594
 21
271.958
  0
LINE
  8
0
 10
389.594
 20
271.958
 11
389.545
 21
272.028
  0
LINE
  8
0
 10
389.545
 20
272.028
 11
389.499
 21
272.1
  0
LINE
  8
0
 10
389.499
 20
272.1
 11
389.457
 21
272.175
  0
LINE
  8
0
 10
389.457
 20
272.175
 11
389.418
 21
272.252
  0
LINE
  8
0
 10
389.418
 20
272.252
 11
389.383
 21
272.33
  0
LINE
  8
0
 10
389.383
 20
272.33
 11
389.352
 21
272.41
  0
LINE
  8
0
 10
389.352
 20
272.41
 11
389.325
 21
272.492
  0
LINE
  8
0
 10
389.325
 20
272.492
 11
389.302
 21
272.575
  0
LINE
  8
0
 10
389.302
 20
272.575
 11
389.284
 21
272.659
  0
LINE
  8
0
 10
389.284
 20
272.659
 11
389.269
 21
272.743
  0
LINE
  8
0
 10
389.269
 20
272.743
 11
389.258
 21
272.828
  0
LINE
  8
0
 10
389.258
 20
272.828
 11
389.252
 21
272.914
  0
LINE
  8
0
 10
389.252
 20
272.914
 11
389.25
 21
273
  0
LINE
  8
0
 10
389.25
 20
273
 11
389.252
 21
273.086
  0
LINE
  8
0
 10
389.252
 20
273.086
 11
389.258
 21
273.172
  0
LINE
  8
0
 10
389.258
 20
273.172
 11
389.269
 21
273.257
  0
LINE
  8
0
 10
389.269
 20
273.257
 11
389.284
 21
273.341
  0
LINE
  8
0
 10
389.284
 20
273.341
 11
389.302
 21
273.425
  0
LINE
  8
0
 10
389.302
 20
273.425
 11
389.325
 21
273.508
  0
LINE
  8
0
 10
389.325
 20
273.508
 11
389.352
 21
273.59
  0
LINE
  8
0
 10
389.352
 20
273.59
 11
389.383
 21
273.67
  0
LINE
  8
0
 10
389.383
 20
273.67
 11
389.418
 21
273.748
  0
LINE
  8
0
 10
389.418
 20
273.748
 11
389.457
 21
273.825
  0
LINE
  8
0
 10
389.457
 20
273.825
 11
389.499
 21
273.9
  0
LINE
  8
0
 10
389.499
 20
273.9
 11
389.545
 21
273.972
  0
LINE
  8
0
 10
389.545
 20
273.972
 11
389.594
 21
274.042
  0
LINE
  8
0
 10
389.594
 20
274.042
 11
389.647
 21
274.11
  0
LINE
  8
0
 10
389.647
 20
274.11
 11
389.703
 21
274.175
  0
LINE
  8
0
 10
389.703
 20
274.175
 11
389.763
 21
274.237
  0
LINE
  8
0
 10
389.763
 20
274.237
 11
389.825
 21
274.297
  0
LINE
  8
0
 10
389.825
 20
274.297
 11
389.89
 21
274.353
  0
LINE
  8
0
 10
389.89
 20
274.353
 11
389.958
 21
274.406
  0
LINE
  8
0
 10
389.958
 20
274.406
 11
390.028
 21
274.455
  0
LINE
  8
0
 10
390.028
 20
274.455
 11
390.1
 21
274.501
  0
LINE
  8
0
 10
390.1
 20
274.501
 11
390.175
 21
274.543
  0
LINE
  8
0
 10
390.175
 20
274.543
 11
390.252
 21
274.582
  0
LINE
  8
0
 10
390.252
 20
274.582
 11
390.33
 21
274.617
  0
LINE
  8
0
 10
390.33
 20
274.617
 11
390.41
 21
274.648
  0
LINE
  8
0
 10
390.41
 20
274.648
 11
390.492
 21
274.675
  0
LINE
  8
0
 10
390.492
 20
274.675
 11
390.575
 21
274.698
  0
LINE
  8
0
 10
390.575
 20
274.698
 11
390.659
 21
274.716
  0
LINE
  8
0
 10
390.659
 20
274.716
 11
390.743
 21
274.731
  0
LINE
  8
0
 10
390.743
 20
274.731
 11
390.828
 21
274.742
  0
LINE
  8
0
 10
390.828
 20
274.742
 11
390.914
 21
274.748
  0
LINE
  8
0
 10
390.914
 20
274.748
 11
391
 21
274.75
  0
LINE
  8
0
 10
391
 20
274.75
 11
391.086
 21
274.748
  0
LINE
  8
0
 10
391.086
 20
274.748
 11
391.172
 21
274.742
  0
LINE
  8
0
 10
391.172
 20
274.742
 11
391.257
 21
274.731
  0
LINE
  8
0
 10
391.257
 20
274.731
 11
391.341
 21
274.716
  0
LINE
  8
0
 10
391.341
 20
274.716
 11
391.425
 21
274.698
  0
LINE
  8
0
 10
391.425
 20
274.698
 11
391.508
 21
274.675
  0
LINE
  8
0
 10
391.508
 20
274.675
 11
391.59
 21
274.648
  0
LINE
  8
0
 10
391.59
 20
274.648
 11
391.67
 21
274.617
  0
LINE
  8
0
 10
391.67
 20
274.617
 11
391.748
 21
274.582
  0
LINE
  8
0
 10
391.748
 20
274.582
 11
391.825
 21
274.543
  0
LINE
  8
0
 10
391.825
 20
274.543
 11
391.9
 21
274.501
  0
LINE
  8
0
 10
391.9
 20
274.501
 11
391.972
 21
274.455
  0
LINE
  8
0
 10
391.972
 20
274.455
 11
392.042
 21
274.406
  0
LINE
  8
0
 10
392.042
 20
274.406
 11
392.11
 21
274.353
  0
LINE
  8
0
 10
392.11
 20
274.353
 11
392.175
 21
274.297
  0
LINE
  8
0
 10
392.175
 20
274.297
 11
392.237
 21
274.237
  0
LINE
  8
0
 10
392.237
 20
274.237
 11
392.297
 21
274.175
  0
LINE
  8
0
 10
392.297
 20
274.175
 11
392.353
 21
274.11
  0
LINE
  8
0
 10
392.353
 20
274.11
 11
392.406
 21
274.042
  0
LINE
  8
0
 10
392.406
 20
274.042
 11
392.455
 21
273.972
  0
LINE
  8
0
 10
392.455
 20
273.972
 11
392.501
 21
273.9
  0
LINE
  8
0
 10
392.501
 20
273.9
 11
392.543
 21
273.825
  0
LINE
  8
0
 10
392.543
 20
273.825
 11
392.582
 21
273.748
  0
LINE
  8
0
 10
392.582
 20
273.748
 11
392.617
 21
273.67
  0
LINE
  8
0
 10
392.617
 20
273.67
 11
392.648
 21
273.59
  0
LINE
  8
0
 10
392.648
 20
273.59
 11
392.675
 21
273.508
  0
LINE
  8
0
 10
392.675
 20
273.508
 11
392.698
 21
273.425
  0
LINE
  8
0
 10
392.698
 20
273.425
 11
392.716
 21
273.341
  0
LINE
  8
0
 10
392.716
 20
273.341
 11
392.731
 21
273.257
  0
LINE
  8
0
 10
392.731
 20
273.257
 11
392.742
 21
273.172
  0
LINE
  8
0
 10
392.742
 20
273.172
 11
392.748
 21
273.086
  0
LINE
  8
0
 10
392.748
 20
273.086
 11
392.75
 21
273
  0
LINE
  8
0
 10
392.75
 20
273
 11
392.748
 21
272.914
  0
LINE
  8
0
 10
392.748
 20
272.914
 11
392.742
 21
272.828
  0
LINE
  8
0
 10
392.742
 20
272.828
 11
392.731
 21
272.743
  0
LINE
  8
0
 10
392.731
 20
272.743
 11
392.716
 21
272.659
  0
LINE
  8
0
 10
392.716
 20
272.659
 11
392.698
 21
272.575
  0
LINE
  8
0
 10
392.698
 20
272.575
 11
392.675
 21
272.492
  0
LINE
  8
0
 10
392.675
 20
272.492
 11
392.648
 21
272.41
  0
LINE
  8
0
 10
392.648
 20
272.41
 11
392.617
 21
272.33
  0
LINE
  8
0
 10
392.617
 20
272.33
 11
392.582
 21
272.252
  0
LINE
  8
0
 10
392.582
 20
272.252
 11
392.543
 21
272.175
  0
LINE
  8
0
 10
392.543
 20
272.175
 11
392.501
 21
272.1
  0
LINE
  8
0
 10
392.501
 20
272.1
 11
392.455
 21
272.028
  0
LINE
  8
0
 10
392.455
 20
272.028
 11
392.406
 21
271.958
  0
LINE
  8
0
 10
392.406
 20
271.958
 11
392.353
 21
271.89
  0
LINE
  8
0
 10
392.353
 20
271.89
 11
392.297
 21
271.825
  0
LINE
  8
0
 10
392.297
 20
271.825
 11
392.237
 21
271.763
  0
LINE
  8
0
 10
392.237
 20
271.763
 11
392.175
 21
271.703
  0
LINE
  8
0
 10
392.175
 20
271.703
 11
392.11
 21
271.647
  0
LINE
  8
0
 10
392.11
 20
271.647
 11
392.042
 21
271.594
  0
LINE
  8
0
 10
392.042
 20
271.594
 11
391.972
 21
271.545
  0
LINE
  8
0
 10
391.972
 20
271.545
 11
391.9
 21
271.499
  0
LINE
  8
0
 10
391.9
 20
271.499
 11
391.825
 21
271.457
  0
LINE
  8
0
 10
391.825
 20
271.457
 11
391.748
 21
271.418
  0
LINE
  8
0
 10
391.748
 20
271.418
 11
391.67
 21
271.383
  0
LINE
  8
0
 10
391.67
 20
271.383
 11
391.59
 21
271.352
  0
LINE
  8
0
 10
391.59
 20
271.352
 11
391.508
 21
271.325
  0
LINE
  8
0
 10
391.508
 20
271.325
 11
391.425
 21
271.302
  0
LINE
  8
0
 10
391.425
 20
271.302
 11
391.341
 21
271.284
  0
LINE
  8
0
 10
391.341
 20
271.284
 11
391.257
 21
271.269
  0
LINE
  8
0
 10
391.257
 20
271.269
 11
391.172
 21
271.258
  0
LINE
  8
0
 10
391.172
 20
271.258
 11
391.086
 21
271.252
  0
LINE
  8
0
 10
391.086
 20
271.252
 11
391
 21
271.25
  0
LINE
  8
0
 10
391
 20
271.25
 11
390.914
 21
271.252
  0
LINE
  8
0
 10
8.91412
 20
271.252
 11
8.82846
 21
271.258
  0
LINE
  8
0
 10
8.82846
 20
271.258
 11
8.74321
 21
271.269
  0
LINE
  8
0
 10
8.74321
 20
271.269
 11
8.65858
 21
271.284
  0
LINE
  8
0
 10
8.65858
 20
271.284
 11
8.57478
 21
271.302
  0
LINE
  8
0
 10
8.57478
 20
271.302
 11
8.49199
 21
271.325
  0
LINE
  8
0
 10
8.49199
 20
271.325
 11
8.41043
 21
271.352
  0
LINE
  8
0
 10
8.41043
 20
271.352
 11
8.33029
 21
271.383
  0
LINE
  8
0
 10
8.33029
 20
271.383
 11
8.25177
 21
271.418
  0
LINE
  8
0
 10
8.25177
 20
271.418
 11
8.17505
 21
271.457
  0
LINE
  8
0
 10
8.17505
 20
271.457
 11
8.10031
 21
271.499
  0
LINE
  8
0
 10
8.10031
 20
271.499
 11
8.02774
 21
271.545
  0
LINE
  8
0
 10
8.02774
 20
271.545
 11
7.95752
 21
271.594
  0
LINE
  8
0
 10
7.95752
 20
271.594
 11
7.8898
 21
271.647
  0
LINE
  8
0
 10
7.8898
 20
271.647
 11
7.82477
 21
271.703
  0
LINE
  8
0
 10
7.82477
 20
271.703
 11
7.76256
 21
271.763
  0
LINE
  8
0
 10
7.76256
 20
271.763
 11
7.70332
 21
271.825
  0
LINE
  8
0
 10
7.70332
 20
271.825
 11
7.64722
 21
271.89
  0
LINE
  8
0
 10
7.64722
 20
271.89
 11
7.59438
 21
271.958
  0
LINE
  8
0
 10
7.59438
 20
271.958
 11
7.54492
 21
272.028
  0
LINE
  8
0
 10
7.54492
 20
272.028
 11
7.49896
 21
272.1
  0
LINE
  8
0
 10
7.49896
 20
272.1
 11
7.45663
 21
272.175
  0
LINE
  8
0
 10
7.45663
 20
272.175
 11
7.41801
 21
272.252
  0
LINE
  8
0
 10
7.41801
 20
272.252
 11
7.38321
 21
272.33
  0
LINE
  8
0
 10
7.38321
 20
272.33
 11
7.35229
 21
272.41
  0
LINE
  8
0
 10
7.35229
 20
272.41
 11
7.32535
 21
272.492
  0
LINE
  8
0
 10
7.32535
 20
272.492
 11
7.30244
 21
272.575
  0
LINE
  8
0
 10
7.30244
 20
272.575
 11
7.28362
 21
272.659
  0
LINE
  8
0
 10
7.28362
 20
272.659
 11
7.26894
 21
272.743
  0
LINE
  8
0
 10
7.26894
 20
272.743
 11
7.25842
 21
272.828
  0
LINE
  8
0
 10
7.25842
 20
272.828
 11
7.25211
 21
272.914
  0
LINE
  8
0
 10
7.25211
 20
272.914
 11
7.25
 21
273
  0
LINE
  8
0
 10
7.25
 20
273
 11
7.25211
 21
273.086
  0
LINE
  8
0
 10
7.25211
 20
273.086
 11
7.25842
 21
273.172
  0
LINE
  8
0
 10
7.25842
 20
273.172
 11
7.26894
 21
273.257
  0
LINE
  8
0
 10
7.26894
 20
273.257
 11
7.28362
 21
273.341
  0
LINE
  8
0
 10
7.28362
 20
273.341
 11
7.30244
 21
273.425
  0
LINE
  8
0
 10
7.30244
 20
273.425
 11
7.32535
 21
273.508
  0
LINE
  8
0
 10
7.32535
 20
273.508
 11
7.35229
 21
273.59
  0
LINE
  8
0
 10
7.35229
 20
273.59
 11
7.38321
 21
273.67
  0
LINE
  8
0
 10
7.38321
 20
273.67
 11
7.41801
 21
273.748
  0
LINE
  8
0
 10
7.41801
 20
273.748
 11
7.45663
 21
273.825
  0
LINE
  8
0
 10
7.45663
 20
273.825
 11
7.49896
 21
273.9
  0
LINE
  8
0
 10
7.49896
 20
273.9
 11
7.54492
 21
273.972
  0
LINE
  8
0
 10
7.54492
 20
273.972
 11
7.59438
 21
274.042
  0
LINE
  8
0
 10
7.59438
 20
274.042
 11
7.64722
 21
274.11
  0
LINE
  8
0
 10
7.64722
 20
274.11
 11
7.70332
 21
274.175
  0
LINE
  8
0
 10
7.70332
 20
274.175
 11
7.76256
 21
274.237
  0
LINE
  8
0
 10
7.76256
 20
274.237
 11
7.82477
 21
274.297
  0
LINE
  8
0
 10
7.82477
 20
274.297
 11
7.8898
 21
274.353
  0
LINE
  8
0
 10
7.8898
 20
274.353
 11
7.95752
 21
274.406
  0
LINE
  8
0
 10
7.95752
 20
274.406
 11
8.02774
 21
274.455
  0
LINE
  8
0
 10
8.02774
 20
274.455
 11
8.10031
 21
274.501
  0
LINE
  8
0
 10
8.10031
 20
274.501
 11
8.17505
 21
274.543
  0
LINE
  8
0
 10
8.17505
 20
274.543
 11
8.25177
 21
274.582
  0
LINE
  8
0
 10
8.25177
 20
274.582
 11
8.33029
 21
274.617
  0
LINE
  8
0
 10
8.33029
 20
274.617
 11
8.41043
 21
274.648
  0
LINE
  8
0
 10
8.41043
 20
274.648
 11
8.49199
 21
274.675
  0
LINE
  8
0
 10
8.49199
 20
274.675
 11
8.57478
 21
274.698
  0
LINE
  8
0
 10
8.57478
 20
274.698
 11
8.65858
 21
274.716
  0
LINE
  8
0
 10
8.65858
 20
274.716
 11
8.74321
 21
274.731
  0
LINE
  8
0
 10
8.74321
 20
274.731
 11
8.82846
 21
274.742
  0
LINE
  8
0
 10
8.82846
 20
274.742
 11
8.91412
 21
274.748
  0
LINE
  8
0
 10
8.91412
 20
274.748
 11
9
 21
274.75
  0
LINE
  8
0
 10
9
 20
274.75
 11
9.08586
 21
274.748
  0
LINE
  8
0
 10
9.08586
 20
274.748
 11
9.17152
 21
274.742
  0
LINE
  8
0
 10
9.17152
 20
274.742
 11
9.25677
 21
274.731
  0
LINE
  8
0
 10
9.25677
 20
274.731
 11
9.3414
 21
274.716
  0
LINE
  8
0
 10
9.3414
 20
274.716
 11
9.4252
 21
274.698
  0
LINE
  8
0
 10
9.4252
 20
274.698
 11
9.508
 21
274.675
  0
LINE
  8
0
 10
9.508
 20
274.675
 11
9.58955
 21
274.648
  0
LINE
  8
0
 10
9.58955
 20
274.648
 11
9.66969
 21
274.617
  0
LINE
  8
0
 10
9.66969
 20
274.617
 11
9.74821
 21
274.582
  0
LINE
  8
0
 10
9.74821
 20
274.582
 11
9.82494
 21
274.543
  0
LINE
  8
0
 10
9.82494
 20
274.543
 11
9.89967
 21
274.501
  0
LINE
  8
0
 10
9.89967
 20
274.501
 11
9.97224
 21
274.455
  0
LINE
  8
0
 10
9.97224
 20
274.455
 11
10.0425
 21
274.406
  0
LINE
  8
0
 10
10.0425
 20
274.406
 11
10.1102
 21
274.353
  0
LINE
  8
0
 10
10.1102
 20
274.353
 11
10.1752
 21
274.297
  0
LINE
  8
0
 10
10.1752
 20
274.297
 11
10.2374
 21
274.237
  0
LINE
  8
0
 10
10.2374
 20
274.237
 11
10.2967
 21
274.175
  0
LINE
  8
0
 10
10.2967
 20
274.175
 11
10.3528
 21
274.11
  0
LINE
  8
0
 10
10.3528
 20
274.11
 11
10.4056
 21
274.042
  0
LINE
  8
0
 10
10.4056
 20
274.042
 11
10.4551
 21
273.972
  0
LINE
  8
0
 10
10.4551
 20
273.972
 11
10.501
 21
273.9
  0
LINE
  8
0
 10
10.501
 20
273.9
 11
10.5434
 21
273.825
  0
LINE
  8
0
 10
10.5434
 20
273.825
 11
10.582
 21
273.748
  0
LINE
  8
0
 10
10.582
 20
273.748
 11
10.6168
 21
273.67
  0
LINE
  8
0
 10
10.6168
 20
273.67
 11
10.6477
 21
273.59
  0
LINE
  8
0
 10
10.6477
 20
273.59
 11
10.6746
 21
273.508
  0
LINE
  8
0
 10
10.6746
 20
273.508
 11
10.6975
 21
273.425
  0
LINE
  8
0
 10
10.6975
 20
273.425
 11
10.7164
 21
273.341
  0
LINE
  8
0
 10
10.7164
 20
273.341
 11
10.731
 21
273.257
  0
LINE
  8
0
 10
10.731
 20
273.257
 11
10.7416
 21
273.172
  0
LINE
  8
0
 10
10.7416
 20
273.172
 11
10.7479
 21
273.086
  0
LINE
  8
0
 10
10.7479
 20
273.086
 11
10.75
 21
273
  0
LINE
  8
0
 10
10.75
 20
273
 11
10.7479
 21
272.914
  0
LINE
  8
0
 10
10.7479
 20
272.914
 11
10.7416
 21
272.828
  0
LINE
  8
0
 10
10.7416
 20
272.828
 11
10.731
 21
272.743
  0
LINE
  8
0
 10
10.731
 20
272.743
 11
10.7164
 21
272.659
  0
LINE
  8
0
 10
10.7164
 20
272.659
 11
10.6975
 21
272.575
  0
LINE
  8
0
 10
10.6975
 20
272.575
 11
10.6746
 21
272.492
  0
LINE
  8
0
 10
10.6746
 20
272.492
 11
10.6477
 21
272.41
  0
LINE
  8
0
 10
10.6477
 20
272.41
 11
10.6168
 21
272.33
  0
LINE
  8
0
 10
10.6168
 20
272.33
 11
10.582
 21
272.252
  0
LINE
  8
0
 10
10.582
 20
272.252
 11
10.5434
 21
272.175
  0
LINE
  8
0
 10
10.5434
 20
272.175
 11
10.501
 21
272.1
  0
LINE
  8
0
 10
10.501
 20
272.1
 11
10.4551
 21
272.028
  0
LINE
  8
0
 10
10.4551
 20
272.028
 11
10.4056
 21
271.958
  0
LINE
  8
0
 10
10.4056
 20
271.958
 11
10.3528
 21
271.89
  0
LINE
  8
0
 10
10.3528
 20
271.89
 11
10.2967
 21
271.825
  0
LINE
  8
0
 10
10.2967
 20
271.825
 11
10.2374
 21
271.763
  0
LINE
  8
0
 10
10.2374
 20
271.763
 11
10.1752
 21
271.703
  0
LINE
  8
0
 10
10.1752
 20
271.703
 11
10.1102
 21
271.647
  0
LINE
  8
0
 10
10.1102
 20
271.647
 11
10.0425
 21
271.594
  0
LINE
  8
0
 10
10.0425
 20
271.594
 11
9.97224
 21
271.545
  0
LINE
  8
0
 10
9.97224
 20
271.545
 11
9.89967
 21
271.499
  0
LINE
  8
0
 10
9.89967
 20
271.499
 11
9.82494
 21
271.457
  0
LINE
  8
0
 10
9.82494
 20
271.457
 11
9.74821
 21
271.418
  0
LINE
  8
0
 10
9.74821
 20
271.418
 11
9.66969
 21
271.383
  0
LINE
  8
0
 10
9.66969
 20
271.383
 11
9.58955
 21
271.352
  0
LINE
  8
0
 10
9.58955
 20
271.352
 11
9.508
 21
271.325
  0
LINE
  8
0
 10
9.508
 20
271.325
 11
9.4252
 21
271.302
  0
LINE
  8
0
 10
9.4252
 20
271.302
 11
9.3414
 21
271.284
  0
LINE
  8
0
 10
9.3414
 20
271.284
 11
9.25677
 21
271.269
  0
LINE
  8
0
 10
9.25677
 20
271.269
 11
9.17152
 21
271.258
  0
LINE
  8
0
 10
9.17152
 20
271.258
 11
9.08586
 21
271.252
  0
LINE
  8
0
 10
9.08586
 20
271.252
 11
9
 21
271.25
  0
LINE
  8
0
 10
9
 20
271.25
 11
8.91412
 21
271.252
  0
ENDSEC
  0
SECTION
  2
OBJECTS
  0
DICTIONARY
  0
ENDSEC
  0
EOF
