  0
SECTION
  2
BLOCKS
  0
ENDSEC
  0
SECTION
  2
ENTITIES
  0
LINE
  8
0
 10
72
 20
18
 11
18
 21
72
  0
LINE
  8
0
 10
18
 20
72
 11
0
 21
72
  0
LINE
  8
0
 10
0
 20
72
 11
0
 21
36
  0
LINE
  8
0
 10
0
 20
36
 11
21.43
 21
36
  0
LINE
  8
0
 10
21.43
 20
36
 11
21.5895
 21
35.9961
  0
LINE
  8
0
 10
21.5895
 20
35.9961
 11
21.7486
 21
35.9843
  0
LINE
  8
0
 10
21.7486
 20
35.9843
 11
21.9069
 21
35.9648
  0
LINE
  8
0
 10
21.9069
 20
35.9648
 11
22.064
 21
35.9375
  0
LINE
  8
0
 10
22.064
 20
35.9375
 11
22.2197
 21
35.9026
  0
LINE
  8
0
 10
22.2197
 20
35.9026
 11
22.3734
 21
35.86
  0
LINE
  8
0
 10
22.3734
 20
35.86
 11
22.5249
 21
35.81
  0
LINE
  8
0
 10
22.5249
 20
35.81
 11
22.6737
 21
35.7526
  0
LINE
  8
0
 10
22.6737
 20
35.7526
 11
22.8195
 21
35.688
  0
LINE
  8
0
 10
22.8195
 20
35.688
 11
22.962
 21
35.6162
  0
LINE
  8
0
 10
22.962
 20
35.6162
 11
23.1008
 21
35.5376
  0
LINE
  8
0
 10
23.1008
 20
35.5376
 11
23.2356
 21
35.4523
  0
LINE
  8
0
 10
23.2356
 20
35.4523
 11
23.366
 21
35.3604
  0
LINE
  8
0
 10
23.366
 20
35.3604
 11
23.4918
 21
35.2623
  0
LINE
  8
0
 10
23.4918
 20
35.2623
 11
23.6126
 21
35.1581
  0
LINE
  8
0
 10
23.6126
 20
35.1581
 11
23.7281
 21
35.0481
  0
LINE
  8
0
 10
23.7281
 20
35.0481
 11
23.8381
 21
34.9326
  0
LINE
  8
0
 10
23.8381
 20
34.9326
 11
23.9423
 21
34.8118
  0
LINE
  8
0
 10
23.9423
 20
34.8118
 11
24.0404
 21
34.686
  0
LINE
  8
0
 10
24.0404
 20
34.686
 11
24.1323
 21
34.5556
  0
LINE
  8
0
 10
24.1323
 20
34.5556
 11
24.2176
 21
34.4208
  0
LINE
  8
0
 10
24.2176
 20
34.4208
 11
24.2962
 21
34.282
  0
LINE
  8
0
 10
24.2962
 20
34.282
 11
24.368
 21
34.1395
  0
LINE
  8
0
 10
24.368
 20
34.1395
 11
24.4326
 21
33.9937
  0
LINE
  8
0
 10
24.4326
 20
33.9937
 11
24.49
 21
33.8449
  0
LINE
  8
0
 10
24.49
 20
33.8449
 11
24.5401
 21
33.6934
  0
LINE
  8
0
 10
24.5401
 20
33.6934
 11
24.5826
 21
33.5397
  0
LINE
  8
0
 10
24.5826
 20
33.5397
 11
24.6175
 21
33.384
  0
LINE
  8
0
 10
24.6175
 20
33.384
 11
24.6448
 21
33.2269
  0
LINE
  8
0
 10
24.6448
 20
33.2269
 11
24.6643
 21
33.0685
  0
LINE
  8
0
 10
24.6643
 20
33.0685
 11
24.6761
 21
32.9095
  0
LINE
  8
0
 10
24.6761
 20
32.9095
 11
24.68
 21
32.75
  0
LINE
  8
0
 10
24.68
 20
32.75
 11
24.6761
 21
32.5905
  0
LINE
  8
0
 10
24.6761
 20
32.5905
 11
24.6643
 21
32.4314
  0
LINE
  8
0
 10
24.6643
 20
32.4314
 11
24.6448
 21
32.2731
  0
LINE
  8
0
 10
24.6448
 20
32.2731
 11
24.6175
 21
32.116
  0
LINE
  8
0
 10
24.6175
 20
32.116
 11
24.5826
 21
31.9603
  0
LINE
  8
0
 10
24.5826
 20
31.9603
 11
24.5401
 21
31.8066
  0
LINE
  8
0
 10
24.5401
 20
31.8066
 11
24.49
 21
31.6551
  0
LINE
  8
0
 10
24.49
 20
31.6551
 11
24.4326
 21
31.5063
  0
LINE
  8
0
 10
24.4326
 20
31.5063
 11
24.368
 21
31.3604
  0
LINE
  8
0
 10
24.368
 20
31.3604
 11
24.2962
 21
31.218
  0
LINE
  8
0
 10
24.2962
 20
31.218
 11
24.2176
 21
31.0792
  0
LINE
  8
0
 10
24.2176
 20
31.0792
 11
24.1323
 21
30.9444
  0
LINE
  8
0
 10
24.1323
 20
30.9444
 11
24.0404
 21
30.814
  0
LINE
  8
0
 10
24.0404
 20
30.814
 11
23.9423
 21
30.6882
  0
LINE
  8
0
 10
23.9423
 20
30.6882
 11
23.8381
 21
30.5674
  0
LINE
  8
0
 10
23.8381
 20
30.5674
 11
23.7281
 21
30.4519
  0
LINE
  8
0
 10
23.7281
 20
30.4519
 11
23.6126
 21
30.3419
  0
LINE
  8
0
 10
23.6126
 20
30.3419
 11
23.4918
 21
30.2377
  0
LINE
  8
0
 10
23.4918
 20
30.2377
 11
23.366
 21
30.1396
  0
LINE
  8
0
 10
23.366
 20
30.1396
 11
23.2356
 21
30.0477
  0
LINE
  8
0
 10
23.2356
 20
30.0477
 11
23.1008
 21
29.9624
  0
LINE
  8
0
 10
23.1008
 20
29.9624
 11
22.962
 21
29.8837
  0
LINE
  8
0
 10
22.962
 20
29.8837
 11
22.8195
 21
29.812
  0
LINE
  8
0
 10
22.8195
 20
29.812
 11
22.6737
 21
29.7474
  0
LINE
  8
0
 10
22.6737
 20
29.7474
 11
22.5249
 21
29.69
  0
LINE
  8
0
 10
22.5249
 20
29.69
 11
22.3734
 21
29.6399
  0
LINE
  8
0
 10
22.3734
 20
29.6399
 11
22.2197
 21
29.5974
  0
LINE
  8
0
 10
22.2197
 20
29.5974
 11
22.064
 21
29.5624
  0
LINE
  8
0
 10
22.064
 20
29.5624
 11
21.9069
 21
29.5352
  0
LINE
  8
0
 10
21.9069
 20
29.5352
 11
21.7486
 21
29.5156
  0
LINE
  8
0
 10
21.7486
 20
29.5156
 11
21.5895
 21
29.5039
  0
LINE
  8
0
 10
21.5895
 20
29.5039
 11
21.2705
 21
29.4961
  0
LINE
  8
0
 10
21.2705
 20
29.4961
 11
21.1114
 21
29.4843
  0
LINE
  8
0
 10
21.1114
 20
29.4843
 11
20.9531
 21
29.4648
  0
LINE
  8
0
 10
20.9531
 20
29.4648
 11
20.7959
 21
29.4375
  0
LINE
  8
0
 10
20.7959
 20
29.4375
 11
20.6403
 21
29.4026
  0
LINE
  8
0
 10
20.6403
 20
29.4026
 11
20.4866
 21
29.36
  0
LINE
  8
0
 10
20.4866
 20
29.36
 11
20.3351
 21
29.31
  0
LINE
  8
0
 10
20.3351
 20
29.31
 11
20.1863
 21
29.2526
  0
LINE
  8
0
 10
20.1863
 20
29.2526
 11
20.0404
 21
29.188
  0
LINE
  8
0
 10
20.0404
 20
29.188
 11
19.8979
 21
29.1162
  0
LINE
  8
0
 10
19.8979
 20
29.1162
 11
19.7592
 21
29.0376
  0
LINE
  8
0
 10
19.7592
 20
29.0376
 11
19.6244
 21
28.9523
  0
LINE
  8
0
 10
19.6244
 20
28.9523
 11
19.494
 21
28.8604
  0
LINE
  8
0
 10
19.494
 20
28.8604
 11
19.3682
 21
28.7623
  0
LINE
  8
0
 10
19.3682
 20
28.7623
 11
19.2474
 21
28.6581
  0
LINE
  8
0
 10
19.2474
 20
28.6581
 11
19.1319
 21
28.5481
  0
LINE
  8
0
 10
19.1319
 20
28.5481
 11
19.0219
 21
28.4326
  0
LINE
  8
0
 10
19.0219
 20
28.4326
 11
18.9177
 21
28.3118
  0
LINE
  8
0
 10
18.9177
 20
28.3118
 11
18.8196
 21
28.186
  0
LINE
  8
0
 10
18.8196
 20
28.186
 11
18.7277
 21
28.0556
  0
LINE
  8
0
 10
18.7277
 20
28.0556
 11
18.6424
 21
27.9208
  0
LINE
  8
0
 10
18.6424
 20
27.9208
 11
18.5638
 21
27.782
  0
LINE
  8
0
 10
18.5638
 20
27.782
 11
18.492
 21
27.6395
  0
LINE
  8
0
 10
18.492
 20
27.6395
 11
18.4274
 21
27.4937
  0
LINE
  8
0
 10
18.4274
 20
27.4937
 11
18.37
 21
27.3449
  0
LINE
  8
0
 10
18.37
 20
27.3449
 11
18.3199
 21
27.1934
  0
LINE
  8
0
 10
18.3199
 20
27.1934
 11
18.2774
 21
27.0397
  0
LINE
  8
0
 10
18.2774
 20
27.0397
 11
18.2424
 21
26.884
  0
LINE
  8
0
 10
18.2424
 20
26.884
 11
18.2152
 21
26.7269
  0
LINE
  8
0
 10
18.2152
 20
26.7269
 11
18.1956
 21
26.5685
  0
LINE
  8
0
 10
18.1956
 20
26.5685
 11
18.1839
 21
26.4095
  0
LINE
  8
0
 10
18.1839
 20
26.4095
 11
18.18
 21
26.25
  0
LINE
  8
0
 10
18.18
 20
26.25
 11
18.18
 21
18.18
  0
LINE
  8
0
 10
18.18
 20
18.18
 11
26.25
 21
18.18
  0
LINE
  8
0
 10
26.25
 20
18.18
 11
26.4095
 21
18.1839
  0
LINE
  8
0
 10
26.4095
 20
18.1839
 11
26.5685
 21
18.1956
  0
LINE
  8
0
 10
26.5685
 20
18.1956
 11
26.7269
 21
18.2152
  0
LINE
  8
0
 10
26.7269
 20
18.2152
 11
26.884
 21
18.2424
  0
LINE
  8
0
 10
26.884
 20
18.2424
 11
27.0397
 21
18.2774
  0
LINE
  8
0
 10
27.0397
 20
18.2774
 11
27.1934
 21
18.3199
  0
LINE
  8
0
 10
27.1934
 20
18.3199
 11
27.3449
 21
18.37
  0
LINE
  8
0
 10
27.3449
 20
18.37
 11
27.4937
 21
18.4274
  0
LINE
  8
0
 10
27.4937
 20
18.4274
 11
27.6395
 21
18.492
  0
LINE
  8
0
 10
27.6395
 20
18.492
 11
27.782
 21
18.5638
  0
LINE
  8
0
 10
27.782
 20
18.5638
 11
27.9208
 21
18.6424
  0
LINE
  8
0
 10
27.9208
 20
18.6424
 11
28.0556
 21
18.7277
  0
LINE
  8
0
 10
28.0556
 20
18.7277
 11
28.186
 21
18.8196
  0
LINE
  8
0
 10
28.186
 20
18.8196
 11
28.3118
 21
18.9177
  0
LINE
  8
0
 10
28.3118
 20
18.9177
 11
28.4326
 21
19.0219
  0
LINE
  8
0
 10
28.4326
 20
19.0219
 11
28.5481
 21
19.1319
  0
LINE
  8
0
 10
28.5481
 20
19.1319
 11
28.6581
 21
19.2474
  0
LINE
  8
0
 10
28.6581
 20
19.2474
 11
28.7623
 21
19.3682
  0
LINE
  8
0
 10
28.7623
 20
19.3682
 11
28.8604
 21
19.494
  0
LINE
  8
0
 10
28.8604
 20
19.494
 11
28.9523
 21
19.6244
  0
LINE
  8
0
 10
28.9523
 20
19.6244
 11
29.0376
 21
19.7592
  0
LINE
  8
0
 10
29.0376
 20
19.7592
 11
29.1162
 21
19.8979
  0
LINE
  8
0
 10
29.1162
 20
19.8979
 11
29.188
 21
20.0404
  0
LINE
  8
0
 10
29.188
 20
20.0404
 11
29.2526
 21
20.1863
  0
LINE
  8
0
 10
29.2526
 20
20.1863
 11
29.31
 21
20.3351
  0
LINE
  8
0
 10
29.31
 20
20.3351
 11
29.36
 21
20.4866
  0
LINE
  8
0
 10
29.36
 20
20.4866
 11
29.4026
 21
20.6403
  0
LINE
  8
0
 10
29.4026
 20
20.6403
 11
29.4375
 21
20.7959
  0
LINE
  8
0
 10
29.4375
 20
20.7959
 11
29.4648
 21
20.9531
  0
LINE
  8
0
 10
29.4648
 20
20.9531
 11
29.4843
 21
21.1114
  0
LINE
  8
0
 10
29.4843
 20
21.1114
 11
29.4961
 21
21.2705
  0
LINE
  8
0
 10
29.4961
 20
21.2705
 11
29.5039
 21
21.5895
  0
LINE
  8
0
 10
29.5039
 20
21.5895
 11
29.5156
 21
21.7486
  0
LINE
  8
0
 10
29.5156
 20
21.7486
 11
29.5352
 21
21.9069
  0
LINE
  8
0
 10
29.5352
 20
21.9069
 11
29.5624
 21
22.064
  0
LINE
  8
0
 10
29.5624
 20
22.064
 11
29.5974
 21
22.2197
  0
LINE
  8
0
 10
29.5974
 20
22.2197
 11
29.6399
 21
22.3734
  0
LINE
  8
0
 10
29.6399
 20
22.3734
 11
29.69
 21
22.5249
  0
LINE
  8
0
 10
29.69
 20
22.5249
 11
29.7474
 21
22.6737
  0
LINE
  8
0
 10
29.7474
 20
22.6737
 11
29.812
 21
22.8195
  0
LINE
  8
0
 10
29.812
 20
22.8195
 11
29.8837
 21
22.962
  0
LINE
  8
0
 10
29.8837
 20
22.962
 11
29.9624
 21
23.1008
  0
LINE
  8
0
 10
29.9624
 20
23.1008
 11
30.0477
 21
23.2356
  0
LINE
  8
0
 10
30.0477
 20
23.2356
 11
30.1396
 21
23.366
  0
LINE
  8
0
 10
30.1396
 20
23.366
 11
30.2377
 21
23.4918
  0
LINE
  8
0
 10
30.2377
 20
23.4918
 11
30.3419
 21
23.6126
  0
LINE
  8
0
 10
30.3419
 20
23.6126
 11
30.4519
 21
23.7281
  0
LINE
  8
0
 10
30.4519
 20
23.7281
 11
30.5674
 21
23.8381
  0
LINE
  8
0
 10
30.5674
 20
23.8381
 11
30.6882
 21
23.9423
  0
LINE
  8
0
 10
30.6882
 20
23.9423
 11
30.814
 21
24.0404
  0
LINE
  8
0
 10
30.814
 20
24.0404
 11
30.9444
 21
24.1323
  0
LINE
  8
0
 10
30.9444
 20
24.1323
 11
31.0792
 21
24.2176
  0
LINE
  8
0
 10
31.0792
 20
24.2176
 11
31.218
 21
24.2962
  0
LINE
  8
0
 10
31.218
 20
24.2962
 11
31.3604
 21
24.368
  0
LINE
  8
0
 10
31.3604
 20
24.368
 11
31.5063
 21
24.4326
  0
LINE
  8
0
 10
31.5063
 20
24.4326
 11
31.6551
 21
24.49
  0
LINE
  8
0
 10
31.6551
 20
24.49
 11
31.8066
 21
24.5401
  0
LINE
  8
0
 10
31.8066
 20
24.5401
 11
31.9603
 21
24.5826
  0
LINE
  8
0
 10
31.9603
 20
24.5826
 11
32.116
 21
24.6175
  0
LINE
  8
0
 10
32.116
 20
24.6175
 11
32.2731
 21
24.6448
  0
LINE
  8
0
 10
32.2731
 20
24.6448
 11
32.4314
 21
24.6643
  0
LINE
  8
0
 10
32.4314
 20
24.6643
 11
32.5905
 21
24.6761
  0
LINE
  8
0
 10
32.5905
 20
24.6761
 11
32.75
 21
24.68
  0
LINE
  8
0
 10
32.75
 20
24.68
 11
32.9095
 21
24.6761
  0
LINE
  8
0
 10
32.9095
 20
24.6761
 11
33.0685
 21
24.6643
  0
LINE
  8
0
 10
33.0685
 20
24.6643
 11
33.2269
 21
24.6448
  0
LINE
  8
0
 10
33.2269
 20
24.6448
 11
33.384
 21
24.6175
  0
LINE
  8
0
 10
33.384
 20
24.6175
 11
33.5397
 21
24.5826
  0
LINE
  8
0
 10
33.5397
 20
24.5826
 11
33.6934
 21
24.5401
  0
LINE
  8
0
 10
33.6934
 20
24.5401
 11
33.8449
 21
24.49
  0
LINE
  8
0
 10
33.8449
 20
24.49
 11
33.9937
 21
24.4326
  0
LINE
  8
0
 10
33.9937
 20
24.4326
 11
34.1395
 21
24.368
  0
LINE
  8
0
 10
34.1395
 20
24.368
 11
34.282
 21
24.2962
  0
LINE
  8
0
 10
34.282
 20
24.2962
 11
34.4208
 21
24.2176
  0
LINE
  8
0
 10
34.4208
 20
24.2176
 11
34.5556
 21
24.1323
  0
LINE
  8
0
 10
34.5556
 20
24.1323
 11
34.686
 21
24.0404
  0
LINE
  8
0
 10
34.686
 20
24.0404
 11
34.8118
 21
23.9423
  0
LINE
  8
0
 10
34.8118
 20
23.9423
 11
34.9326
 21
23.8381
  0
LINE
  8
0
 10
34.9326
 20
23.8381
 11
35.0481
 21
23.7281
  0
LINE
  8
0
 10
35.0481
 20
23.7281
 11
35.1581
 21
23.6126
  0
LINE
  8
0
 10
35.1581
 20
23.6126
 11
35.2623
 21
23.4918
  0
LINE
  8
0
 10
35.2623
 20
23.4918
 11
35.3604
 21
23.366
  0
LINE
  8
0
 10
35.3604
 20
23.366
 11
35.4523
 21
23.2356
  0
LINE
  8
0
 10
35.4523
 20
23.2356
 11
35.5376
 21
23.1008
  0
LINE
  8
0
 10
35.5376
 20
23.1008
 11
35.6162
 21
22.962
  0
LINE
  8
0
 10
35.6162
 20
22.962
 11
35.688
 21
22.8195
  0
LINE
  8
0
 10
35.688
 20
22.8195
 11
35.7526
 21
22.6737
  0
LINE
  8
0
 10
35.7526
 20
22.6737
 11
35.81
 21
22.5249
  0
LINE
  8
0
 10
35.81
 20
22.5249
 11
35.86
 21
22.3734
  0
LINE
  8
0
 10
35.86
 20
22.3734
 11
35.9026
 21
22.2197
  0
LINE
  8
0
 10
35.9026
 20
22.2197
 11
35.9375
 21
22.064
  0
LINE
  8
0
 10
35.9375
 20
22.064
 11
35.9648
 21
21.9069
  0
LINE
  8
0
 10
35.9648
 20
21.9069
 11
35.9843
 21
21.7486
  0
LINE
  8
0
 10
35.9843
 20
21.7486
 11
35.9961
 21
21.5895
  0
LINE
  8
0
 10
35.9961
 20
21.5895
 11
36
 21
21.43
  0
LINE
  8
0
 10
36
 20
21.43
 11
36
 21
0
  0
LINE
  8
0
 10
36
 20
0
 11
72
 21
0
  0
LINE
  8
0
 10
72
 20
0
 11
72
 21
18
  0
LINE
  8
0
 10
8.91412
 20
61.2521
 11
8.82846
 21
61.2584
  0
LINE
  8
0
 10
8.82846
 20
61.2584
 11
8.74321
 21
61.2689
  0
LINE
  8
0
 10
8.74321
 20
61.2689
 11
8.65858
 21
61.2836
  0
LINE
  8
0
 10
8.65858
 20
61.2836
 11
8.57478
 21
61.3024
  0
LINE
  8
0
 10
8.57478
 20
61.3024
 11
8.49199
 21
61.3253
  0
LINE
  8
0
 10
8.49199
 20
61.3253
 11
8.41043
 21
61.3523
  0
LINE
  8
0
 10
8.41043
 20
61.3523
 11
8.33029
 21
61.3832
  0
LINE
  8
0
 10
8.33029
 20
61.3832
 11
8.25177
 21
61.418
  0
LINE
  8
0
 10
8.25177
 20
61.418
 11
8.17505
 21
61.4566
  0
LINE
  8
0
 10
8.17505
 20
61.4566
 11
8.10031
 21
61.499
  0
LINE
  8
0
 10
8.10031
 20
61.499
 11
8.02774
 21
61.5449
  0
LINE
  8
0
 10
8.02774
 20
61.5449
 11
7.95752
 21
61.5944
  0
LINE
  8
0
 10
7.95752
 20
61.5944
 11
7.8898
 21
61.6472
  0
LINE
  8
0
 10
7.8898
 20
61.6472
 11
7.82477
 21
61.7033
  0
LINE
  8
0
 10
7.82477
 20
61.7033
 11
7.76256
 21
61.7626
  0
LINE
  8
0
 10
7.76256
 20
61.7626
 11
7.70332
 21
61.8248
  0
LINE
  8
0
 10
7.70332
 20
61.8248
 11
7.64722
 21
61.8898
  0
LINE
  8
0
 10
7.64722
 20
61.8898
 11
7.59438
 21
61.9575
  0
LINE
  8
0
 10
7.59438
 20
61.9575
 11
7.54492
 21
62.0277
  0
LINE
  8
0
 10
7.54492
 20
62.0277
 11
7.49896
 21
62.1003
  0
LINE
  8
0
 10
7.49896
 20
62.1003
 11
7.45663
 21
62.175
  0
LINE
  8
0
 10
7.45663
 20
62.175
 11
7.41801
 21
62.2518
  0
LINE
  8
0
 10
7.41801
 20
62.2518
 11
7.38321
 21
62.3303
  0
LINE
  8
0
 10
7.38321
 20
62.3303
 11
7.35229
 21
62.4104
  0
LINE
  8
0
 10
7.35229
 20
62.4104
 11
7.32535
 21
62.492
  0
LINE
  8
0
 10
7.32535
 20
62.492
 11
7.30244
 21
62.5748
  0
LINE
  8
0
 10
7.30244
 20
62.5748
 11
7.28362
 21
62.6586
  0
LINE
  8
0
 10
7.28362
 20
62.6586
 11
7.26894
 21
62.7432
  0
LINE
  8
0
 10
7.26894
 20
62.7432
 11
7.25842
 21
62.8285
  0
LINE
  8
0
 10
7.25842
 20
62.8285
 11
7.25211
 21
62.9141
  0
LINE
  8
0
 10
7.25211
 20
62.9141
 11
7.25
 21
63
  0
LINE
  8
0
 10
7.25
 20
63
 11
7.25211
 21
63.0859
  0
LINE
  8
0
 10
7.25211
 20
63.0859
 11
7.25842
 21
63.1715
  0
LINE
  8
0
 10
7.25842
 20
63.1715
 11
7.26894
 21
63.2568
  0
LINE
  8
0
 10
7.26894
 20
63.2568
 11
7.28362
 21
63.3414
  0
LINE
  8
0
 10
7.28362
 20
63.3414
 11
7.30244
 21
63.4252
  0
LINE
  8
0
 10
7.30244
 20
63.4252
 11
7.32535
 21
63.508
  0
LINE
  8
0
 10
7.32535
 20
63.508
 11
7.35229
 21
63.5896
  0
LINE
  8
0
 10
7.35229
 20
63.5896
 11
7.38321
 21
63.6697
  0
LINE
  8
0
 10
7.38321
 20
63.6697
 11
7.41801
 21
63.7482
  0
LINE
  8
0
 10
7.41801
 20
63.7482
 11
7.45663
 21
63.8249
  0
LINE
  8
0
 10
7.45663
 20
63.8249
 11
7.49896
 21
63.8997
  0
LINE
  8
0
 10
7.49896
 20
63.8997
 11
7.54492
 21
63.9722
  0
LINE
  8
0
 10
7.54492
 20
63.9722
 11
7.59438
 21
64.0425
  0
LINE
  8
0
 10
7.59438
 20
64.0425
 11
7.64722
 21
64.1102
  0
LINE
  8
0
 10
7.64722
 20
64.1102
 11
7.70332
 21
64.1752
  0
LINE
  8
0
 10
7.70332
 20
64.1752
 11
7.76256
 21
64.2374
  0
LINE
  8
0
 10
7.76256
 20
64.2374
 11
7.82477
 21
64.2967
  0
LINE
  8
0
 10
7.82477
 20
64.2967
 11
7.8898
 21
64.3528
  0
LINE
  8
0
 10
7.8898
 20
64.3528
 11
7.95752
 21
64.4056
  0
LINE
  8
0
 10
7.95752
 20
64.4056
 11
8.02774
 21
64.4551
  0
LINE
  8
0
 10
8.02774
 20
64.4551
 11
8.10031
 21
64.501
  0
LINE
  8
0
 10
8.10031
 20
64.501
 11
8.17505
 21
64.5434
  0
LINE
  8
0
 10
8.17505
 20
64.5434
 11
8.25177
 21
64.582
  0
LINE
  8
0
 10
8.25177
 20
64.582
 11
8.33029
 21
64.6168
  0
LINE
  8
0
 10
8.33029
 20
64.6168
 11
8.41043
 21
64.6477
  0
LINE
  8
0
 10
8.41043
 20
64.6477
 11
8.49199
 21
64.6746
  0
LINE
  8
0
 10
8.49199
 20
64.6746
 11
8.57478
 21
64.6975
  0
LINE
  8
0
 10
8.57478
 20
64.6975
 11
8.65858
 21
64.7164
  0
LINE
  8
0
 10
8.65858
 20
64.7164
 11
8.74321
 21
64.731
  0
LINE
  8
0
 10
8.74321
 20
64.731
 11
8.82846
 21
64.7416
  0
LINE
  8
0
 10
8.82846
 20
64.7416
 11
8.91412
 21
64.7479
  0
LINE
  8
0
 10
8.91412
 20
64.7479
 11
9
 21
64.75
  0
LINE
  8
0
 10
9
 20
64.75
 11
9.08586
 21
64.7479
  0
LINE
  8
0
 10
9.08586
 20
64.7479
 11
9.17152
 21
64.7416
  0
LINE
  8
0
 10
9.17152
 20
64.7416
 11
9.25677
 21
64.731
  0
LINE
  8
0
 10
9.25677
 20
64.731
 11
9.3414
 21
64.7164
  0
LINE
  8
0
 10
9.3414
 20
64.7164
 11
9.4252
 21
64.6975
  0
LINE
  8
0
 10
9.4252
 20
64.6975
 11
9.508
 21
64.6746
  0
LINE
  8
0
 10
9.508
 20
64.6746
 11
9.58955
 21
64.6477
  0
LINE
  8
0
 10
9.58955
 20
64.6477
 11
9.66969
 21
64.6168
  0
LINE
  8
0
 10
9.66969
 20
64.6168
 11
9.74821
 21
64.582
  0
LINE
  8
0
 10
9.74821
 20
64.582
 11
9.82494
 21
64.5434
  0
LINE
  8
0
 10
9.82494
 20
64.5434
 11
9.89967
 21
64.501
  0
LINE
  8
0
 10
9.89967
 20
64.501
 11
9.97224
 21
64.4551
  0
LINE
  8
0
 10
9.97224
 20
64.4551
 11
10.0425
 21
64.4056
  0
LINE
  8
0
 10
10.0425
 20
64.4056
 11
10.1102
 21
64.3528
  0
LINE
  8
0
 10
10.1102
 20
64.3528
 11
10.1752
 21
64.2967
  0
LINE
  8
0
 10
10.1752
 20
64.2967
 11
10.2374
 21
64.2374
  0
LINE
  8
0
 10
10.2374
 20
64.2374
 11
10.2967
 21
64.1752
  0
LINE
  8
0
 10
10.2967
 20
64.1752
 11
10.3528
 21
64.1102
  0
LINE
  8
0
 10
10.3528
 20
64.1102
 11
10.4056
 21
64.0425
  0
LINE
  8
0
 10
10.4056
 20
64.0425
 11
10.4551
 21
63.9722
  0
LINE
  8
0
 10
10.4551
 20
63.9722
 11
10.501
 21
63.8997
  0
LINE
  8
0
 10
10.501
 20
63.8997
 11
10.5434
 21
63.8249
  0
LINE
  8
0
 10
10.5434
 20
63.8249
 11
10.582
 21
63.7482
  0
LINE
  8
0
 10
10.582
 20
63.7482
 11
10.6168
 21
63.6697
  0
LINE
  8
0
 10
10.6168
 20
63.6697
 11
10.6477
 21
63.5896
  0
LINE
  8
0
 10
10.6477
 20
63.5896
 11
10.6746
 21
63.508
  0
LINE
  8
0
 10
10.6746
 20
63.508
 11
10.6975
 21
63.4252
  0
LINE
  8
0
 10
10.6975
 20
63.4252
 11
10.7164
 21
63.3414
  0
LINE
  8
0
 10
10.7164
 20
63.3414
 11
10.731
 21
63.2568
  0
LINE
  8
0
 10
10.731
 20
63.2568
 11
10.7416
 21
63.1715
  0
LINE
  8
0
 10
10.7416
 20
63.1715
 11
10.7479
 21
63.0859
  0
LINE
  8
0
 10
10.7479
 20
63.0859
 11
10.75
 21
63
  0
LINE
  8
0
 10
10.75
 20
63
 11
10.7479
 21
62.9141
  0
LINE
  8
0
 10
10.7479
 20
62.9141
 11
10.7416
 21
62.8285
  0
LINE
  8
0
 10
10.7416
 20
62.8285
 11
10.731
 21
62.7432
  0
LINE
  8
0
 10
10.731
 20
62.7432
 11
10.7164
 21
62.6586
  0
LINE
  8
0
 10
10.7164
 20
62.6586
 11
10.6975
 21
62.5748
  0
LINE
  8
0
 10
10.6975
 20
62.5748
 11
10.6746
 21
62.492
  0
LINE
  8
0
 10
10.6746
 20
62.492
 11
10.6477
 21
62.4104
  0
LINE
  8
0
 10
10.6477
 20
62.4104
 11
10.6168
 21
62.3303
  0
LINE
  8
0
 10
10.6168
 20
62.3303
 11
10.582
 21
62.2518
  0
LINE
  8
0
 10
10.582
 20
62.2518
 11
10.5434
 21
62.175
  0
LINE
  8
0
 10
10.5434
 20
62.175
 11
10.501
 21
62.1003
  0
LINE
  8
0
 10
10.501
 20
62.1003
 11
10.4551
 21
62.0277
  0
LINE
  8
0
 10
10.4551
 20
62.0277
 11
10.4056
 21
61.9575
  0
LINE
  8
0
 10
10.4056
 20
61.9575
 11
10.3528
 21
61.8898
  0
LINE
  8
0
 10
10.3528
 20
61.8898
 11
10.2967
 21
61.8248
  0
LINE
  8
0
 10
10.2967
 20
61.8248
 11
10.2374
 21
61.7626
  0
LINE
  8
0
 10
10.2374
 20
61.7626
 11
10.1752
 21
61.7033
  0
LINE
  8
0
 10
10.1752
 20
61.7033
 11
10.1102
 21
61.6472
  0
LINE
  8
0
 10
10.1102
 20
61.6472
 11
10.0425
 21
61.5944
  0
LINE
  8
0
 10
10.0425
 20
61.5944
 11
9.97224
 21
61.5449
  0
LINE
  8
0
 10
9.97224
 20
61.5449
 11
9.89967
 21
61.499
  0
LINE
  8
0
 10
9.89967
 20
61.499
 11
9.82494
 21
61.4566
  0
LINE
  8
0
 10
9.82494
 20
61.4566
 11
9.74821
 21
61.418
  0
LINE
  8
0
 10
9.74821
 20
61.418
 11
9.66969
 21
61.3832
  0
LINE
  8
0
 10
9.66969
 20
61.3832
 11
9.58955
 21
61.3523
  0
LINE
  8
0
 10
9.58955
 20
61.3523
 11
9.508
 21
61.3253
  0
LINE
  8
0
 10
9.508
 20
61.3253
 11
9.4252
 21
61.3024
  0
LINE
  8
0
 10
9.4252
 20
61.3024
 11
9.3414
 21
61.2836
  0
LINE
  8
0
 10
9.3414
 20
61.2836
 11
9.25677
 21
61.2689
  0
LINE
  8
0
 10
9.25677
 20
61.2689
 11
9.17152
 21
61.2584
  0
LINE
  8
0
 10
9.17152
 20
61.2584
 11
9.08586
 21
61.2521
  0
LINE
  8
0
 10
9.08586
 20
61.2521
 11
9
 21
61.25
  0
LINE
  8
0
 10
9
 20
61.25
 11
8.91412
 21
61.2521
  0
LINE
  8
0
 10
62.9141
 20
7.25211
 11
62.8285
 21
7.25842
  0
LINE
  8
0
 10
62.8285
 20
7.25842
 11
62.7432
 21
7.26894
  0
LINE
  8
0
 10
62.7432
 20
7.26894
 11
62.6586
 21
7.28362
  0
LINE
  8
0
 10
62.6586
 20
7.28362
 11
62.5748
 21
7.30244
  0
LINE
  8
0
 10
62.5748
 20
7.30244
 11
62.492
 21
7.32535
  0
LINE
  8
0
 10
62.492
 20
7.32535
 11
62.4104
 21
7.35229
  0
LINE
  8
0
 10
62.4104
 20
7.35229
 11
62.3303
 21
7.38321
  0
LINE
  8
0
 10
62.3303
 20
7.38321
 11
62.2518
 21
7.41801
  0
LINE
  8
0
 10
62.2518
 20
7.41801
 11
62.175
 21
7.45663
  0
LINE
  8
0
 10
62.175
 20
7.45663
 11
62.1003
 21
7.49896
  0
LINE
  8
0
 10
62.1003
 20
7.49896
 11
62.0277
 21
7.54492
  0
LINE
  8
0
 10
62.0277
 20
7.54492
 11
61.9575
 21
7.59438
  0
LINE
  8
0
 10
61.9575
 20
7.59438
 11
61.8898
 21
7.64722
  0
LINE
  8
0
 10
61.8898
 20
7.64722
 11
61.8248
 21
7.70332
  0
LINE
  8
0
 10
61.8248
 20
7.70332
 11
61.7626
 21
7.76256
  0
LINE
  8
0
 10
61.7626
 20
7.76256
 11
61.7033
 21
7.82477
  0
LINE
  8
0
 10
61.7033
 20
7.82477
 11
61.6472
 21
7.8898
  0
LINE
  8
0
 10
61.6472
 20
7.8898
 11
61.5944
 21
7.95752
  0
LINE
  8
0
 10
61.5944
 20
7.95752
 11
61.5449
 21
8.02774
  0
LINE
  8
0
 10
61.5449
 20
8.02774
 11
61.499
 21
8.10031
  0
LINE
  8
0
 10
61.499
 20
8.10031
 11
61.4566
 21
8.17505
  0
LINE
  8
0
 10
61.4566
 20
8.17505
 11
61.418
 21
8.25177
  0
LINE
  8
0
 10
61.418
 20
8.25177
 11
61.3832
 21
8.33029
  0
LINE
  8
0
 10
61.3832
 20
8.33029
 11
61.3523
 21
8.41043
  0
LINE
  8
0
 10
61.3523
 20
8.41043
 11
61.3253
 21
8.49199
  0
LINE
  8
0
 10
61.3253
 20
8.49199
 11
61.3024
 21
8.57478
  0
LINE
  8
0
 10
61.3024
 20
8.57478
 11
61.2836
 21
8.65858
  0
LINE
  8
0
 10
61.2836
 20
8.65858
 11
61.2689
 21
8.74321
  0
LINE
  8
0
 10
61.2689
 20
8.74321
 11
61.2584
 21
8.82846
  0
LINE
  8
0
 10
61.2584
 20
8.82846
 11
61.2521
 21
8.91412
  0
LINE
  8
0
 10
61.2521
 20
8.91412
 11
61.25
 21
9
  0
LINE
  8
0
 10
61.25
 20
9
 11
61.2521
 21
9.08586
  0
LINE
  8
0
 10
61.2521
 20
9.08586
 11
61.2584
 21
9.17152
  0
LINE
  8
0
 10
61.2584
 20
9.17152
 11
61.2689
 21
9.25677
  0
LINE
  8
0
 10
61.2689
 20
9.25677
 11
61.2836
 21
9.3414
  0
LINE
  8
0
 10
61.2836
 20
9.3414
 11
61.3024
 21
9.4252
  0
LINE
  8
0
 10
61.3024
 20
9.4252
 11
61.3253
 21
9.508
  0
LINE
  8
0
 10
61.3253
 20
9.508
 11
61.3523
 21
9.58955
  0
LINE
  8
0
 10
61.3523
 20
9.58955
 11
61.3832
 21
9.66969
  0
LINE
  8
0
 10
61.3832
 20
9.66969
 11
61.418
 21
9.74821
  0
LINE
  8
0
 10
61.418
 20
9.74821
 11
61.4566
 21
9.82494
  0
LINE
  8
0
 10
61.4566
 20
9.82494
 11
61.499
 21
9.89967
  0
LINE
  8
0
 10
61.499
 20
9.89967
 11
61.5449
 21
9.97224
  0
LINE
  8
0
 10
61.5449
 20
9.97224
 11
61.5944
 21
10.0425
  0
LINE
  8
0
 10
61.5944
 20
10.0425
 11
61.6472
 21
10.1102
  0
LINE
  8
0
 10
61.6472
 20
10.1102
 11
61.7033
 21
10.1752
  0
LINE
  8
0
 10
61.7033
 20
10.1752
 11
61.7626
 21
10.2374
  0
LINE
  8
0
 10
61.7626
 20
10.2374
 11
61.8248
 21
10.2967
  0
LINE
  8
0
 10
61.8248
 20
10.2967
 11
61.8898
 21
10.3528
  0
LINE
  8
0
 10
61.8898
 20
10.3528
 11
61.9575
 21
10.4056
  0
LINE
  8
0
 10
61.9575
 20
10.4056
 11
62.0277
 21
10.4551
  0
LINE
  8
0
 10
62.0277
 20
10.4551
 11
62.1003
 21
10.501
  0
LINE
  8
0
 10
62.1003
 20
10.501
 11
62.175
 21
10.5434
  0
LINE
  8
0
 10
62.175
 20
10.5434
 11
62.2518
 21
10.582
  0
LINE
  8
0
 10
62.2518
 20
10.582
 11
62.3303
 21
10.6168
  0
LINE
  8
0
 10
62.3303
 20
10.6168
 11
62.4104
 21
10.6477
  0
LINE
  8
0
 10
62.4104
 20
10.6477
 11
62.492
 21
10.6746
  0
LINE
  8
0
 10
62.492
 20
10.6746
 11
62.5748
 21
10.6975
  0
LINE
  8
0
 10
62.5748
 20
10.6975
 11
62.6586
 21
10.7164
  0
LINE
  8
0
 10
62.6586
 20
10.7164
 11
62.7432
 21
10.731
  0
LINE
  8
0
 10
62.7432
 20
10.731
 11
62.8285
 21
10.7416
  0
LINE
  8
0
 10
62.8285
 20
10.7416
 11
62.9141
 21
10.7479
  0
LINE
  8
0
 10
62.9141
 20
10.7479
 11
63
 21
10.75
  0
LINE
  8
0
 10
63
 20
10.75
 11
63.0859
 21
10.7479
  0
LINE
  8
0
 10
63.0859
 20
10.7479
 11
63.1715
 21
10.7416
  0
LINE
  8
0
 10
63.1715
 20
10.7416
 11
63.2568
 21
10.731
  0
LINE
  8
0
 10
63.2568
 20
10.731
 11
63.3414
 21
10.7164
  0
LINE
  8
0
 10
63.3414
 20
10.7164
 11
63.4252
 21
10.6975
  0
LINE
  8
0
 10
63.4252
 20
10.6975
 11
63.508
 21
10.6746
  0
LINE
  8
0
 10
63.508
 20
10.6746
 11
63.5896
 21
10.6477
  0
LINE
  8
0
 10
63.5896
 20
10.6477
 11
63.6697
 21
10.6168
  0
LINE
  8
0
 10
63.6697
 20
10.6168
 11
63.7482
 21
10.582
  0
LINE
  8
0
 10
63.7482
 20
10.582
 11
63.8249
 21
10.5434
  0
LINE
  8
0
 10
63.8249
 20
10.5434
 11
63.8997
 21
10.501
  0
LINE
  8
0
 10
63.8997
 20
10.501
 11
63.9722
 21
10.4551
  0
LINE
  8
0
 10
63.9722
 20
10.4551
 11
64.0425
 21
10.4056
  0
LINE
  8
0
 10
64.0425
 20
10.4056
 11
64.1102
 21
10.3528
  0
LINE
  8
0
 10
64.1102
 20
10.3528
 11
64.1752
 21
10.2967
  0
LINE
  8
0
 10
64.1752
 20
10.2967
 11
64.2374
 21
10.2374
  0
LINE
  8
0
 10
64.2374
 20
10.2374
 11
64.2967
 21
10.1752
  0
LINE
  8
0
 10
64.2967
 20
10.1752
 11
64.3528
 21
10.1102
  0
LINE
  8
0
 10
64.3528
 20
10.1102
 11
64.4056
 21
10.0425
  0
LINE
  8
0
 10
64.4056
 20
10.0425
 11
64.4551
 21
9.97224
  0
LINE
  8
0
 10
64.4551
 20
9.97224
 11
64.501
 21
9.89967
  0
LINE
  8
0
 10
64.501
 20
9.89967
 11
64.5434
 21
9.82494
  0
LINE
  8
0
 10
64.5434
 20
9.82494
 11
64.582
 21
9.74821
  0
LINE
  8
0
 10
64.582
 20
9.74821
 11
64.6168
 21
9.66969
  0
LINE
  8
0
 10
64.6168
 20
9.66969
 11
64.6477
 21
9.58955
  0
LINE
  8
0
 10
64.6477
 20
9.58955
 11
64.6746
 21
9.508
  0
LINE
  8
0
 10
64.6746
 20
9.508
 11
64.6975
 21
9.4252
  0
LINE
  8
0
 10
64.6975
 20
9.4252
 11
64.7164
 21
9.3414
  0
LINE
  8
0
 10
64.7164
 20
9.3414
 11
64.731
 21
9.25677
  0
LINE
  8
0
 10
64.731
 20
9.25677
 11
64.7416
 21
9.17152
  0
LINE
  8
0
 10
64.7416
 20
9.17152
 11
64.7479
 21
9.08586
  0
LINE
  8
0
 10
64.7479
 20
9.08586
 11
64.75
 21
9
  0
LINE
  8
0
 10
64.75
 20
9
 11
64.7479
 21
8.91412
  0
LINE
  8
0
 10
64.7479
 20
8.91412
 11
64.7416
 21
8.82846
  0
LINE
  8
0
 10
64.7416
 20
8.82846
 11
64.731
 21
8.74321
  0
LINE
  8
0
 10
64.731
 20
8.74321
 11
64.7164
 21
8.65858
  0
LINE
  8
0
 10
64.7164
 20
8.65858
 11
64.6975
 21
8.57478
  0
LINE
  8
0
 10
64.6975
 20
8.57478
 11
64.6746
 21
8.49199
  0
LINE
  8
0
 10
64.6746
 20
8.49199
 11
64.6477
 21
8.41043
  0
LINE
  8
0
 10
64.6477
 20
8.41043
 11
64.6168
 21
8.33029
  0
LINE
  8
0
 10
64.6168
 20
8.33029
 11
64.582
 21
8.25177
  0
LINE
  8
0
 10
64.582
 20
8.25177
 11
64.5434
 21
8.17505
  0
LINE
  8
0
 10
64.5434
 20
8.17505
 11
64.501
 21
8.10031
  0
LINE
  8
0
 10
64.501
 20
8.10031
 11
64.4551
 21
8.02774
  0
LINE
  8
0
 10
64.4551
 20
8.02774
 11
64.4056
 21
7.95752
  0
LINE
  8
0
 10
64.4056
 20
7.95752
 11
64.3528
 21
7.8898
  0
LINE
  8
0
 10
64.3528
 20
7.8898
 11
64.2967
 21
7.82477
  0
LINE
  8
0
 10
64.2967
 20
7.82477
 11
64.2374
 21
7.76256
  0
LINE
  8
0
 10
64.2374
 20
7.76256
 11
64.1752
 21
7.70332
  0
LINE
  8
0
 10
64.1752
 20
7.70332
 11
64.1102
 21
7.64722
  0
LINE
  8
0
 10
64.1102
 20
7.64722
 11
64.0425
 21
7.59438
  0
LINE
  8
0
 10
64.0425
 20
7.59438
 11
63.9722
 21
7.54492
  0
LINE
  8
0
 10
63.9722
 20
7.54492
 11
63.8997
 21
7.49896
  0
LINE
  8
0
 10
63.8997
 20
7.49896
 11
63.8249
 21
7.45663
  0
LINE
  8
0
 10
63.8249
 20
7.45663
 11
63.7482
 21
7.41801
  0
LINE
  8
0
 10
63.7482
 20
7.41801
 11
63.6697
 21
7.38321
  0
LINE
  8
0
 10
63.6697
 20
7.38321
 11
63.5896
 21
7.35229
  0
LINE
  8
0
 10
63.5896
 20
7.35229
 11
63.508
 21
7.32535
  0
LINE
  8
0
 10
63.508
 20
7.32535
 11
63.4252
 21
7.30244
  0
LINE
  8
0
 10
63.4252
 20
7.30244
 11
63.3414
 21
7.28362
  0
LINE
  8
0
 10
63.3414
 20
7.28362
 11
63.2568
 21
7.26894
  0
LINE
  8
0
 10
63.2568
 20
7.26894
 11
63.1715
 21
7.25842
  0
LINE
  8
0
 10
63.1715
 20
7.25842
 11
63.0859
 21
7.25211
  0
LINE
  8
0
 10
63.0859
 20
7.25211
 11
63
 21
7.25
  0
LINE
  8
0
 10
63
 20
7.25
 11
62.9141
 21
7.25211
  0
ENDSEC
  0
SECTION
  2
OBJECTS
  0
DICTIONARY
  0
ENDSEC
  0
EOF
