  0
SECTION
  2
BLOCKS
  0
ENDSEC
  0
SECTION
  2
ENTITIES
  0
LINE
  8
0
 10
35.82
 20
21.25
 11
35.8239
 21
21.4095
  0
LINE
  8
0
 10
35.8239
 20
21.4095
 11
35.8356
 21
21.5685
  0
LINE
  8
0
 10
35.8356
 20
21.5685
 11
35.8552
 21
21.7269
  0
LINE
  8
0
 10
35.8552
 20
21.7269
 11
35.8824
 21
21.884
  0
LINE
  8
0
 10
35.8824
 20
21.884
 11
35.9174
 21
22.0397
  0
LINE
  8
0
 10
35.9174
 20
22.0397
 11
35.9599
 21
22.1934
  0
LINE
  8
0
 10
35.9599
 20
22.1934
 11
36.01
 21
22.3449
  0
LINE
  8
0
 10
36.01
 20
22.3449
 11
36.0674
 21
22.4937
  0
LINE
  8
0
 10
36.0674
 20
22.4937
 11
36.132
 21
22.6395
  0
LINE
  8
0
 10
36.132
 20
22.6395
 11
36.2038
 21
22.782
  0
LINE
  8
0
 10
36.2038
 20
22.782
 11
36.2824
 21
22.9208
  0
LINE
  8
0
 10
36.2824
 20
22.9208
 11
36.3677
 21
23.0556
  0
LINE
  8
0
 10
36.3677
 20
23.0556
 11
36.4596
 21
23.186
  0
LINE
  8
0
 10
36.4596
 20
23.186
 11
36.5577
 21
23.3118
  0
LINE
  8
0
 10
36.5577
 20
23.3118
 11
36.6619
 21
23.4326
  0
LINE
  8
0
 10
36.6619
 20
23.4326
 11
36.7719
 21
23.5481
  0
LINE
  8
0
 10
36.7719
 20
23.5481
 11
36.8874
 21
23.6581
  0
LINE
  8
0
 10
36.8874
 20
23.6581
 11
37.0082
 21
23.7623
  0
LINE
  8
0
 10
37.0082
 20
23.7623
 11
37.134
 21
23.8604
  0
LINE
  8
0
 10
37.134
 20
23.8604
 11
37.2644
 21
23.9523
  0
LINE
  8
0
 10
37.2644
 20
23.9523
 11
37.3992
 21
24.0376
  0
LINE
  8
0
 10
37.3992
 20
24.0376
 11
37.5379
 21
24.1162
  0
LINE
  8
0
 10
37.5379
 20
24.1162
 11
37.6804
 21
24.188
  0
LINE
  8
0
 10
37.6804
 20
24.188
 11
37.8263
 21
24.2526
  0
LINE
  8
0
 10
37.8263
 20
24.2526
 11
37.9751
 21
24.31
  0
LINE
  8
0
 10
37.9751
 20
24.31
 11
38.1266
 21
24.36
  0
LINE
  8
0
 10
38.1266
 20
24.36
 11
38.2803
 21
24.4026
  0
LINE
  8
0
 10
38.2803
 20
24.4026
 11
38.4359
 21
24.4375
  0
LINE
  8
0
 10
38.4359
 20
24.4375
 11
38.5931
 21
24.4648
  0
LINE
  8
0
 10
38.5931
 20
24.4648
 11
38.7514
 21
24.4843
  0
LINE
  8
0
 10
38.7514
 20
24.4843
 11
38.9105
 21
24.4961
  0
LINE
  8
0
 10
38.9105
 20
24.4961
 11
39.07
 21
24.5
  0
LINE
  8
0
 10
39.07
 20
24.5
 11
39.2295
 21
24.4961
  0
LINE
  8
0
 10
39.2295
 20
24.4961
 11
39.3885
 21
24.4843
  0
LINE
  8
0
 10
39.3885
 20
24.4843
 11
39.5469
 21
24.4648
  0
LINE
  8
0
 10
39.5469
 20
24.4648
 11
39.704
 21
24.4375
  0
LINE
  8
0
 10
39.704
 20
24.4375
 11
39.8597
 21
24.4026
  0
LINE
  8
0
 10
39.8597
 20
24.4026
 11
40.0134
 21
24.36
  0
LINE
  8
0
 10
40.0134
 20
24.36
 11
40.1649
 21
24.31
  0
LINE
  8
0
 10
40.1649
 20
24.31
 11
40.3137
 21
24.2526
  0
LINE
  8
0
 10
40.3137
 20
24.2526
 11
40.4595
 21
24.188
  0
LINE
  8
0
 10
40.4595
 20
24.188
 11
40.602
 21
24.1162
  0
LINE
  8
0
 10
40.602
 20
24.1162
 11
40.7408
 21
24.0376
  0
LINE
  8
0
 10
40.7408
 20
24.0376
 11
40.8756
 21
23.9523
  0
LINE
  8
0
 10
40.8756
 20
23.9523
 11
41.006
 21
23.8604
  0
LINE
  8
0
 10
41.006
 20
23.8604
 11
41.1318
 21
23.7623
  0
LINE
  8
0
 10
41.1318
 20
23.7623
 11
41.2526
 21
23.6581
  0
LINE
  8
0
 10
41.2526
 20
23.6581
 11
41.3681
 21
23.5481
  0
LINE
  8
0
 10
41.3681
 20
23.5481
 11
41.4781
 21
23.4326
  0
LINE
  8
0
 10
41.4781
 20
23.4326
 11
41.5823
 21
23.3118
  0
LINE
  8
0
 10
41.5823
 20
23.3118
 11
41.6804
 21
23.186
  0
LINE
  8
0
 10
41.6804
 20
23.186
 11
41.7723
 21
23.0556
  0
LINE
  8
0
 10
41.7723
 20
23.0556
 11
41.8576
 21
22.9208
  0
LINE
  8
0
 10
41.8576
 20
22.9208
 11
41.9362
 21
22.782
  0
LINE
  8
0
 10
41.9362
 20
22.782
 11
42.008
 21
22.6395
  0
LINE
  8
0
 10
42.008
 20
22.6395
 11
42.0726
 21
22.4937
  0
LINE
  8
0
 10
42.0726
 20
22.4937
 11
42.13
 21
22.3449
  0
LINE
  8
0
 10
42.13
 20
22.3449
 11
42.1801
 21
22.1934
  0
LINE
  8
0
 10
42.1801
 20
22.1934
 11
42.2226
 21
22.0397
  0
LINE
  8
0
 10
42.2226
 20
22.0397
 11
42.2575
 21
21.884
  0
LINE
  8
0
 10
42.2575
 20
21.884
 11
42.2848
 21
21.7269
  0
LINE
  8
0
 10
42.2848
 20
21.7269
 11
42.3043
 21
21.5685
  0
LINE
  8
0
 10
42.3043
 20
21.5685
 11
42.3161
 21
21.4095
  0
LINE
  8
0
 10
42.3161
 20
21.4095
 11
42.3239
 21
21.0905
  0
LINE
  8
0
 10
42.3239
 20
21.0905
 11
42.3356
 21
20.9314
  0
LINE
  8
0
 10
42.3356
 20
20.9314
 11
42.3552
 21
20.7731
  0
LINE
  8
0
 10
42.3552
 20
20.7731
 11
42.3824
 21
20.616
  0
LINE
  8
0
 10
42.3824
 20
20.616
 11
42.4174
 21
20.4603
  0
LINE
  8
0
 10
42.4174
 20
20.4603
 11
42.4599
 21
20.3066
  0
LINE
  8
0
 10
42.4599
 20
20.3066
 11
42.51
 21
20.1551
  0
LINE
  8
0
 10
42.51
 20
20.1551
 11
42.5674
 21
20.0063
  0
LINE
  8
0
 10
42.5674
 20
20.0063
 11
42.632
 21
19.8604
  0
LINE
  8
0
 10
42.632
 20
19.8604
 11
42.7038
 21
19.718
  0
LINE
  8
0
 10
42.7038
 20
19.718
 11
42.7824
 21
19.5792
  0
LINE
  8
0
 10
42.7824
 20
19.5792
 11
42.8677
 21
19.4444
  0
LINE
  8
0
 10
42.8677
 20
19.4444
 11
42.9596
 21
19.314
  0
LINE
  8
0
 10
42.9596
 20
19.314
 11
43.0577
 21
19.1882
  0
LINE
  8
0
 10
43.0577
 20
19.1882
 11
43.1619
 21
19.0674
  0
LINE
  8
0
 10
43.1619
 20
19.0674
 11
43.2719
 21
18.9519
  0
LINE
  8
0
 10
43.2719
 20
18.9519
 11
43.3874
 21
18.8419
  0
LINE
  8
0
 10
43.3874
 20
18.8419
 11
43.5082
 21
18.7377
  0
LINE
  8
0
 10
43.5082
 20
18.7377
 11
43.634
 21
18.6396
  0
LINE
  8
0
 10
43.634
 20
18.6396
 11
43.7644
 21
18.5477
  0
LINE
  8
0
 10
43.7644
 20
18.5477
 11
43.8992
 21
18.4624
  0
LINE
  8
0
 10
43.8992
 20
18.4624
 11
44.0379
 21
18.3837
  0
LINE
  8
0
 10
44.0379
 20
18.3837
 11
44.1804
 21
18.312
  0
LINE
  8
0
 10
44.1804
 20
18.312
 11
44.3263
 21
18.2474
  0
LINE
  8
0
 10
44.3263
 20
18.2474
 11
44.4751
 21
18.19
  0
LINE
  8
0
 10
44.4751
 20
18.19
 11
44.6266
 21
18.1399
  0
LINE
  8
0
 10
44.6266
 20
18.1399
 11
44.7803
 21
18.0974
  0
LINE
  8
0
 10
44.7803
 20
18.0974
 11
44.9359
 21
18.0624
  0
LINE
  8
0
 10
44.9359
 20
18.0624
 11
45.0931
 21
18.0352
  0
LINE
  8
0
 10
45.0931
 20
18.0352
 11
45.2514
 21
18.0156
  0
LINE
  8
0
 10
45.2514
 20
18.0156
 11
45.4105
 21
18.0039
  0
LINE
  8
0
 10
45.4105
 20
18.0039
 11
45.57
 21
18
  0
LINE
  8
0
 10
45.57
 20
18
 11
72
 21
18
  0
LINE
  8
0
 10
72
 20
18
 11
112
 21
381.82
  0
LINE
  8
0
 10
112
 20
381.82
 11
76.2367
 21
382
  0
LINE
  8
0
 10
76.2367
 20
382
 11
76.0772
 21
381.996
  0
LINE
  8
0
 10
76.0772
 20
381.996
 11
75.9181
 21
381.984
  0
LINE
  8
0
 10
75.9181
 20
381.984
 11
75.7598
 21
381.965
  0
LINE
  8
0
 10
75.7598
 20
381.965
 11
75.6026
 21
381.938
  0
LINE
  8
0
 10
75.6026
 20
381.938
 11
75.447
 21
381.903
  0
LINE
  8
0
 10
75.447
 20
381.903
 11
75.2932
 21
381.86
  0
LINE
  8
0
 10
75.2932
 20
381.86
 11
75.1418
 21
381.81
  0
LINE
  8
0
 10
75.1418
 20
381.81
 11
74.9929
 21
381.753
  0
LINE
  8
0
 10
74.9929
 20
381.753
 11
74.8471
 21
381.688
  0
LINE
  8
0
 10
74.8471
 20
381.688
 11
74.7046
 21
381.616
  0
LINE
  8
0
 10
74.7046
 20
381.616
 11
74.5658
 21
381.538
  0
LINE
  8
0
 10
74.5658
 20
381.538
 11
74.4311
 21
381.452
  0
LINE
  8
0
 10
74.4311
 20
381.452
 11
74.3006
 21
381.36
  0
LINE
  8
0
 10
74.3006
 20
381.36
 11
74.1749
 21
381.262
  0
LINE
  8
0
 10
74.1749
 20
381.262
 11
74.0541
 21
381.158
  0
LINE
  8
0
 10
74.0541
 20
381.158
 11
73.9386
 21
381.048
  0
LINE
  8
0
 10
73.9386
 20
381.048
 11
73.8286
 21
380.933
  0
LINE
  8
0
 10
73.8286
 20
380.933
 11
73.7244
 21
380.812
  0
LINE
  8
0
 10
73.7244
 20
380.812
 11
73.6262
 21
380.686
  0
LINE
  8
0
 10
73.6262
 20
380.686
 11
73.5344
 21
380.556
  0
LINE
  8
0
 10
73.5344
 20
380.556
 11
73.449
 21
380.421
  0
LINE
  8
0
 10
73.449
 20
380.421
 11
73.3704
 21
380.282
  0
LINE
  8
0
 10
73.3704
 20
380.282
 11
73.2987
 21
380.14
  0
LINE
  8
0
 10
73.2987
 20
380.14
 11
73.2341
 21
379.994
  0
LINE
  8
0
 10
73.2341
 20
379.994
 11
73.1766
 21
379.845
  0
LINE
  8
0
 10
73.1766
 20
379.845
 11
73.1266
 21
379.693
  0
LINE
  8
0
 10
73.1266
 20
379.693
 11
73.0841
 21
379.54
  0
LINE
  8
0
 10
73.0841
 20
379.54
 11
73.0491
 21
379.384
  0
LINE
  8
0
 10
73.0491
 20
379.384
 11
73.0218
 21
379.227
  0
LINE
  8
0
 10
73.0218
 20
379.227
 11
73.0023
 21
379.069
  0
LINE
  8
0
 10
73.0023
 20
379.069
 11
72.9906
 21
378.909
  0
LINE
  8
0
 10
72.9906
 20
378.909
 11
72.9827
 21
378.591
  0
LINE
  8
0
 10
72.9827
 20
378.591
 11
72.971
 21
378.431
  0
LINE
  8
0
 10
72.971
 20
378.431
 11
72.9515
 21
378.273
  0
LINE
  8
0
 10
72.9515
 20
378.273
 11
72.9242
 21
378.116
  0
LINE
  8
0
 10
72.9242
 20
378.116
 11
72.8893
 21
377.96
  0
LINE
  8
0
 10
72.8893
 20
377.96
 11
72.8467
 21
377.807
  0
LINE
  8
0
 10
72.8467
 20
377.807
 11
72.7967
 21
377.655
  0
LINE
  8
0
 10
72.7967
 20
377.655
 11
72.7393
 21
377.506
  0
LINE
  8
0
 10
72.7393
 20
377.506
 11
72.6746
 21
377.36
  0
LINE
  8
0
 10
72.6746
 20
377.36
 11
72.6029
 21
377.218
  0
LINE
  8
0
 10
72.6029
 20
377.218
 11
72.5243
 21
377.079
  0
LINE
  8
0
 10
72.5243
 20
377.079
 11
72.4389
 21
376.944
  0
LINE
  8
0
 10
72.4389
 20
376.944
 11
72.3471
 21
376.814
  0
LINE
  8
0
 10
72.3471
 20
376.814
 11
72.2489
 21
376.688
  0
LINE
  8
0
 10
72.2489
 20
376.688
 11
72.1447
 21
376.567
  0
LINE
  8
0
 10
72.1447
 20
376.567
 11
72.0348
 21
376.452
  0
LINE
  8
0
 10
72.0348
 20
376.452
 11
71.9192
 21
376.342
  0
LINE
  8
0
 10
71.9192
 20
376.342
 11
71.7984
 21
376.238
  0
LINE
  8
0
 10
71.7984
 20
376.238
 11
71.6727
 21
376.14
  0
LINE
  8
0
 10
71.6727
 20
376.14
 11
71.5423
 21
376.048
  0
LINE
  8
0
 10
71.5423
 20
376.048
 11
71.4075
 21
375.962
  0
LINE
  8
0
 10
71.4075
 20
375.962
 11
71.2687
 21
375.884
  0
LINE
  8
0
 10
71.2687
 20
375.884
 11
71.1262
 21
375.812
  0
LINE
  8
0
 10
71.1262
 20
375.812
 11
70.9804
 21
375.747
  0
LINE
  8
0
 10
70.9804
 20
375.747
 11
70.8316
 21
375.69
  0
LINE
  8
0
 10
70.8316
 20
375.69
 11
70.6801
 21
375.64
  0
LINE
  8
0
 10
70.6801
 20
375.64
 11
70.5264
 21
375.597
  0
LINE
  8
0
 10
70.5264
 20
375.597
 11
70.3707
 21
375.562
  0
LINE
  8
0
 10
70.3707
 20
375.562
 11
70.2135
 21
375.535
  0
LINE
  8
0
 10
70.2135
 20
375.535
 11
70.0552
 21
375.516
  0
LINE
  8
0
 10
70.0552
 20
375.516
 11
69.8961
 21
375.504
  0
LINE
  8
0
 10
69.8961
 20
375.504
 11
69.7367
 21
375.5
  0
LINE
  8
0
 10
69.7367
 20
375.5
 11
69.5772
 21
375.504
  0
LINE
  8
0
 10
69.5772
 20
375.504
 11
69.4181
 21
375.516
  0
LINE
  8
0
 10
69.4181
 20
375.516
 11
69.2598
 21
375.535
  0
LINE
  8
0
 10
69.2598
 20
375.535
 11
69.1026
 21
375.562
  0
LINE
  8
0
 10
69.1026
 20
375.562
 11
68.947
 21
375.597
  0
LINE
  8
0
 10
68.947
 20
375.597
 11
68.7932
 21
375.64
  0
LINE
  8
0
 10
68.7932
 20
375.64
 11
68.6418
 21
375.69
  0
LINE
  8
0
 10
68.6418
 20
375.69
 11
68.4929
 21
375.747
  0
LINE
  8
0
 10
68.4929
 20
375.747
 11
68.3471
 21
375.812
  0
LINE
  8
0
 10
68.3471
 20
375.812
 11
68.2046
 21
375.884
  0
LINE
  8
0
 10
68.2046
 20
375.884
 11
68.0658
 21
375.962
  0
LINE
  8
0
 10
68.0658
 20
375.962
 11
67.9311
 21
376.048
  0
LINE
  8
0
 10
67.9311
 20
376.048
 11
67.8006
 21
376.14
  0
LINE
  8
0
 10
67.8006
 20
376.14
 11
67.6749
 21
376.238
  0
LINE
  8
0
 10
67.6749
 20
376.238
 11
67.5541
 21
376.342
  0
LINE
  8
0
 10
67.5541
 20
376.342
 11
67.4386
 21
376.452
  0
LINE
  8
0
 10
67.4386
 20
376.452
 11
67.3286
 21
376.567
  0
LINE
  8
0
 10
67.3286
 20
376.567
 11
67.2244
 21
376.688
  0
LINE
  8
0
 10
67.2244
 20
376.688
 11
67.1262
 21
376.814
  0
LINE
  8
0
 10
67.1262
 20
376.814
 11
67.0344
 21
376.944
  0
LINE
  8
0
 10
67.0344
 20
376.944
 11
66.949
 21
377.079
  0
LINE
  8
0
 10
66.949
 20
377.079
 11
66.8704
 21
377.218
  0
LINE
  8
0
 10
66.8704
 20
377.218
 11
66.7987
 21
377.36
  0
LINE
  8
0
 10
66.7987
 20
377.36
 11
66.7341
 21
377.506
  0
LINE
  8
0
 10
66.7341
 20
377.506
 11
66.6766
 21
377.655
  0
LINE
  8
0
 10
66.6766
 20
377.655
 11
66.6266
 21
377.807
  0
LINE
  8
0
 10
66.6266
 20
377.807
 11
66.5841
 21
377.96
  0
LINE
  8
0
 10
66.5841
 20
377.96
 11
66.5491
 21
378.116
  0
LINE
  8
0
 10
66.5491
 20
378.116
 11
66.5218
 21
378.273
  0
LINE
  8
0
 10
66.5218
 20
378.273
 11
66.5023
 21
378.431
  0
LINE
  8
0
 10
66.5023
 20
378.431
 11
66.4906
 21
378.591
  0
LINE
  8
0
 10
66.4906
 20
378.591
 11
66.4867
 21
378.75
  0
LINE
  8
0
 10
66.4867
 20
378.75
 11
66.4867
 21
400
  0
LINE
  8
0
 10
66.4867
 20
400
 11
18.18
 21
400
  0
LINE
  8
0
 10
18.18
 20
400
 11
18.18
 21
209.57
  0
LINE
  8
0
 10
18.18
 20
209.57
 11
18.1839
 21
209.411
  0
LINE
  8
0
 10
18.1839
 20
209.411
 11
18.1956
 21
209.251
  0
LINE
  8
0
 10
18.1956
 20
209.251
 11
18.2152
 21
209.093
  0
LINE
  8
0
 10
18.2152
 20
209.093
 11
18.2424
 21
208.936
  0
LINE
  8
0
 10
18.2424
 20
208.936
 11
18.2774
 21
208.78
  0
LINE
  8
0
 10
18.2774
 20
208.78
 11
18.3199
 21
208.627
  0
LINE
  8
0
 10
18.3199
 20
208.627
 11
18.37
 21
208.475
  0
LINE
  8
0
 10
18.37
 20
208.475
 11
18.4274
 21
208.326
  0
LINE
  8
0
 10
18.4274
 20
208.326
 11
18.492
 21
208.18
  0
LINE
  8
0
 10
18.492
 20
208.18
 11
18.5638
 21
208.038
  0
LINE
  8
0
 10
18.5638
 20
208.038
 11
18.6424
 21
207.899
  0
LINE
  8
0
 10
18.6424
 20
207.899
 11
18.7277
 21
207.764
  0
LINE
  8
0
 10
18.7277
 20
207.764
 11
18.8196
 21
207.634
  0
LINE
  8
0
 10
18.8196
 20
207.634
 11
18.9177
 21
207.508
  0
LINE
  8
0
 10
18.9177
 20
207.508
 11
19.0219
 21
207.387
  0
LINE
  8
0
 10
19.0219
 20
207.387
 11
19.1319
 21
207.272
  0
LINE
  8
0
 10
19.1319
 20
207.272
 11
19.2474
 21
207.162
  0
LINE
  8
0
 10
19.2474
 20
207.162
 11
19.3682
 21
207.058
  0
LINE
  8
0
 10
19.3682
 20
207.058
 11
19.494
 21
206.96
  0
LINE
  8
0
 10
19.494
 20
206.96
 11
19.6244
 21
206.868
  0
LINE
  8
0
 10
19.6244
 20
206.868
 11
19.7592
 21
206.782
  0
LINE
  8
0
 10
19.7592
 20
206.782
 11
19.8979
 21
206.704
  0
LINE
  8
0
 10
19.8979
 20
206.704
 11
20.0404
 21
206.632
  0
LINE
  8
0
 10
20.0404
 20
206.632
 11
20.1863
 21
206.567
  0
LINE
  8
0
 10
20.1863
 20
206.567
 11
20.3351
 21
206.51
  0
LINE
  8
0
 10
20.3351
 20
206.51
 11
20.4866
 21
206.46
  0
LINE
  8
0
 10
20.4866
 20
206.46
 11
20.6403
 21
206.417
  0
LINE
  8
0
 10
20.6403
 20
206.417
 11
20.7959
 21
206.382
  0
LINE
  8
0
 10
20.7959
 20
206.382
 11
20.9531
 21
206.355
  0
LINE
  8
0
 10
20.9531
 20
206.355
 11
21.1114
 21
206.336
  0
LINE
  8
0
 10
21.1114
 20
206.336
 11
21.2705
 21
206.324
  0
LINE
  8
0
 10
21.2705
 20
206.324
 11
21.5895
 21
206.316
  0
LINE
  8
0
 10
21.5895
 20
206.316
 11
21.7486
 21
206.304
  0
LINE
  8
0
 10
21.7486
 20
206.304
 11
21.9069
 21
206.285
  0
LINE
  8
0
 10
21.9069
 20
206.285
 11
22.064
 21
206.258
  0
LINE
  8
0
 10
22.064
 20
206.258
 11
22.2197
 21
206.223
  0
LINE
  8
0
 10
22.2197
 20
206.223
 11
22.3734
 21
206.18
  0
LINE
  8
0
 10
22.3734
 20
206.18
 11
22.5249
 21
206.13
  0
LINE
  8
0
 10
22.5249
 20
206.13
 11
22.6737
 21
206.073
  0
LINE
  8
0
 10
22.6737
 20
206.073
 11
22.8195
 21
206.008
  0
LINE
  8
0
 10
22.8195
 20
206.008
 11
22.962
 21
205.936
  0
LINE
  8
0
 10
22.962
 20
205.936
 11
23.1008
 21
205.858
  0
LINE
  8
0
 10
23.1008
 20
205.858
 11
23.2356
 21
205.772
  0
LINE
  8
0
 10
23.2356
 20
205.772
 11
23.366
 21
205.68
  0
LINE
  8
0
 10
23.366
 20
205.68
 11
23.4918
 21
205.582
  0
LINE
  8
0
 10
23.4918
 20
205.582
 11
23.6126
 21
205.478
  0
LINE
  8
0
 10
23.6126
 20
205.478
 11
23.7281
 21
205.368
  0
LINE
  8
0
 10
23.7281
 20
205.368
 11
23.8381
 21
205.253
  0
LINE
  8
0
 10
23.8381
 20
205.253
 11
23.9423
 21
205.132
  0
LINE
  8
0
 10
23.9423
 20
205.132
 11
24.0404
 21
205.006
  0
LINE
  8
0
 10
24.0404
 20
205.006
 11
24.1323
 21
204.876
  0
LINE
  8
0
 10
24.1323
 20
204.876
 11
24.2176
 21
204.741
  0
LINE
  8
0
 10
24.2176
 20
204.741
 11
24.2962
 21
204.602
  0
LINE
  8
0
 10
24.2962
 20
204.602
 11
24.368
 21
204.46
  0
LINE
  8
0
 10
24.368
 20
204.46
 11
24.4326
 21
204.314
  0
LINE
  8
0
 10
24.4326
 20
204.314
 11
24.49
 21
204.165
  0
LINE
  8
0
 10
24.49
 20
204.165
 11
24.5401
 21
204.013
  0
LINE
  8
0
 10
24.5401
 20
204.013
 11
24.5826
 21
203.86
  0
LINE
  8
0
 10
24.5826
 20
203.86
 11
24.6175
 21
203.704
  0
LINE
  8
0
 10
24.6175
 20
203.704
 11
24.6448
 21
203.547
  0
LINE
  8
0
 10
24.6448
 20
203.547
 11
24.6643
 21
203.389
  0
LINE
  8
0
 10
24.6643
 20
203.389
 11
24.6761
 21
203.229
  0
LINE
  8
0
 10
24.6761
 20
203.229
 11
24.68
 21
203.07
  0
LINE
  8
0
 10
24.68
 20
203.07
 11
24.6761
 21
202.911
  0
LINE
  8
0
 10
24.6761
 20
202.911
 11
24.6643
 21
202.751
  0
LINE
  8
0
 10
24.6643
 20
202.751
 11
24.6448
 21
202.593
  0
LINE
  8
0
 10
24.6448
 20
202.593
 11
24.6175
 21
202.436
  0
LINE
  8
0
 10
24.6175
 20
202.436
 11
24.5826
 21
202.28
  0
LINE
  8
0
 10
24.5826
 20
202.28
 11
24.5401
 21
202.127
  0
LINE
  8
0
 10
24.5401
 20
202.127
 11
24.49
 21
201.975
  0
LINE
  8
0
 10
24.49
 20
201.975
 11
24.4326
 21
201.826
  0
LINE
  8
0
 10
24.4326
 20
201.826
 11
24.368
 21
201.68
  0
LINE
  8
0
 10
24.368
 20
201.68
 11
24.2962
 21
201.538
  0
LINE
  8
0
 10
24.2962
 20
201.538
 11
24.2176
 21
201.399
  0
LINE
  8
0
 10
24.2176
 20
201.399
 11
24.1323
 21
201.264
  0
LINE
  8
0
 10
24.1323
 20
201.264
 11
24.0404
 21
201.134
  0
LINE
  8
0
 10
24.0404
 20
201.134
 11
23.9423
 21
201.008
  0
LINE
  8
0
 10
23.9423
 20
201.008
 11
23.8381
 21
200.887
  0
LINE
  8
0
 10
23.8381
 20
200.887
 11
23.7281
 21
200.772
  0
LINE
  8
0
 10
23.7281
 20
200.772
 11
23.6126
 21
200.662
  0
LINE
  8
0
 10
23.6126
 20
200.662
 11
23.4918
 21
200.558
  0
LINE
  8
0
 10
23.4918
 20
200.558
 11
23.366
 21
200.46
  0
LINE
  8
0
 10
23.366
 20
200.46
 11
23.2356
 21
200.368
  0
LINE
  8
0
 10
23.2356
 20
200.368
 11
23.1008
 21
200.282
  0
LINE
  8
0
 10
23.1008
 20
200.282
 11
22.962
 21
200.204
  0
LINE
  8
0
 10
22.962
 20
200.204
 11
22.8195
 21
200.132
  0
LINE
  8
0
 10
22.8195
 20
200.132
 11
22.6737
 21
200.067
  0
LINE
  8
0
 10
22.6737
 20
200.067
 11
22.5249
 21
200.01
  0
LINE
  8
0
 10
22.5249
 20
200.01
 11
22.3734
 21
199.96
  0
LINE
  8
0
 10
22.3734
 20
199.96
 11
22.2197
 21
199.917
  0
LINE
  8
0
 10
22.2197
 20
199.917
 11
22.064
 21
199.882
  0
LINE
  8
0
 10
22.064
 20
199.882
 11
21.9069
 21
199.855
  0
LINE
  8
0
 10
21.9069
 20
199.855
 11
21.7486
 21
199.836
  0
LINE
  8
0
 10
21.7486
 20
199.836
 11
21.5895
 21
199.824
  0
LINE
  8
0
 10
21.5895
 20
199.824
 11
21.43
 21
199.82
  0
LINE
  8
0
 10
21.43
 20
199.82
 11
18.18
 21
199.82
  0
LINE
  8
0
 10
18.18
 20
199.82
 11
0
 21
200
  0
LINE
  8
0
 10
0
 20
200
 11
0
 21
0
  0
LINE
  8
0
 10
0
 20
0
 11
35.82
 21
0
  0
LINE
  8
0
 10
35.82
 20
0
 11
35.82
 21
21.25
  0
LINE
  8
0
 10
42.2475
 20
389.252
 11
42.1618
 21
389.258
  0
LINE
  8
0
 10
42.1618
 20
389.258
 11
42.0766
 21
389.269
  0
LINE
  8
0
 10
42.0766
 20
389.269
 11
41.9919
 21
389.284
  0
LINE
  8
0
 10
41.9919
 20
389.284
 11
41.9081
 21
389.302
  0
LINE
  8
0
 10
41.9081
 20
389.302
 11
41.8253
 21
389.325
  0
LINE
  8
0
 10
41.8253
 20
389.325
 11
41.7438
 21
389.352
  0
LINE
  8
0
 10
41.7438
 20
389.352
 11
41.6636
 21
389.383
  0
LINE
  8
0
 10
41.6636
 20
389.383
 11
41.5851
 21
389.418
  0
LINE
  8
0
 10
41.5851
 20
389.418
 11
41.5084
 21
389.457
  0
LINE
  8
0
 10
41.5084
 20
389.457
 11
41.4336
 21
389.499
  0
LINE
  8
0
 10
41.4336
 20
389.499
 11
41.3611
 21
389.545
  0
LINE
  8
0
 10
41.3611
 20
389.545
 11
41.2908
 21
389.594
  0
LINE
  8
0
 10
41.2908
 20
389.594
 11
41.2231
 21
389.647
  0
LINE
  8
0
 10
41.2231
 20
389.647
 11
41.1581
 21
389.703
  0
LINE
  8
0
 10
41.1581
 20
389.703
 11
41.0959
 21
389.763
  0
LINE
  8
0
 10
41.0959
 20
389.763
 11
41.0367
 21
389.825
  0
LINE
  8
0
 10
41.0367
 20
389.825
 11
40.9806
 21
389.89
  0
LINE
  8
0
 10
40.9806
 20
389.89
 11
40.9277
 21
389.958
  0
LINE
  8
0
 10
40.9277
 20
389.958
 11
40.8783
 21
390.028
  0
LINE
  8
0
 10
40.8783
 20
390.028
 11
40.8323
 21
390.1
  0
LINE
  8
0
 10
40.8323
 20
390.1
 11
40.79
 21
390.175
  0
LINE
  8
0
 10
40.79
 20
390.175
 11
40.7513
 21
390.252
  0
LINE
  8
0
 10
40.7513
 20
390.252
 11
40.7165
 21
390.33
  0
LINE
  8
0
 10
40.7165
 20
390.33
 11
40.6856
 21
390.41
  0
LINE
  8
0
 10
40.6856
 20
390.41
 11
40.6587
 21
390.492
  0
LINE
  8
0
 10
40.6587
 20
390.492
 11
40.6358
 21
390.575
  0
LINE
  8
0
 10
40.6358
 20
390.575
 11
40.617
 21
390.659
  0
LINE
  8
0
 10
40.617
 20
390.659
 11
40.6023
 21
390.743
  0
LINE
  8
0
 10
40.6023
 20
390.743
 11
40.5918
 21
390.828
  0
LINE
  8
0
 10
40.5918
 20
390.828
 11
40.5854
 21
390.914
  0
LINE
  8
0
 10
40.5854
 20
390.914
 11
40.5833
 21
391
  0
LINE
  8
0
 10
40.5833
 20
391
 11
40.5854
 21
391.086
  0
LINE
  8
0
 10
40.5854
 20
391.086
 11
40.5918
 21
391.172
  0
LINE
  8
0
 10
40.5918
 20
391.172
 11
40.6023
 21
391.257
  0
LINE
  8
0
 10
40.6023
 20
391.257
 11
40.617
 21
391.341
  0
LINE
  8
0
 10
40.617
 20
391.341
 11
40.6358
 21
391.425
  0
LINE
  8
0
 10
40.6358
 20
391.425
 11
40.6587
 21
391.508
  0
LINE
  8
0
 10
40.6587
 20
391.508
 11
40.6856
 21
391.59
  0
LINE
  8
0
 10
40.6856
 20
391.59
 11
40.7165
 21
391.67
  0
LINE
  8
0
 10
40.7165
 20
391.67
 11
40.7513
 21
391.748
  0
LINE
  8
0
 10
40.7513
 20
391.748
 11
40.79
 21
391.825
  0
LINE
  8
0
 10
40.79
 20
391.825
 11
40.8323
 21
391.9
  0
LINE
  8
0
 10
40.8323
 20
391.9
 11
40.8783
 21
391.972
  0
LINE
  8
0
 10
40.8783
 20
391.972
 11
40.9277
 21
392.042
  0
LINE
  8
0
 10
40.9277
 20
392.042
 11
40.9806
 21
392.11
  0
LINE
  8
0
 10
40.9806
 20
392.11
 11
41.0367
 21
392.175
  0
LINE
  8
0
 10
41.0367
 20
392.175
 11
41.0959
 21
392.237
  0
LINE
  8
0
 10
41.0959
 20
392.237
 11
41.1581
 21
392.297
  0
LINE
  8
0
 10
41.1581
 20
392.297
 11
41.2231
 21
392.353
  0
LINE
  8
0
 10
41.2231
 20
392.353
 11
41.2908
 21
392.406
  0
LINE
  8
0
 10
41.2908
 20
392.406
 11
41.3611
 21
392.455
  0
LINE
  8
0
 10
41.3611
 20
392.455
 11
41.4336
 21
392.501
  0
LINE
  8
0
 10
41.4336
 20
392.501
 11
41.5084
 21
392.543
  0
LINE
  8
0
 10
41.5084
 20
392.543
 11
41.5851
 21
392.582
  0
LINE
  8
0
 10
41.5851
 20
392.582
 11
41.6636
 21
392.617
  0
LINE
  8
0
 10
41.6636
 20
392.617
 11
41.7438
 21
392.648
  0
LINE
  8
0
 10
41.7438
 20
392.648
 11
41.8253
 21
392.675
  0
LINE
  8
0
 10
41.8253
 20
392.675
 11
41.9081
 21
392.698
  0
LINE
  8
0
 10
41.9081
 20
392.698
 11
41.9919
 21
392.716
  0
LINE
  8
0
 10
41.9919
 20
392.716
 11
42.0766
 21
392.731
  0
LINE
  8
0
 10
42.0766
 20
392.731
 11
42.1618
 21
392.742
  0
LINE
  8
0
 10
42.1618
 20
392.742
 11
42.2475
 21
392.748
  0
LINE
  8
0
 10
42.2475
 20
392.748
 11
42.3333
 21
392.75
  0
LINE
  8
0
 10
42.3333
 20
392.75
 11
42.4192
 21
392.748
  0
LINE
  8
0
 10
42.4192
 20
392.748
 11
42.5049
 21
392.742
  0
LINE
  8
0
 10
42.5049
 20
392.742
 11
42.5901
 21
392.731
  0
LINE
  8
0
 10
42.5901
 20
392.731
 11
42.6747
 21
392.716
  0
LINE
  8
0
 10
42.6747
 20
392.716
 11
42.7585
 21
392.698
  0
LINE
  8
0
 10
42.7585
 20
392.698
 11
42.8413
 21
392.675
  0
LINE
  8
0
 10
42.8413
 20
392.675
 11
42.9229
 21
392.648
  0
LINE
  8
0
 10
42.9229
 20
392.648
 11
43.003
 21
392.617
  0
LINE
  8
0
 10
43.003
 20
392.617
 11
43.0815
 21
392.582
  0
LINE
  8
0
 10
43.0815
 20
392.582
 11
43.1583
 21
392.543
  0
LINE
  8
0
 10
43.1583
 20
392.543
 11
43.233
 21
392.501
  0
LINE
  8
0
 10
43.233
 20
392.501
 11
43.3056
 21
392.455
  0
LINE
  8
0
 10
43.3056
 20
392.455
 11
43.3758
 21
392.406
  0
LINE
  8
0
 10
43.3758
 20
392.406
 11
43.4435
 21
392.353
  0
LINE
  8
0
 10
43.4435
 20
392.353
 11
43.5086
 21
392.297
  0
LINE
  8
0
 10
43.5086
 20
392.297
 11
43.5708
 21
392.237
  0
LINE
  8
0
 10
43.5708
 20
392.237
 11
43.63
 21
392.175
  0
LINE
  8
0
 10
43.63
 20
392.175
 11
43.6861
 21
392.11
  0
LINE
  8
0
 10
43.6861
 20
392.11
 11
43.7389
 21
392.042
  0
LINE
  8
0
 10
43.7389
 20
392.042
 11
43.7884
 21
391.972
  0
LINE
  8
0
 10
43.7884
 20
391.972
 11
43.8344
 21
391.9
  0
LINE
  8
0
 10
43.8344
 20
391.9
 11
43.8767
 21
391.825
  0
LINE
  8
0
 10
43.8767
 20
391.825
 11
43.9153
 21
391.748
  0
LINE
  8
0
 10
43.9153
 20
391.748
 11
43.9501
 21
391.67
  0
LINE
  8
0
 10
43.9501
 20
391.67
 11
43.981
 21
391.59
  0
LINE
  8
0
 10
43.981
 20
391.59
 11
44.008
 21
391.508
  0
LINE
  8
0
 10
44.008
 20
391.508
 11
44.0309
 21
391.425
  0
LINE
  8
0
 10
44.0309
 20
391.425
 11
44.0497
 21
391.341
  0
LINE
  8
0
 10
44.0497
 20
391.341
 11
44.0644
 21
391.257
  0
LINE
  8
0
 10
44.0644
 20
391.257
 11
44.0749
 21
391.172
  0
LINE
  8
0
 10
44.0749
 20
391.172
 11
44.0812
 21
391.086
  0
LINE
  8
0
 10
44.0812
 20
391.086
 11
44.0833
 21
391
  0
LINE
  8
0
 10
44.0833
 20
391
 11
44.0812
 21
390.914
  0
LINE
  8
0
 10
44.0812
 20
390.914
 11
44.0749
 21
390.828
  0
LINE
  8
0
 10
44.0749
 20
390.828
 11
44.0644
 21
390.743
  0
LINE
  8
0
 10
44.0644
 20
390.743
 11
44.0497
 21
390.659
  0
LINE
  8
0
 10
44.0497
 20
390.659
 11
44.0309
 21
390.575
  0
LINE
  8
0
 10
44.0309
 20
390.575
 11
44.008
 21
390.492
  0
LINE
  8
0
 10
44.008
 20
390.492
 11
43.981
 21
390.41
  0
LINE
  8
0
 10
43.981
 20
390.41
 11
43.9501
 21
390.33
  0
LINE
  8
0
 10
43.9501
 20
390.33
 11
43.9153
 21
390.252
  0
LINE
  8
0
 10
43.9153
 20
390.252
 11
43.8767
 21
390.175
  0
LINE
  8
0
 10
43.8767
 20
390.175
 11
43.8344
 21
390.1
  0
LINE
  8
0
 10
43.8344
 20
390.1
 11
43.7884
 21
390.028
  0
LINE
  8
0
 10
43.7884
 20
390.028
 11
43.7389
 21
389.958
  0
LINE
  8
0
 10
43.7389
 20
389.958
 11
43.6861
 21
389.89
  0
LINE
  8
0
 10
43.6861
 20
389.89
 11
43.63
 21
389.825
  0
LINE
  8
0
 10
43.63
 20
389.825
 11
43.5708
 21
389.763
  0
LINE
  8
0
 10
43.5708
 20
389.763
 11
43.5086
 21
389.703
  0
LINE
  8
0
 10
43.5086
 20
389.703
 11
43.4435
 21
389.647
  0
LINE
  8
0
 10
43.4435
 20
389.647
 11
43.3758
 21
389.594
  0
LINE
  8
0
 10
43.3758
 20
389.594
 11
43.3056
 21
389.545
  0
LINE
  8
0
 10
43.3056
 20
389.545
 11
43.233
 21
389.499
  0
LINE
  8
0
 10
43.233
 20
389.499
 11
43.1583
 21
389.457
  0
LINE
  8
0
 10
43.1583
 20
389.457
 11
43.0815
 21
389.418
  0
LINE
  8
0
 10
43.0815
 20
389.418
 11
43.003
 21
389.383
  0
LINE
  8
0
 10
43.003
 20
389.383
 11
42.9229
 21
389.352
  0
LINE
  8
0
 10
42.9229
 20
389.352
 11
42.8413
 21
389.325
  0
LINE
  8
0
 10
42.8413
 20
389.325
 11
42.7585
 21
389.302
  0
LINE
  8
0
 10
42.7585
 20
389.302
 11
42.6747
 21
389.284
  0
LINE
  8
0
 10
42.6747
 20
389.284
 11
42.5901
 21
389.269
  0
LINE
  8
0
 10
42.5901
 20
389.269
 11
42.5049
 21
389.258
  0
LINE
  8
0
 10
42.5049
 20
389.258
 11
42.4192
 21
389.252
  0
LINE
  8
0
 10
42.4192
 20
389.252
 11
42.3333
 21
389.25
  0
LINE
  8
0
 10
42.3333
 20
389.25
 11
42.2475
 21
389.252
  0
LINE
  8
0
 10
8.91412
 20
98.2521
 11
8.82846
 21
98.2584
  0
LINE
  8
0
 10
8.82846
 20
98.2584
 11
8.74321
 21
98.2689
  0
LINE
  8
0
 10
8.74321
 20
98.2689
 11
8.65858
 21
98.2836
  0
LINE
  8
0
 10
8.65858
 20
98.2836
 11
8.57478
 21
98.3024
  0
LINE
  8
0
 10
8.57478
 20
98.3024
 11
8.49199
 21
98.3253
  0
LINE
  8
0
 10
8.49199
 20
98.3253
 11
8.41043
 21
98.3523
  0
LINE
  8
0
 10
8.41043
 20
98.3523
 11
8.33029
 21
98.3832
  0
LINE
  8
0
 10
8.33029
 20
98.3832
 11
8.25177
 21
98.418
  0
LINE
  8
0
 10
8.25177
 20
98.418
 11
8.17505
 21
98.4566
  0
LINE
  8
0
 10
8.17505
 20
98.4566
 11
8.10031
 21
98.499
  0
LINE
  8
0
 10
8.10031
 20
98.499
 11
8.02774
 21
98.5449
  0
LINE
  8
0
 10
8.02774
 20
98.5449
 11
7.95752
 21
98.5944
  0
LINE
  8
0
 10
7.95752
 20
98.5944
 11
7.8898
 21
98.6472
  0
LINE
  8
0
 10
7.8898
 20
98.6472
 11
7.82477
 21
98.7033
  0
LINE
  8
0
 10
7.82477
 20
98.7033
 11
7.76256
 21
98.7626
  0
LINE
  8
0
 10
7.76256
 20
98.7626
 11
7.70332
 21
98.8248
  0
LINE
  8
0
 10
7.70332
 20
98.8248
 11
7.64722
 21
98.8898
  0
LINE
  8
0
 10
7.64722
 20
98.8898
 11
7.59438
 21
98.9575
  0
LINE
  8
0
 10
7.59438
 20
98.9575
 11
7.54492
 21
99.0277
  0
LINE
  8
0
 10
7.54492
 20
99.0277
 11
7.49896
 21
99.1003
  0
LINE
  8
0
 10
7.49896
 20
99.1003
 11
7.45663
 21
99.175
  0
LINE
  8
0
 10
7.45663
 20
99.175
 11
7.41801
 21
99.2518
  0
LINE
  8
0
 10
7.41801
 20
99.2518
 11
7.38321
 21
99.3303
  0
LINE
  8
0
 10
7.38321
 20
99.3303
 11
7.35229
 21
99.4104
  0
LINE
  8
0
 10
7.35229
 20
99.4104
 11
7.32535
 21
99.492
  0
LINE
  8
0
 10
7.32535
 20
99.492
 11
7.30244
 21
99.5748
  0
LINE
  8
0
 10
7.30244
 20
99.5748
 11
7.28362
 21
99.6586
  0
LINE
  8
0
 10
7.28362
 20
99.6586
 11
7.26894
 21
99.7432
  0
LINE
  8
0
 10
7.26894
 20
99.7432
 11
7.25842
 21
99.8285
  0
LINE
  8
0
 10
7.25842
 20
99.8285
 11
7.25211
 21
99.9141
  0
LINE
  8
0
 10
7.25211
 20
99.9141
 11
7.25
 21
100
  0
LINE
  8
0
 10
7.25
 20
100
 11
7.25211
 21
100.086
  0
LINE
  8
0
 10
7.25211
 20
100.086
 11
7.25842
 21
100.172
  0
LINE
  8
0
 10
7.25842
 20
100.172
 11
7.26894
 21
100.257
  0
LINE
  8
0
 10
7.26894
 20
100.257
 11
7.28362
 21
100.341
  0
LINE
  8
0
 10
7.28362
 20
100.341
 11
7.30244
 21
100.425
  0
LINE
  8
0
 10
7.30244
 20
100.425
 11
7.32535
 21
100.508
  0
LINE
  8
0
 10
7.32535
 20
100.508
 11
7.35229
 21
100.59
  0
LINE
  8
0
 10
7.35229
 20
100.59
 11
7.38321
 21
100.67
  0
LINE
  8
0
 10
7.38321
 20
100.67
 11
7.41801
 21
100.748
  0
LINE
  8
0
 10
7.41801
 20
100.748
 11
7.45663
 21
100.825
  0
LINE
  8
0
 10
7.45663
 20
100.825
 11
7.49896
 21
100.9
  0
LINE
  8
0
 10
7.49896
 20
100.9
 11
7.54492
 21
100.972
  0
LINE
  8
0
 10
7.54492
 20
100.972
 11
7.59438
 21
101.042
  0
LINE
  8
0
 10
7.59438
 20
101.042
 11
7.64722
 21
101.11
  0
LINE
  8
0
 10
7.64722
 20
101.11
 11
7.70332
 21
101.175
  0
LINE
  8
0
 10
7.70332
 20
101.175
 11
7.76256
 21
101.237
  0
LINE
  8
0
 10
7.76256
 20
101.237
 11
7.82477
 21
101.297
  0
LINE
  8
0
 10
7.82477
 20
101.297
 11
7.8898
 21
101.353
  0
LINE
  8
0
 10
7.8898
 20
101.353
 11
7.95752
 21
101.406
  0
LINE
  8
0
 10
7.95752
 20
101.406
 11
8.02774
 21
101.455
  0
LINE
  8
0
 10
8.02774
 20
101.455
 11
8.10031
 21
101.501
  0
LINE
  8
0
 10
8.10031
 20
101.501
 11
8.17505
 21
101.543
  0
LINE
  8
0
 10
8.17505
 20
101.543
 11
8.25177
 21
101.582
  0
LINE
  8
0
 10
8.25177
 20
101.582
 11
8.33029
 21
101.617
  0
LINE
  8
0
 10
8.33029
 20
101.617
 11
8.41043
 21
101.648
  0
LINE
  8
0
 10
8.41043
 20
101.648
 11
8.49199
 21
101.675
  0
LINE
  8
0
 10
8.49199
 20
101.675
 11
8.57478
 21
101.698
  0
LINE
  8
0
 10
8.57478
 20
101.698
 11
8.65858
 21
101.716
  0
LINE
  8
0
 10
8.65858
 20
101.716
 11
8.74321
 21
101.731
  0
LINE
  8
0
 10
8.74321
 20
101.731
 11
8.82846
 21
101.742
  0
LINE
  8
0
 10
8.82846
 20
101.742
 11
8.91412
 21
101.748
  0
LINE
  8
0
 10
8.91412
 20
101.748
 11
9
 21
101.75
  0
LINE
  8
0
 10
9
 20
101.75
 11
9.08586
 21
101.748
  0
LINE
  8
0
 10
9.08586
 20
101.748
 11
9.17152
 21
101.742
  0
LINE
  8
0
 10
9.17152
 20
101.742
 11
9.25677
 21
101.731
  0
LINE
  8
0
 10
9.25677
 20
101.731
 11
9.3414
 21
101.716
  0
LINE
  8
0
 10
9.3414
 20
101.716
 11
9.4252
 21
101.698
  0
LINE
  8
0
 10
9.4252
 20
101.698
 11
9.508
 21
101.675
  0
LINE
  8
0
 10
9.508
 20
101.675
 11
9.58955
 21
101.648
  0
LINE
  8
0
 10
9.58955
 20
101.648
 11
9.66969
 21
101.617
  0
LINE
  8
0
 10
9.66969
 20
101.617
 11
9.74821
 21
101.582
  0
LINE
  8
0
 10
9.74821
 20
101.582
 11
9.82494
 21
101.543
  0
LINE
  8
0
 10
9.82494
 20
101.543
 11
9.89967
 21
101.501
  0
LINE
  8
0
 10
9.89967
 20
101.501
 11
9.97224
 21
101.455
  0
LINE
  8
0
 10
9.97224
 20
101.455
 11
10.0425
 21
101.406
  0
LINE
  8
0
 10
10.0425
 20
101.406
 11
10.1102
 21
101.353
  0
LINE
  8
0
 10
10.1102
 20
101.353
 11
10.1752
 21
101.297
  0
LINE
  8
0
 10
10.1752
 20
101.297
 11
10.2374
 21
101.237
  0
LINE
  8
0
 10
10.2374
 20
101.237
 11
10.2967
 21
101.175
  0
LINE
  8
0
 10
10.2967
 20
101.175
 11
10.3528
 21
101.11
  0
LINE
  8
0
 10
10.3528
 20
101.11
 11
10.4056
 21
101.042
  0
LINE
  8
0
 10
10.4056
 20
101.042
 11
10.4551
 21
100.972
  0
LINE
  8
0
 10
10.4551
 20
100.972
 11
10.501
 21
100.9
  0
LINE
  8
0
 10
10.501
 20
100.9
 11
10.5434
 21
100.825
  0
LINE
  8
0
 10
10.5434
 20
100.825
 11
10.582
 21
100.748
  0
LINE
  8
0
 10
10.582
 20
100.748
 11
10.6168
 21
100.67
  0
LINE
  8
0
 10
10.6168
 20
100.67
 11
10.6477
 21
100.59
  0
LINE
  8
0
 10
10.6477
 20
100.59
 11
10.6746
 21
100.508
  0
LINE
  8
0
 10
10.6746
 20
100.508
 11
10.6975
 21
100.425
  0
LINE
  8
0
 10
10.6975
 20
100.425
 11
10.7164
 21
100.341
  0
LINE
  8
0
 10
10.7164
 20
100.341
 11
10.731
 21
100.257
  0
LINE
  8
0
 10
10.731
 20
100.257
 11
10.7416
 21
100.172
  0
LINE
  8
0
 10
10.7416
 20
100.172
 11
10.7479
 21
100.086
  0
LINE
  8
0
 10
10.7479
 20
100.086
 11
10.75
 21
100
  0
LINE
  8
0
 10
10.75
 20
100
 11
10.7479
 21
99.9141
  0
LINE
  8
0
 10
10.7479
 20
99.9141
 11
10.7416
 21
99.8285
  0
LINE
  8
0
 10
10.7416
 20
99.8285
 11
10.731
 21
99.7432
  0
LINE
  8
0
 10
10.731
 20
99.7432
 11
10.7164
 21
99.6586
  0
LINE
  8
0
 10
10.7164
 20
99.6586
 11
10.6975
 21
99.5748
  0
LINE
  8
0
 10
10.6975
 20
99.5748
 11
10.6746
 21
99.492
  0
LINE
  8
0
 10
10.6746
 20
99.492
 11
10.6477
 21
99.4104
  0
LINE
  8
0
 10
10.6477
 20
99.4104
 11
10.6168
 21
99.3303
  0
LINE
  8
0
 10
10.6168
 20
99.3303
 11
10.582
 21
99.2518
  0
LINE
  8
0
 10
10.582
 20
99.2518
 11
10.5434
 21
99.175
  0
LINE
  8
0
 10
10.5434
 20
99.175
 11
10.501
 21
99.1003
  0
LINE
  8
0
 10
10.501
 20
99.1003
 11
10.4551
 21
99.0277
  0
LINE
  8
0
 10
10.4551
 20
99.0277
 11
10.4056
 21
98.9575
  0
LINE
  8
0
 10
10.4056
 20
98.9575
 11
10.3528
 21
98.8898
  0
LINE
  8
0
 10
10.3528
 20
98.8898
 11
10.2967
 21
98.8248
  0
LINE
  8
0
 10
10.2967
 20
98.8248
 11
10.2374
 21
98.7626
  0
LINE
  8
0
 10
10.2374
 20
98.7626
 11
10.1752
 21
98.7033
  0
LINE
  8
0
 10
10.1752
 20
98.7033
 11
10.1102
 21
98.6472
  0
LINE
  8
0
 10
10.1102
 20
98.6472
 11
10.0425
 21
98.5944
  0
LINE
  8
0
 10
10.0425
 20
98.5944
 11
9.97224
 21
98.5449
  0
LINE
  8
0
 10
9.97224
 20
98.5449
 11
9.89967
 21
98.499
  0
LINE
  8
0
 10
9.89967
 20
98.499
 11
9.82494
 21
98.4566
  0
LINE
  8
0
 10
9.82494
 20
98.4566
 11
9.74821
 21
98.418
  0
LINE
  8
0
 10
9.74821
 20
98.418
 11
9.66969
 21
98.3832
  0
LINE
  8
0
 10
9.66969
 20
98.3832
 11
9.58955
 21
98.3523
  0
LINE
  8
0
 10
9.58955
 20
98.3523
 11
9.508
 21
98.3253
  0
LINE
  8
0
 10
9.508
 20
98.3253
 11
9.4252
 21
98.3024
  0
LINE
  8
0
 10
9.4252
 20
98.3024
 11
9.3414
 21
98.2836
  0
LINE
  8
0
 10
9.3414
 20
98.2836
 11
9.25677
 21
98.2689
  0
LINE
  8
0
 10
9.25677
 20
98.2689
 11
9.17152
 21
98.2584
  0
LINE
  8
0
 10
9.17152
 20
98.2584
 11
9.08586
 21
98.2521
  0
LINE
  8
0
 10
9.08586
 20
98.2521
 11
9
 21
98.25
  0
LINE
  8
0
 10
9
 20
98.25
 11
8.91412
 21
98.2521
  0
ENDSEC
  0
SECTION
  2
OBJECTS
  0
DICTIONARY
  0
ENDSEC
  0
EOF
