  0
SECTION
  2
BLOCKS
  0
ENDSEC
  0
SECTION
  2
ENTITIES
  0
LINE
  8
0
 10
35.82
 20
21.25
 11
35.8239
 21
21.4095
  0
LINE
  8
0
 10
35.8239
 20
21.4095
 11
35.8356
 21
21.5685
  0
LINE
  8
0
 10
35.8356
 20
21.5685
 11
35.8552
 21
21.7269
  0
LINE
  8
0
 10
35.8552
 20
21.7269
 11
35.8824
 21
21.884
  0
LINE
  8
0
 10
35.8824
 20
21.884
 11
35.9174
 21
22.0397
  0
LINE
  8
0
 10
35.9174
 20
22.0397
 11
35.9599
 21
22.1934
  0
LINE
  8
0
 10
35.9599
 20
22.1934
 11
36.01
 21
22.3449
  0
LINE
  8
0
 10
36.01
 20
22.3449
 11
36.0674
 21
22.4937
  0
LINE
  8
0
 10
36.0674
 20
22.4937
 11
36.132
 21
22.6395
  0
LINE
  8
0
 10
36.132
 20
22.6395
 11
36.2038
 21
22.782
  0
LINE
  8
0
 10
36.2038
 20
22.782
 11
36.2824
 21
22.9208
  0
LINE
  8
0
 10
36.2824
 20
22.9208
 11
36.3677
 21
23.0556
  0
LINE
  8
0
 10
36.3677
 20
23.0556
 11
36.4596
 21
23.186
  0
LINE
  8
0
 10
36.4596
 20
23.186
 11
36.5577
 21
23.3118
  0
LINE
  8
0
 10
36.5577
 20
23.3118
 11
36.6619
 21
23.4326
  0
LINE
  8
0
 10
36.6619
 20
23.4326
 11
36.7719
 21
23.5481
  0
LINE
  8
0
 10
36.7719
 20
23.5481
 11
36.8874
 21
23.6581
  0
LINE
  8
0
 10
36.8874
 20
23.6581
 11
37.0082
 21
23.7623
  0
LINE
  8
0
 10
37.0082
 20
23.7623
 11
37.134
 21
23.8604
  0
LINE
  8
0
 10
37.134
 20
23.8604
 11
37.2644
 21
23.9523
  0
LINE
  8
0
 10
37.2644
 20
23.9523
 11
37.3992
 21
24.0376
  0
LINE
  8
0
 10
37.3992
 20
24.0376
 11
37.5379
 21
24.1162
  0
LINE
  8
0
 10
37.5379
 20
24.1162
 11
37.6804
 21
24.188
  0
LINE
  8
0
 10
37.6804
 20
24.188
 11
37.8263
 21
24.2526
  0
LINE
  8
0
 10
37.8263
 20
24.2526
 11
37.9751
 21
24.31
  0
LINE
  8
0
 10
37.9751
 20
24.31
 11
38.1266
 21
24.36
  0
LINE
  8
0
 10
38.1266
 20
24.36
 11
38.2803
 21
24.4026
  0
LINE
  8
0
 10
38.2803
 20
24.4026
 11
38.4359
 21
24.4375
  0
LINE
  8
0
 10
38.4359
 20
24.4375
 11
38.5931
 21
24.4648
  0
LINE
  8
0
 10
38.5931
 20
24.4648
 11
38.7514
 21
24.4843
  0
LINE
  8
0
 10
38.7514
 20
24.4843
 11
38.9105
 21
24.4961
  0
LINE
  8
0
 10
38.9105
 20
24.4961
 11
39.07
 21
24.5
  0
LINE
  8
0
 10
39.07
 20
24.5
 11
39.2295
 21
24.4961
  0
LINE
  8
0
 10
39.2295
 20
24.4961
 11
39.3885
 21
24.4843
  0
LINE
  8
0
 10
39.3885
 20
24.4843
 11
39.5469
 21
24.4648
  0
LINE
  8
0
 10
39.5469
 20
24.4648
 11
39.704
 21
24.4375
  0
LINE
  8
0
 10
39.704
 20
24.4375
 11
39.8597
 21
24.4026
  0
LINE
  8
0
 10
39.8597
 20
24.4026
 11
40.0134
 21
24.36
  0
LINE
  8
0
 10
40.0134
 20
24.36
 11
40.1649
 21
24.31
  0
LINE
  8
0
 10
40.1649
 20
24.31
 11
40.3137
 21
24.2526
  0
LINE
  8
0
 10
40.3137
 20
24.2526
 11
40.4595
 21
24.188
  0
LINE
  8
0
 10
40.4595
 20
24.188
 11
40.602
 21
24.1162
  0
LINE
  8
0
 10
40.602
 20
24.1162
 11
40.7408
 21
24.0376
  0
LINE
  8
0
 10
40.7408
 20
24.0376
 11
40.8756
 21
23.9523
  0
LINE
  8
0
 10
40.8756
 20
23.9523
 11
41.006
 21
23.8604
  0
LINE
  8
0
 10
41.006
 20
23.8604
 11
41.1318
 21
23.7623
  0
LINE
  8
0
 10
41.1318
 20
23.7623
 11
41.2526
 21
23.6581
  0
LINE
  8
0
 10
41.2526
 20
23.6581
 11
41.3681
 21
23.5481
  0
LINE
  8
0
 10
41.3681
 20
23.5481
 11
41.4781
 21
23.4326
  0
LINE
  8
0
 10
41.4781
 20
23.4326
 11
41.5823
 21
23.3118
  0
LINE
  8
0
 10
41.5823
 20
23.3118
 11
41.6804
 21
23.186
  0
LINE
  8
0
 10
41.6804
 20
23.186
 11
41.7723
 21
23.0556
  0
LINE
  8
0
 10
41.7723
 20
23.0556
 11
41.8576
 21
22.9208
  0
LINE
  8
0
 10
41.8576
 20
22.9208
 11
41.9362
 21
22.782
  0
LINE
  8
0
 10
41.9362
 20
22.782
 11
42.008
 21
22.6395
  0
LINE
  8
0
 10
42.008
 20
22.6395
 11
42.0726
 21
22.4937
  0
LINE
  8
0
 10
42.0726
 20
22.4937
 11
42.13
 21
22.3449
  0
LINE
  8
0
 10
42.13
 20
22.3449
 11
42.1801
 21
22.1934
  0
LINE
  8
0
 10
42.1801
 20
22.1934
 11
42.2226
 21
22.0397
  0
LINE
  8
0
 10
42.2226
 20
22.0397
 11
42.2575
 21
21.884
  0
LINE
  8
0
 10
42.2575
 20
21.884
 11
42.2848
 21
21.7269
  0
LINE
  8
0
 10
42.2848
 20
21.7269
 11
42.3043
 21
21.5685
  0
LINE
  8
0
 10
42.3043
 20
21.5685
 11
42.3161
 21
21.4095
  0
LINE
  8
0
 10
42.3161
 20
21.4095
 11
42.3239
 21
21.0905
  0
LINE
  8
0
 10
42.3239
 20
21.0905
 11
42.3356
 21
20.9314
  0
LINE
  8
0
 10
42.3356
 20
20.9314
 11
42.3552
 21
20.7731
  0
LINE
  8
0
 10
42.3552
 20
20.7731
 11
42.3824
 21
20.616
  0
LINE
  8
0
 10
42.3824
 20
20.616
 11
42.4174
 21
20.4603
  0
LINE
  8
0
 10
42.4174
 20
20.4603
 11
42.4599
 21
20.3066
  0
LINE
  8
0
 10
42.4599
 20
20.3066
 11
42.51
 21
20.1551
  0
LINE
  8
0
 10
42.51
 20
20.1551
 11
42.5674
 21
20.0063
  0
LINE
  8
0
 10
42.5674
 20
20.0063
 11
42.632
 21
19.8604
  0
LINE
  8
0
 10
42.632
 20
19.8604
 11
42.7038
 21
19.718
  0
LINE
  8
0
 10
42.7038
 20
19.718
 11
42.7824
 21
19.5792
  0
LINE
  8
0
 10
42.7824
 20
19.5792
 11
42.8677
 21
19.4444
  0
LINE
  8
0
 10
42.8677
 20
19.4444
 11
42.9596
 21
19.314
  0
LINE
  8
0
 10
42.9596
 20
19.314
 11
43.0577
 21
19.1882
  0
LINE
  8
0
 10
43.0577
 20
19.1882
 11
43.1619
 21
19.0674
  0
LINE
  8
0
 10
43.1619
 20
19.0674
 11
43.2719
 21
18.9519
  0
LINE
  8
0
 10
43.2719
 20
18.9519
 11
43.3874
 21
18.8419
  0
LINE
  8
0
 10
43.3874
 20
18.8419
 11
43.5082
 21
18.7377
  0
LINE
  8
0
 10
43.5082
 20
18.7377
 11
43.634
 21
18.6396
  0
LINE
  8
0
 10
43.634
 20
18.6396
 11
43.7644
 21
18.5477
  0
LINE
  8
0
 10
43.7644
 20
18.5477
 11
43.8992
 21
18.4624
  0
LINE
  8
0
 10
43.8992
 20
18.4624
 11
44.0379
 21
18.3837
  0
LINE
  8
0
 10
44.0379
 20
18.3837
 11
44.1804
 21
18.312
  0
LINE
  8
0
 10
44.1804
 20
18.312
 11
44.3263
 21
18.2474
  0
LINE
  8
0
 10
44.3263
 20
18.2474
 11
44.4751
 21
18.19
  0
LINE
  8
0
 10
44.4751
 20
18.19
 11
44.6266
 21
18.1399
  0
LINE
  8
0
 10
44.6266
 20
18.1399
 11
44.7803
 21
18.0974
  0
LINE
  8
0
 10
44.7803
 20
18.0974
 11
44.9359
 21
18.0624
  0
LINE
  8
0
 10
44.9359
 20
18.0624
 11
45.0931
 21
18.0352
  0
LINE
  8
0
 10
45.0931
 20
18.0352
 11
45.2514
 21
18.0156
  0
LINE
  8
0
 10
45.2514
 20
18.0156
 11
45.4105
 21
18.0039
  0
LINE
  8
0
 10
45.4105
 20
18.0039
 11
45.57
 21
18
  0
LINE
  8
0
 10
45.57
 20
18
 11
72
 21
18
  0
LINE
  8
0
 10
72
 20
18
 11
122
 21
381.82
  0
LINE
  8
0
 10
122
 20
381.82
 11
92.9033
 21
381.82
  0
LINE
  8
0
 10
92.9033
 20
381.82
 11
92.7439
 21
381.816
  0
LINE
  8
0
 10
92.7439
 20
381.816
 11
92.5848
 21
381.804
  0
LINE
  8
0
 10
92.5848
 20
381.804
 11
92.4265
 21
381.785
  0
LINE
  8
0
 10
92.4265
 20
381.785
 11
92.2693
 21
381.758
  0
LINE
  8
0
 10
92.2693
 20
381.758
 11
92.1136
 21
381.723
  0
LINE
  8
0
 10
92.1136
 20
381.723
 11
91.9599
 21
381.68
  0
LINE
  8
0
 10
91.9599
 20
381.68
 11
91.8084
 21
381.63
  0
LINE
  8
0
 10
91.8084
 20
381.63
 11
91.6596
 21
381.573
  0
LINE
  8
0
 10
91.6596
 20
381.573
 11
91.5138
 21
381.508
  0
LINE
  8
0
 10
91.5138
 20
381.508
 11
91.3713
 21
381.436
  0
LINE
  8
0
 10
91.3713
 20
381.436
 11
91.2325
 21
381.358
  0
LINE
  8
0
 10
91.2325
 20
381.358
 11
91.0977
 21
381.272
  0
LINE
  8
0
 10
91.0977
 20
381.272
 11
90.9673
 21
381.18
  0
LINE
  8
0
 10
90.9673
 20
381.18
 11
90.8416
 21
381.082
  0
LINE
  8
0
 10
90.8416
 20
381.082
 11
90.7208
 21
380.978
  0
LINE
  8
0
 10
90.7208
 20
380.978
 11
90.6052
 21
380.868
  0
LINE
  8
0
 10
90.6052
 20
380.868
 11
90.4952
 21
380.753
  0
LINE
  8
0
 10
90.4952
 20
380.753
 11
90.391
 21
380.632
  0
LINE
  8
0
 10
90.391
 20
380.632
 11
90.2929
 21
380.506
  0
LINE
  8
0
 10
90.2929
 20
380.506
 11
90.201
 21
380.376
  0
LINE
  8
0
 10
90.201
 20
380.376
 11
90.1157
 21
380.241
  0
LINE
  8
0
 10
90.1157
 20
380.241
 11
90.0371
 21
380.102
  0
LINE
  8
0
 10
90.0371
 20
380.102
 11
89.9654
 21
379.96
  0
LINE
  8
0
 10
89.9654
 20
379.96
 11
89.9007
 21
379.814
  0
LINE
  8
0
 10
89.9007
 20
379.814
 11
89.8433
 21
379.665
  0
LINE
  8
0
 10
89.8433
 20
379.665
 11
89.7933
 21
379.513
  0
LINE
  8
0
 10
89.7933
 20
379.513
 11
89.7507
 21
379.36
  0
LINE
  8
0
 10
89.7507
 20
379.36
 11
89.7158
 21
379.204
  0
LINE
  8
0
 10
89.7158
 20
379.204
 11
89.6885
 21
379.047
  0
LINE
  8
0
 10
89.6885
 20
379.047
 11
89.669
 21
378.889
  0
LINE
  8
0
 10
89.669
 20
378.889
 11
89.6572
 21
378.729
  0
LINE
  8
0
 10
89.6572
 20
378.729
 11
89.6494
 21
378.411
  0
LINE
  8
0
 10
89.6494
 20
378.411
 11
89.6377
 21
378.251
  0
LINE
  8
0
 10
89.6377
 20
378.251
 11
89.6181
 21
378.093
  0
LINE
  8
0
 10
89.6181
 20
378.093
 11
89.5909
 21
377.936
  0
LINE
  8
0
 10
89.5909
 20
377.936
 11
89.5559
 21
377.78
  0
LINE
  8
0
 10
89.5559
 20
377.78
 11
89.5134
 21
377.627
  0
LINE
  8
0
 10
89.5134
 20
377.627
 11
89.4633
 21
377.475
  0
LINE
  8
0
 10
89.4633
 20
377.475
 11
89.4059
 21
377.326
  0
LINE
  8
0
 10
89.4059
 20
377.326
 11
89.3413
 21
377.18
  0
LINE
  8
0
 10
89.3413
 20
377.18
 11
89.2696
 21
377.038
  0
LINE
  8
0
 10
89.2696
 20
377.038
 11
89.1909
 21
376.899
  0
LINE
  8
0
 10
89.1909
 20
376.899
 11
89.1056
 21
376.764
  0
LINE
  8
0
 10
89.1056
 20
376.764
 11
89.0137
 21
376.634
  0
LINE
  8
0
 10
89.0137
 20
376.634
 11
88.9156
 21
376.508
  0
LINE
  8
0
 10
88.9156
 20
376.508
 11
88.8114
 21
376.387
  0
LINE
  8
0
 10
88.8114
 20
376.387
 11
88.7014
 21
376.272
  0
LINE
  8
0
 10
88.7014
 20
376.272
 11
88.5859
 21
376.162
  0
LINE
  8
0
 10
88.5859
 20
376.162
 11
88.4651
 21
376.058
  0
LINE
  8
0
 10
88.4651
 20
376.058
 11
88.3394
 21
375.96
  0
LINE
  8
0
 10
88.3394
 20
375.96
 11
88.2089
 21
375.868
  0
LINE
  8
0
 10
88.2089
 20
375.868
 11
88.0742
 21
375.782
  0
LINE
  8
0
 10
88.0742
 20
375.782
 11
87.9354
 21
375.704
  0
LINE
  8
0
 10
87.9354
 20
375.704
 11
87.7929
 21
375.632
  0
LINE
  8
0
 10
87.7929
 20
375.632
 11
87.647
 21
375.567
  0
LINE
  8
0
 10
87.647
 20
375.567
 11
87.4982
 21
375.51
  0
LINE
  8
0
 10
87.4982
 20
375.51
 11
87.3468
 21
375.46
  0
LINE
  8
0
 10
87.3468
 20
375.46
 11
87.193
 21
375.417
  0
LINE
  8
0
 10
87.193
 20
375.417
 11
87.0374
 21
375.382
  0
LINE
  8
0
 10
87.0374
 20
375.382
 11
86.8802
 21
375.355
  0
LINE
  8
0
 10
86.8802
 20
375.355
 11
86.7219
 21
375.336
  0
LINE
  8
0
 10
86.7219
 20
375.336
 11
86.5628
 21
375.324
  0
LINE
  8
0
 10
86.5628
 20
375.324
 11
86.4033
 21
375.32
  0
LINE
  8
0
 10
86.4033
 20
375.32
 11
86.2439
 21
375.324
  0
LINE
  8
0
 10
86.2439
 20
375.324
 11
86.0848
 21
375.336
  0
LINE
  8
0
 10
86.0848
 20
375.336
 11
85.9265
 21
375.355
  0
LINE
  8
0
 10
85.9265
 20
375.355
 11
85.7693
 21
375.382
  0
LINE
  8
0
 10
85.7693
 20
375.382
 11
85.6136
 21
375.417
  0
LINE
  8
0
 10
85.6136
 20
375.417
 11
85.4599
 21
375.46
  0
LINE
  8
0
 10
85.4599
 20
375.46
 11
85.3084
 21
375.51
  0
LINE
  8
0
 10
85.3084
 20
375.51
 11
85.1596
 21
375.567
  0
LINE
  8
0
 10
85.1596
 20
375.567
 11
85.0138
 21
375.632
  0
LINE
  8
0
 10
85.0138
 20
375.632
 11
84.8713
 21
375.704
  0
LINE
  8
0
 10
84.8713
 20
375.704
 11
84.7325
 21
375.782
  0
LINE
  8
0
 10
84.7325
 20
375.782
 11
84.5977
 21
375.868
  0
LINE
  8
0
 10
84.5977
 20
375.868
 11
84.4673
 21
375.96
  0
LINE
  8
0
 10
84.4673
 20
375.96
 11
84.3416
 21
376.058
  0
LINE
  8
0
 10
84.3416
 20
376.058
 11
84.2208
 21
376.162
  0
LINE
  8
0
 10
84.2208
 20
376.162
 11
84.1052
 21
376.272
  0
LINE
  8
0
 10
84.1052
 20
376.272
 11
83.9952
 21
376.387
  0
LINE
  8
0
 10
83.9952
 20
376.387
 11
83.891
 21
376.508
  0
LINE
  8
0
 10
83.891
 20
376.508
 11
83.7929
 21
376.634
  0
LINE
  8
0
 10
83.7929
 20
376.634
 11
83.701
 21
376.764
  0
LINE
  8
0
 10
83.701
 20
376.764
 11
83.6157
 21
376.899
  0
LINE
  8
0
 10
83.6157
 20
376.899
 11
83.5371
 21
377.038
  0
LINE
  8
0
 10
83.5371
 20
377.038
 11
83.4654
 21
377.18
  0
LINE
  8
0
 10
83.4654
 20
377.18
 11
83.4007
 21
377.326
  0
LINE
  8
0
 10
83.4007
 20
377.326
 11
83.3433
 21
377.475
  0
LINE
  8
0
 10
83.3433
 20
377.475
 11
83.2933
 21
377.627
  0
LINE
  8
0
 10
83.2933
 20
377.627
 11
83.2507
 21
377.78
  0
LINE
  8
0
 10
83.2507
 20
377.78
 11
83.2158
 21
377.936
  0
LINE
  8
0
 10
83.2158
 20
377.936
 11
83.1885
 21
378.093
  0
LINE
  8
0
 10
83.1885
 20
378.093
 11
83.169
 21
378.251
  0
LINE
  8
0
 10
83.169
 20
378.251
 11
83.1572
 21
378.411
  0
LINE
  8
0
 10
83.1572
 20
378.411
 11
83.1533
 21
378.57
  0
LINE
  8
0
 10
83.1533
 20
378.57
 11
83.1533
 21
403.25
  0
LINE
  8
0
 10
83.1533
 20
403.25
 11
83.1572
 21
403.409
  0
LINE
  8
0
 10
83.1572
 20
403.409
 11
83.169
 21
403.569
  0
LINE
  8
0
 10
83.169
 20
403.569
 11
83.1885
 21
403.727
  0
LINE
  8
0
 10
83.1885
 20
403.727
 11
83.2158
 21
403.884
  0
LINE
  8
0
 10
83.2158
 20
403.884
 11
83.2507
 21
404.04
  0
LINE
  8
0
 10
83.2507
 20
404.04
 11
83.2933
 21
404.193
  0
LINE
  8
0
 10
83.2933
 20
404.193
 11
83.3433
 21
404.345
  0
LINE
  8
0
 10
83.3433
 20
404.345
 11
83.4007
 21
404.494
  0
LINE
  8
0
 10
83.4007
 20
404.494
 11
83.4654
 21
404.64
  0
LINE
  8
0
 10
83.4654
 20
404.64
 11
83.5371
 21
404.782
  0
LINE
  8
0
 10
83.5371
 20
404.782
 11
83.6157
 21
404.921
  0
LINE
  8
0
 10
83.6157
 20
404.921
 11
83.701
 21
405.056
  0
LINE
  8
0
 10
83.701
 20
405.056
 11
83.7929
 21
405.186
  0
LINE
  8
0
 10
83.7929
 20
405.186
 11
83.891
 21
405.312
  0
LINE
  8
0
 10
83.891
 20
405.312
 11
83.9952
 21
405.433
  0
LINE
  8
0
 10
83.9952
 20
405.433
 11
84.1052
 21
405.548
  0
LINE
  8
0
 10
84.1052
 20
405.548
 11
84.2208
 21
405.658
  0
LINE
  8
0
 10
84.2208
 20
405.658
 11
84.3416
 21
405.762
  0
LINE
  8
0
 10
84.3416
 20
405.762
 11
84.4673
 21
405.86
  0
LINE
  8
0
 10
84.4673
 20
405.86
 11
84.5977
 21
405.952
  0
LINE
  8
0
 10
84.5977
 20
405.952
 11
84.7325
 21
406.038
  0
LINE
  8
0
 10
84.7325
 20
406.038
 11
84.8713
 21
406.116
  0
LINE
  8
0
 10
84.8713
 20
406.116
 11
85.0138
 21
406.188
  0
LINE
  8
0
 10
85.0138
 20
406.188
 11
85.1596
 21
406.253
  0
LINE
  8
0
 10
85.1596
 20
406.253
 11
85.3084
 21
406.31
  0
LINE
  8
0
 10
85.3084
 20
406.31
 11
85.4599
 21
406.36
  0
LINE
  8
0
 10
85.4599
 20
406.36
 11
85.6136
 21
406.403
  0
LINE
  8
0
 10
85.6136
 20
406.403
 11
85.7693
 21
406.438
  0
LINE
  8
0
 10
85.7693
 20
406.438
 11
85.9265
 21
406.465
  0
LINE
  8
0
 10
85.9265
 20
406.465
 11
86.0848
 21
406.484
  0
LINE
  8
0
 10
86.0848
 20
406.484
 11
86.2439
 21
406.496
  0
LINE
  8
0
 10
86.2439
 20
406.496
 11
86.4033
 21
406.5
  0
LINE
  8
0
 10
86.4033
 20
406.5
 11
86.5628
 21
406.496
  0
LINE
  8
0
 10
86.5628
 20
406.496
 11
86.7219
 21
406.484
  0
LINE
  8
0
 10
86.7219
 20
406.484
 11
86.8802
 21
406.465
  0
LINE
  8
0
 10
86.8802
 20
406.465
 11
87.0374
 21
406.438
  0
LINE
  8
0
 10
87.0374
 20
406.438
 11
87.193
 21
406.403
  0
LINE
  8
0
 10
87.193
 20
406.403
 11
87.3468
 21
406.36
  0
LINE
  8
0
 10
87.3468
 20
406.36
 11
87.4982
 21
406.31
  0
LINE
  8
0
 10
87.4982
 20
406.31
 11
87.647
 21
406.253
  0
LINE
  8
0
 10
87.647
 20
406.253
 11
87.7929
 21
406.188
  0
LINE
  8
0
 10
87.7929
 20
406.188
 11
87.9354
 21
406.116
  0
LINE
  8
0
 10
87.9354
 20
406.116
 11
88.0742
 21
406.038
  0
LINE
  8
0
 10
88.0742
 20
406.038
 11
88.2089
 21
405.952
  0
LINE
  8
0
 10
88.2089
 20
405.952
 11
88.3394
 21
405.86
  0
LINE
  8
0
 10
88.3394
 20
405.86
 11
88.4651
 21
405.762
  0
LINE
  8
0
 10
88.4651
 20
405.762
 11
88.5859
 21
405.658
  0
LINE
  8
0
 10
88.5859
 20
405.658
 11
88.7014
 21
405.548
  0
LINE
  8
0
 10
88.7014
 20
405.548
 11
88.8114
 21
405.433
  0
LINE
  8
0
 10
88.8114
 20
405.433
 11
88.9156
 21
405.312
  0
LINE
  8
0
 10
88.9156
 20
405.312
 11
89.0137
 21
405.186
  0
LINE
  8
0
 10
89.0137
 20
405.186
 11
89.1056
 21
405.056
  0
LINE
  8
0
 10
89.1056
 20
405.056
 11
89.1909
 21
404.921
  0
LINE
  8
0
 10
89.1909
 20
404.921
 11
89.2696
 21
404.782
  0
LINE
  8
0
 10
89.2696
 20
404.782
 11
89.3413
 21
404.64
  0
LINE
  8
0
 10
89.3413
 20
404.64
 11
89.4059
 21
404.494
  0
LINE
  8
0
 10
89.4059
 20
404.494
 11
89.4633
 21
404.345
  0
LINE
  8
0
 10
89.4633
 20
404.345
 11
89.5134
 21
404.193
  0
LINE
  8
0
 10
89.5134
 20
404.193
 11
89.5559
 21
404.04
  0
LINE
  8
0
 10
89.5559
 20
404.04
 11
89.5909
 21
403.884
  0
LINE
  8
0
 10
89.5909
 20
403.884
 11
89.6181
 21
403.727
  0
LINE
  8
0
 10
89.6181
 20
403.727
 11
89.6377
 21
403.569
  0
LINE
  8
0
 10
89.6377
 20
403.569
 11
89.6494
 21
403.409
  0
LINE
  8
0
 10
89.6494
 20
403.409
 11
89.6572
 21
403.091
  0
LINE
  8
0
 10
89.6572
 20
403.091
 11
89.669
 21
402.931
  0
LINE
  8
0
 10
89.669
 20
402.931
 11
89.6885
 21
402.773
  0
LINE
  8
0
 10
89.6885
 20
402.773
 11
89.7158
 21
402.616
  0
LINE
  8
0
 10
89.7158
 20
402.616
 11
89.7507
 21
402.46
  0
LINE
  8
0
 10
89.7507
 20
402.46
 11
89.7933
 21
402.307
  0
LINE
  8
0
 10
89.7933
 20
402.307
 11
89.8433
 21
402.155
  0
LINE
  8
0
 10
89.8433
 20
402.155
 11
89.9007
 21
402.006
  0
LINE
  8
0
 10
89.9007
 20
402.006
 11
89.9654
 21
401.86
  0
LINE
  8
0
 10
89.9654
 20
401.86
 11
90.0371
 21
401.718
  0
LINE
  8
0
 10
90.0371
 20
401.718
 11
90.1157
 21
401.579
  0
LINE
  8
0
 10
90.1157
 20
401.579
 11
90.201
 21
401.444
  0
LINE
  8
0
 10
90.201
 20
401.444
 11
90.2929
 21
401.314
  0
LINE
  8
0
 10
90.2929
 20
401.314
 11
90.391
 21
401.188
  0
LINE
  8
0
 10
90.391
 20
401.188
 11
90.4952
 21
401.067
  0
LINE
  8
0
 10
90.4952
 20
401.067
 11
90.6052
 21
400.952
  0
LINE
  8
0
 10
90.6052
 20
400.952
 11
90.7208
 21
400.842
  0
LINE
  8
0
 10
90.7208
 20
400.842
 11
90.8416
 21
400.738
  0
LINE
  8
0
 10
90.8416
 20
400.738
 11
90.9673
 21
400.64
  0
LINE
  8
0
 10
90.9673
 20
400.64
 11
91.0977
 21
400.548
  0
LINE
  8
0
 10
91.0977
 20
400.548
 11
91.2325
 21
400.462
  0
LINE
  8
0
 10
91.2325
 20
400.462
 11
91.3713
 21
400.384
  0
LINE
  8
0
 10
91.3713
 20
400.384
 11
91.5138
 21
400.312
  0
LINE
  8
0
 10
91.5138
 20
400.312
 11
91.6596
 21
400.247
  0
LINE
  8
0
 10
91.6596
 20
400.247
 11
91.8084
 21
400.19
  0
LINE
  8
0
 10
91.8084
 20
400.19
 11
91.9599
 21
400.14
  0
LINE
  8
0
 10
91.9599
 20
400.14
 11
92.1136
 21
400.097
  0
LINE
  8
0
 10
92.1136
 20
400.097
 11
92.2693
 21
400.062
  0
LINE
  8
0
 10
92.2693
 20
400.062
 11
92.4265
 21
400.035
  0
LINE
  8
0
 10
92.4265
 20
400.035
 11
92.5848
 21
400.016
  0
LINE
  8
0
 10
92.5848
 20
400.016
 11
92.7439
 21
400.004
  0
LINE
  8
0
 10
92.7439
 20
400.004
 11
92.9033
 21
400
  0
LINE
  8
0
 10
92.9033
 20
400
 11
407.097
 21
400
  0
LINE
  8
0
 10
407.097
 20
400
 11
407.256
 21
400.004
  0
LINE
  8
0
 10
407.256
 20
400.004
 11
407.415
 21
400.016
  0
LINE
  8
0
 10
407.415
 20
400.016
 11
407.574
 21
400.035
  0
LINE
  8
0
 10
407.574
 20
400.035
 11
407.731
 21
400.062
  0
LINE
  8
0
 10
407.731
 20
400.062
 11
407.886
 21
400.097
  0
LINE
  8
0
 10
407.886
 20
400.097
 11
408.04
 21
400.14
  0
LINE
  8
0
 10
408.04
 20
400.14
 11
408.192
 21
400.19
  0
LINE
  8
0
 10
408.192
 20
400.19
 11
408.34
 21
400.247
  0
LINE
  8
0
 10
408.34
 20
400.247
 11
408.486
 21
400.312
  0
LINE
  8
0
 10
408.486
 20
400.312
 11
408.629
 21
400.384
  0
LINE
  8
0
 10
408.629
 20
400.384
 11
408.767
 21
400.462
  0
LINE
  8
0
 10
408.767
 20
400.462
 11
408.902
 21
400.548
  0
LINE
  8
0
 10
408.902
 20
400.548
 11
409.033
 21
400.64
  0
LINE
  8
0
 10
409.033
 20
400.64
 11
409.158
 21
400.738
  0
LINE
  8
0
 10
409.158
 20
400.738
 11
409.279
 21
400.842
  0
LINE
  8
0
 10
409.279
 20
400.842
 11
409.395
 21
400.952
  0
LINE
  8
0
 10
409.395
 20
400.952
 11
409.505
 21
401.067
  0
LINE
  8
0
 10
409.505
 20
401.067
 11
409.609
 21
401.188
  0
LINE
  8
0
 10
409.609
 20
401.188
 11
409.707
 21
401.314
  0
LINE
  8
0
 10
409.707
 20
401.314
 11
409.799
 21
401.444
  0
LINE
  8
0
 10
409.799
 20
401.444
 11
409.884
 21
401.579
  0
LINE
  8
0
 10
409.884
 20
401.579
 11
409.963
 21
401.718
  0
LINE
  8
0
 10
409.963
 20
401.718
 11
410.035
 21
401.86
  0
LINE
  8
0
 10
410.035
 20
401.86
 11
410.099
 21
402.006
  0
LINE
  8
0
 10
410.099
 20
402.006
 11
410.157
 21
402.155
  0
LINE
  8
0
 10
410.157
 20
402.155
 11
410.207
 21
402.307
  0
LINE
  8
0
 10
410.207
 20
402.307
 11
410.249
 21
402.46
  0
LINE
  8
0
 10
410.249
 20
402.46
 11
410.284
 21
402.616
  0
LINE
  8
0
 10
410.284
 20
402.616
 11
410.311
 21
402.773
  0
LINE
  8
0
 10
410.311
 20
402.773
 11
410.331
 21
402.931
  0
LINE
  8
0
 10
410.331
 20
402.931
 11
410.343
 21
403.091
  0
LINE
  8
0
 10
410.343
 20
403.091
 11
410.351
 21
403.409
  0
LINE
  8
0
 10
410.351
 20
403.409
 11
410.362
 21
403.569
  0
LINE
  8
0
 10
410.362
 20
403.569
 11
410.382
 21
403.727
  0
LINE
  8
0
 10
410.382
 20
403.727
 11
410.409
 21
403.884
  0
LINE
  8
0
 10
410.409
 20
403.884
 11
410.444
 21
404.04
  0
LINE
  8
0
 10
410.444
 20
404.04
 11
410.487
 21
404.193
  0
LINE
  8
0
 10
410.487
 20
404.193
 11
410.537
 21
404.345
  0
LINE
  8
0
 10
410.537
 20
404.345
 11
410.594
 21
404.494
  0
LINE
  8
0
 10
410.594
 20
404.494
 11
410.659
 21
404.64
  0
LINE
  8
0
 10
410.659
 20
404.64
 11
410.73
 21
404.782
  0
LINE
  8
0
 10
410.73
 20
404.782
 11
410.809
 21
404.921
  0
LINE
  8
0
 10
410.809
 20
404.921
 11
410.894
 21
405.056
  0
LINE
  8
0
 10
410.894
 20
405.056
 11
410.986
 21
405.186
  0
LINE
  8
0
 10
410.986
 20
405.186
 11
411.084
 21
405.312
  0
LINE
  8
0
 10
411.084
 20
405.312
 11
411.189
 21
405.433
  0
LINE
  8
0
 10
411.189
 20
405.433
 11
411.299
 21
405.548
  0
LINE
  8
0
 10
411.299
 20
405.548
 11
411.414
 21
405.658
  0
LINE
  8
0
 10
411.414
 20
405.658
 11
411.535
 21
405.762
  0
LINE
  8
0
 10
411.535
 20
405.762
 11
411.661
 21
405.86
  0
LINE
  8
0
 10
411.661
 20
405.86
 11
411.791
 21
405.952
  0
LINE
  8
0
 10
411.791
 20
405.952
 11
411.926
 21
406.038
  0
LINE
  8
0
 10
411.926
 20
406.038
 11
412.065
 21
406.116
  0
LINE
  8
0
 10
412.065
 20
406.116
 11
412.207
 21
406.188
  0
LINE
  8
0
 10
412.207
 20
406.188
 11
412.353
 21
406.253
  0
LINE
  8
0
 10
412.353
 20
406.253
 11
412.502
 21
406.31
  0
LINE
  8
0
 10
412.502
 20
406.31
 11
412.653
 21
406.36
  0
LINE
  8
0
 10
412.653
 20
406.36
 11
412.807
 21
406.403
  0
LINE
  8
0
 10
412.807
 20
406.403
 11
412.963
 21
406.438
  0
LINE
  8
0
 10
412.963
 20
406.438
 11
413.12
 21
406.465
  0
LINE
  8
0
 10
413.12
 20
406.465
 11
413.278
 21
406.484
  0
LINE
  8
0
 10
413.278
 20
406.484
 11
413.437
 21
406.496
  0
LINE
  8
0
 10
413.437
 20
406.496
 11
413.597
 21
406.5
  0
LINE
  8
0
 10
413.597
 20
406.5
 11
413.756
 21
406.496
  0
LINE
  8
0
 10
413.756
 20
406.496
 11
413.915
 21
406.484
  0
LINE
  8
0
 10
413.915
 20
406.484
 11
414.074
 21
406.465
  0
LINE
  8
0
 10
414.074
 20
406.465
 11
414.231
 21
406.438
  0
LINE
  8
0
 10
414.231
 20
406.438
 11
414.386
 21
406.403
  0
LINE
  8
0
 10
414.386
 20
406.403
 11
414.54
 21
406.36
  0
LINE
  8
0
 10
414.54
 20
406.36
 11
414.692
 21
406.31
  0
LINE
  8
0
 10
414.692
 20
406.31
 11
414.84
 21
406.253
  0
LINE
  8
0
 10
414.84
 20
406.253
 11
414.986
 21
406.188
  0
LINE
  8
0
 10
414.986
 20
406.188
 11
415.129
 21
406.116
  0
LINE
  8
0
 10
415.129
 20
406.116
 11
415.267
 21
406.038
  0
LINE
  8
0
 10
415.267
 20
406.038
 11
415.402
 21
405.952
  0
LINE
  8
0
 10
415.402
 20
405.952
 11
415.533
 21
405.86
  0
LINE
  8
0
 10
415.533
 20
405.86
 11
415.658
 21
405.762
  0
LINE
  8
0
 10
415.658
 20
405.762
 11
415.779
 21
405.658
  0
LINE
  8
0
 10
415.779
 20
405.658
 11
415.895
 21
405.548
  0
LINE
  8
0
 10
415.895
 20
405.548
 11
416.005
 21
405.433
  0
LINE
  8
0
 10
416.005
 20
405.433
 11
416.109
 21
405.312
  0
LINE
  8
0
 10
416.109
 20
405.312
 11
416.207
 21
405.186
  0
LINE
  8
0
 10
416.207
 20
405.186
 11
416.299
 21
405.056
  0
LINE
  8
0
 10
416.299
 20
405.056
 11
416.384
 21
404.921
  0
LINE
  8
0
 10
416.384
 20
404.921
 11
416.463
 21
404.782
  0
LINE
  8
0
 10
416.463
 20
404.782
 11
416.535
 21
404.64
  0
LINE
  8
0
 10
416.535
 20
404.64
 11
416.599
 21
404.494
  0
LINE
  8
0
 10
416.599
 20
404.494
 11
416.657
 21
404.345
  0
LINE
  8
0
 10
416.657
 20
404.345
 11
416.707
 21
404.193
  0
LINE
  8
0
 10
416.707
 20
404.193
 11
416.749
 21
404.04
  0
LINE
  8
0
 10
416.749
 20
404.04
 11
416.784
 21
403.884
  0
LINE
  8
0
 10
416.784
 20
403.884
 11
416.811
 21
403.727
  0
LINE
  8
0
 10
416.811
 20
403.727
 11
416.831
 21
403.569
  0
LINE
  8
0
 10
416.831
 20
403.569
 11
416.843
 21
403.409
  0
LINE
  8
0
 10
416.843
 20
403.409
 11
416.847
 21
403.25
  0
LINE
  8
0
 10
416.847
 20
403.25
 11
416.847
 21
378.57
  0
LINE
  8
0
 10
416.847
 20
378.57
 11
416.843
 21
378.411
  0
LINE
  8
0
 10
416.843
 20
378.411
 11
416.831
 21
378.251
  0
LINE
  8
0
 10
416.831
 20
378.251
 11
416.811
 21
378.093
  0
LINE
  8
0
 10
416.811
 20
378.093
 11
416.784
 21
377.936
  0
LINE
  8
0
 10
416.784
 20
377.936
 11
416.749
 21
377.78
  0
LINE
  8
0
 10
416.749
 20
377.78
 11
416.707
 21
377.627
  0
LINE
  8
0
 10
416.707
 20
377.627
 11
416.657
 21
377.475
  0
LINE
  8
0
 10
416.657
 20
377.475
 11
416.599
 21
377.326
  0
LINE
  8
0
 10
416.599
 20
377.326
 11
416.535
 21
377.18
  0
LINE
  8
0
 10
416.535
 20
377.18
 11
416.463
 21
377.038
  0
LINE
  8
0
 10
416.463
 20
377.038
 11
416.384
 21
376.899
  0
LINE
  8
0
 10
416.384
 20
376.899
 11
416.299
 21
376.764
  0
LINE
  8
0
 10
416.299
 20
376.764
 11
416.207
 21
376.634
  0
LINE
  8
0
 10
416.207
 20
376.634
 11
416.109
 21
376.508
  0
LINE
  8
0
 10
416.109
 20
376.508
 11
416.005
 21
376.387
  0
LINE
  8
0
 10
416.005
 20
376.387
 11
415.895
 21
376.272
  0
LINE
  8
0
 10
415.895
 20
376.272
 11
415.779
 21
376.162
  0
LINE
  8
0
 10
415.779
 20
376.162
 11
415.658
 21
376.058
  0
LINE
  8
0
 10
415.658
 20
376.058
 11
415.533
 21
375.96
  0
LINE
  8
0
 10
415.533
 20
375.96
 11
415.402
 21
375.868
  0
LINE
  8
0
 10
415.402
 20
375.868
 11
415.267
 21
375.782
  0
LINE
  8
0
 10
415.267
 20
375.782
 11
415.129
 21
375.704
  0
LINE
  8
0
 10
415.129
 20
375.704
 11
414.986
 21
375.632
  0
LINE
  8
0
 10
414.986
 20
375.632
 11
414.84
 21
375.567
  0
LINE
  8
0
 10
414.84
 20
375.567
 11
414.692
 21
375.51
  0
LINE
  8
0
 10
414.692
 20
375.51
 11
414.54
 21
375.46
  0
LINE
  8
0
 10
414.54
 20
375.46
 11
414.386
 21
375.417
  0
LINE
  8
0
 10
414.386
 20
375.417
 11
414.231
 21
375.382
  0
LINE
  8
0
 10
414.231
 20
375.382
 11
414.074
 21
375.355
  0
LINE
  8
0
 10
414.074
 20
375.355
 11
413.915
 21
375.336
  0
LINE
  8
0
 10
413.915
 20
375.336
 11
413.756
 21
375.324
  0
LINE
  8
0
 10
413.756
 20
375.324
 11
413.597
 21
375.32
  0
LINE
  8
0
 10
413.597
 20
375.32
 11
413.437
 21
375.324
  0
LINE
  8
0
 10
413.437
 20
375.324
 11
413.278
 21
375.336
  0
LINE
  8
0
 10
413.278
 20
375.336
 11
413.12
 21
375.355
  0
LINE
  8
0
 10
413.12
 20
375.355
 11
412.963
 21
375.382
  0
LINE
  8
0
 10
412.963
 20
375.382
 11
412.807
 21
375.417
  0
LINE
  8
0
 10
412.807
 20
375.417
 11
412.653
 21
375.46
  0
LINE
  8
0
 10
412.653
 20
375.46
 11
412.502
 21
375.51
  0
LINE
  8
0
 10
412.502
 20
375.51
 11
412.353
 21
375.567
  0
LINE
  8
0
 10
412.353
 20
375.567
 11
412.207
 21
375.632
  0
LINE
  8
0
 10
412.207
 20
375.632
 11
412.065
 21
375.704
  0
LINE
  8
0
 10
412.065
 20
375.704
 11
411.926
 21
375.782
  0
LINE
  8
0
 10
411.926
 20
375.782
 11
411.791
 21
375.868
  0
LINE
  8
0
 10
411.791
 20
375.868
 11
411.661
 21
375.96
  0
LINE
  8
0
 10
411.661
 20
375.96
 11
411.535
 21
376.058
  0
LINE
  8
0
 10
411.535
 20
376.058
 11
411.414
 21
376.162
  0
LINE
  8
0
 10
411.414
 20
376.162
 11
411.299
 21
376.272
  0
LINE
  8
0
 10
411.299
 20
376.272
 11
411.189
 21
376.387
  0
LINE
  8
0
 10
411.189
 20
376.387
 11
411.084
 21
376.508
  0
LINE
  8
0
 10
411.084
 20
376.508
 11
410.986
 21
376.634
  0
LINE
  8
0
 10
410.986
 20
376.634
 11
410.894
 21
376.764
  0
LINE
  8
0
 10
410.894
 20
376.764
 11
410.809
 21
376.899
  0
LINE
  8
0
 10
410.809
 20
376.899
 11
410.73
 21
377.038
  0
LINE
  8
0
 10
410.73
 20
377.038
 11
410.659
 21
377.18
  0
LINE
  8
0
 10
410.659
 20
377.18
 11
410.594
 21
377.326
  0
LINE
  8
0
 10
410.594
 20
377.326
 11
410.537
 21
377.475
  0
LINE
  8
0
 10
410.537
 20
377.475
 11
410.487
 21
377.627
  0
LINE
  8
0
 10
410.487
 20
377.627
 11
410.444
 21
377.78
  0
LINE
  8
0
 10
410.444
 20
377.78
 11
410.409
 21
377.936
  0
LINE
  8
0
 10
410.409
 20
377.936
 11
410.382
 21
378.093
  0
LINE
  8
0
 10
410.382
 20
378.093
 11
410.362
 21
378.251
  0
LINE
  8
0
 10
410.362
 20
378.251
 11
410.351
 21
378.411
  0
LINE
  8
0
 10
410.351
 20
378.411
 11
410.343
 21
378.729
  0
LINE
  8
0
 10
410.343
 20
378.729
 11
410.331
 21
378.889
  0
LINE
  8
0
 10
410.331
 20
378.889
 11
410.311
 21
379.047
  0
LINE
  8
0
 10
410.311
 20
379.047
 11
410.284
 21
379.204
  0
LINE
  8
0
 10
410.284
 20
379.204
 11
410.249
 21
379.36
  0
LINE
  8
0
 10
410.249
 20
379.36
 11
410.207
 21
379.513
  0
LINE
  8
0
 10
410.207
 20
379.513
 11
410.157
 21
379.665
  0
LINE
  8
0
 10
410.157
 20
379.665
 11
410.099
 21
379.814
  0
LINE
  8
0
 10
410.099
 20
379.814
 11
410.035
 21
379.96
  0
LINE
  8
0
 10
410.035
 20
379.96
 11
409.963
 21
380.102
  0
LINE
  8
0
 10
409.963
 20
380.102
 11
409.884
 21
380.241
  0
LINE
  8
0
 10
409.884
 20
380.241
 11
409.799
 21
380.376
  0
LINE
  8
0
 10
409.799
 20
380.376
 11
409.707
 21
380.506
  0
LINE
  8
0
 10
409.707
 20
380.506
 11
409.609
 21
380.632
  0
LINE
  8
0
 10
409.609
 20
380.632
 11
409.505
 21
380.753
  0
LINE
  8
0
 10
409.505
 20
380.753
 11
409.395
 21
380.868
  0
LINE
  8
0
 10
409.395
 20
380.868
 11
409.279
 21
380.978
  0
LINE
  8
0
 10
409.279
 20
380.978
 11
409.158
 21
381.082
  0
LINE
  8
0
 10
409.158
 20
381.082
 11
409.033
 21
381.18
  0
LINE
  8
0
 10
409.033
 20
381.18
 11
408.902
 21
381.272
  0
LINE
  8
0
 10
408.902
 20
381.272
 11
408.767
 21
381.358
  0
LINE
  8
0
 10
408.767
 20
381.358
 11
408.629
 21
381.436
  0
LINE
  8
0
 10
408.629
 20
381.436
 11
408.486
 21
381.508
  0
LINE
  8
0
 10
408.486
 20
381.508
 11
408.34
 21
381.573
  0
LINE
  8
0
 10
408.34
 20
381.573
 11
408.192
 21
381.63
  0
LINE
  8
0
 10
408.192
 20
381.63
 11
408.04
 21
381.68
  0
LINE
  8
0
 10
408.04
 20
381.68
 11
407.886
 21
381.723
  0
LINE
  8
0
 10
407.886
 20
381.723
 11
407.731
 21
381.758
  0
LINE
  8
0
 10
407.731
 20
381.758
 11
407.574
 21
381.785
  0
LINE
  8
0
 10
407.574
 20
381.785
 11
407.415
 21
381.804
  0
LINE
  8
0
 10
407.415
 20
381.804
 11
407.256
 21
381.816
  0
LINE
  8
0
 10
407.256
 20
381.816
 11
407.097
 21
381.82
  0
LINE
  8
0
 10
407.097
 20
381.82
 11
378
 21
381.82
  0
LINE
  8
0
 10
378
 20
381.82
 11
428
 21
18
  0
LINE
  8
0
 10
428
 20
18
 11
454.43
 21
18
  0
LINE
  8
0
 10
454.43
 20
18
 11
454.589
 21
18.0039
  0
LINE
  8
0
 10
454.589
 20
18.0039
 11
454.749
 21
18.0156
  0
LINE
  8
0
 10
454.749
 20
18.0156
 11
454.907
 21
18.0352
  0
LINE
  8
0
 10
454.907
 20
18.0352
 11
455.064
 21
18.0624
  0
LINE
  8
0
 10
455.064
 20
18.0624
 11
455.22
 21
18.0974
  0
LINE
  8
0
 10
455.22
 20
18.0974
 11
455.373
 21
18.1399
  0
LINE
  8
0
 10
455.373
 20
18.1399
 11
455.525
 21
18.19
  0
LINE
  8
0
 10
455.525
 20
18.19
 11
455.674
 21
18.2474
  0
LINE
  8
0
 10
455.674
 20
18.2474
 11
455.82
 21
18.312
  0
LINE
  8
0
 10
455.82
 20
18.312
 11
455.962
 21
18.3837
  0
LINE
  8
0
 10
455.962
 20
18.3837
 11
456.101
 21
18.4624
  0
LINE
  8
0
 10
456.101
 20
18.4624
 11
456.236
 21
18.5477
  0
LINE
  8
0
 10
456.236
 20
18.5477
 11
456.366
 21
18.6396
  0
LINE
  8
0
 10
456.366
 20
18.6396
 11
456.492
 21
18.7377
  0
LINE
  8
0
 10
456.492
 20
18.7377
 11
456.613
 21
18.8419
  0
LINE
  8
0
 10
456.613
 20
18.8419
 11
456.728
 21
18.9519
  0
LINE
  8
0
 10
456.728
 20
18.9519
 11
456.838
 21
19.0674
  0
LINE
  8
0
 10
456.838
 20
19.0674
 11
456.942
 21
19.1882
  0
LINE
  8
0
 10
456.942
 20
19.1882
 11
457.04
 21
19.314
  0
LINE
  8
0
 10
457.04
 20
19.314
 11
457.132
 21
19.4444
  0
LINE
  8
0
 10
457.132
 20
19.4444
 11
457.218
 21
19.5792
  0
LINE
  8
0
 10
457.218
 20
19.5792
 11
457.296
 21
19.718
  0
LINE
  8
0
 10
457.296
 20
19.718
 11
457.368
 21
19.8604
  0
LINE
  8
0
 10
457.368
 20
19.8604
 11
457.433
 21
20.0063
  0
LINE
  8
0
 10
457.433
 20
20.0063
 11
457.49
 21
20.1551
  0
LINE
  8
0
 10
457.49
 20
20.1551
 11
457.54
 21
20.3066
  0
LINE
  8
0
 10
457.54
 20
20.3066
 11
457.583
 21
20.4603
  0
LINE
  8
0
 10
457.583
 20
20.4603
 11
457.618
 21
20.616
  0
LINE
  8
0
 10
457.618
 20
20.616
 11
457.645
 21
20.7731
  0
LINE
  8
0
 10
457.645
 20
20.7731
 11
457.664
 21
20.9314
  0
LINE
  8
0
 10
457.664
 20
20.9314
 11
457.676
 21
21.0905
  0
LINE
  8
0
 10
457.676
 20
21.0905
 11
457.684
 21
21.4095
  0
LINE
  8
0
 10
457.684
 20
21.4095
 11
457.696
 21
21.5685
  0
LINE
  8
0
 10
457.696
 20
21.5685
 11
457.715
 21
21.7269
  0
LINE
  8
0
 10
457.715
 20
21.7269
 11
457.742
 21
21.884
  0
LINE
  8
0
 10
457.742
 20
21.884
 11
457.777
 21
22.0397
  0
LINE
  8
0
 10
457.777
 20
22.0397
 11
457.82
 21
22.1934
  0
LINE
  8
0
 10
457.82
 20
22.1934
 11
457.87
 21
22.3449
  0
LINE
  8
0
 10
457.87
 20
22.3449
 11
457.927
 21
22.4937
  0
LINE
  8
0
 10
457.927
 20
22.4937
 11
457.992
 21
22.6395
  0
LINE
  8
0
 10
457.992
 20
22.6395
 11
458.064
 21
22.782
  0
LINE
  8
0
 10
458.064
 20
22.782
 11
458.142
 21
22.9208
  0
LINE
  8
0
 10
458.142
 20
22.9208
 11
458.228
 21
23.0556
  0
LINE
  8
0
 10
458.228
 20
23.0556
 11
458.32
 21
23.186
  0
LINE
  8
0
 10
458.32
 20
23.186
 11
458.418
 21
23.3118
  0
LINE
  8
0
 10
458.418
 20
23.3118
 11
458.522
 21
23.4326
  0
LINE
  8
0
 10
458.522
 20
23.4326
 11
458.632
 21
23.5481
  0
LINE
  8
0
 10
458.632
 20
23.5481
 11
458.747
 21
23.6581
  0
LINE
  8
0
 10
458.747
 20
23.6581
 11
458.868
 21
23.7623
  0
LINE
  8
0
 10
458.868
 20
23.7623
 11
458.994
 21
23.8604
  0
LINE
  8
0
 10
458.994
 20
23.8604
 11
459.124
 21
23.9523
  0
LINE
  8
0
 10
459.124
 20
23.9523
 11
459.259
 21
24.0376
  0
LINE
  8
0
 10
459.259
 20
24.0376
 11
459.398
 21
24.1162
  0
LINE
  8
0
 10
459.398
 20
24.1162
 11
459.54
 21
24.188
  0
LINE
  8
0
 10
459.54
 20
24.188
 11
459.686
 21
24.2526
  0
LINE
  8
0
 10
459.686
 20
24.2526
 11
459.835
 21
24.31
  0
LINE
  8
0
 10
459.835
 20
24.31
 11
459.987
 21
24.36
  0
LINE
  8
0
 10
459.987
 20
24.36
 11
460.14
 21
24.4026
  0
LINE
  8
0
 10
460.14
 20
24.4026
 11
460.296
 21
24.4375
  0
LINE
  8
0
 10
460.296
 20
24.4375
 11
460.453
 21
24.4648
  0
LINE
  8
0
 10
460.453
 20
24.4648
 11
460.611
 21
24.4843
  0
LINE
  8
0
 10
460.611
 20
24.4843
 11
460.771
 21
24.4961
  0
LINE
  8
0
 10
460.771
 20
24.4961
 11
460.93
 21
24.5
  0
LINE
  8
0
 10
460.93
 20
24.5
 11
461.089
 21
24.4961
  0
LINE
  8
0
 10
461.089
 20
24.4961
 11
461.249
 21
24.4843
  0
LINE
  8
0
 10
461.249
 20
24.4843
 11
461.407
 21
24.4648
  0
LINE
  8
0
 10
461.407
 20
24.4648
 11
461.564
 21
24.4375
  0
LINE
  8
0
 10
461.564
 20
24.4375
 11
461.72
 21
24.4026
  0
LINE
  8
0
 10
461.72
 20
24.4026
 11
461.873
 21
24.36
  0
LINE
  8
0
 10
461.873
 20
24.36
 11
462.025
 21
24.31
  0
LINE
  8
0
 10
462.025
 20
24.31
 11
462.174
 21
24.2526
  0
LINE
  8
0
 10
462.174
 20
24.2526
 11
462.32
 21
24.188
  0
LINE
  8
0
 10
462.32
 20
24.188
 11
462.462
 21
24.1162
  0
LINE
  8
0
 10
462.462
 20
24.1162
 11
462.601
 21
24.0376
  0
LINE
  8
0
 10
462.601
 20
24.0376
 11
462.736
 21
23.9523
  0
LINE
  8
0
 10
462.736
 20
23.9523
 11
462.866
 21
23.8604
  0
LINE
  8
0
 10
462.866
 20
23.8604
 11
462.992
 21
23.7623
  0
LINE
  8
0
 10
462.992
 20
23.7623
 11
463.113
 21
23.6581
  0
LINE
  8
0
 10
463.113
 20
23.6581
 11
463.228
 21
23.5481
  0
LINE
  8
0
 10
463.228
 20
23.5481
 11
463.338
 21
23.4326
  0
LINE
  8
0
 10
463.338
 20
23.4326
 11
463.442
 21
23.3118
  0
LINE
  8
0
 10
463.442
 20
23.3118
 11
463.54
 21
23.186
  0
LINE
  8
0
 10
463.54
 20
23.186
 11
463.632
 21
23.0556
  0
LINE
  8
0
 10
463.632
 20
23.0556
 11
463.718
 21
22.9208
  0
LINE
  8
0
 10
463.718
 20
22.9208
 11
463.796
 21
22.782
  0
LINE
  8
0
 10
463.796
 20
22.782
 11
463.868
 21
22.6395
  0
LINE
  8
0
 10
463.868
 20
22.6395
 11
463.933
 21
22.4937
  0
LINE
  8
0
 10
463.933
 20
22.4937
 11
463.99
 21
22.3449
  0
LINE
  8
0
 10
463.99
 20
22.3449
 11
464.04
 21
22.1934
  0
LINE
  8
0
 10
464.04
 20
22.1934
 11
464.083
 21
22.0397
  0
LINE
  8
0
 10
464.083
 20
22.0397
 11
464.118
 21
21.884
  0
LINE
  8
0
 10
464.118
 20
21.884
 11
464.145
 21
21.7269
  0
LINE
  8
0
 10
464.145
 20
21.7269
 11
464.164
 21
21.5685
  0
LINE
  8
0
 10
464.164
 20
21.5685
 11
464.176
 21
21.4095
  0
LINE
  8
0
 10
464.176
 20
21.4095
 11
464.18
 21
21.25
  0
LINE
  8
0
 10
464.18
 20
21.25
 11
464.18
 21
0
  0
LINE
  8
0
 10
464.18
 20
0
 11
481.82
 21
0
  0
LINE
  8
0
 10
481.82
 20
0
 11
481.82
 21
190.43
  0
LINE
  8
0
 10
481.82
 20
190.43
 11
481.816
 21
190.589
  0
LINE
  8
0
 10
481.816
 20
190.589
 11
481.804
 21
190.749
  0
LINE
  8
0
 10
481.804
 20
190.749
 11
481.785
 21
190.907
  0
LINE
  8
0
 10
481.785
 20
190.907
 11
481.758
 21
191.064
  0
LINE
  8
0
 10
481.758
 20
191.064
 11
481.723
 21
191.22
  0
LINE
  8
0
 10
481.723
 20
191.22
 11
481.68
 21
191.373
  0
LINE
  8
0
 10
481.68
 20
191.373
 11
481.63
 21
191.525
  0
LINE
  8
0
 10
481.63
 20
191.525
 11
481.573
 21
191.674
  0
LINE
  8
0
 10
481.573
 20
191.674
 11
481.508
 21
191.82
  0
LINE
  8
0
 10
481.508
 20
191.82
 11
481.436
 21
191.962
  0
LINE
  8
0
 10
481.436
 20
191.962
 11
481.358
 21
192.101
  0
LINE
  8
0
 10
481.358
 20
192.101
 11
481.272
 21
192.236
  0
LINE
  8
0
 10
481.272
 20
192.236
 11
481.18
 21
192.366
  0
LINE
  8
0
 10
481.18
 20
192.366
 11
481.082
 21
192.492
  0
LINE
  8
0
 10
481.082
 20
192.492
 11
480.978
 21
192.613
  0
LINE
  8
0
 10
480.978
 20
192.613
 11
480.868
 21
192.728
  0
LINE
  8
0
 10
480.868
 20
192.728
 11
480.753
 21
192.838
  0
LINE
  8
0
 10
480.753
 20
192.838
 11
480.632
 21
192.942
  0
LINE
  8
0
 10
480.632
 20
192.942
 11
480.506
 21
193.04
  0
LINE
  8
0
 10
480.506
 20
193.04
 11
480.376
 21
193.132
  0
LINE
  8
0
 10
480.376
 20
193.132
 11
480.241
 21
193.218
  0
LINE
  8
0
 10
480.241
 20
193.218
 11
480.102
 21
193.296
  0
LINE
  8
0
 10
480.102
 20
193.296
 11
479.96
 21
193.368
  0
LINE
  8
0
 10
479.96
 20
193.368
 11
479.814
 21
193.433
  0
LINE
  8
0
 10
479.814
 20
193.433
 11
479.665
 21
193.49
  0
LINE
  8
0
 10
479.665
 20
193.49
 11
479.513
 21
193.54
  0
LINE
  8
0
 10
479.513
 20
193.54
 11
479.36
 21
193.583
  0
LINE
  8
0
 10
479.36
 20
193.583
 11
479.204
 21
193.618
  0
LINE
  8
0
 10
479.204
 20
193.618
 11
479.047
 21
193.645
  0
LINE
  8
0
 10
479.047
 20
193.645
 11
478.889
 21
193.664
  0
LINE
  8
0
 10
478.889
 20
193.664
 11
478.729
 21
193.676
  0
LINE
  8
0
 10
478.729
 20
193.676
 11
478.411
 21
193.684
  0
LINE
  8
0
 10
478.411
 20
193.684
 11
478.251
 21
193.696
  0
LINE
  8
0
 10
478.251
 20
193.696
 11
478.093
 21
193.715
  0
LINE
  8
0
 10
478.093
 20
193.715
 11
477.936
 21
193.742
  0
LINE
  8
0
 10
477.936
 20
193.742
 11
477.78
 21
193.777
  0
LINE
  8
0
 10
477.78
 20
193.777
 11
477.627
 21
193.82
  0
LINE
  8
0
 10
477.627
 20
193.82
 11
477.475
 21
193.87
  0
LINE
  8
0
 10
477.475
 20
193.87
 11
477.326
 21
193.927
  0
LINE
  8
0
 10
477.326
 20
193.927
 11
477.18
 21
193.992
  0
LINE
  8
0
 10
477.18
 20
193.992
 11
477.038
 21
194.064
  0
LINE
  8
0
 10
477.038
 20
194.064
 11
476.899
 21
194.142
  0
LINE
  8
0
 10
476.899
 20
194.142
 11
476.764
 21
194.228
  0
LINE
  8
0
 10
476.764
 20
194.228
 11
476.634
 21
194.32
  0
LINE
  8
0
 10
476.634
 20
194.32
 11
476.508
 21
194.418
  0
LINE
  8
0
 10
476.508
 20
194.418
 11
476.387
 21
194.522
  0
LINE
  8
0
 10
476.387
 20
194.522
 11
476.272
 21
194.632
  0
LINE
  8
0
 10
476.272
 20
194.632
 11
476.162
 21
194.747
  0
LINE
  8
0
 10
476.162
 20
194.747
 11
476.058
 21
194.868
  0
LINE
  8
0
 10
476.058
 20
194.868
 11
475.96
 21
194.994
  0
LINE
  8
0
 10
475.96
 20
194.994
 11
475.868
 21
195.124
  0
LINE
  8
0
 10
475.868
 20
195.124
 11
475.782
 21
195.259
  0
LINE
  8
0
 10
475.782
 20
195.259
 11
475.704
 21
195.398
  0
LINE
  8
0
 10
475.704
 20
195.398
 11
475.632
 21
195.54
  0
LINE
  8
0
 10
475.632
 20
195.54
 11
475.567
 21
195.686
  0
LINE
  8
0
 10
475.567
 20
195.686
 11
475.51
 21
195.835
  0
LINE
  8
0
 10
475.51
 20
195.835
 11
475.46
 21
195.987
  0
LINE
  8
0
 10
475.46
 20
195.987
 11
475.417
 21
196.14
  0
LINE
  8
0
 10
475.417
 20
196.14
 11
475.382
 21
196.296
  0
LINE
  8
0
 10
475.382
 20
196.296
 11
475.355
 21
196.453
  0
LINE
  8
0
 10
475.355
 20
196.453
 11
475.336
 21
196.611
  0
LINE
  8
0
 10
475.336
 20
196.611
 11
475.324
 21
196.771
  0
LINE
  8
0
 10
475.324
 20
196.771
 11
475.32
 21
196.93
  0
LINE
  8
0
 10
475.32
 20
196.93
 11
475.324
 21
197.089
  0
LINE
  8
0
 10
475.324
 20
197.089
 11
475.336
 21
197.249
  0
LINE
  8
0
 10
475.336
 20
197.249
 11
475.355
 21
197.407
  0
LINE
  8
0
 10
475.355
 20
197.407
 11
475.382
 21
197.564
  0
LINE
  8
0
 10
475.382
 20
197.564
 11
475.417
 21
197.72
  0
LINE
  8
0
 10
475.417
 20
197.72
 11
475.46
 21
197.873
  0
LINE
  8
0
 10
475.46
 20
197.873
 11
475.51
 21
198.025
  0
LINE
  8
0
 10
475.51
 20
198.025
 11
475.567
 21
198.174
  0
LINE
  8
0
 10
475.567
 20
198.174
 11
475.632
 21
198.32
  0
LINE
  8
0
 10
475.632
 20
198.32
 11
475.704
 21
198.462
  0
LINE
  8
0
 10
475.704
 20
198.462
 11
475.782
 21
198.601
  0
LINE
  8
0
 10
475.782
 20
198.601
 11
475.868
 21
198.736
  0
LINE
  8
0
 10
475.868
 20
198.736
 11
475.96
 21
198.866
  0
LINE
  8
0
 10
475.96
 20
198.866
 11
476.058
 21
198.992
  0
LINE
  8
0
 10
476.058
 20
198.992
 11
476.162
 21
199.113
  0
LINE
  8
0
 10
476.162
 20
199.113
 11
476.272
 21
199.228
  0
LINE
  8
0
 10
476.272
 20
199.228
 11
476.387
 21
199.338
  0
LINE
  8
0
 10
476.387
 20
199.338
 11
476.508
 21
199.442
  0
LINE
  8
0
 10
476.508
 20
199.442
 11
476.634
 21
199.54
  0
LINE
  8
0
 10
476.634
 20
199.54
 11
476.764
 21
199.632
  0
LINE
  8
0
 10
476.764
 20
199.632
 11
476.899
 21
199.718
  0
LINE
  8
0
 10
476.899
 20
199.718
 11
477.038
 21
199.796
  0
LINE
  8
0
 10
477.038
 20
199.796
 11
477.18
 21
199.868
  0
LINE
  8
0
 10
477.18
 20
199.868
 11
477.326
 21
199.933
  0
LINE
  8
0
 10
477.326
 20
199.933
 11
477.475
 21
199.99
  0
LINE
  8
0
 10
477.475
 20
199.99
 11
477.627
 21
200.04
  0
LINE
  8
0
 10
477.627
 20
200.04
 11
477.78
 21
200.083
  0
LINE
  8
0
 10
477.78
 20
200.083
 11
477.936
 21
200.118
  0
LINE
  8
0
 10
477.936
 20
200.118
 11
478.093
 21
200.145
  0
LINE
  8
0
 10
478.093
 20
200.145
 11
478.251
 21
200.164
  0
LINE
  8
0
 10
478.251
 20
200.164
 11
478.411
 21
200.176
  0
LINE
  8
0
 10
478.411
 20
200.176
 11
478.57
 21
200.18
  0
LINE
  8
0
 10
478.57
 20
200.18
 11
500
 21
200.18
  0
LINE
  8
0
 10
500
 20
200.18
 11
500
 21
582
  0
LINE
  8
0
 10
500
 20
582
 11
343.083
 21
582
  0
LINE
  8
0
 10
343.083
 20
582
 11
342.924
 21
581.996
  0
LINE
  8
0
 10
342.924
 20
581.996
 11
342.765
 21
581.984
  0
LINE
  8
0
 10
342.765
 20
581.984
 11
342.606
 21
581.965
  0
LINE
  8
0
 10
342.606
 20
581.965
 11
342.449
 21
581.938
  0
LINE
  8
0
 10
342.449
 20
581.938
 11
342.294
 21
581.903
  0
LINE
  8
0
 10
342.294
 20
581.903
 11
342.14
 21
581.86
  0
LINE
  8
0
 10
342.14
 20
581.86
 11
341.988
 21
581.81
  0
LINE
  8
0
 10
341.988
 20
581.81
 11
341.84
 21
581.753
  0
LINE
  8
0
 10
341.84
 20
581.753
 11
341.694
 21
581.688
  0
LINE
  8
0
 10
341.694
 20
581.688
 11
341.551
 21
581.616
  0
LINE
  8
0
 10
341.551
 20
581.616
 11
341.412
 21
581.538
  0
LINE
  8
0
 10
341.412
 20
581.538
 11
341.278
 21
581.452
  0
LINE
  8
0
 10
341.278
 20
581.452
 11
341.147
 21
581.36
  0
LINE
  8
0
 10
341.147
 20
581.36
 11
341.022
 21
581.262
  0
LINE
  8
0
 10
341.022
 20
581.262
 11
340.901
 21
581.158
  0
LINE
  8
0
 10
340.901
 20
581.158
 11
340.785
 21
581.048
  0
LINE
  8
0
 10
340.785
 20
581.048
 11
340.675
 21
580.933
  0
LINE
  8
0
 10
340.675
 20
580.933
 11
340.571
 21
580.812
  0
LINE
  8
0
 10
340.571
 20
580.812
 11
340.473
 21
580.686
  0
LINE
  8
0
 10
340.473
 20
580.686
 11
340.381
 21
580.556
  0
LINE
  8
0
 10
340.381
 20
580.556
 11
340.296
 21
580.421
  0
LINE
  8
0
 10
340.296
 20
580.421
 11
340.217
 21
580.282
  0
LINE
  8
0
 10
340.217
 20
580.282
 11
340.145
 21
580.14
  0
LINE
  8
0
 10
340.145
 20
580.14
 11
340.081
 21
579.994
  0
LINE
  8
0
 10
340.081
 20
579.994
 11
340.023
 21
579.845
  0
LINE
  8
0
 10
340.023
 20
579.845
 11
339.973
 21
579.693
  0
LINE
  8
0
 10
339.973
 20
579.693
 11
339.931
 21
579.54
  0
LINE
  8
0
 10
339.931
 20
579.54
 11
339.896
 21
579.384
  0
LINE
  8
0
 10
339.896
 20
579.384
 11
339.868
 21
579.227
  0
LINE
  8
0
 10
339.868
 20
579.227
 11
339.849
 21
579.069
  0
LINE
  8
0
 10
339.849
 20
579.069
 11
339.837
 21
578.909
  0
LINE
  8
0
 10
339.837
 20
578.909
 11
339.829
 21
578.591
  0
LINE
  8
0
 10
339.829
 20
578.591
 11
339.818
 21
578.431
  0
LINE
  8
0
 10
339.818
 20
578.431
 11
339.798
 21
578.273
  0
LINE
  8
0
 10
339.798
 20
578.273
 11
339.771
 21
578.116
  0
LINE
  8
0
 10
339.771
 20
578.116
 11
339.736
 21
577.96
  0
LINE
  8
0
 10
339.736
 20
577.96
 11
339.693
 21
577.807
  0
LINE
  8
0
 10
339.693
 20
577.807
 11
339.643
 21
577.655
  0
LINE
  8
0
 10
339.643
 20
577.655
 11
339.586
 21
577.506
  0
LINE
  8
0
 10
339.586
 20
577.506
 11
339.521
 21
577.36
  0
LINE
  8
0
 10
339.521
 20
577.36
 11
339.45
 21
577.218
  0
LINE
  8
0
 10
339.45
 20
577.218
 11
339.371
 21
577.079
  0
LINE
  8
0
 10
339.371
 20
577.079
 11
339.286
 21
576.944
  0
LINE
  8
0
 10
339.286
 20
576.944
 11
339.194
 21
576.814
  0
LINE
  8
0
 10
339.194
 20
576.814
 11
339.096
 21
576.688
  0
LINE
  8
0
 10
339.096
 20
576.688
 11
338.991
 21
576.567
  0
LINE
  8
0
 10
338.991
 20
576.567
 11
338.881
 21
576.452
  0
LINE
  8
0
 10
338.881
 20
576.452
 11
338.766
 21
576.342
  0
LINE
  8
0
 10
338.766
 20
576.342
 11
338.645
 21
576.238
  0
LINE
  8
0
 10
338.645
 20
576.238
 11
338.519
 21
576.14
  0
LINE
  8
0
 10
338.519
 20
576.14
 11
338.389
 21
576.048
  0
LINE
  8
0
 10
338.389
 20
576.048
 11
338.254
 21
575.962
  0
LINE
  8
0
 10
338.254
 20
575.962
 11
338.115
 21
575.884
  0
LINE
  8
0
 10
338.115
 20
575.884
 11
337.973
 21
575.812
  0
LINE
  8
0
 10
337.973
 20
575.812
 11
337.827
 21
575.747
  0
LINE
  8
0
 10
337.827
 20
575.747
 11
337.678
 21
575.69
  0
LINE
  8
0
 10
337.678
 20
575.69
 11
337.527
 21
575.64
  0
LINE
  8
0
 10
337.527
 20
575.64
 11
337.373
 21
575.597
  0
LINE
  8
0
 10
337.373
 20
575.597
 11
337.217
 21
575.562
  0
LINE
  8
0
 10
337.217
 20
575.562
 11
337.06
 21
575.535
  0
LINE
  8
0
 10
337.06
 20
575.535
 11
336.902
 21
575.516
  0
LINE
  8
0
 10
336.902
 20
575.516
 11
336.743
 21
575.504
  0
LINE
  8
0
 10
336.743
 20
575.504
 11
336.583
 21
575.5
  0
LINE
  8
0
 10
336.583
 20
575.5
 11
336.424
 21
575.504
  0
LINE
  8
0
 10
336.424
 20
575.504
 11
336.265
 21
575.516
  0
LINE
  8
0
 10
336.265
 20
575.516
 11
336.106
 21
575.535
  0
LINE
  8
0
 10
336.106
 20
575.535
 11
335.949
 21
575.562
  0
LINE
  8
0
 10
335.949
 20
575.562
 11
335.794
 21
575.597
  0
LINE
  8
0
 10
335.794
 20
575.597
 11
335.64
 21
575.64
  0
LINE
  8
0
 10
335.64
 20
575.64
 11
335.488
 21
575.69
  0
LINE
  8
0
 10
335.488
 20
575.69
 11
335.34
 21
575.747
  0
LINE
  8
0
 10
335.34
 20
575.747
 11
335.194
 21
575.812
  0
LINE
  8
0
 10
335.194
 20
575.812
 11
335.051
 21
575.884
  0
LINE
  8
0
 10
335.051
 20
575.884
 11
334.912
 21
575.962
  0
LINE
  8
0
 10
334.912
 20
575.962
 11
334.778
 21
576.048
  0
LINE
  8
0
 10
334.778
 20
576.048
 11
334.647
 21
576.14
  0
LINE
  8
0
 10
334.647
 20
576.14
 11
334.522
 21
576.238
  0
LINE
  8
0
 10
334.522
 20
576.238
 11
334.401
 21
576.342
  0
LINE
  8
0
 10
334.401
 20
576.342
 11
334.285
 21
576.452
  0
LINE
  8
0
 10
334.285
 20
576.452
 11
334.175
 21
576.567
  0
LINE
  8
0
 10
334.175
 20
576.567
 11
334.071
 21
576.688
  0
LINE
  8
0
 10
334.071
 20
576.688
 11
333.973
 21
576.814
  0
LINE
  8
0
 10
333.973
 20
576.814
 11
333.881
 21
576.944
  0
LINE
  8
0
 10
333.881
 20
576.944
 11
333.796
 21
577.079
  0
LINE
  8
0
 10
333.796
 20
577.079
 11
333.717
 21
577.218
  0
LINE
  8
0
 10
333.717
 20
577.218
 11
333.645
 21
577.36
  0
LINE
  8
0
 10
333.645
 20
577.36
 11
333.581
 21
577.506
  0
LINE
  8
0
 10
333.581
 20
577.506
 11
333.523
 21
577.655
  0
LINE
  8
0
 10
333.523
 20
577.655
 11
333.473
 21
577.807
  0
LINE
  8
0
 10
333.473
 20
577.807
 11
333.431
 21
577.96
  0
LINE
  8
0
 10
333.431
 20
577.96
 11
333.396
 21
578.116
  0
LINE
  8
0
 10
333.396
 20
578.116
 11
333.368
 21
578.273
  0
LINE
  8
0
 10
333.368
 20
578.273
 11
333.349
 21
578.431
  0
LINE
  8
0
 10
333.349
 20
578.431
 11
333.337
 21
578.591
  0
LINE
  8
0
 10
333.337
 20
578.591
 11
333.333
 21
578.75
  0
LINE
  8
0
 10
333.333
 20
578.75
 11
333.333
 21
600
  0
LINE
  8
0
 10
333.333
 20
600
 11
166.667
 21
600
  0
LINE
  8
0
 10
166.667
 20
600
 11
166.667
 21
578.75
  0
LINE
  8
0
 10
166.667
 20
578.75
 11
166.663
 21
578.591
  0
LINE
  8
0
 10
166.663
 20
578.591
 11
166.651
 21
578.431
  0
LINE
  8
0
 10
166.651
 20
578.431
 11
166.631
 21
578.273
  0
LINE
  8
0
 10
166.631
 20
578.273
 11
166.604
 21
578.116
  0
LINE
  8
0
 10
166.604
 20
578.116
 11
166.569
 21
577.96
  0
LINE
  8
0
 10
166.569
 20
577.96
 11
166.527
 21
577.807
  0
LINE
  8
0
 10
166.527
 20
577.807
 11
166.477
 21
577.655
  0
LINE
  8
0
 10
166.477
 20
577.655
 11
166.419
 21
577.506
  0
LINE
  8
0
 10
166.419
 20
577.506
 11
166.355
 21
577.36
  0
LINE
  8
0
 10
166.355
 20
577.36
 11
166.283
 21
577.218
  0
LINE
  8
0
 10
166.283
 20
577.218
 11
166.204
 21
577.079
  0
LINE
  8
0
 10
166.204
 20
577.079
 11
166.119
 21
576.944
  0
LINE
  8
0
 10
166.119
 20
576.944
 11
166.027
 21
576.814
  0
LINE
  8
0
 10
166.027
 20
576.814
 11
165.929
 21
576.688
  0
LINE
  8
0
 10
165.929
 20
576.688
 11
165.825
 21
576.567
  0
LINE
  8
0
 10
165.825
 20
576.567
 11
165.715
 21
576.452
  0
LINE
  8
0
 10
165.715
 20
576.452
 11
165.599
 21
576.342
  0
LINE
  8
0
 10
165.599
 20
576.342
 11
165.478
 21
576.238
  0
LINE
  8
0
 10
165.478
 20
576.238
 11
165.353
 21
576.14
  0
LINE
  8
0
 10
165.353
 20
576.14
 11
165.222
 21
576.048
  0
LINE
  8
0
 10
165.222
 20
576.048
 11
165.087
 21
575.962
  0
LINE
  8
0
 10
165.087
 20
575.962
 11
164.949
 21
575.884
  0
LINE
  8
0
 10
164.949
 20
575.884
 11
164.806
 21
575.812
  0
LINE
  8
0
 10
164.806
 20
575.812
 11
164.66
 21
575.747
  0
LINE
  8
0
 10
164.66
 20
575.747
 11
164.512
 21
575.69
  0
LINE
  8
0
 10
164.512
 20
575.69
 11
164.36
 21
575.64
  0
LINE
  8
0
 10
164.36
 20
575.64
 11
164.206
 21
575.597
  0
LINE
  8
0
 10
164.206
 20
575.597
 11
164.051
 21
575.562
  0
LINE
  8
0
 10
164.051
 20
575.562
 11
163.894
 21
575.535
  0
LINE
  8
0
 10
163.894
 20
575.535
 11
163.735
 21
575.516
  0
LINE
  8
0
 10
163.735
 20
575.516
 11
163.576
 21
575.504
  0
LINE
  8
0
 10
163.576
 20
575.504
 11
163.417
 21
575.5
  0
LINE
  8
0
 10
163.417
 20
575.5
 11
163.257
 21
575.504
  0
LINE
  8
0
 10
163.257
 20
575.504
 11
163.098
 21
575.516
  0
LINE
  8
0
 10
163.098
 20
575.516
 11
162.94
 21
575.535
  0
LINE
  8
0
 10
162.94
 20
575.535
 11
162.783
 21
575.562
  0
LINE
  8
0
 10
162.783
 20
575.562
 11
162.627
 21
575.597
  0
LINE
  8
0
 10
162.627
 20
575.597
 11
162.473
 21
575.64
  0
LINE
  8
0
 10
162.473
 20
575.64
 11
162.322
 21
575.69
  0
LINE
  8
0
 10
162.322
 20
575.69
 11
162.173
 21
575.747
  0
LINE
  8
0
 10
162.173
 20
575.747
 11
162.027
 21
575.812
  0
LINE
  8
0
 10
162.027
 20
575.812
 11
161.885
 21
575.884
  0
LINE
  8
0
 10
161.885
 20
575.884
 11
161.746
 21
575.962
  0
LINE
  8
0
 10
161.746
 20
575.962
 11
161.611
 21
576.048
  0
LINE
  8
0
 10
161.611
 20
576.048
 11
161.481
 21
576.14
  0
LINE
  8
0
 10
161.481
 20
576.14
 11
161.355
 21
576.238
  0
LINE
  8
0
 10
161.355
 20
576.238
 11
161.234
 21
576.342
  0
LINE
  8
0
 10
161.234
 20
576.342
 11
161.119
 21
576.452
  0
LINE
  8
0
 10
161.119
 20
576.452
 11
161.009
 21
576.567
  0
LINE
  8
0
 10
161.009
 20
576.567
 11
160.904
 21
576.688
  0
LINE
  8
0
 10
160.904
 20
576.688
 11
160.806
 21
576.814
  0
LINE
  8
0
 10
160.806
 20
576.814
 11
160.714
 21
576.944
  0
LINE
  8
0
 10
160.714
 20
576.944
 11
160.629
 21
577.079
  0
LINE
  8
0
 10
160.629
 20
577.079
 11
160.55
 21
577.218
  0
LINE
  8
0
 10
160.55
 20
577.218
 11
160.479
 21
577.36
  0
LINE
  8
0
 10
160.479
 20
577.36
 11
160.414
 21
577.506
  0
LINE
  8
0
 10
160.414
 20
577.506
 11
160.357
 21
577.655
  0
LINE
  8
0
 10
160.357
 20
577.655
 11
160.307
 21
577.807
  0
LINE
  8
0
 10
160.307
 20
577.807
 11
160.264
 21
577.96
  0
LINE
  8
0
 10
160.264
 20
577.96
 11
160.229
 21
578.116
  0
LINE
  8
0
 10
160.229
 20
578.116
 11
160.202
 21
578.273
  0
LINE
  8
0
 10
160.202
 20
578.273
 11
160.182
 21
578.431
  0
LINE
  8
0
 10
160.182
 20
578.431
 11
160.171
 21
578.591
  0
LINE
  8
0
 10
160.171
 20
578.591
 11
160.163
 21
578.909
  0
LINE
  8
0
 10
160.163
 20
578.909
 11
160.151
 21
579.069
  0
LINE
  8
0
 10
160.151
 20
579.069
 11
160.131
 21
579.227
  0
LINE
  8
0
 10
160.131
 20
579.227
 11
160.104
 21
579.384
  0
LINE
  8
0
 10
160.104
 20
579.384
 11
160.069
 21
579.54
  0
LINE
  8
0
 10
160.069
 20
579.54
 11
160.027
 21
579.693
  0
LINE
  8
0
 10
160.027
 20
579.693
 11
159.977
 21
579.845
  0
LINE
  8
0
 10
159.977
 20
579.845
 11
159.919
 21
579.994
  0
LINE
  8
0
 10
159.919
 20
579.994
 11
159.855
 21
580.14
  0
LINE
  8
0
 10
159.855
 20
580.14
 11
159.783
 21
580.282
  0
LINE
  8
0
 10
159.783
 20
580.282
 11
159.704
 21
580.421
  0
LINE
  8
0
 10
159.704
 20
580.421
 11
159.619
 21
580.556
  0
LINE
  8
0
 10
159.619
 20
580.556
 11
159.527
 21
580.686
  0
LINE
  8
0
 10
159.527
 20
580.686
 11
159.429
 21
580.812
  0
LINE
  8
0
 10
159.429
 20
580.812
 11
159.325
 21
580.933
  0
LINE
  8
0
 10
159.325
 20
580.933
 11
159.215
 21
581.048
  0
LINE
  8
0
 10
159.215
 20
581.048
 11
159.099
 21
581.158
  0
LINE
  8
0
 10
159.099
 20
581.158
 11
158.978
 21
581.262
  0
LINE
  8
0
 10
158.978
 20
581.262
 11
158.853
 21
581.36
  0
LINE
  8
0
 10
158.853
 20
581.36
 11
158.722
 21
581.452
  0
LINE
  8
0
 10
158.722
 20
581.452
 11
158.587
 21
581.538
  0
LINE
  8
0
 10
158.587
 20
581.538
 11
158.449
 21
581.616
  0
LINE
  8
0
 10
158.449
 20
581.616
 11
158.306
 21
581.688
  0
LINE
  8
0
 10
158.306
 20
581.688
 11
158.16
 21
581.753
  0
LINE
  8
0
 10
158.16
 20
581.753
 11
158.012
 21
581.81
  0
LINE
  8
0
 10
158.012
 20
581.81
 11
157.86
 21
581.86
  0
LINE
  8
0
 10
157.86
 20
581.86
 11
157.706
 21
581.903
  0
LINE
  8
0
 10
157.706
 20
581.903
 11
157.551
 21
581.938
  0
LINE
  8
0
 10
157.551
 20
581.938
 11
157.394
 21
581.965
  0
LINE
  8
0
 10
157.394
 20
581.965
 11
157.235
 21
581.984
  0
LINE
  8
0
 10
157.235
 20
581.984
 11
157.076
 21
581.996
  0
LINE
  8
0
 10
157.076
 20
581.996
 11
156.917
 21
582
  0
LINE
  8
0
 10
156.917
 20
582
 11
0
 21
582
  0
LINE
  8
0
 10
0
 20
582
 11
0
 21
500.18
  0
LINE
  8
0
 10
0
 20
500.18
 11
21.43
 21
500.18
  0
LINE
  8
0
 10
21.43
 20
500.18
 11
21.5895
 21
500.176
  0
LINE
  8
0
 10
21.5895
 20
500.176
 11
21.7486
 21
500.164
  0
LINE
  8
0
 10
21.7486
 20
500.164
 11
21.9069
 21
500.145
  0
LINE
  8
0
 10
21.9069
 20
500.145
 11
22.064
 21
500.118
  0
LINE
  8
0
 10
22.064
 20
500.118
 11
22.2197
 21
500.083
  0
LINE
  8
0
 10
22.2197
 20
500.083
 11
22.3734
 21
500.04
  0
LINE
  8
0
 10
22.3734
 20
500.04
 11
22.5249
 21
499.99
  0
LINE
  8
0
 10
22.5249
 20
499.99
 11
22.6737
 21
499.933
  0
LINE
  8
0
 10
22.6737
 20
499.933
 11
22.8195
 21
499.868
  0
LINE
  8
0
 10
22.8195
 20
499.868
 11
22.962
 21
499.796
  0
LINE
  8
0
 10
22.962
 20
499.796
 11
23.1008
 21
499.718
  0
LINE
  8
0
 10
23.1008
 20
499.718
 11
23.2356
 21
499.632
  0
LINE
  8
0
 10
23.2356
 20
499.632
 11
23.366
 21
499.54
  0
LINE
  8
0
 10
23.366
 20
499.54
 11
23.4918
 21
499.442
  0
LINE
  8
0
 10
23.4918
 20
499.442
 11
23.6126
 21
499.338
  0
LINE
  8
0
 10
23.6126
 20
499.338
 11
23.7281
 21
499.228
  0
LINE
  8
0
 10
23.7281
 20
499.228
 11
23.8381
 21
499.113
  0
LINE
  8
0
 10
23.8381
 20
499.113
 11
23.9423
 21
498.992
  0
LINE
  8
0
 10
23.9423
 20
498.992
 11
24.0404
 21
498.866
  0
LINE
  8
0
 10
24.0404
 20
498.866
 11
24.1323
 21
498.736
  0
LINE
  8
0
 10
24.1323
 20
498.736
 11
24.2176
 21
498.601
  0
LINE
  8
0
 10
24.2176
 20
498.601
 11
24.2962
 21
498.462
  0
LINE
  8
0
 10
24.2962
 20
498.462
 11
24.368
 21
498.32
  0
LINE
  8
0
 10
24.368
 20
498.32
 11
24.4326
 21
498.174
  0
LINE
  8
0
 10
24.4326
 20
498.174
 11
24.49
 21
498.025
  0
LINE
  8
0
 10
24.49
 20
498.025
 11
24.5401
 21
497.873
  0
LINE
  8
0
 10
24.5401
 20
497.873
 11
24.5826
 21
497.72
  0
LINE
  8
0
 10
24.5826
 20
497.72
 11
24.6175
 21
497.564
  0
LINE
  8
0
 10
24.6175
 20
497.564
 11
24.6448
 21
497.407
  0
LINE
  8
0
 10
24.6448
 20
497.407
 11
24.6643
 21
497.249
  0
LINE
  8
0
 10
24.6643
 20
497.249
 11
24.6761
 21
497.089
  0
LINE
  8
0
 10
24.6761
 20
497.089
 11
24.68
 21
496.93
  0
LINE
  8
0
 10
24.68
 20
496.93
 11
24.6761
 21
496.771
  0
LINE
  8
0
 10
24.6761
 20
496.771
 11
24.6643
 21
496.611
  0
LINE
  8
0
 10
24.6643
 20
496.611
 11
24.6448
 21
496.453
  0
LINE
  8
0
 10
24.6448
 20
496.453
 11
24.6175
 21
496.296
  0
LINE
  8
0
 10
24.6175
 20
496.296
 11
24.5826
 21
496.14
  0
LINE
  8
0
 10
24.5826
 20
496.14
 11
24.5401
 21
495.987
  0
LINE
  8
0
 10
24.5401
 20
495.987
 11
24.49
 21
495.835
  0
LINE
  8
0
 10
24.49
 20
495.835
 11
24.4326
 21
495.686
  0
LINE
  8
0
 10
24.4326
 20
495.686
 11
24.368
 21
495.54
  0
LINE
  8
0
 10
24.368
 20
495.54
 11
24.2962
 21
495.398
  0
LINE
  8
0
 10
24.2962
 20
495.398
 11
24.2176
 21
495.259
  0
LINE
  8
0
 10
24.2176
 20
495.259
 11
24.1323
 21
495.124
  0
LINE
  8
0
 10
24.1323
 20
495.124
 11
24.0404
 21
494.994
  0
LINE
  8
0
 10
24.0404
 20
494.994
 11
23.9423
 21
494.868
  0
LINE
  8
0
 10
23.9423
 20
494.868
 11
23.8381
 21
494.747
  0
LINE
  8
0
 10
23.8381
 20
494.747
 11
23.7281
 21
494.632
  0
LINE
  8
0
 10
23.7281
 20
494.632
 11
23.6126
 21
494.522
  0
LINE
  8
0
 10
23.6126
 20
494.522
 11
23.4918
 21
494.418
  0
LINE
  8
0
 10
23.4918
 20
494.418
 11
23.366
 21
494.32
  0
LINE
  8
0
 10
23.366
 20
494.32
 11
23.2356
 21
494.228
  0
LINE
  8
0
 10
23.2356
 20
494.228
 11
23.1008
 21
494.142
  0
LINE
  8
0
 10
23.1008
 20
494.142
 11
22.962
 21
494.064
  0
LINE
  8
0
 10
22.962
 20
494.064
 11
22.8195
 21
493.992
  0
LINE
  8
0
 10
22.8195
 20
493.992
 11
22.6737
 21
493.927
  0
LINE
  8
0
 10
22.6737
 20
493.927
 11
22.5249
 21
493.87
  0
LINE
  8
0
 10
22.5249
 20
493.87
 11
22.3734
 21
493.82
  0
LINE
  8
0
 10
22.3734
 20
493.82
 11
22.2197
 21
493.777
  0
LINE
  8
0
 10
22.2197
 20
493.777
 11
22.064
 21
493.742
  0
LINE
  8
0
 10
22.064
 20
493.742
 11
21.9069
 21
493.715
  0
LINE
  8
0
 10
21.9069
 20
493.715
 11
21.7486
 21
493.696
  0
LINE
  8
0
 10
21.7486
 20
493.696
 11
21.5895
 21
493.684
  0
LINE
  8
0
 10
21.5895
 20
493.684
 11
21.2705
 21
493.676
  0
LINE
  8
0
 10
21.2705
 20
493.676
 11
21.1114
 21
493.664
  0
LINE
  8
0
 10
21.1114
 20
493.664
 11
20.9531
 21
493.645
  0
LINE
  8
0
 10
20.9531
 20
493.645
 11
20.7959
 21
493.618
  0
LINE
  8
0
 10
20.7959
 20
493.618
 11
20.6403
 21
493.583
  0
LINE
  8
0
 10
20.6403
 20
493.583
 11
20.4866
 21
493.54
  0
LINE
  8
0
 10
20.4866
 20
493.54
 11
20.3351
 21
493.49
  0
LINE
  8
0
 10
20.3351
 20
493.49
 11
20.1863
 21
493.433
  0
LINE
  8
0
 10
20.1863
 20
493.433
 11
20.0404
 21
493.368
  0
LINE
  8
0
 10
20.0404
 20
493.368
 11
19.8979
 21
493.296
  0
LINE
  8
0
 10
19.8979
 20
493.296
 11
19.7592
 21
493.218
  0
LINE
  8
0
 10
19.7592
 20
493.218
 11
19.6244
 21
493.132
  0
LINE
  8
0
 10
19.6244
 20
493.132
 11
19.494
 21
493.04
  0
LINE
  8
0
 10
19.494
 20
493.04
 11
19.3682
 21
492.942
  0
LINE
  8
0
 10
19.3682
 20
492.942
 11
19.2474
 21
492.838
  0
LINE
  8
0
 10
19.2474
 20
492.838
 11
19.1319
 21
492.728
  0
LINE
  8
0
 10
19.1319
 20
492.728
 11
19.0219
 21
492.613
  0
LINE
  8
0
 10
19.0219
 20
492.613
 11
18.9177
 21
492.492
  0
LINE
  8
0
 10
18.9177
 20
492.492
 11
18.8196
 21
492.366
  0
LINE
  8
0
 10
18.8196
 20
492.366
 11
18.7277
 21
492.236
  0
LINE
  8
0
 10
18.7277
 20
492.236
 11
18.6424
 21
492.101
  0
LINE
  8
0
 10
18.6424
 20
492.101
 11
18.5638
 21
491.962
  0
LINE
  8
0
 10
18.5638
 20
491.962
 11
18.492
 21
491.82
  0
LINE
  8
0
 10
18.492
 20
491.82
 11
18.4274
 21
491.674
  0
LINE
  8
0
 10
18.4274
 20
491.674
 11
18.37
 21
491.525
  0
LINE
  8
0
 10
18.37
 20
491.525
 11
18.3199
 21
491.373
  0
LINE
  8
0
 10
18.3199
 20
491.373
 11
18.2774
 21
491.22
  0
LINE
  8
0
 10
18.2774
 20
491.22
 11
18.2424
 21
491.064
  0
LINE
  8
0
 10
18.2424
 20
491.064
 11
18.2152
 21
490.907
  0
LINE
  8
0
 10
18.2152
 20
490.907
 11
18.1956
 21
490.749
  0
LINE
  8
0
 10
18.1956
 20
490.749
 11
18.1839
 21
490.589
  0
LINE
  8
0
 10
18.1839
 20
490.589
 11
18.18
 21
490.43
  0
LINE
  8
0
 10
18.18
 20
490.43
 11
18.18
 21
209.57
  0
LINE
  8
0
 10
18.18
 20
209.57
 11
18.1839
 21
209.411
  0
LINE
  8
0
 10
18.1839
 20
209.411
 11
18.1956
 21
209.251
  0
LINE
  8
0
 10
18.1956
 20
209.251
 11
18.2152
 21
209.093
  0
LINE
  8
0
 10
18.2152
 20
209.093
 11
18.2424
 21
208.936
  0
LINE
  8
0
 10
18.2424
 20
208.936
 11
18.2774
 21
208.78
  0
LINE
  8
0
 10
18.2774
 20
208.78
 11
18.3199
 21
208.627
  0
LINE
  8
0
 10
18.3199
 20
208.627
 11
18.37
 21
208.475
  0
LINE
  8
0
 10
18.37
 20
208.475
 11
18.4274
 21
208.326
  0
LINE
  8
0
 10
18.4274
 20
208.326
 11
18.492
 21
208.18
  0
LINE
  8
0
 10
18.492
 20
208.18
 11
18.5638
 21
208.038
  0
LINE
  8
0
 10
18.5638
 20
208.038
 11
18.6424
 21
207.899
  0
LINE
  8
0
 10
18.6424
 20
207.899
 11
18.7277
 21
207.764
  0
LINE
  8
0
 10
18.7277
 20
207.764
 11
18.8196
 21
207.634
  0
LINE
  8
0
 10
18.8196
 20
207.634
 11
18.9177
 21
207.508
  0
LINE
  8
0
 10
18.9177
 20
207.508
 11
19.0219
 21
207.387
  0
LINE
  8
0
 10
19.0219
 20
207.387
 11
19.1319
 21
207.272
  0
LINE
  8
0
 10
19.1319
 20
207.272
 11
19.2474
 21
207.162
  0
LINE
  8
0
 10
19.2474
 20
207.162
 11
19.3682
 21
207.058
  0
LINE
  8
0
 10
19.3682
 20
207.058
 11
19.494
 21
206.96
  0
LINE
  8
0
 10
19.494
 20
206.96
 11
19.6244
 21
206.868
  0
LINE
  8
0
 10
19.6244
 20
206.868
 11
19.7592
 21
206.782
  0
LINE
  8
0
 10
19.7592
 20
206.782
 11
19.8979
 21
206.704
  0
LINE
  8
0
 10
19.8979
 20
206.704
 11
20.0404
 21
206.632
  0
LINE
  8
0
 10
20.0404
 20
206.632
 11
20.1863
 21
206.567
  0
LINE
  8
0
 10
20.1863
 20
206.567
 11
20.3351
 21
206.51
  0
LINE
  8
0
 10
20.3351
 20
206.51
 11
20.4866
 21
206.46
  0
LINE
  8
0
 10
20.4866
 20
206.46
 11
20.6403
 21
206.417
  0
LINE
  8
0
 10
20.6403
 20
206.417
 11
20.7959
 21
206.382
  0
LINE
  8
0
 10
20.7959
 20
206.382
 11
20.9531
 21
206.355
  0
LINE
  8
0
 10
20.9531
 20
206.355
 11
21.1114
 21
206.336
  0
LINE
  8
0
 10
21.1114
 20
206.336
 11
21.2705
 21
206.324
  0
LINE
  8
0
 10
21.2705
 20
206.324
 11
21.5895
 21
206.316
  0
LINE
  8
0
 10
21.5895
 20
206.316
 11
21.7486
 21
206.304
  0
LINE
  8
0
 10
21.7486
 20
206.304
 11
21.9069
 21
206.285
  0
LINE
  8
0
 10
21.9069
 20
206.285
 11
22.064
 21
206.258
  0
LINE
  8
0
 10
22.064
 20
206.258
 11
22.2197
 21
206.223
  0
LINE
  8
0
 10
22.2197
 20
206.223
 11
22.3734
 21
206.18
  0
LINE
  8
0
 10
22.3734
 20
206.18
 11
22.5249
 21
206.13
  0
LINE
  8
0
 10
22.5249
 20
206.13
 11
22.6737
 21
206.073
  0
LINE
  8
0
 10
22.6737
 20
206.073
 11
22.8195
 21
206.008
  0
LINE
  8
0
 10
22.8195
 20
206.008
 11
22.962
 21
205.936
  0
LINE
  8
0
 10
22.962
 20
205.936
 11
23.1008
 21
205.858
  0
LINE
  8
0
 10
23.1008
 20
205.858
 11
23.2356
 21
205.772
  0
LINE
  8
0
 10
23.2356
 20
205.772
 11
23.366
 21
205.68
  0
LINE
  8
0
 10
23.366
 20
205.68
 11
23.4918
 21
205.582
  0
LINE
  8
0
 10
23.4918
 20
205.582
 11
23.6126
 21
205.478
  0
LINE
  8
0
 10
23.6126
 20
205.478
 11
23.7281
 21
205.368
  0
LINE
  8
0
 10
23.7281
 20
205.368
 11
23.8381
 21
205.253
  0
LINE
  8
0
 10
23.8381
 20
205.253
 11
23.9423
 21
205.132
  0
LINE
  8
0
 10
23.9423
 20
205.132
 11
24.0404
 21
205.006
  0
LINE
  8
0
 10
24.0404
 20
205.006
 11
24.1323
 21
204.876
  0
LINE
  8
0
 10
24.1323
 20
204.876
 11
24.2176
 21
204.741
  0
LINE
  8
0
 10
24.2176
 20
204.741
 11
24.2962
 21
204.602
  0
LINE
  8
0
 10
24.2962
 20
204.602
 11
24.368
 21
204.46
  0
LINE
  8
0
 10
24.368
 20
204.46
 11
24.4326
 21
204.314
  0
LINE
  8
0
 10
24.4326
 20
204.314
 11
24.49
 21
204.165
  0
LINE
  8
0
 10
24.49
 20
204.165
 11
24.5401
 21
204.013
  0
LINE
  8
0
 10
24.5401
 20
204.013
 11
24.5826
 21
203.86
  0
LINE
  8
0
 10
24.5826
 20
203.86
 11
24.6175
 21
203.704
  0
LINE
  8
0
 10
24.6175
 20
203.704
 11
24.6448
 21
203.547
  0
LINE
  8
0
 10
24.6448
 20
203.547
 11
24.6643
 21
203.389
  0
LINE
  8
0
 10
24.6643
 20
203.389
 11
24.6761
 21
203.229
  0
LINE
  8
0
 10
24.6761
 20
203.229
 11
24.68
 21
203.07
  0
LINE
  8
0
 10
24.68
 20
203.07
 11
24.6761
 21
202.911
  0
LINE
  8
0
 10
24.6761
 20
202.911
 11
24.6643
 21
202.751
  0
LINE
  8
0
 10
24.6643
 20
202.751
 11
24.6448
 21
202.593
  0
LINE
  8
0
 10
24.6448
 20
202.593
 11
24.6175
 21
202.436
  0
LINE
  8
0
 10
24.6175
 20
202.436
 11
24.5826
 21
202.28
  0
LINE
  8
0
 10
24.5826
 20
202.28
 11
24.5401
 21
202.127
  0
LINE
  8
0
 10
24.5401
 20
202.127
 11
24.49
 21
201.975
  0
LINE
  8
0
 10
24.49
 20
201.975
 11
24.4326
 21
201.826
  0
LINE
  8
0
 10
24.4326
 20
201.826
 11
24.368
 21
201.68
  0
LINE
  8
0
 10
24.368
 20
201.68
 11
24.2962
 21
201.538
  0
LINE
  8
0
 10
24.2962
 20
201.538
 11
24.2176
 21
201.399
  0
LINE
  8
0
 10
24.2176
 20
201.399
 11
24.1323
 21
201.264
  0
LINE
  8
0
 10
24.1323
 20
201.264
 11
24.0404
 21
201.134
  0
LINE
  8
0
 10
24.0404
 20
201.134
 11
23.9423
 21
201.008
  0
LINE
  8
0
 10
23.9423
 20
201.008
 11
23.8381
 21
200.887
  0
LINE
  8
0
 10
23.8381
 20
200.887
 11
23.7281
 21
200.772
  0
LINE
  8
0
 10
23.7281
 20
200.772
 11
23.6126
 21
200.662
  0
LINE
  8
0
 10
23.6126
 20
200.662
 11
23.4918
 21
200.558
  0
LINE
  8
0
 10
23.4918
 20
200.558
 11
23.366
 21
200.46
  0
LINE
  8
0
 10
23.366
 20
200.46
 11
23.2356
 21
200.368
  0
LINE
  8
0
 10
23.2356
 20
200.368
 11
23.1008
 21
200.282
  0
LINE
  8
0
 10
23.1008
 20
200.282
 11
22.962
 21
200.204
  0
LINE
  8
0
 10
22.962
 20
200.204
 11
22.8195
 21
200.132
  0
LINE
  8
0
 10
22.8195
 20
200.132
 11
22.6737
 21
200.067
  0
LINE
  8
0
 10
22.6737
 20
200.067
 11
22.5249
 21
200.01
  0
LINE
  8
0
 10
22.5249
 20
200.01
 11
22.3734
 21
199.96
  0
LINE
  8
0
 10
22.3734
 20
199.96
 11
22.2197
 21
199.917
  0
LINE
  8
0
 10
22.2197
 20
199.917
 11
22.064
 21
199.882
  0
LINE
  8
0
 10
22.064
 20
199.882
 11
21.9069
 21
199.855
  0
LINE
  8
0
 10
21.9069
 20
199.855
 11
21.7486
 21
199.836
  0
LINE
  8
0
 10
21.7486
 20
199.836
 11
21.5895
 21
199.824
  0
LINE
  8
0
 10
21.5895
 20
199.824
 11
21.43
 21
199.82
  0
LINE
  8
0
 10
21.43
 20
199.82
 11
0
 21
199.82
  0
LINE
  8
0
 10
0
 20
199.82
 11
0
 21
0
  0
LINE
  8
0
 10
0
 20
0
 11
35.82
 21
0
  0
LINE
  8
0
 10
35.82
 20
0
 11
35.82
 21
21.25
  0
LINE
  8
0
 10
249.914
 20
589.252
 11
249.828
 21
589.258
  0
LINE
  8
0
 10
249.828
 20
589.258
 11
249.743
 21
589.269
  0
LINE
  8
0
 10
249.743
 20
589.269
 11
249.659
 21
589.284
  0
LINE
  8
0
 10
249.659
 20
589.284
 11
249.575
 21
589.302
  0
LINE
  8
0
 10
249.575
 20
589.302
 11
249.492
 21
589.325
  0
LINE
  8
0
 10
249.492
 20
589.325
 11
249.41
 21
589.352
  0
LINE
  8
0
 10
249.41
 20
589.352
 11
249.33
 21
589.383
  0
LINE
  8
0
 10
249.33
 20
589.383
 11
249.252
 21
589.418
  0
LINE
  8
0
 10
249.252
 20
589.418
 11
249.175
 21
589.457
  0
LINE
  8
0
 10
249.175
 20
589.457
 11
249.1
 21
589.499
  0
LINE
  8
0
 10
249.1
 20
589.499
 11
249.028
 21
589.545
  0
LINE
  8
0
 10
249.028
 20
589.545
 11
248.958
 21
589.594
  0
LINE
  8
0
 10
248.958
 20
589.594
 11
248.89
 21
589.647
  0
LINE
  8
0
 10
248.89
 20
589.647
 11
248.825
 21
589.703
  0
LINE
  8
0
 10
248.825
 20
589.703
 11
248.763
 21
589.763
  0
LINE
  8
0
 10
248.763
 20
589.763
 11
248.703
 21
589.825
  0
LINE
  8
0
 10
248.703
 20
589.825
 11
248.647
 21
589.89
  0
LINE
  8
0
 10
248.647
 20
589.89
 11
248.594
 21
589.958
  0
LINE
  8
0
 10
248.594
 20
589.958
 11
248.545
 21
590.028
  0
LINE
  8
0
 10
248.545
 20
590.028
 11
248.499
 21
590.1
  0
LINE
  8
0
 10
248.499
 20
590.1
 11
248.457
 21
590.175
  0
LINE
  8
0
 10
248.457
 20
590.175
 11
248.418
 21
590.252
  0
LINE
  8
0
 10
248.418
 20
590.252
 11
248.383
 21
590.33
  0
LINE
  8
0
 10
248.383
 20
590.33
 11
248.352
 21
590.41
  0
LINE
  8
0
 10
248.352
 20
590.41
 11
248.325
 21
590.492
  0
LINE
  8
0
 10
248.325
 20
590.492
 11
248.302
 21
590.575
  0
LINE
  8
0
 10
248.302
 20
590.575
 11
248.284
 21
590.659
  0
LINE
  8
0
 10
248.284
 20
590.659
 11
248.269
 21
590.743
  0
LINE
  8
0
 10
248.269
 20
590.743
 11
248.258
 21
590.828
  0
LINE
  8
0
 10
248.258
 20
590.828
 11
248.252
 21
590.914
  0
LINE
  8
0
 10
248.252
 20
590.914
 11
248.25
 21
591
  0
LINE
  8
0
 10
248.25
 20
591
 11
248.252
 21
591.086
  0
LINE
  8
0
 10
248.252
 20
591.086
 11
248.258
 21
591.172
  0
LINE
  8
0
 10
248.258
 20
591.172
 11
248.269
 21
591.257
  0
LINE
  8
0
 10
248.269
 20
591.257
 11
248.284
 21
591.341
  0
LINE
  8
0
 10
248.284
 20
591.341
 11
248.302
 21
591.425
  0
LINE
  8
0
 10
248.302
 20
591.425
 11
248.325
 21
591.508
  0
LINE
  8
0
 10
248.325
 20
591.508
 11
248.352
 21
591.59
  0
LINE
  8
0
 10
248.352
 20
591.59
 11
248.383
 21
591.67
  0
LINE
  8
0
 10
248.383
 20
591.67
 11
248.418
 21
591.748
  0
LINE
  8
0
 10
248.418
 20
591.748
 11
248.457
 21
591.825
  0
LINE
  8
0
 10
248.457
 20
591.825
 11
248.499
 21
591.9
  0
LINE
  8
0
 10
248.499
 20
591.9
 11
248.545
 21
591.972
  0
LINE
  8
0
 10
248.545
 20
591.972
 11
248.594
 21
592.042
  0
LINE
  8
0
 10
248.594
 20
592.042
 11
248.647
 21
592.11
  0
LINE
  8
0
 10
248.647
 20
592.11
 11
248.703
 21
592.175
  0
LINE
  8
0
 10
248.703
 20
592.175
 11
248.763
 21
592.237
  0
LINE
  8
0
 10
248.763
 20
592.237
 11
248.825
 21
592.297
  0
LINE
  8
0
 10
248.825
 20
592.297
 11
248.89
 21
592.353
  0
LINE
  8
0
 10
248.89
 20
592.353
 11
248.958
 21
592.406
  0
LINE
  8
0
 10
248.958
 20
592.406
 11
249.028
 21
592.455
  0
LINE
  8
0
 10
249.028
 20
592.455
 11
249.1
 21
592.501
  0
LINE
  8
0
 10
249.1
 20
592.501
 11
249.175
 21
592.543
  0
LINE
  8
0
 10
249.175
 20
592.543
 11
249.252
 21
592.582
  0
LINE
  8
0
 10
249.252
 20
592.582
 11
249.33
 21
592.617
  0
LINE
  8
0
 10
249.33
 20
592.617
 11
249.41
 21
592.648
  0
LINE
  8
0
 10
249.41
 20
592.648
 11
249.492
 21
592.675
  0
LINE
  8
0
 10
249.492
 20
592.675
 11
249.575
 21
592.698
  0
LINE
  8
0
 10
249.575
 20
592.698
 11
249.659
 21
592.716
  0
LINE
  8
0
 10
249.659
 20
592.716
 11
249.743
 21
592.731
  0
LINE
  8
0
 10
249.743
 20
592.731
 11
249.828
 21
592.742
  0
LINE
  8
0
 10
249.828
 20
592.742
 11
249.914
 21
592.748
  0
LINE
  8
0
 10
249.914
 20
592.748
 11
250
 21
592.75
  0
LINE
  8
0
 10
250
 20
592.75
 11
250.086
 21
592.748
  0
LINE
  8
0
 10
250.086
 20
592.748
 11
250.172
 21
592.742
  0
LINE
  8
0
 10
250.172
 20
592.742
 11
250.257
 21
592.731
  0
LINE
  8
0
 10
250.257
 20
592.731
 11
250.341
 21
592.716
  0
LINE
  8
0
 10
250.341
 20
592.716
 11
250.425
 21
592.698
  0
LINE
  8
0
 10
250.425
 20
592.698
 11
250.508
 21
592.675
  0
LINE
  8
0
 10
250.508
 20
592.675
 11
250.59
 21
592.648
  0
LINE
  8
0
 10
250.59
 20
592.648
 11
250.67
 21
592.617
  0
LINE
  8
0
 10
250.67
 20
592.617
 11
250.748
 21
592.582
  0
LINE
  8
0
 10
250.748
 20
592.582
 11
250.825
 21
592.543
  0
LINE
  8
0
 10
250.825
 20
592.543
 11
250.9
 21
592.501
  0
LINE
  8
0
 10
250.9
 20
592.501
 11
250.972
 21
592.455
  0
LINE
  8
0
 10
250.972
 20
592.455
 11
251.042
 21
592.406
  0
LINE
  8
0
 10
251.042
 20
592.406
 11
251.11
 21
592.353
  0
LINE
  8
0
 10
251.11
 20
592.353
 11
251.175
 21
592.297
  0
LINE
  8
0
 10
251.175
 20
592.297
 11
251.237
 21
592.237
  0
LINE
  8
0
 10
251.237
 20
592.237
 11
251.297
 21
592.175
  0
LINE
  8
0
 10
251.297
 20
592.175
 11
251.353
 21
592.11
  0
LINE
  8
0
 10
251.353
 20
592.11
 11
251.406
 21
592.042
  0
LINE
  8
0
 10
251.406
 20
592.042
 11
251.455
 21
591.972
  0
LINE
  8
0
 10
251.455
 20
591.972
 11
251.501
 21
591.9
  0
LINE
  8
0
 10
251.501
 20
591.9
 11
251.543
 21
591.825
  0
LINE
  8
0
 10
251.543
 20
591.825
 11
251.582
 21
591.748
  0
LINE
  8
0
 10
251.582
 20
591.748
 11
251.617
 21
591.67
  0
LINE
  8
0
 10
251.617
 20
591.67
 11
251.648
 21
591.59
  0
LINE
  8
0
 10
251.648
 20
591.59
 11
251.675
 21
591.508
  0
LINE
  8
0
 10
251.675
 20
591.508
 11
251.698
 21
591.425
  0
LINE
  8
0
 10
251.698
 20
591.425
 11
251.716
 21
591.341
  0
LINE
  8
0
 10
251.716
 20
591.341
 11
251.731
 21
591.257
  0
LINE
  8
0
 10
251.731
 20
591.257
 11
251.742
 21
591.172
  0
LINE
  8
0
 10
251.742
 20
591.172
 11
251.748
 21
591.086
  0
LINE
  8
0
 10
251.748
 20
591.086
 11
251.75
 21
591
  0
LINE
  8
0
 10
251.75
 20
591
 11
251.748
 21
590.914
  0
LINE
  8
0
 10
251.748
 20
590.914
 11
251.742
 21
590.828
  0
LINE
  8
0
 10
251.742
 20
590.828
 11
251.731
 21
590.743
  0
LINE
  8
0
 10
251.731
 20
590.743
 11
251.716
 21
590.659
  0
LINE
  8
0
 10
251.716
 20
590.659
 11
251.698
 21
590.575
  0
LINE
  8
0
 10
251.698
 20
590.575
 11
251.675
 21
590.492
  0
LINE
  8
0
 10
251.675
 20
590.492
 11
251.648
 21
590.41
  0
LINE
  8
0
 10
251.648
 20
590.41
 11
251.617
 21
590.33
  0
LINE
  8
0
 10
251.617
 20
590.33
 11
251.582
 21
590.252
  0
LINE
  8
0
 10
251.582
 20
590.252
 11
251.543
 21
590.175
  0
LINE
  8
0
 10
251.543
 20
590.175
 11
251.501
 21
590.1
  0
LINE
  8
0
 10
251.501
 20
590.1
 11
251.455
 21
590.028
  0
LINE
  8
0
 10
251.455
 20
590.028
 11
251.406
 21
589.958
  0
LINE
  8
0
 10
251.406
 20
589.958
 11
251.353
 21
589.89
  0
LINE
  8
0
 10
251.353
 20
589.89
 11
251.297
 21
589.825
  0
LINE
  8
0
 10
251.297
 20
589.825
 11
251.237
 21
589.763
  0
LINE
  8
0
 10
251.237
 20
589.763
 11
251.175
 21
589.703
  0
LINE
  8
0
 10
251.175
 20
589.703
 11
251.11
 21
589.647
  0
LINE
  8
0
 10
251.11
 20
589.647
 11
251.042
 21
589.594
  0
LINE
  8
0
 10
251.042
 20
589.594
 11
250.972
 21
589.545
  0
LINE
  8
0
 10
250.972
 20
589.545
 11
250.9
 21
589.499
  0
LINE
  8
0
 10
250.9
 20
589.499
 11
250.825
 21
589.457
  0
LINE
  8
0
 10
250.825
 20
589.457
 11
250.748
 21
589.418
  0
LINE
  8
0
 10
250.748
 20
589.418
 11
250.67
 21
589.383
  0
LINE
  8
0
 10
250.67
 20
589.383
 11
250.59
 21
589.352
  0
LINE
  8
0
 10
250.59
 20
589.352
 11
250.508
 21
589.325
  0
LINE
  8
0
 10
250.508
 20
589.325
 11
250.425
 21
589.302
  0
LINE
  8
0
 10
250.425
 20
589.302
 11
250.341
 21
589.284
  0
LINE
  8
0
 10
250.341
 20
589.284
 11
250.257
 21
589.269
  0
LINE
  8
0
 10
250.257
 20
589.269
 11
250.172
 21
589.258
  0
LINE
  8
0
 10
250.172
 20
589.258
 11
250.086
 21
589.252
  0
LINE
  8
0
 10
250.086
 20
589.252
 11
250
 21
589.25
  0
LINE
  8
0
 10
250
 20
589.25
 11
249.914
 21
589.252
  0
LINE
  8
0
 10
8.91412
 20
548.252
 11
8.82846
 21
548.258
  0
LINE
  8
0
 10
8.82846
 20
548.258
 11
8.74321
 21
548.269
  0
LINE
  8
0
 10
8.74321
 20
548.269
 11
8.65858
 21
548.284
  0
LINE
  8
0
 10
8.65858
 20
548.284
 11
8.57478
 21
548.302
  0
LINE
  8
0
 10
8.57478
 20
548.302
 11
8.49199
 21
548.325
  0
LINE
  8
0
 10
8.49199
 20
548.325
 11
8.41043
 21
548.352
  0
LINE
  8
0
 10
8.41043
 20
548.352
 11
8.33029
 21
548.383
  0
LINE
  8
0
 10
8.33029
 20
548.383
 11
8.25177
 21
548.418
  0
LINE
  8
0
 10
8.25177
 20
548.418
 11
8.17505
 21
548.457
  0
LINE
  8
0
 10
8.17505
 20
548.457
 11
8.10031
 21
548.499
  0
LINE
  8
0
 10
8.10031
 20
548.499
 11
8.02774
 21
548.545
  0
LINE
  8
0
 10
8.02774
 20
548.545
 11
7.95752
 21
548.594
  0
LINE
  8
0
 10
7.95752
 20
548.594
 11
7.8898
 21
548.647
  0
LINE
  8
0
 10
7.8898
 20
548.647
 11
7.82477
 21
548.703
  0
LINE
  8
0
 10
7.82477
 20
548.703
 11
7.76256
 21
548.763
  0
LINE
  8
0
 10
7.76256
 20
548.763
 11
7.70332
 21
548.825
  0
LINE
  8
0
 10
7.70332
 20
548.825
 11
7.64722
 21
548.89
  0
LINE
  8
0
 10
7.64722
 20
548.89
 11
7.59438
 21
548.958
  0
LINE
  8
0
 10
7.59438
 20
548.958
 11
7.54492
 21
549.028
  0
LINE
  8
0
 10
7.54492
 20
549.028
 11
7.49896
 21
549.1
  0
LINE
  8
0
 10
7.49896
 20
549.1
 11
7.45663
 21
549.175
  0
LINE
  8
0
 10
7.45663
 20
549.175
 11
7.41801
 21
549.252
  0
LINE
  8
0
 10
7.41801
 20
549.252
 11
7.38321
 21
549.33
  0
LINE
  8
0
 10
7.38321
 20
549.33
 11
7.35229
 21
549.41
  0
LINE
  8
0
 10
7.35229
 20
549.41
 11
7.32535
 21
549.492
  0
LINE
  8
0
 10
7.32535
 20
549.492
 11
7.30244
 21
549.575
  0
LINE
  8
0
 10
7.30244
 20
549.575
 11
7.28362
 21
549.659
  0
LINE
  8
0
 10
7.28362
 20
549.659
 11
7.26894
 21
549.743
  0
LINE
  8
0
 10
7.26894
 20
549.743
 11
7.25842
 21
549.828
  0
LINE
  8
0
 10
7.25842
 20
549.828
 11
7.25211
 21
549.914
  0
LINE
  8
0
 10
7.25211
 20
549.914
 11
7.25
 21
550
  0
LINE
  8
0
 10
7.25
 20
550
 11
7.25211
 21
550.086
  0
LINE
  8
0
 10
7.25211
 20
550.086
 11
7.25842
 21
550.172
  0
LINE
  8
0
 10
7.25842
 20
550.172
 11
7.26894
 21
550.257
  0
LINE
  8
0
 10
7.26894
 20
550.257
 11
7.28362
 21
550.341
  0
LINE
  8
0
 10
7.28362
 20
550.341
 11
7.30244
 21
550.425
  0
LINE
  8
0
 10
7.30244
 20
550.425
 11
7.32535
 21
550.508
  0
LINE
  8
0
 10
7.32535
 20
550.508
 11
7.35229
 21
550.59
  0
LINE
  8
0
 10
7.35229
 20
550.59
 11
7.38321
 21
550.67
  0
LINE
  8
0
 10
7.38321
 20
550.67
 11
7.41801
 21
550.748
  0
LINE
  8
0
 10
7.41801
 20
550.748
 11
7.45663
 21
550.825
  0
LINE
  8
0
 10
7.45663
 20
550.825
 11
7.49896
 21
550.9
  0
LINE
  8
0
 10
7.49896
 20
550.9
 11
7.54492
 21
550.972
  0
LINE
  8
0
 10
7.54492
 20
550.972
 11
7.59438
 21
551.042
  0
LINE
  8
0
 10
7.59438
 20
551.042
 11
7.64722
 21
551.11
  0
LINE
  8
0
 10
7.64722
 20
551.11
 11
7.70332
 21
551.175
  0
LINE
  8
0
 10
7.70332
 20
551.175
 11
7.76256
 21
551.237
  0
LINE
  8
0
 10
7.76256
 20
551.237
 11
7.82477
 21
551.297
  0
LINE
  8
0
 10
7.82477
 20
551.297
 11
7.8898
 21
551.353
  0
LINE
  8
0
 10
7.8898
 20
551.353
 11
7.95752
 21
551.406
  0
LINE
  8
0
 10
7.95752
 20
551.406
 11
8.02774
 21
551.455
  0
LINE
  8
0
 10
8.02774
 20
551.455
 11
8.10031
 21
551.501
  0
LINE
  8
0
 10
8.10031
 20
551.501
 11
8.17505
 21
551.543
  0
LINE
  8
0
 10
8.17505
 20
551.543
 11
8.25177
 21
551.582
  0
LINE
  8
0
 10
8.25177
 20
551.582
 11
8.33029
 21
551.617
  0
LINE
  8
0
 10
8.33029
 20
551.617
 11
8.41043
 21
551.648
  0
LINE
  8
0
 10
8.41043
 20
551.648
 11
8.49199
 21
551.675
  0
LINE
  8
0
 10
8.49199
 20
551.675
 11
8.57478
 21
551.698
  0
LINE
  8
0
 10
8.57478
 20
551.698
 11
8.65858
 21
551.716
  0
LINE
  8
0
 10
8.65858
 20
551.716
 11
8.74321
 21
551.731
  0
LINE
  8
0
 10
8.74321
 20
551.731
 11
8.82846
 21
551.742
  0
LINE
  8
0
 10
8.82846
 20
551.742
 11
8.91412
 21
551.748
  0
LINE
  8
0
 10
8.91412
 20
551.748
 11
9
 21
551.75
  0
LINE
  8
0
 10
9
 20
551.75
 11
9.08586
 21
551.748
  0
LINE
  8
0
 10
9.08586
 20
551.748
 11
9.17152
 21
551.742
  0
LINE
  8
0
 10
9.17152
 20
551.742
 11
9.25677
 21
551.731
  0
LINE
  8
0
 10
9.25677
 20
551.731
 11
9.3414
 21
551.716
  0
LINE
  8
0
 10
9.3414
 20
551.716
 11
9.4252
 21
551.698
  0
LINE
  8
0
 10
9.4252
 20
551.698
 11
9.508
 21
551.675
  0
LINE
  8
0
 10
9.508
 20
551.675
 11
9.58955
 21
551.648
  0
LINE
  8
0
 10
9.58955
 20
551.648
 11
9.66969
 21
551.617
  0
LINE
  8
0
 10
9.66969
 20
551.617
 11
9.74821
 21
551.582
  0
LINE
  8
0
 10
9.74821
 20
551.582
 11
9.82494
 21
551.543
  0
LINE
  8
0
 10
9.82494
 20
551.543
 11
9.89967
 21
551.501
  0
LINE
  8
0
 10
9.89967
 20
551.501
 11
9.97224
 21
551.455
  0
LINE
  8
0
 10
9.97224
 20
551.455
 11
10.0425
 21
551.406
  0
LINE
  8
0
 10
10.0425
 20
551.406
 11
10.1102
 21
551.353
  0
LINE
  8
0
 10
10.1102
 20
551.353
 11
10.1752
 21
551.297
  0
LINE
  8
0
 10
10.1752
 20
551.297
 11
10.2374
 21
551.237
  0
LINE
  8
0
 10
10.2374
 20
551.237
 11
10.2967
 21
551.175
  0
LINE
  8
0
 10
10.2967
 20
551.175
 11
10.3528
 21
551.11
  0
LINE
  8
0
 10
10.3528
 20
551.11
 11
10.4056
 21
551.042
  0
LINE
  8
0
 10
10.4056
 20
551.042
 11
10.4551
 21
550.972
  0
LINE
  8
0
 10
10.4551
 20
550.972
 11
10.501
 21
550.9
  0
LINE
  8
0
 10
10.501
 20
550.9
 11
10.5434
 21
550.825
  0
LINE
  8
0
 10
10.5434
 20
550.825
 11
10.582
 21
550.748
  0
LINE
  8
0
 10
10.582
 20
550.748
 11
10.6168
 21
550.67
  0
LINE
  8
0
 10
10.6168
 20
550.67
 11
10.6477
 21
550.59
  0
LINE
  8
0
 10
10.6477
 20
550.59
 11
10.6746
 21
550.508
  0
LINE
  8
0
 10
10.6746
 20
550.508
 11
10.6975
 21
550.425
  0
LINE
  8
0
 10
10.6975
 20
550.425
 11
10.7164
 21
550.341
  0
LINE
  8
0
 10
10.7164
 20
550.341
 11
10.731
 21
550.257
  0
LINE
  8
0
 10
10.731
 20
550.257
 11
10.7416
 21
550.172
  0
LINE
  8
0
 10
10.7416
 20
550.172
 11
10.7479
 21
550.086
  0
LINE
  8
0
 10
10.7479
 20
550.086
 11
10.75
 21
550
  0
LINE
  8
0
 10
10.75
 20
550
 11
10.7479
 21
549.914
  0
LINE
  8
0
 10
10.7479
 20
549.914
 11
10.7416
 21
549.828
  0
LINE
  8
0
 10
10.7416
 20
549.828
 11
10.731
 21
549.743
  0
LINE
  8
0
 10
10.731
 20
549.743
 11
10.7164
 21
549.659
  0
LINE
  8
0
 10
10.7164
 20
549.659
 11
10.6975
 21
549.575
  0
LINE
  8
0
 10
10.6975
 20
549.575
 11
10.6746
 21
549.492
  0
LINE
  8
0
 10
10.6746
 20
549.492
 11
10.6477
 21
549.41
  0
LINE
  8
0
 10
10.6477
 20
549.41
 11
10.6168
 21
549.33
  0
LINE
  8
0
 10
10.6168
 20
549.33
 11
10.582
 21
549.252
  0
LINE
  8
0
 10
10.582
 20
549.252
 11
10.5434
 21
549.175
  0
LINE
  8
0
 10
10.5434
 20
549.175
 11
10.501
 21
549.1
  0
LINE
  8
0
 10
10.501
 20
549.1
 11
10.4551
 21
549.028
  0
LINE
  8
0
 10
10.4551
 20
549.028
 11
10.4056
 21
548.958
  0
LINE
  8
0
 10
10.4056
 20
548.958
 11
10.3528
 21
548.89
  0
LINE
  8
0
 10
10.3528
 20
548.89
 11
10.2967
 21
548.825
  0
LINE
  8
0
 10
10.2967
 20
548.825
 11
10.2374
 21
548.763
  0
LINE
  8
0
 10
10.2374
 20
548.763
 11
10.1752
 21
548.703
  0
LINE
  8
0
 10
10.1752
 20
548.703
 11
10.1102
 21
548.647
  0
LINE
  8
0
 10
10.1102
 20
548.647
 11
10.0425
 21
548.594
  0
LINE
  8
0
 10
10.0425
 20
548.594
 11
9.97224
 21
548.545
  0
LINE
  8
0
 10
9.97224
 20
548.545
 11
9.89967
 21
548.499
  0
LINE
  8
0
 10
9.89967
 20
548.499
 11
9.82494
 21
548.457
  0
LINE
  8
0
 10
9.82494
 20
548.457
 11
9.74821
 21
548.418
  0
LINE
  8
0
 10
9.74821
 20
548.418
 11
9.66969
 21
548.383
  0
LINE
  8
0
 10
9.66969
 20
548.383
 11
9.58955
 21
548.352
  0
LINE
  8
0
 10
9.58955
 20
548.352
 11
9.508
 21
548.325
  0
LINE
  8
0
 10
9.508
 20
548.325
 11
9.4252
 21
548.302
  0
LINE
  8
0
 10
9.4252
 20
548.302
 11
9.3414
 21
548.284
  0
LINE
  8
0
 10
9.3414
 20
548.284
 11
9.25677
 21
548.269
  0
LINE
  8
0
 10
9.25677
 20
548.269
 11
9.17152
 21
548.258
  0
LINE
  8
0
 10
9.17152
 20
548.258
 11
9.08586
 21
548.252
  0
LINE
  8
0
 10
9.08586
 20
548.252
 11
9
 21
548.25
  0
LINE
  8
0
 10
9
 20
548.25
 11
8.91412
 21
548.252
  0
LINE
  8
0
 10
41.5808
 20
389.252
 11
41.4951
 21
389.258
  0
LINE
  8
0
 10
41.4951
 20
389.258
 11
41.4099
 21
389.269
  0
LINE
  8
0
 10
41.4099
 20
389.269
 11
41.3253
 21
389.284
  0
LINE
  8
0
 10
41.3253
 20
389.284
 11
41.2414
 21
389.302
  0
LINE
  8
0
 10
41.2414
 20
389.302
 11
41.1587
 21
389.325
  0
LINE
  8
0
 10
41.1587
 20
389.325
 11
41.0771
 21
389.352
  0
LINE
  8
0
 10
41.0771
 20
389.352
 11
40.997
 21
389.383
  0
LINE
  8
0
 10
40.997
 20
389.383
 11
40.9184
 21
389.418
  0
LINE
  8
0
 10
40.9184
 20
389.418
 11
40.8417
 21
389.457
  0
LINE
  8
0
 10
40.8417
 20
389.457
 11
40.767
 21
389.499
  0
LINE
  8
0
 10
40.767
 20
389.499
 11
40.6944
 21
389.545
  0
LINE
  8
0
 10
40.6944
 20
389.545
 11
40.6242
 21
389.594
  0
LINE
  8
0
 10
40.6242
 20
389.594
 11
40.5565
 21
389.647
  0
LINE
  8
0
 10
40.5565
 20
389.647
 11
40.4914
 21
389.703
  0
LINE
  8
0
 10
40.4914
 20
389.703
 11
40.4292
 21
389.763
  0
LINE
  8
0
 10
40.4292
 20
389.763
 11
40.37
 21
389.825
  0
LINE
  8
0
 10
40.37
 20
389.825
 11
40.3139
 21
389.89
  0
LINE
  8
0
 10
40.3139
 20
389.89
 11
40.261
 21
389.958
  0
LINE
  8
0
 10
40.261
 20
389.958
 11
40.2116
 21
390.028
  0
LINE
  8
0
 10
40.2116
 20
390.028
 11
40.1656
 21
390.1
  0
LINE
  8
0
 10
40.1656
 20
390.1
 11
40.1233
 21
390.175
  0
LINE
  8
0
 10
40.1233
 20
390.175
 11
40.0847
 21
390.252
  0
LINE
  8
0
 10
40.0847
 20
390.252
 11
40.0499
 21
390.33
  0
LINE
  8
0
 10
40.0499
 20
390.33
 11
40.019
 21
390.41
  0
LINE
  8
0
 10
40.019
 20
390.41
 11
39.992
 21
390.492
  0
LINE
  8
0
 10
39.992
 20
390.492
 11
39.9691
 21
390.575
  0
LINE
  8
0
 10
39.9691
 20
390.575
 11
39.9503
 21
390.659
  0
LINE
  8
0
 10
39.9503
 20
390.659
 11
39.9356
 21
390.743
  0
LINE
  8
0
 10
39.9356
 20
390.743
 11
39.9251
 21
390.828
  0
LINE
  8
0
 10
39.9251
 20
390.828
 11
39.9188
 21
390.914
  0
LINE
  8
0
 10
39.9188
 20
390.914
 11
39.9167
 21
391
  0
LINE
  8
0
 10
39.9167
 20
391
 11
39.9188
 21
391.086
  0
LINE
  8
0
 10
39.9188
 20
391.086
 11
39.9251
 21
391.172
  0
LINE
  8
0
 10
39.9251
 20
391.172
 11
39.9356
 21
391.257
  0
LINE
  8
0
 10
39.9356
 20
391.257
 11
39.9503
 21
391.341
  0
LINE
  8
0
 10
39.9503
 20
391.341
 11
39.9691
 21
391.425
  0
LINE
  8
0
 10
39.9691
 20
391.425
 11
39.992
 21
391.508
  0
LINE
  8
0
 10
39.992
 20
391.508
 11
40.019
 21
391.59
  0
LINE
  8
0
 10
40.019
 20
391.59
 11
40.0499
 21
391.67
  0
LINE
  8
0
 10
40.0499
 20
391.67
 11
40.0847
 21
391.748
  0
LINE
  8
0
 10
40.0847
 20
391.748
 11
40.1233
 21
391.825
  0
LINE
  8
0
 10
40.1233
 20
391.825
 11
40.1656
 21
391.9
  0
LINE
  8
0
 10
40.1656
 20
391.9
 11
40.2116
 21
391.972
  0
LINE
  8
0
 10
40.2116
 20
391.972
 11
40.261
 21
392.042
  0
LINE
  8
0
 10
40.261
 20
392.042
 11
40.3139
 21
392.11
  0
LINE
  8
0
 10
40.3139
 20
392.11
 11
40.37
 21
392.175
  0
LINE
  8
0
 10
40.37
 20
392.175
 11
40.4292
 21
392.237
  0
LINE
  8
0
 10
40.4292
 20
392.237
 11
40.4914
 21
392.297
  0
LINE
  8
0
 10
40.4914
 20
392.297
 11
40.5565
 21
392.353
  0
LINE
  8
0
 10
40.5565
 20
392.353
 11
40.6242
 21
392.406
  0
LINE
  8
0
 10
40.6242
 20
392.406
 11
40.6944
 21
392.455
  0
LINE
  8
0
 10
40.6944
 20
392.455
 11
40.767
 21
392.501
  0
LINE
  8
0
 10
40.767
 20
392.501
 11
40.8417
 21
392.543
  0
LINE
  8
0
 10
40.8417
 20
392.543
 11
40.9184
 21
392.582
  0
LINE
  8
0
 10
40.9184
 20
392.582
 11
40.997
 21
392.617
  0
LINE
  8
0
 10
40.997
 20
392.617
 11
41.0771
 21
392.648
  0
LINE
  8
0
 10
41.0771
 20
392.648
 11
41.1587
 21
392.675
  0
LINE
  8
0
 10
41.1587
 20
392.675
 11
41.2414
 21
392.698
  0
LINE
  8
0
 10
41.2414
 20
392.698
 11
41.3253
 21
392.716
  0
LINE
  8
0
 10
41.3253
 20
392.716
 11
41.4099
 21
392.731
  0
LINE
  8
0
 10
41.4099
 20
392.731
 11
41.4951
 21
392.742
  0
LINE
  8
0
 10
41.4951
 20
392.742
 11
41.5808
 21
392.748
  0
LINE
  8
0
 10
41.5808
 20
392.748
 11
41.6667
 21
392.75
  0
LINE
  8
0
 10
41.6667
 20
392.75
 11
41.7525
 21
392.748
  0
LINE
  8
0
 10
41.7525
 20
392.748
 11
41.8382
 21
392.742
  0
LINE
  8
0
 10
41.8382
 20
392.742
 11
41.9234
 21
392.731
  0
LINE
  8
0
 10
41.9234
 20
392.731
 11
42.0081
 21
392.716
  0
LINE
  8
0
 10
42.0081
 20
392.716
 11
42.0919
 21
392.698
  0
LINE
  8
0
 10
42.0919
 20
392.698
 11
42.1747
 21
392.675
  0
LINE
  8
0
 10
42.1747
 20
392.675
 11
42.2562
 21
392.648
  0
LINE
  8
0
 10
42.2562
 20
392.648
 11
42.3363
 21
392.617
  0
LINE
  8
0
 10
42.3363
 20
392.617
 11
42.4149
 21
392.582
  0
LINE
  8
0
 10
42.4149
 20
392.582
 11
42.4916
 21
392.543
  0
LINE
  8
0
 10
42.4916
 20
392.543
 11
42.5663
 21
392.501
  0
LINE
  8
0
 10
42.5663
 20
392.501
 11
42.6389
 21
392.455
  0
LINE
  8
0
 10
42.6389
 20
392.455
 11
42.7091
 21
392.406
  0
LINE
  8
0
 10
42.7091
 20
392.406
 11
42.7768
 21
392.353
  0
LINE
  8
0
 10
42.7768
 20
392.353
 11
42.8419
 21
392.297
  0
LINE
  8
0
 10
42.8419
 20
392.297
 11
42.9041
 21
392.237
  0
LINE
  8
0
 10
42.9041
 20
392.237
 11
42.9633
 21
392.175
  0
LINE
  8
0
 10
42.9633
 20
392.175
 11
43.0194
 21
392.11
  0
LINE
  8
0
 10
43.0194
 20
392.11
 11
43.0723
 21
392.042
  0
LINE
  8
0
 10
43.0723
 20
392.042
 11
43.1217
 21
391.972
  0
LINE
  8
0
 10
43.1217
 20
391.972
 11
43.1677
 21
391.9
  0
LINE
  8
0
 10
43.1677
 20
391.9
 11
43.21
 21
391.825
  0
LINE
  8
0
 10
43.21
 20
391.825
 11
43.2486
 21
391.748
  0
LINE
  8
0
 10
43.2486
 20
391.748
 11
43.2834
 21
391.67
  0
LINE
  8
0
 10
43.2834
 20
391.67
 11
43.3144
 21
391.59
  0
LINE
  8
0
 10
43.3144
 20
391.59
 11
43.3413
 21
391.508
  0
LINE
  8
0
 10
43.3413
 20
391.508
 11
43.3642
 21
391.425
  0
LINE
  8
0
 10
43.3642
 20
391.425
 11
43.383
 21
391.341
  0
LINE
  8
0
 10
43.383
 20
391.341
 11
43.3977
 21
391.257
  0
LINE
  8
0
 10
43.3977
 20
391.257
 11
43.4082
 21
391.172
  0
LINE
  8
0
 10
43.4082
 20
391.172
 11
43.4146
 21
391.086
  0
LINE
  8
0
 10
43.4146
 20
391.086
 11
43.4167
 21
391
  0
LINE
  8
0
 10
43.4167
 20
391
 11
43.4146
 21
390.914
  0
LINE
  8
0
 10
43.4146
 20
390.914
 11
43.4082
 21
390.828
  0
LINE
  8
0
 10
43.4082
 20
390.828
 11
43.3977
 21
390.743
  0
LINE
  8
0
 10
43.3977
 20
390.743
 11
43.383
 21
390.659
  0
LINE
  8
0
 10
43.383
 20
390.659
 11
43.3642
 21
390.575
  0
LINE
  8
0
 10
43.3642
 20
390.575
 11
43.3413
 21
390.492
  0
LINE
  8
0
 10
43.3413
 20
390.492
 11
43.3144
 21
390.41
  0
LINE
  8
0
 10
43.3144
 20
390.41
 11
43.2834
 21
390.33
  0
LINE
  8
0
 10
43.2834
 20
390.33
 11
43.2486
 21
390.252
  0
LINE
  8
0
 10
43.2486
 20
390.252
 11
43.21
 21
390.175
  0
LINE
  8
0
 10
43.21
 20
390.175
 11
43.1677
 21
390.1
  0
LINE
  8
0
 10
43.1677
 20
390.1
 11
43.1217
 21
390.028
  0
LINE
  8
0
 10
43.1217
 20
390.028
 11
43.0723
 21
389.958
  0
LINE
  8
0
 10
43.0723
 20
389.958
 11
43.0194
 21
389.89
  0
LINE
  8
0
 10
43.0194
 20
389.89
 11
42.9633
 21
389.825
  0
LINE
  8
0
 10
42.9633
 20
389.825
 11
42.9041
 21
389.763
  0
LINE
  8
0
 10
42.9041
 20
389.763
 11
42.8419
 21
389.703
  0
LINE
  8
0
 10
42.8419
 20
389.703
 11
42.7768
 21
389.647
  0
LINE
  8
0
 10
42.7768
 20
389.647
 11
42.7091
 21
389.594
  0
LINE
  8
0
 10
42.7091
 20
389.594
 11
42.6389
 21
389.545
  0
LINE
  8
0
 10
42.6389
 20
389.545
 11
42.5663
 21
389.499
  0
LINE
  8
0
 10
42.5663
 20
389.499
 11
42.4916
 21
389.457
  0
LINE
  8
0
 10
42.4916
 20
389.457
 11
42.4149
 21
389.418
  0
LINE
  8
0
 10
42.4149
 20
389.418
 11
42.3363
 21
389.383
  0
LINE
  8
0
 10
42.3363
 20
389.383
 11
42.2562
 21
389.352
  0
LINE
  8
0
 10
42.2562
 20
389.352
 11
42.1747
 21
389.325
  0
LINE
  8
0
 10
42.1747
 20
389.325
 11
42.0919
 21
389.302
  0
LINE
  8
0
 10
42.0919
 20
389.302
 11
42.0081
 21
389.284
  0
LINE
  8
0
 10
42.0081
 20
389.284
 11
41.9234
 21
389.269
  0
LINE
  8
0
 10
41.9234
 20
389.269
 11
41.8382
 21
389.258
  0
LINE
  8
0
 10
41.8382
 20
389.258
 11
41.7525
 21
389.252
  0
LINE
  8
0
 10
41.7525
 20
389.252
 11
41.6667
 21
389.25
  0
LINE
  8
0
 10
41.6667
 20
389.25
 11
41.5808
 21
389.252
  0
LINE
  8
0
 10
458.247
 20
389.252
 11
458.162
 21
389.258
  0
LINE
  8
0
 10
458.162
 20
389.258
 11
458.077
 21
389.269
  0
LINE
  8
0
 10
458.077
 20
389.269
 11
457.992
 21
389.284
  0
LINE
  8
0
 10
457.992
 20
389.284
 11
457.908
 21
389.302
  0
LINE
  8
0
 10
457.908
 20
389.302
 11
457.825
 21
389.325
  0
LINE
  8
0
 10
457.825
 20
389.325
 11
457.744
 21
389.352
  0
LINE
  8
0
 10
457.744
 20
389.352
 11
457.664
 21
389.383
  0
LINE
  8
0
 10
457.664
 20
389.383
 11
457.585
 21
389.418
  0
LINE
  8
0
 10
457.585
 20
389.418
 11
457.508
 21
389.457
  0
LINE
  8
0
 10
457.508
 20
389.457
 11
457.434
 21
389.499
  0
LINE
  8
0
 10
457.434
 20
389.499
 11
457.361
 21
389.545
  0
LINE
  8
0
 10
457.361
 20
389.545
 11
457.291
 21
389.594
  0
LINE
  8
0
 10
457.291
 20
389.594
 11
457.223
 21
389.647
  0
LINE
  8
0
 10
457.223
 20
389.647
 11
457.158
 21
389.703
  0
LINE
  8
0
 10
457.158
 20
389.703
 11
457.096
 21
389.763
  0
LINE
  8
0
 10
457.096
 20
389.763
 11
457.037
 21
389.825
  0
LINE
  8
0
 10
457.037
 20
389.825
 11
456.981
 21
389.89
  0
LINE
  8
0
 10
456.981
 20
389.89
 11
456.928
 21
389.958
  0
LINE
  8
0
 10
456.928
 20
389.958
 11
456.878
 21
390.028
  0
LINE
  8
0
 10
456.878
 20
390.028
 11
456.832
 21
390.1
  0
LINE
  8
0
 10
456.832
 20
390.1
 11
456.79
 21
390.175
  0
LINE
  8
0
 10
456.79
 20
390.175
 11
456.751
 21
390.252
  0
LINE
  8
0
 10
456.751
 20
390.252
 11
456.717
 21
390.33
  0
LINE
  8
0
 10
456.717
 20
390.33
 11
456.686
 21
390.41
  0
LINE
  8
0
 10
456.686
 20
390.41
 11
456.659
 21
390.492
  0
LINE
  8
0
 10
456.659
 20
390.492
 11
456.636
 21
390.575
  0
LINE
  8
0
 10
456.636
 20
390.575
 11
456.617
 21
390.659
  0
LINE
  8
0
 10
456.617
 20
390.659
 11
456.602
 21
390.743
  0
LINE
  8
0
 10
456.602
 20
390.743
 11
456.592
 21
390.828
  0
LINE
  8
0
 10
456.592
 20
390.828
 11
456.585
 21
390.914
  0
LINE
  8
0
 10
456.585
 20
390.914
 11
456.583
 21
391
  0
LINE
  8
0
 10
456.583
 20
391
 11
456.585
 21
391.086
  0
LINE
  8
0
 10
456.585
 20
391.086
 11
456.592
 21
391.172
  0
LINE
  8
0
 10
456.592
 20
391.172
 11
456.602
 21
391.257
  0
LINE
  8
0
 10
456.602
 20
391.257
 11
456.617
 21
391.341
  0
LINE
  8
0
 10
456.617
 20
391.341
 11
456.636
 21
391.425
  0
LINE
  8
0
 10
456.636
 20
391.425
 11
456.659
 21
391.508
  0
LINE
  8
0
 10
456.659
 20
391.508
 11
456.686
 21
391.59
  0
LINE
  8
0
 10
456.686
 20
391.59
 11
456.717
 21
391.67
  0
LINE
  8
0
 10
456.717
 20
391.67
 11
456.751
 21
391.748
  0
LINE
  8
0
 10
456.751
 20
391.748
 11
456.79
 21
391.825
  0
LINE
  8
0
 10
456.79
 20
391.825
 11
456.832
 21
391.9
  0
LINE
  8
0
 10
456.832
 20
391.9
 11
456.878
 21
391.972
  0
LINE
  8
0
 10
456.878
 20
391.972
 11
456.928
 21
392.042
  0
LINE
  8
0
 10
456.928
 20
392.042
 11
456.981
 21
392.11
  0
LINE
  8
0
 10
456.981
 20
392.11
 11
457.037
 21
392.175
  0
LINE
  8
0
 10
457.037
 20
392.175
 11
457.096
 21
392.237
  0
LINE
  8
0
 10
457.096
 20
392.237
 11
457.158
 21
392.297
  0
LINE
  8
0
 10
457.158
 20
392.297
 11
457.223
 21
392.353
  0
LINE
  8
0
 10
457.223
 20
392.353
 11
457.291
 21
392.406
  0
LINE
  8
0
 10
457.291
 20
392.406
 11
457.361
 21
392.455
  0
LINE
  8
0
 10
457.361
 20
392.455
 11
457.434
 21
392.501
  0
LINE
  8
0
 10
457.434
 20
392.501
 11
457.508
 21
392.543
  0
LINE
  8
0
 10
457.508
 20
392.543
 11
457.585
 21
392.582
  0
LINE
  8
0
 10
457.585
 20
392.582
 11
457.664
 21
392.617
  0
LINE
  8
0
 10
457.664
 20
392.617
 11
457.744
 21
392.648
  0
LINE
  8
0
 10
457.744
 20
392.648
 11
457.825
 21
392.675
  0
LINE
  8
0
 10
457.825
 20
392.675
 11
457.908
 21
392.698
  0
LINE
  8
0
 10
457.908
 20
392.698
 11
457.992
 21
392.716
  0
LINE
  8
0
 10
457.992
 20
392.716
 11
458.077
 21
392.731
  0
LINE
  8
0
 10
458.077
 20
392.731
 11
458.162
 21
392.742
  0
LINE
  8
0
 10
458.162
 20
392.742
 11
458.247
 21
392.748
  0
LINE
  8
0
 10
458.247
 20
392.748
 11
458.333
 21
392.75
  0
LINE
  8
0
 10
458.333
 20
392.75
 11
458.419
 21
392.748
  0
LINE
  8
0
 10
458.419
 20
392.748
 11
458.505
 21
392.742
  0
LINE
  8
0
 10
458.505
 20
392.742
 11
458.59
 21
392.731
  0
LINE
  8
0
 10
458.59
 20
392.731
 11
458.675
 21
392.716
  0
LINE
  8
0
 10
458.675
 20
392.716
 11
458.759
 21
392.698
  0
LINE
  8
0
 10
458.759
 20
392.698
 11
458.841
 21
392.675
  0
LINE
  8
0
 10
458.841
 20
392.675
 11
458.923
 21
392.648
  0
LINE
  8
0
 10
458.923
 20
392.648
 11
459.003
 21
392.617
  0
LINE
  8
0
 10
459.003
 20
392.617
 11
459.082
 21
392.582
  0
LINE
  8
0
 10
459.082
 20
392.582
 11
459.158
 21
392.543
  0
LINE
  8
0
 10
459.158
 20
392.543
 11
459.233
 21
392.501
  0
LINE
  8
0
 10
459.233
 20
392.501
 11
459.306
 21
392.455
  0
LINE
  8
0
 10
459.306
 20
392.455
 11
459.376
 21
392.406
  0
LINE
  8
0
 10
459.376
 20
392.406
 11
459.444
 21
392.353
  0
LINE
  8
0
 10
459.444
 20
392.353
 11
459.509
 21
392.297
  0
LINE
  8
0
 10
459.509
 20
392.297
 11
459.571
 21
392.237
  0
LINE
  8
0
 10
459.571
 20
392.237
 11
459.63
 21
392.175
  0
LINE
  8
0
 10
459.63
 20
392.175
 11
459.686
 21
392.11
  0
LINE
  8
0
 10
459.686
 20
392.11
 11
459.739
 21
392.042
  0
LINE
  8
0
 10
459.739
 20
392.042
 11
459.788
 21
391.972
  0
LINE
  8
0
 10
459.788
 20
391.972
 11
459.834
 21
391.9
  0
LINE
  8
0
 10
459.834
 20
391.9
 11
459.877
 21
391.825
  0
LINE
  8
0
 10
459.877
 20
391.825
 11
459.915
 21
391.748
  0
LINE
  8
0
 10
459.915
 20
391.748
 11
459.95
 21
391.67
  0
LINE
  8
0
 10
459.95
 20
391.67
 11
459.981
 21
391.59
  0
LINE
  8
0
 10
459.981
 20
391.59
 11
460.008
 21
391.508
  0
LINE
  8
0
 10
460.008
 20
391.508
 11
460.031
 21
391.425
  0
LINE
  8
0
 10
460.031
 20
391.425
 11
460.05
 21
391.341
  0
LINE
  8
0
 10
460.05
 20
391.341
 11
460.064
 21
391.257
  0
LINE
  8
0
 10
460.064
 20
391.257
 11
460.075
 21
391.172
  0
LINE
  8
0
 10
460.075
 20
391.172
 11
460.081
 21
391.086
  0
LINE
  8
0
 10
460.081
 20
391.086
 11
460.083
 21
391
  0
LINE
  8
0
 10
460.083
 20
391
 11
460.081
 21
390.914
  0
LINE
  8
0
 10
460.081
 20
390.914
 11
460.075
 21
390.828
  0
LINE
  8
0
 10
460.075
 20
390.828
 11
460.064
 21
390.743
  0
LINE
  8
0
 10
460.064
 20
390.743
 11
460.05
 21
390.659
  0
LINE
  8
0
 10
460.05
 20
390.659
 11
460.031
 21
390.575
  0
LINE
  8
0
 10
460.031
 20
390.575
 11
460.008
 21
390.492
  0
LINE
  8
0
 10
460.008
 20
390.492
 11
459.981
 21
390.41
  0
LINE
  8
0
 10
459.981
 20
390.41
 11
459.95
 21
390.33
  0
LINE
  8
0
 10
459.95
 20
390.33
 11
459.915
 21
390.252
  0
LINE
  8
0
 10
459.915
 20
390.252
 11
459.877
 21
390.175
  0
LINE
  8
0
 10
459.877
 20
390.175
 11
459.834
 21
390.1
  0
LINE
  8
0
 10
459.834
 20
390.1
 11
459.788
 21
390.028
  0
LINE
  8
0
 10
459.788
 20
390.028
 11
459.739
 21
389.958
  0
LINE
  8
0
 10
459.739
 20
389.958
 11
459.686
 21
389.89
  0
LINE
  8
0
 10
459.686
 20
389.89
 11
459.63
 21
389.825
  0
LINE
  8
0
 10
459.63
 20
389.825
 11
459.571
 21
389.763
  0
LINE
  8
0
 10
459.571
 20
389.763
 11
459.509
 21
389.703
  0
LINE
  8
0
 10
459.509
 20
389.703
 11
459.444
 21
389.647
  0
LINE
  8
0
 10
459.444
 20
389.647
 11
459.376
 21
389.594
  0
LINE
  8
0
 10
459.376
 20
389.594
 11
459.306
 21
389.545
  0
LINE
  8
0
 10
459.306
 20
389.545
 11
459.233
 21
389.499
  0
LINE
  8
0
 10
459.233
 20
389.499
 11
459.158
 21
389.457
  0
LINE
  8
0
 10
459.158
 20
389.457
 11
459.082
 21
389.418
  0
LINE
  8
0
 10
459.082
 20
389.418
 11
459.003
 21
389.383
  0
LINE
  8
0
 10
459.003
 20
389.383
 11
458.923
 21
389.352
  0
LINE
  8
0
 10
458.923
 20
389.352
 11
458.841
 21
389.325
  0
LINE
  8
0
 10
458.841
 20
389.325
 11
458.759
 21
389.302
  0
LINE
  8
0
 10
458.759
 20
389.302
 11
458.675
 21
389.284
  0
LINE
  8
0
 10
458.675
 20
389.284
 11
458.59
 21
389.269
  0
LINE
  8
0
 10
458.59
 20
389.269
 11
458.505
 21
389.258
  0
LINE
  8
0
 10
458.505
 20
389.258
 11
458.419
 21
389.252
  0
LINE
  8
0
 10
458.419
 20
389.252
 11
458.333
 21
389.25
  0
LINE
  8
0
 10
458.333
 20
389.25
 11
458.247
 21
389.252
  0
LINE
  8
0
 10
490.914
 20
271.252
 11
490.828
 21
271.258
  0
LINE
  8
0
 10
490.828
 20
271.258
 11
490.743
 21
271.269
  0
LINE
  8
0
 10
490.743
 20
271.269
 11
490.659
 21
271.284
  0
LINE
  8
0
 10
490.659
 20
271.284
 11
490.575
 21
271.302
  0
LINE
  8
0
 10
490.575
 20
271.302
 11
490.492
 21
271.325
  0
LINE
  8
0
 10
490.492
 20
271.325
 11
490.41
 21
271.352
  0
LINE
  8
0
 10
490.41
 20
271.352
 11
490.33
 21
271.383
  0
LINE
  8
0
 10
490.33
 20
271.383
 11
490.252
 21
271.418
  0
LINE
  8
0
 10
490.252
 20
271.418
 11
490.175
 21
271.457
  0
LINE
  8
0
 10
490.175
 20
271.457
 11
490.1
 21
271.499
  0
LINE
  8
0
 10
490.1
 20
271.499
 11
490.028
 21
271.545
  0
LINE
  8
0
 10
490.028
 20
271.545
 11
489.958
 21
271.594
  0
LINE
  8
0
 10
489.958
 20
271.594
 11
489.89
 21
271.647
  0
LINE
  8
0
 10
489.89
 20
271.647
 11
489.825
 21
271.703
  0
LINE
  8
0
 10
489.825
 20
271.703
 11
489.763
 21
271.763
  0
LINE
  8
0
 10
489.763
 20
271.763
 11
489.703
 21
271.825
  0
LINE
  8
0
 10
489.703
 20
271.825
 11
489.647
 21
271.89
  0
LINE
  8
0
 10
489.647
 20
271.89
 11
489.594
 21
271.958
  0
LINE
  8
0
 10
489.594
 20
271.958
 11
489.545
 21
272.028
  0
LINE
  8
0
 10
489.545
 20
272.028
 11
489.499
 21
272.1
  0
LINE
  8
0
 10
489.499
 20
272.1
 11
489.457
 21
272.175
  0
LINE
  8
0
 10
489.457
 20
272.175
 11
489.418
 21
272.252
  0
LINE
  8
0
 10
489.418
 20
272.252
 11
489.383
 21
272.33
  0
LINE
  8
0
 10
489.383
 20
272.33
 11
489.352
 21
272.41
  0
LINE
  8
0
 10
489.352
 20
272.41
 11
489.325
 21
272.492
  0
LINE
  8
0
 10
489.325
 20
272.492
 11
489.302
 21
272.575
  0
LINE
  8
0
 10
489.302
 20
272.575
 11
489.284
 21
272.659
  0
LINE
  8
0
 10
489.284
 20
272.659
 11
489.269
 21
272.743
  0
LINE
  8
0
 10
489.269
 20
272.743
 11
489.258
 21
272.828
  0
LINE
  8
0
 10
489.258
 20
272.828
 11
489.252
 21
272.914
  0
LINE
  8
0
 10
489.252
 20
272.914
 11
489.25
 21
273
  0
LINE
  8
0
 10
489.25
 20
273
 11
489.252
 21
273.086
  0
LINE
  8
0
 10
489.252
 20
273.086
 11
489.258
 21
273.172
  0
LINE
  8
0
 10
489.258
 20
273.172
 11
489.269
 21
273.257
  0
LINE
  8
0
 10
489.269
 20
273.257
 11
489.284
 21
273.341
  0
LINE
  8
0
 10
489.284
 20
273.341
 11
489.302
 21
273.425
  0
LINE
  8
0
 10
489.302
 20
273.425
 11
489.325
 21
273.508
  0
LINE
  8
0
 10
489.325
 20
273.508
 11
489.352
 21
273.59
  0
LINE
  8
0
 10
489.352
 20
273.59
 11
489.383
 21
273.67
  0
LINE
  8
0
 10
489.383
 20
273.67
 11
489.418
 21
273.748
  0
LINE
  8
0
 10
489.418
 20
273.748
 11
489.457
 21
273.825
  0
LINE
  8
0
 10
489.457
 20
273.825
 11
489.499
 21
273.9
  0
LINE
  8
0
 10
489.499
 20
273.9
 11
489.545
 21
273.972
  0
LINE
  8
0
 10
489.545
 20
273.972
 11
489.594
 21
274.042
  0
LINE
  8
0
 10
489.594
 20
274.042
 11
489.647
 21
274.11
  0
LINE
  8
0
 10
489.647
 20
274.11
 11
489.703
 21
274.175
  0
LINE
  8
0
 10
489.703
 20
274.175
 11
489.763
 21
274.237
  0
LINE
  8
0
 10
489.763
 20
274.237
 11
489.825
 21
274.297
  0
LINE
  8
0
 10
489.825
 20
274.297
 11
489.89
 21
274.353
  0
LINE
  8
0
 10
489.89
 20
274.353
 11
489.958
 21
274.406
  0
LINE
  8
0
 10
489.958
 20
274.406
 11
490.028
 21
274.455
  0
LINE
  8
0
 10
490.028
 20
274.455
 11
490.1
 21
274.501
  0
LINE
  8
0
 10
490.1
 20
274.501
 11
490.175
 21
274.543
  0
LINE
  8
0
 10
490.175
 20
274.543
 11
490.252
 21
274.582
  0
LINE
  8
0
 10
490.252
 20
274.582
 11
490.33
 21
274.617
  0
LINE
  8
0
 10
490.33
 20
274.617
 11
490.41
 21
274.648
  0
LINE
  8
0
 10
490.41
 20
274.648
 11
490.492
 21
274.675
  0
LINE
  8
0
 10
490.492
 20
274.675
 11
490.575
 21
274.698
  0
LINE
  8
0
 10
490.575
 20
274.698
 11
490.659
 21
274.716
  0
LINE
  8
0
 10
490.659
 20
274.716
 11
490.743
 21
274.731
  0
LINE
  8
0
 10
490.743
 20
274.731
 11
490.828
 21
274.742
  0
LINE
  8
0
 10
490.828
 20
274.742
 11
490.914
 21
274.748
  0
LINE
  8
0
 10
490.914
 20
274.748
 11
491
 21
274.75
  0
LINE
  8
0
 10
491
 20
274.75
 11
491.086
 21
274.748
  0
LINE
  8
0
 10
491.086
 20
274.748
 11
491.172
 21
274.742
  0
LINE
  8
0
 10
491.172
 20
274.742
 11
491.257
 21
274.731
  0
LINE
  8
0
 10
491.257
 20
274.731
 11
491.341
 21
274.716
  0
LINE
  8
0
 10
491.341
 20
274.716
 11
491.425
 21
274.698
  0
LINE
  8
0
 10
491.425
 20
274.698
 11
491.508
 21
274.675
  0
LINE
  8
0
 10
491.508
 20
274.675
 11
491.59
 21
274.648
  0
LINE
  8
0
 10
491.59
 20
274.648
 11
491.67
 21
274.617
  0
LINE
  8
0
 10
491.67
 20
274.617
 11
491.748
 21
274.582
  0
LINE
  8
0
 10
491.748
 20
274.582
 11
491.825
 21
274.543
  0
LINE
  8
0
 10
491.825
 20
274.543
 11
491.9
 21
274.501
  0
LINE
  8
0
 10
491.9
 20
274.501
 11
491.972
 21
274.455
  0
LINE
  8
0
 10
491.972
 20
274.455
 11
492.042
 21
274.406
  0
LINE
  8
0
 10
492.042
 20
274.406
 11
492.11
 21
274.353
  0
LINE
  8
0
 10
492.11
 20
274.353
 11
492.175
 21
274.297
  0
LINE
  8
0
 10
492.175
 20
274.297
 11
492.237
 21
274.237
  0
LINE
  8
0
 10
492.237
 20
274.237
 11
492.297
 21
274.175
  0
LINE
  8
0
 10
492.297
 20
274.175
 11
492.353
 21
274.11
  0
LINE
  8
0
 10
492.353
 20
274.11
 11
492.406
 21
274.042
  0
LINE
  8
0
 10
492.406
 20
274.042
 11
492.455
 21
273.972
  0
LINE
  8
0
 10
492.455
 20
273.972
 11
492.501
 21
273.9
  0
LINE
  8
0
 10
492.501
 20
273.9
 11
492.543
 21
273.825
  0
LINE
  8
0
 10
492.543
 20
273.825
 11
492.582
 21
273.748
  0
LINE
  8
0
 10
492.582
 20
273.748
 11
492.617
 21
273.67
  0
LINE
  8
0
 10
492.617
 20
273.67
 11
492.648
 21
273.59
  0
LINE
  8
0
 10
492.648
 20
273.59
 11
492.675
 21
273.508
  0
LINE
  8
0
 10
492.675
 20
273.508
 11
492.698
 21
273.425
  0
LINE
  8
0
 10
492.698
 20
273.425
 11
492.716
 21
273.341
  0
LINE
  8
0
 10
492.716
 20
273.341
 11
492.731
 21
273.257
  0
LINE
  8
0
 10
492.731
 20
273.257
 11
492.742
 21
273.172
  0
LINE
  8
0
 10
492.742
 20
273.172
 11
492.748
 21
273.086
  0
LINE
  8
0
 10
492.748
 20
273.086
 11
492.75
 21
273
  0
LINE
  8
0
 10
492.75
 20
273
 11
492.748
 21
272.914
  0
LINE
  8
0
 10
492.748
 20
272.914
 11
492.742
 21
272.828
  0
LINE
  8
0
 10
492.742
 20
272.828
 11
492.731
 21
272.743
  0
LINE
  8
0
 10
492.731
 20
272.743
 11
492.716
 21
272.659
  0
LINE
  8
0
 10
492.716
 20
272.659
 11
492.698
 21
272.575
  0
LINE
  8
0
 10
492.698
 20
272.575
 11
492.675
 21
272.492
  0
LINE
  8
0
 10
492.675
 20
272.492
 11
492.648
 21
272.41
  0
LINE
  8
0
 10
492.648
 20
272.41
 11
492.617
 21
272.33
  0
LINE
  8
0
 10
492.617
 20
272.33
 11
492.582
 21
272.252
  0
LINE
  8
0
 10
492.582
 20
272.252
 11
492.543
 21
272.175
  0
LINE
  8
0
 10
492.543
 20
272.175
 11
492.501
 21
272.1
  0
LINE
  8
0
 10
492.501
 20
272.1
 11
492.455
 21
272.028
  0
LINE
  8
0
 10
492.455
 20
272.028
 11
492.406
 21
271.958
  0
LINE
  8
0
 10
492.406
 20
271.958
 11
492.353
 21
271.89
  0
LINE
  8
0
 10
492.353
 20
271.89
 11
492.297
 21
271.825
  0
LINE
  8
0
 10
492.297
 20
271.825
 11
492.237
 21
271.763
  0
LINE
  8
0
 10
492.237
 20
271.763
 11
492.175
 21
271.703
  0
LINE
  8
0
 10
492.175
 20
271.703
 11
492.11
 21
271.647
  0
LINE
  8
0
 10
492.11
 20
271.647
 11
492.042
 21
271.594
  0
LINE
  8
0
 10
492.042
 20
271.594
 11
491.972
 21
271.545
  0
LINE
  8
0
 10
491.972
 20
271.545
 11
491.9
 21
271.499
  0
LINE
  8
0
 10
491.9
 20
271.499
 11
491.825
 21
271.457
  0
LINE
  8
0
 10
491.825
 20
271.457
 11
491.748
 21
271.418
  0
LINE
  8
0
 10
491.748
 20
271.418
 11
491.67
 21
271.383
  0
LINE
  8
0
 10
491.67
 20
271.383
 11
491.59
 21
271.352
  0
LINE
  8
0
 10
491.59
 20
271.352
 11
491.508
 21
271.325
  0
LINE
  8
0
 10
491.508
 20
271.325
 11
491.425
 21
271.302
  0
LINE
  8
0
 10
491.425
 20
271.302
 11
491.341
 21
271.284
  0
LINE
  8
0
 10
491.341
 20
271.284
 11
491.257
 21
271.269
  0
LINE
  8
0
 10
491.257
 20
271.269
 11
491.172
 21
271.258
  0
LINE
  8
0
 10
491.172
 20
271.258
 11
491.086
 21
271.252
  0
LINE
  8
0
 10
491.086
 20
271.252
 11
491
 21
271.25
  0
LINE
  8
0
 10
491
 20
271.25
 11
490.914
 21
271.252
  0
LINE
  8
0
 10
8.91412
 20
98.2521
 11
8.82846
 21
98.2584
  0
LINE
  8
0
 10
8.82846
 20
98.2584
 11
8.74321
 21
98.2689
  0
LINE
  8
0
 10
8.74321
 20
98.2689
 11
8.65858
 21
98.2836
  0
LINE
  8
0
 10
8.65858
 20
98.2836
 11
8.57478
 21
98.3024
  0
LINE
  8
0
 10
8.57478
 20
98.3024
 11
8.49199
 21
98.3253
  0
LINE
  8
0
 10
8.49199
 20
98.3253
 11
8.41043
 21
98.3523
  0
LINE
  8
0
 10
8.41043
 20
98.3523
 11
8.33029
 21
98.3832
  0
LINE
  8
0
 10
8.33029
 20
98.3832
 11
8.25177
 21
98.418
  0
LINE
  8
0
 10
8.25177
 20
98.418
 11
8.17505
 21
98.4566
  0
LINE
  8
0
 10
8.17505
 20
98.4566
 11
8.10031
 21
98.499
  0
LINE
  8
0
 10
8.10031
 20
98.499
 11
8.02774
 21
98.5449
  0
LINE
  8
0
 10
8.02774
 20
98.5449
 11
7.95752
 21
98.5944
  0
LINE
  8
0
 10
7.95752
 20
98.5944
 11
7.8898
 21
98.6472
  0
LINE
  8
0
 10
7.8898
 20
98.6472
 11
7.82477
 21
98.7033
  0
LINE
  8
0
 10
7.82477
 20
98.7033
 11
7.76256
 21
98.7626
  0
LINE
  8
0
 10
7.76256
 20
98.7626
 11
7.70332
 21
98.8248
  0
LINE
  8
0
 10
7.70332
 20
98.8248
 11
7.64722
 21
98.8898
  0
LINE
  8
0
 10
7.64722
 20
98.8898
 11
7.59438
 21
98.9575
  0
LINE
  8
0
 10
7.59438
 20
98.9575
 11
7.54492
 21
99.0277
  0
LINE
  8
0
 10
7.54492
 20
99.0277
 11
7.49896
 21
99.1003
  0
LINE
  8
0
 10
7.49896
 20
99.1003
 11
7.45663
 21
99.175
  0
LINE
  8
0
 10
7.45663
 20
99.175
 11
7.41801
 21
99.2518
  0
LINE
  8
0
 10
7.41801
 20
99.2518
 11
7.38321
 21
99.3303
  0
LINE
  8
0
 10
7.38321
 20
99.3303
 11
7.35229
 21
99.4104
  0
LINE
  8
0
 10
7.35229
 20
99.4104
 11
7.32535
 21
99.492
  0
LINE
  8
0
 10
7.32535
 20
99.492
 11
7.30244
 21
99.5748
  0
LINE
  8
0
 10
7.30244
 20
99.5748
 11
7.28362
 21
99.6586
  0
LINE
  8
0
 10
7.28362
 20
99.6586
 11
7.26894
 21
99.7432
  0
LINE
  8
0
 10
7.26894
 20
99.7432
 11
7.25842
 21
99.8285
  0
LINE
  8
0
 10
7.25842
 20
99.8285
 11
7.25211
 21
99.9141
  0
LINE
  8
0
 10
7.25211
 20
99.9141
 11
7.25
 21
100
  0
LINE
  8
0
 10
7.25
 20
100
 11
7.25211
 21
100.086
  0
LINE
  8
0
 10
7.25211
 20
100.086
 11
7.25842
 21
100.172
  0
LINE
  8
0
 10
7.25842
 20
100.172
 11
7.26894
 21
100.257
  0
LINE
  8
0
 10
7.26894
 20
100.257
 11
7.28362
 21
100.341
  0
LINE
  8
0
 10
7.28362
 20
100.341
 11
7.30244
 21
100.425
  0
LINE
  8
0
 10
7.30244
 20
100.425
 11
7.32535
 21
100.508
  0
LINE
  8
0
 10
7.32535
 20
100.508
 11
7.35229
 21
100.59
  0
LINE
  8
0
 10
7.35229
 20
100.59
 11
7.38321
 21
100.67
  0
LINE
  8
0
 10
7.38321
 20
100.67
 11
7.41801
 21
100.748
  0
LINE
  8
0
 10
7.41801
 20
100.748
 11
7.45663
 21
100.825
  0
LINE
  8
0
 10
7.45663
 20
100.825
 11
7.49896
 21
100.9
  0
LINE
  8
0
 10
7.49896
 20
100.9
 11
7.54492
 21
100.972
  0
LINE
  8
0
 10
7.54492
 20
100.972
 11
7.59438
 21
101.042
  0
LINE
  8
0
 10
7.59438
 20
101.042
 11
7.64722
 21
101.11
  0
LINE
  8
0
 10
7.64722
 20
101.11
 11
7.70332
 21
101.175
  0
LINE
  8
0
 10
7.70332
 20
101.175
 11
7.76256
 21
101.237
  0
LINE
  8
0
 10
7.76256
 20
101.237
 11
7.82477
 21
101.297
  0
LINE
  8
0
 10
7.82477
 20
101.297
 11
7.8898
 21
101.353
  0
LINE
  8
0
 10
7.8898
 20
101.353
 11
7.95752
 21
101.406
  0
LINE
  8
0
 10
7.95752
 20
101.406
 11
8.02774
 21
101.455
  0
LINE
  8
0
 10
8.02774
 20
101.455
 11
8.10031
 21
101.501
  0
LINE
  8
0
 10
8.10031
 20
101.501
 11
8.17505
 21
101.543
  0
LINE
  8
0
 10
8.17505
 20
101.543
 11
8.25177
 21
101.582
  0
LINE
  8
0
 10
8.25177
 20
101.582
 11
8.33029
 21
101.617
  0
LINE
  8
0
 10
8.33029
 20
101.617
 11
8.41043
 21
101.648
  0
LINE
  8
0
 10
8.41043
 20
101.648
 11
8.49199
 21
101.675
  0
LINE
  8
0
 10
8.49199
 20
101.675
 11
8.57478
 21
101.698
  0
LINE
  8
0
 10
8.57478
 20
101.698
 11
8.65858
 21
101.716
  0
LINE
  8
0
 10
8.65858
 20
101.716
 11
8.74321
 21
101.731
  0
LINE
  8
0
 10
8.74321
 20
101.731
 11
8.82846
 21
101.742
  0
LINE
  8
0
 10
8.82846
 20
101.742
 11
8.91412
 21
101.748
  0
LINE
  8
0
 10
8.91412
 20
101.748
 11
9
 21
101.75
  0
LINE
  8
0
 10
9
 20
101.75
 11
9.08586
 21
101.748
  0
LINE
  8
0
 10
9.08586
 20
101.748
 11
9.17152
 21
101.742
  0
LINE
  8
0
 10
9.17152
 20
101.742
 11
9.25677
 21
101.731
  0
LINE
  8
0
 10
9.25677
 20
101.731
 11
9.3414
 21
101.716
  0
LINE
  8
0
 10
9.3414
 20
101.716
 11
9.4252
 21
101.698
  0
LINE
  8
0
 10
9.4252
 20
101.698
 11
9.508
 21
101.675
  0
LINE
  8
0
 10
9.508
 20
101.675
 11
9.58955
 21
101.648
  0
LINE
  8
0
 10
9.58955
 20
101.648
 11
9.66969
 21
101.617
  0
LINE
  8
0
 10
9.66969
 20
101.617
 11
9.74821
 21
101.582
  0
LINE
  8
0
 10
9.74821
 20
101.582
 11
9.82494
 21
101.543
  0
LINE
  8
0
 10
9.82494
 20
101.543
 11
9.89967
 21
101.501
  0
LINE
  8
0
 10
9.89967
 20
101.501
 11
9.97224
 21
101.455
  0
LINE
  8
0
 10
9.97224
 20
101.455
 11
10.0425
 21
101.406
  0
LINE
  8
0
 10
10.0425
 20
101.406
 11
10.1102
 21
101.353
  0
LINE
  8
0
 10
10.1102
 20
101.353
 11
10.1752
 21
101.297
  0
LINE
  8
0
 10
10.1752
 20
101.297
 11
10.2374
 21
101.237
  0
LINE
  8
0
 10
10.2374
 20
101.237
 11
10.2967
 21
101.175
  0
LINE
  8
0
 10
10.2967
 20
101.175
 11
10.3528
 21
101.11
  0
LINE
  8
0
 10
10.3528
 20
101.11
 11
10.4056
 21
101.042
  0
LINE
  8
0
 10
10.4056
 20
101.042
 11
10.4551
 21
100.972
  0
LINE
  8
0
 10
10.4551
 20
100.972
 11
10.501
 21
100.9
  0
LINE
  8
0
 10
10.501
 20
100.9
 11
10.5434
 21
100.825
  0
LINE
  8
0
 10
10.5434
 20
100.825
 11
10.582
 21
100.748
  0
LINE
  8
0
 10
10.582
 20
100.748
 11
10.6168
 21
100.67
  0
LINE
  8
0
 10
10.6168
 20
100.67
 11
10.6477
 21
100.59
  0
LINE
  8
0
 10
10.6477
 20
100.59
 11
10.6746
 21
100.508
  0
LINE
  8
0
 10
10.6746
 20
100.508
 11
10.6975
 21
100.425
  0
LINE
  8
0
 10
10.6975
 20
100.425
 11
10.7164
 21
100.341
  0
LINE
  8
0
 10
10.7164
 20
100.341
 11
10.731
 21
100.257
  0
LINE
  8
0
 10
10.731
 20
100.257
 11
10.7416
 21
100.172
  0
LINE
  8
0
 10
10.7416
 20
100.172
 11
10.7479
 21
100.086
  0
LINE
  8
0
 10
10.7479
 20
100.086
 11
10.75
 21
100
  0
LINE
  8
0
 10
10.75
 20
100
 11
10.7479
 21
99.9141
  0
LINE
  8
0
 10
10.7479
 20
99.9141
 11
10.7416
 21
99.8285
  0
LINE
  8
0
 10
10.7416
 20
99.8285
 11
10.731
 21
99.7432
  0
LINE
  8
0
 10
10.731
 20
99.7432
 11
10.7164
 21
99.6586
  0
LINE
  8
0
 10
10.7164
 20
99.6586
 11
10.6975
 21
99.5748
  0
LINE
  8
0
 10
10.6975
 20
99.5748
 11
10.6746
 21
99.492
  0
LINE
  8
0
 10
10.6746
 20
99.492
 11
10.6477
 21
99.4104
  0
LINE
  8
0
 10
10.6477
 20
99.4104
 11
10.6168
 21
99.3303
  0
LINE
  8
0
 10
10.6168
 20
99.3303
 11
10.582
 21
99.2518
  0
LINE
  8
0
 10
10.582
 20
99.2518
 11
10.5434
 21
99.175
  0
LINE
  8
0
 10
10.5434
 20
99.175
 11
10.501
 21
99.1003
  0
LINE
  8
0
 10
10.501
 20
99.1003
 11
10.4551
 21
99.0277
  0
LINE
  8
0
 10
10.4551
 20
99.0277
 11
10.4056
 21
98.9575
  0
LINE
  8
0
 10
10.4056
 20
98.9575
 11
10.3528
 21
98.8898
  0
LINE
  8
0
 10
10.3528
 20
98.8898
 11
10.2967
 21
98.8248
  0
LINE
  8
0
 10
10.2967
 20
98.8248
 11
10.2374
 21
98.7626
  0
LINE
  8
0
 10
10.2374
 20
98.7626
 11
10.1752
 21
98.7033
  0
LINE
  8
0
 10
10.1752
 20
98.7033
 11
10.1102
 21
98.6472
  0
LINE
  8
0
 10
10.1102
 20
98.6472
 11
10.0425
 21
98.5944
  0
LINE
  8
0
 10
10.0425
 20
98.5944
 11
9.97224
 21
98.5449
  0
LINE
  8
0
 10
9.97224
 20
98.5449
 11
9.89967
 21
98.499
  0
LINE
  8
0
 10
9.89967
 20
98.499
 11
9.82494
 21
98.4566
  0
LINE
  8
0
 10
9.82494
 20
98.4566
 11
9.74821
 21
98.418
  0
LINE
  8
0
 10
9.74821
 20
98.418
 11
9.66969
 21
98.3832
  0
LINE
  8
0
 10
9.66969
 20
98.3832
 11
9.58955
 21
98.3523
  0
LINE
  8
0
 10
9.58955
 20
98.3523
 11
9.508
 21
98.3253
  0
LINE
  8
0
 10
9.508
 20
98.3253
 11
9.4252
 21
98.3024
  0
LINE
  8
0
 10
9.4252
 20
98.3024
 11
9.3414
 21
98.2836
  0
LINE
  8
0
 10
9.3414
 20
98.2836
 11
9.25677
 21
98.2689
  0
LINE
  8
0
 10
9.25677
 20
98.2689
 11
9.17152
 21
98.2584
  0
LINE
  8
0
 10
9.17152
 20
98.2584
 11
9.08586
 21
98.2521
  0
LINE
  8
0
 10
9.08586
 20
98.2521
 11
9
 21
98.25
  0
LINE
  8
0
 10
9
 20
98.25
 11
8.91412
 21
98.2521
  0
ENDSEC
  0
SECTION
  2
OBJECTS
  0
DICTIONARY
  0
ENDSEC
  0
EOF
