  0
SECTION
  2
BLOCKS
  0
ENDSEC
  0
SECTION
  2
ENTITIES
  0
LINE
  8
0
 10
333.333
 20
21.43
 11
333.337
 21
21.5895
  0
LINE
  8
0
 10
333.337
 20
21.5895
 11
333.349
 21
21.7486
  0
LINE
  8
0
 10
333.349
 20
21.7486
 11
333.368
 21
21.9069
  0
LINE
  8
0
 10
333.368
 20
21.9069
 11
333.396
 21
22.064
  0
LINE
  8
0
 10
333.396
 20
22.064
 11
333.431
 21
22.2197
  0
LINE
  8
0
 10
333.431
 20
22.2197
 11
333.473
 21
22.3734
  0
LINE
  8
0
 10
333.473
 20
22.3734
 11
333.523
 21
22.5249
  0
LINE
  8
0
 10
333.523
 20
22.5249
 11
333.581
 21
22.6737
  0
LINE
  8
0
 10
333.581
 20
22.6737
 11
333.645
 21
22.8195
  0
LINE
  8
0
 10
333.645
 20
22.8195
 11
333.717
 21
22.962
  0
LINE
  8
0
 10
333.717
 20
22.962
 11
333.796
 21
23.1008
  0
LINE
  8
0
 10
333.796
 20
23.1008
 11
333.881
 21
23.2356
  0
LINE
  8
0
 10
333.881
 20
23.2356
 11
333.973
 21
23.366
  0
LINE
  8
0
 10
333.973
 20
23.366
 11
334.071
 21
23.4918
  0
LINE
  8
0
 10
334.071
 20
23.4918
 11
334.175
 21
23.6126
  0
LINE
  8
0
 10
334.175
 20
23.6126
 11
334.285
 21
23.7281
  0
LINE
  8
0
 10
334.285
 20
23.7281
 11
334.401
 21
23.8381
  0
LINE
  8
0
 10
334.401
 20
23.8381
 11
334.522
 21
23.9423
  0
LINE
  8
0
 10
334.522
 20
23.9423
 11
334.647
 21
24.0404
  0
LINE
  8
0
 10
334.647
 20
24.0404
 11
334.778
 21
24.1323
  0
LINE
  8
0
 10
334.778
 20
24.1323
 11
334.912
 21
24.2176
  0
LINE
  8
0
 10
334.912
 20
24.2176
 11
335.051
 21
24.2962
  0
LINE
  8
0
 10
335.051
 20
24.2962
 11
335.194
 21
24.368
  0
LINE
  8
0
 10
335.194
 20
24.368
 11
335.34
 21
24.4326
  0
LINE
  8
0
 10
335.34
 20
24.4326
 11
335.488
 21
24.49
  0
LINE
  8
0
 10
335.488
 20
24.49
 11
335.64
 21
24.5401
  0
LINE
  8
0
 10
335.64
 20
24.5401
 11
335.794
 21
24.5826
  0
LINE
  8
0
 10
335.794
 20
24.5826
 11
335.949
 21
24.6175
  0
LINE
  8
0
 10
335.949
 20
24.6175
 11
336.106
 21
24.6448
  0
LINE
  8
0
 10
336.106
 20
24.6448
 11
336.265
 21
24.6643
  0
LINE
  8
0
 10
336.265
 20
24.6643
 11
336.424
 21
24.6761
  0
LINE
  8
0
 10
336.424
 20
24.6761
 11
336.583
 21
24.68
  0
LINE
  8
0
 10
336.583
 20
24.68
 11
336.743
 21
24.6761
  0
LINE
  8
0
 10
336.743
 20
24.6761
 11
336.902
 21
24.6643
  0
LINE
  8
0
 10
336.902
 20
24.6643
 11
337.06
 21
24.6448
  0
LINE
  8
0
 10
337.06
 20
24.6448
 11
337.217
 21
24.6175
  0
LINE
  8
0
 10
337.217
 20
24.6175
 11
337.373
 21
24.5826
  0
LINE
  8
0
 10
337.373
 20
24.5826
 11
337.527
 21
24.5401
  0
LINE
  8
0
 10
337.527
 20
24.5401
 11
337.678
 21
24.49
  0
LINE
  8
0
 10
337.678
 20
24.49
 11
337.827
 21
24.4326
  0
LINE
  8
0
 10
337.827
 20
24.4326
 11
337.973
 21
24.368
  0
LINE
  8
0
 10
337.973
 20
24.368
 11
338.115
 21
24.2962
  0
LINE
  8
0
 10
338.115
 20
24.2962
 11
338.254
 21
24.2176
  0
LINE
  8
0
 10
338.254
 20
24.2176
 11
338.389
 21
24.1323
  0
LINE
  8
0
 10
338.389
 20
24.1323
 11
338.519
 21
24.0404
  0
LINE
  8
0
 10
338.519
 20
24.0404
 11
338.645
 21
23.9423
  0
LINE
  8
0
 10
338.645
 20
23.9423
 11
338.766
 21
23.8381
  0
LINE
  8
0
 10
338.766
 20
23.8381
 11
338.881
 21
23.7281
  0
LINE
  8
0
 10
338.881
 20
23.7281
 11
338.991
 21
23.6126
  0
LINE
  8
0
 10
338.991
 20
23.6126
 11
339.096
 21
23.4918
  0
LINE
  8
0
 10
339.096
 20
23.4918
 11
339.194
 21
23.366
  0
LINE
  8
0
 10
339.194
 20
23.366
 11
339.286
 21
23.2356
  0
LINE
  8
0
 10
339.286
 20
23.2356
 11
339.371
 21
23.1008
  0
LINE
  8
0
 10
339.371
 20
23.1008
 11
339.45
 21
22.962
  0
LINE
  8
0
 10
339.45
 20
22.962
 11
339.521
 21
22.8195
  0
LINE
  8
0
 10
339.521
 20
22.8195
 11
339.586
 21
22.6737
  0
LINE
  8
0
 10
339.586
 20
22.6737
 11
339.643
 21
22.5249
  0
LINE
  8
0
 10
339.643
 20
22.5249
 11
339.693
 21
22.3734
  0
LINE
  8
0
 10
339.693
 20
22.3734
 11
339.736
 21
22.2197
  0
LINE
  8
0
 10
339.736
 20
22.2197
 11
339.771
 21
22.064
  0
LINE
  8
0
 10
339.771
 20
22.064
 11
339.798
 21
21.9069
  0
LINE
  8
0
 10
339.798
 20
21.9069
 11
339.818
 21
21.7486
  0
LINE
  8
0
 10
339.818
 20
21.7486
 11
339.829
 21
21.5895
  0
LINE
  8
0
 10
339.829
 20
21.5895
 11
339.837
 21
21.2705
  0
LINE
  8
0
 10
339.837
 20
21.2705
 11
339.849
 21
21.1114
  0
LINE
  8
0
 10
339.849
 20
21.1114
 11
339.868
 21
20.9531
  0
LINE
  8
0
 10
339.868
 20
20.9531
 11
339.896
 21
20.7959
  0
LINE
  8
0
 10
339.896
 20
20.7959
 11
339.931
 21
20.6403
  0
LINE
  8
0
 10
339.931
 20
20.6403
 11
339.973
 21
20.4866
  0
LINE
  8
0
 10
339.973
 20
20.4866
 11
340.023
 21
20.3351
  0
LINE
  8
0
 10
340.023
 20
20.3351
 11
340.081
 21
20.1863
  0
LINE
  8
0
 10
340.081
 20
20.1863
 11
340.145
 21
20.0404
  0
LINE
  8
0
 10
340.145
 20
20.0404
 11
340.217
 21
19.8979
  0
LINE
  8
0
 10
340.217
 20
19.8979
 11
340.296
 21
19.7592
  0
LINE
  8
0
 10
340.296
 20
19.7592
 11
340.381
 21
19.6244
  0
LINE
  8
0
 10
340.381
 20
19.6244
 11
340.473
 21
19.494
  0
LINE
  8
0
 10
340.473
 20
19.494
 11
340.571
 21
19.3682
  0
LINE
  8
0
 10
340.571
 20
19.3682
 11
340.675
 21
19.2474
  0
LINE
  8
0
 10
340.675
 20
19.2474
 11
340.785
 21
19.1319
  0
LINE
  8
0
 10
340.785
 20
19.1319
 11
340.901
 21
19.0219
  0
LINE
  8
0
 10
340.901
 20
19.0219
 11
341.022
 21
18.9177
  0
LINE
  8
0
 10
341.022
 20
18.9177
 11
341.147
 21
18.8196
  0
LINE
  8
0
 10
341.147
 20
18.8196
 11
341.278
 21
18.7277
  0
LINE
  8
0
 10
341.278
 20
18.7277
 11
341.412
 21
18.6424
  0
LINE
  8
0
 10
341.412
 20
18.6424
 11
341.551
 21
18.5638
  0
LINE
  8
0
 10
341.551
 20
18.5638
 11
341.694
 21
18.492
  0
LINE
  8
0
 10
341.694
 20
18.492
 11
341.84
 21
18.4274
  0
LINE
  8
0
 10
341.84
 20
18.4274
 11
341.988
 21
18.37
  0
LINE
  8
0
 10
341.988
 20
18.37
 11
342.14
 21
18.3199
  0
LINE
  8
0
 10
342.14
 20
18.3199
 11
342.294
 21
18.2774
  0
LINE
  8
0
 10
342.294
 20
18.2774
 11
342.449
 21
18.2424
  0
LINE
  8
0
 10
342.449
 20
18.2424
 11
342.606
 21
18.2152
  0
LINE
  8
0
 10
342.606
 20
18.2152
 11
342.765
 21
18.1956
  0
LINE
  8
0
 10
342.765
 20
18.1956
 11
342.924
 21
18.1839
  0
LINE
  8
0
 10
342.924
 20
18.1839
 11
343.083
 21
18.18
  0
LINE
  8
0
 10
343.083
 20
18.18
 11
381.82
 21
18.18
  0
LINE
  8
0
 10
381.82
 20
18.18
 11
381.82
 21
73.5833
  0
LINE
  8
0
 10
381.82
 20
73.5833
 11
381.816
 21
73.7428
  0
LINE
  8
0
 10
381.816
 20
73.7428
 11
381.804
 21
73.9019
  0
LINE
  8
0
 10
381.804
 20
73.9019
 11
381.785
 21
74.0602
  0
LINE
  8
0
 10
381.785
 20
74.0602
 11
381.758
 21
74.2174
  0
LINE
  8
0
 10
381.758
 20
74.2174
 11
381.723
 21
74.373
  0
LINE
  8
0
 10
381.723
 20
74.373
 11
381.68
 21
74.5267
  0
LINE
  8
0
 10
381.68
 20
74.5267
 11
381.63
 21
74.6782
  0
LINE
  8
0
 10
381.63
 20
74.6782
 11
381.573
 21
74.827
  0
LINE
  8
0
 10
381.573
 20
74.827
 11
381.508
 21
74.9729
  0
LINE
  8
0
 10
381.508
 20
74.9729
 11
381.436
 21
75.1154
  0
LINE
  8
0
 10
381.436
 20
75.1154
 11
381.358
 21
75.2542
  0
LINE
  8
0
 10
381.358
 20
75.2542
 11
381.272
 21
75.3889
  0
LINE
  8
0
 10
381.272
 20
75.3889
 11
381.18
 21
75.5193
  0
LINE
  8
0
 10
381.18
 20
75.5193
 11
381.082
 21
75.6451
  0
LINE
  8
0
 10
381.082
 20
75.6451
 11
380.978
 21
75.7659
  0
LINE
  8
0
 10
380.978
 20
75.7659
 11
380.868
 21
75.8814
  0
LINE
  8
0
 10
380.868
 20
75.8814
 11
380.753
 21
75.9914
  0
LINE
  8
0
 10
380.753
 20
75.9914
 11
380.632
 21
76.0956
  0
LINE
  8
0
 10
380.632
 20
76.0956
 11
380.506
 21
76.1938
  0
LINE
  8
0
 10
380.506
 20
76.1938
 11
380.376
 21
76.2856
  0
LINE
  8
0
 10
380.376
 20
76.2856
 11
380.241
 21
76.3709
  0
LINE
  8
0
 10
380.241
 20
76.3709
 11
380.102
 21
76.4496
  0
LINE
  8
0
 10
380.102
 20
76.4496
 11
379.96
 21
76.5213
  0
LINE
  8
0
 10
379.96
 20
76.5213
 11
379.814
 21
76.5859
  0
LINE
  8
0
 10
379.814
 20
76.5859
 11
379.665
 21
76.6433
  0
LINE
  8
0
 10
379.665
 20
76.6433
 11
379.513
 21
76.6934
  0
LINE
  8
0
 10
379.513
 20
76.6934
 11
379.36
 21
76.7359
  0
LINE
  8
0
 10
379.36
 20
76.7359
 11
379.204
 21
76.7709
  0
LINE
  8
0
 10
379.204
 20
76.7709
 11
379.047
 21
76.7982
  0
LINE
  8
0
 10
379.047
 20
76.7982
 11
378.889
 21
76.8177
  0
LINE
  8
0
 10
378.889
 20
76.8177
 11
378.729
 21
76.8294
  0
LINE
  8
0
 10
378.729
 20
76.8294
 11
378.411
 21
76.8372
  0
LINE
  8
0
 10
378.411
 20
76.8372
 11
378.251
 21
76.849
  0
LINE
  8
0
 10
378.251
 20
76.849
 11
378.093
 21
76.8685
  0
LINE
  8
0
 10
378.093
 20
76.8685
 11
377.936
 21
76.8958
  0
LINE
  8
0
 10
377.936
 20
76.8958
 11
377.78
 21
76.9307
  0
LINE
  8
0
 10
377.78
 20
76.9307
 11
377.627
 21
76.9733
  0
LINE
  8
0
 10
377.627
 20
76.9733
 11
377.475
 21
77.0233
  0
LINE
  8
0
 10
377.475
 20
77.0233
 11
377.326
 21
77.0807
  0
LINE
  8
0
 10
377.326
 20
77.0807
 11
377.18
 21
77.1454
  0
LINE
  8
0
 10
377.18
 20
77.1454
 11
377.038
 21
77.2171
  0
LINE
  8
0
 10
377.038
 20
77.2171
 11
376.899
 21
77.2957
  0
LINE
  8
0
 10
376.899
 20
77.2957
 11
376.764
 21
77.381
  0
LINE
  8
0
 10
376.764
 20
77.381
 11
376.634
 21
77.4729
  0
LINE
  8
0
 10
376.634
 20
77.4729
 11
376.508
 21
77.571
  0
LINE
  8
0
 10
376.508
 20
77.571
 11
376.387
 21
77.6752
  0
LINE
  8
0
 10
376.387
 20
77.6752
 11
376.272
 21
77.7852
  0
LINE
  8
0
 10
376.272
 20
77.7852
 11
376.162
 21
77.9008
  0
LINE
  8
0
 10
376.162
 20
77.9008
 11
376.058
 21
78.0215
  0
LINE
  8
0
 10
376.058
 20
78.0215
 11
375.96
 21
78.1473
  0
LINE
  8
0
 10
375.96
 20
78.1473
 11
375.868
 21
78.2777
  0
LINE
  8
0
 10
375.868
 20
78.2777
 11
375.782
 21
78.4125
  0
LINE
  8
0
 10
375.782
 20
78.4125
 11
375.704
 21
78.5513
  0
LINE
  8
0
 10
375.704
 20
78.5513
 11
375.632
 21
78.6938
  0
LINE
  8
0
 10
375.632
 20
78.6938
 11
375.567
 21
78.8396
  0
LINE
  8
0
 10
375.567
 20
78.8396
 11
375.51
 21
78.9884
  0
LINE
  8
0
 10
375.51
 20
78.9884
 11
375.46
 21
79.1399
  0
LINE
  8
0
 10
375.46
 20
79.1399
 11
375.417
 21
79.2936
  0
LINE
  8
0
 10
375.417
 20
79.2936
 11
375.382
 21
79.4493
  0
LINE
  8
0
 10
375.382
 20
79.4493
 11
375.355
 21
79.6064
  0
LINE
  8
0
 10
375.355
 20
79.6064
 11
375.336
 21
79.7648
  0
LINE
  8
0
 10
375.336
 20
79.7648
 11
375.324
 21
79.9239
  0
LINE
  8
0
 10
375.324
 20
79.9239
 11
375.32
 21
80.0833
  0
LINE
  8
0
 10
375.32
 20
80.0833
 11
375.324
 21
80.2428
  0
LINE
  8
0
 10
375.324
 20
80.2428
 11
375.336
 21
80.4019
  0
LINE
  8
0
 10
375.336
 20
80.4019
 11
375.355
 21
80.5602
  0
LINE
  8
0
 10
375.355
 20
80.5602
 11
375.382
 21
80.7174
  0
LINE
  8
0
 10
375.382
 20
80.7174
 11
375.417
 21
80.873
  0
LINE
  8
0
 10
375.417
 20
80.873
 11
375.46
 21
81.0267
  0
LINE
  8
0
 10
375.46
 20
81.0267
 11
375.51
 21
81.1782
  0
LINE
  8
0
 10
375.51
 20
81.1782
 11
375.567
 21
81.327
  0
LINE
  8
0
 10
375.567
 20
81.327
 11
375.632
 21
81.4729
  0
LINE
  8
0
 10
375.632
 20
81.4729
 11
375.704
 21
81.6154
  0
LINE
  8
0
 10
375.704
 20
81.6154
 11
375.782
 21
81.7542
  0
LINE
  8
0
 10
375.782
 20
81.7542
 11
375.868
 21
81.8889
  0
LINE
  8
0
 10
375.868
 20
81.8889
 11
375.96
 21
82.0193
  0
LINE
  8
0
 10
375.96
 20
82.0193
 11
376.058
 21
82.1451
  0
LINE
  8
0
 10
376.058
 20
82.1451
 11
376.162
 21
82.2659
  0
LINE
  8
0
 10
376.162
 20
82.2659
 11
376.272
 21
82.3814
  0
LINE
  8
0
 10
376.272
 20
82.3814
 11
376.387
 21
82.4914
  0
LINE
  8
0
 10
376.387
 20
82.4914
 11
376.508
 21
82.5956
  0
LINE
  8
0
 10
376.508
 20
82.5956
 11
376.634
 21
82.6938
  0
LINE
  8
0
 10
376.634
 20
82.6938
 11
376.764
 21
82.7856
  0
LINE
  8
0
 10
376.764
 20
82.7856
 11
376.899
 21
82.8709
  0
LINE
  8
0
 10
376.899
 20
82.8709
 11
377.038
 21
82.9496
  0
LINE
  8
0
 10
377.038
 20
82.9496
 11
377.18
 21
83.0213
  0
LINE
  8
0
 10
377.18
 20
83.0213
 11
377.326
 21
83.0859
  0
LINE
  8
0
 10
377.326
 20
83.0859
 11
377.475
 21
83.1433
  0
LINE
  8
0
 10
377.475
 20
83.1433
 11
377.627
 21
83.1934
  0
LINE
  8
0
 10
377.627
 20
83.1934
 11
377.78
 21
83.2359
  0
LINE
  8
0
 10
377.78
 20
83.2359
 11
377.936
 21
83.2709
  0
LINE
  8
0
 10
377.936
 20
83.2709
 11
378.093
 21
83.2982
  0
LINE
  8
0
 10
378.093
 20
83.2982
 11
378.251
 21
83.3177
  0
LINE
  8
0
 10
378.251
 20
83.3177
 11
378.411
 21
83.3294
  0
LINE
  8
0
 10
378.411
 20
83.3294
 11
378.57
 21
83.3333
  0
LINE
  8
0
 10
378.57
 20
83.3333
 11
400
 21
83.3333
  0
LINE
  8
0
 10
400
 20
83.3333
 11
400
 21
416.667
  0
LINE
  8
0
 10
400
 20
416.667
 11
378.57
 21
416.667
  0
LINE
  8
0
 10
378.57
 20
416.667
 11
378.411
 21
416.671
  0
LINE
  8
0
 10
378.411
 20
416.671
 11
378.251
 21
416.682
  0
LINE
  8
0
 10
378.251
 20
416.682
 11
378.093
 21
416.702
  0
LINE
  8
0
 10
378.093
 20
416.702
 11
377.936
 21
416.729
  0
LINE
  8
0
 10
377.936
 20
416.729
 11
377.78
 21
416.764
  0
LINE
  8
0
 10
377.78
 20
416.764
 11
377.627
 21
416.807
  0
LINE
  8
0
 10
377.627
 20
416.807
 11
377.475
 21
416.857
  0
LINE
  8
0
 10
377.475
 20
416.857
 11
377.326
 21
416.914
  0
LINE
  8
0
 10
377.326
 20
416.914
 11
377.18
 21
416.979
  0
LINE
  8
0
 10
377.18
 20
416.979
 11
377.038
 21
417.05
  0
LINE
  8
0
 10
377.038
 20
417.05
 11
376.899
 21
417.129
  0
LINE
  8
0
 10
376.899
 20
417.129
 11
376.764
 21
417.214
  0
LINE
  8
0
 10
376.764
 20
417.214
 11
376.634
 21
417.306
  0
LINE
  8
0
 10
376.634
 20
417.306
 11
376.508
 21
417.404
  0
LINE
  8
0
 10
376.508
 20
417.404
 11
376.387
 21
417.509
  0
LINE
  8
0
 10
376.387
 20
417.509
 11
376.272
 21
417.619
  0
LINE
  8
0
 10
376.272
 20
417.619
 11
376.162
 21
417.734
  0
LINE
  8
0
 10
376.162
 20
417.734
 11
376.058
 21
417.855
  0
LINE
  8
0
 10
376.058
 20
417.855
 11
375.96
 21
417.981
  0
LINE
  8
0
 10
375.96
 20
417.981
 11
375.868
 21
418.111
  0
LINE
  8
0
 10
375.868
 20
418.111
 11
375.782
 21
418.246
  0
LINE
  8
0
 10
375.782
 20
418.246
 11
375.704
 21
418.385
  0
LINE
  8
0
 10
375.704
 20
418.385
 11
375.632
 21
418.527
  0
LINE
  8
0
 10
375.632
 20
418.527
 11
375.567
 21
418.673
  0
LINE
  8
0
 10
375.567
 20
418.673
 11
375.51
 21
418.822
  0
LINE
  8
0
 10
375.51
 20
418.822
 11
375.46
 21
418.973
  0
LINE
  8
0
 10
375.46
 20
418.973
 11
375.417
 21
419.127
  0
LINE
  8
0
 10
375.417
 20
419.127
 11
375.382
 21
419.283
  0
LINE
  8
0
 10
375.382
 20
419.283
 11
375.355
 21
419.44
  0
LINE
  8
0
 10
375.355
 20
419.44
 11
375.336
 21
419.598
  0
LINE
  8
0
 10
375.336
 20
419.598
 11
375.324
 21
419.757
  0
LINE
  8
0
 10
375.324
 20
419.757
 11
375.32
 21
419.917
  0
LINE
  8
0
 10
375.32
 20
419.917
 11
375.324
 21
420.076
  0
LINE
  8
0
 10
375.324
 20
420.076
 11
375.336
 21
420.235
  0
LINE
  8
0
 10
375.336
 20
420.235
 11
375.355
 21
420.394
  0
LINE
  8
0
 10
375.355
 20
420.394
 11
375.382
 21
420.551
  0
LINE
  8
0
 10
375.382
 20
420.551
 11
375.417
 21
420.706
  0
LINE
  8
0
 10
375.417
 20
420.706
 11
375.46
 21
420.86
  0
LINE
  8
0
 10
375.46
 20
420.86
 11
375.51
 21
421.012
  0
LINE
  8
0
 10
375.51
 20
421.012
 11
375.567
 21
421.16
  0
LINE
  8
0
 10
375.567
 20
421.16
 11
375.632
 21
421.306
  0
LINE
  8
0
 10
375.632
 20
421.306
 11
375.704
 21
421.449
  0
LINE
  8
0
 10
375.704
 20
421.449
 11
375.782
 21
421.587
  0
LINE
  8
0
 10
375.782
 20
421.587
 11
375.868
 21
421.722
  0
LINE
  8
0
 10
375.868
 20
421.722
 11
375.96
 21
421.853
  0
LINE
  8
0
 10
375.96
 20
421.853
 11
376.058
 21
421.978
  0
LINE
  8
0
 10
376.058
 20
421.978
 11
376.162
 21
422.099
  0
LINE
  8
0
 10
376.162
 20
422.099
 11
376.272
 21
422.215
  0
LINE
  8
0
 10
376.272
 20
422.215
 11
376.387
 21
422.325
  0
LINE
  8
0
 10
376.387
 20
422.325
 11
376.508
 21
422.429
  0
LINE
  8
0
 10
376.508
 20
422.429
 11
376.634
 21
422.527
  0
LINE
  8
0
 10
376.634
 20
422.527
 11
376.764
 21
422.619
  0
LINE
  8
0
 10
376.764
 20
422.619
 11
376.899
 21
422.704
  0
LINE
  8
0
 10
376.899
 20
422.704
 11
377.038
 21
422.783
  0
LINE
  8
0
 10
377.038
 20
422.783
 11
377.18
 21
422.855
  0
LINE
  8
0
 10
377.18
 20
422.855
 11
377.326
 21
422.919
  0
LINE
  8
0
 10
377.326
 20
422.919
 11
377.475
 21
422.977
  0
LINE
  8
0
 10
377.475
 20
422.977
 11
377.627
 21
423.027
  0
LINE
  8
0
 10
377.627
 20
423.027
 11
377.78
 21
423.069
  0
LINE
  8
0
 10
377.78
 20
423.069
 11
377.936
 21
423.104
  0
LINE
  8
0
 10
377.936
 20
423.104
 11
378.093
 21
423.131
  0
LINE
  8
0
 10
378.093
 20
423.131
 11
378.251
 21
423.151
  0
LINE
  8
0
 10
378.251
 20
423.151
 11
378.411
 21
423.163
  0
LINE
  8
0
 10
378.411
 20
423.163
 11
378.729
 21
423.171
  0
LINE
  8
0
 10
378.729
 20
423.171
 11
378.889
 21
423.182
  0
LINE
  8
0
 10
378.889
 20
423.182
 11
379.047
 21
423.202
  0
LINE
  8
0
 10
379.047
 20
423.202
 11
379.204
 21
423.229
  0
LINE
  8
0
 10
379.204
 20
423.229
 11
379.36
 21
423.264
  0
LINE
  8
0
 10
379.36
 20
423.264
 11
379.513
 21
423.307
  0
LINE
  8
0
 10
379.513
 20
423.307
 11
379.665
 21
423.357
  0
LINE
  8
0
 10
379.665
 20
423.357
 11
379.814
 21
423.414
  0
LINE
  8
0
 10
379.814
 20
423.414
 11
379.96
 21
423.479
  0
LINE
  8
0
 10
379.96
 20
423.479
 11
380.102
 21
423.55
  0
LINE
  8
0
 10
380.102
 20
423.55
 11
380.241
 21
423.629
  0
LINE
  8
0
 10
380.241
 20
423.629
 11
380.376
 21
423.714
  0
LINE
  8
0
 10
380.376
 20
423.714
 11
380.506
 21
423.806
  0
LINE
  8
0
 10
380.506
 20
423.806
 11
380.632
 21
423.904
  0
LINE
  8
0
 10
380.632
 20
423.904
 11
380.753
 21
424.009
  0
LINE
  8
0
 10
380.753
 20
424.009
 11
380.868
 21
424.119
  0
LINE
  8
0
 10
380.868
 20
424.119
 11
380.978
 21
424.234
  0
LINE
  8
0
 10
380.978
 20
424.234
 11
381.082
 21
424.355
  0
LINE
  8
0
 10
381.082
 20
424.355
 11
381.18
 21
424.481
  0
LINE
  8
0
 10
381.18
 20
424.481
 11
381.272
 21
424.611
  0
LINE
  8
0
 10
381.272
 20
424.611
 11
381.358
 21
424.746
  0
LINE
  8
0
 10
381.358
 20
424.746
 11
381.436
 21
424.885
  0
LINE
  8
0
 10
381.436
 20
424.885
 11
381.508
 21
425.027
  0
LINE
  8
0
 10
381.508
 20
425.027
 11
381.573
 21
425.173
  0
LINE
  8
0
 10
381.573
 20
425.173
 11
381.63
 21
425.322
  0
LINE
  8
0
 10
381.63
 20
425.322
 11
381.68
 21
425.473
  0
LINE
  8
0
 10
381.68
 20
425.473
 11
381.723
 21
425.627
  0
LINE
  8
0
 10
381.723
 20
425.627
 11
381.758
 21
425.783
  0
LINE
  8
0
 10
381.758
 20
425.783
 11
381.785
 21
425.94
  0
LINE
  8
0
 10
381.785
 20
425.94
 11
381.804
 21
426.098
  0
LINE
  8
0
 10
381.804
 20
426.098
 11
381.816
 21
426.257
  0
LINE
  8
0
 10
381.816
 20
426.257
 11
381.82
 21
426.417
  0
LINE
  8
0
 10
381.82
 20
426.417
 11
381.82
 21
481.82
  0
LINE
  8
0
 10
381.82
 20
481.82
 11
343.083
 21
481.82
  0
LINE
  8
0
 10
343.083
 20
481.82
 11
342.924
 21
481.816
  0
LINE
  8
0
 10
342.924
 20
481.816
 11
342.765
 21
481.804
  0
LINE
  8
0
 10
342.765
 20
481.804
 11
342.606
 21
481.785
  0
LINE
  8
0
 10
342.606
 20
481.785
 11
342.449
 21
481.758
  0
LINE
  8
0
 10
342.449
 20
481.758
 11
342.294
 21
481.723
  0
LINE
  8
0
 10
342.294
 20
481.723
 11
342.14
 21
481.68
  0
LINE
  8
0
 10
342.14
 20
481.68
 11
341.988
 21
481.63
  0
LINE
  8
0
 10
341.988
 20
481.63
 11
341.84
 21
481.573
  0
LINE
  8
0
 10
341.84
 20
481.573
 11
341.694
 21
481.508
  0
LINE
  8
0
 10
341.694
 20
481.508
 11
341.551
 21
481.436
  0
LINE
  8
0
 10
341.551
 20
481.436
 11
341.412
 21
481.358
  0
LINE
  8
0
 10
341.412
 20
481.358
 11
341.278
 21
481.272
  0
LINE
  8
0
 10
341.278
 20
481.272
 11
341.147
 21
481.18
  0
LINE
  8
0
 10
341.147
 20
481.18
 11
341.022
 21
481.082
  0
LINE
  8
0
 10
341.022
 20
481.082
 11
340.901
 21
480.978
  0
LINE
  8
0
 10
340.901
 20
480.978
 11
340.785
 21
480.868
  0
LINE
  8
0
 10
340.785
 20
480.868
 11
340.675
 21
480.753
  0
LINE
  8
0
 10
340.675
 20
480.753
 11
340.571
 21
480.632
  0
LINE
  8
0
 10
340.571
 20
480.632
 11
340.473
 21
480.506
  0
LINE
  8
0
 10
340.473
 20
480.506
 11
340.381
 21
480.376
  0
LINE
  8
0
 10
340.381
 20
480.376
 11
340.296
 21
480.241
  0
LINE
  8
0
 10
340.296
 20
480.241
 11
340.217
 21
480.102
  0
LINE
  8
0
 10
340.217
 20
480.102
 11
340.145
 21
479.96
  0
LINE
  8
0
 10
340.145
 20
479.96
 11
340.081
 21
479.814
  0
LINE
  8
0
 10
340.081
 20
479.814
 11
340.023
 21
479.665
  0
LINE
  8
0
 10
340.023
 20
479.665
 11
339.973
 21
479.513
  0
LINE
  8
0
 10
339.973
 20
479.513
 11
339.931
 21
479.36
  0
LINE
  8
0
 10
339.931
 20
479.36
 11
339.896
 21
479.204
  0
LINE
  8
0
 10
339.896
 20
479.204
 11
339.868
 21
479.047
  0
LINE
  8
0
 10
339.868
 20
479.047
 11
339.849
 21
478.889
  0
LINE
  8
0
 10
339.849
 20
478.889
 11
339.837
 21
478.729
  0
LINE
  8
0
 10
339.837
 20
478.729
 11
339.829
 21
478.411
  0
LINE
  8
0
 10
339.829
 20
478.411
 11
339.818
 21
478.251
  0
LINE
  8
0
 10
339.818
 20
478.251
 11
339.798
 21
478.093
  0
LINE
  8
0
 10
339.798
 20
478.093
 11
339.771
 21
477.936
  0
LINE
  8
0
 10
339.771
 20
477.936
 11
339.736
 21
477.78
  0
LINE
  8
0
 10
339.736
 20
477.78
 11
339.693
 21
477.627
  0
LINE
  8
0
 10
339.693
 20
477.627
 11
339.643
 21
477.475
  0
LINE
  8
0
 10
339.643
 20
477.475
 11
339.586
 21
477.326
  0
LINE
  8
0
 10
339.586
 20
477.326
 11
339.521
 21
477.18
  0
LINE
  8
0
 10
339.521
 20
477.18
 11
339.45
 21
477.038
  0
LINE
  8
0
 10
339.45
 20
477.038
 11
339.371
 21
476.899
  0
LINE
  8
0
 10
339.371
 20
476.899
 11
339.286
 21
476.764
  0
LINE
  8
0
 10
339.286
 20
476.764
 11
339.194
 21
476.634
  0
LINE
  8
0
 10
339.194
 20
476.634
 11
339.096
 21
476.508
  0
LINE
  8
0
 10
339.096
 20
476.508
 11
338.991
 21
476.387
  0
LINE
  8
0
 10
338.991
 20
476.387
 11
338.881
 21
476.272
  0
LINE
  8
0
 10
338.881
 20
476.272
 11
338.766
 21
476.162
  0
LINE
  8
0
 10
338.766
 20
476.162
 11
338.645
 21
476.058
  0
LINE
  8
0
 10
338.645
 20
476.058
 11
338.519
 21
475.96
  0
LINE
  8
0
 10
338.519
 20
475.96
 11
338.389
 21
475.868
  0
LINE
  8
0
 10
338.389
 20
475.868
 11
338.254
 21
475.782
  0
LINE
  8
0
 10
338.254
 20
475.782
 11
338.115
 21
475.704
  0
LINE
  8
0
 10
338.115
 20
475.704
 11
337.973
 21
475.632
  0
LINE
  8
0
 10
337.973
 20
475.632
 11
337.827
 21
475.567
  0
LINE
  8
0
 10
337.827
 20
475.567
 11
337.678
 21
475.51
  0
LINE
  8
0
 10
337.678
 20
475.51
 11
337.527
 21
475.46
  0
LINE
  8
0
 10
337.527
 20
475.46
 11
337.373
 21
475.417
  0
LINE
  8
0
 10
337.373
 20
475.417
 11
337.217
 21
475.382
  0
LINE
  8
0
 10
337.217
 20
475.382
 11
337.06
 21
475.355
  0
LINE
  8
0
 10
337.06
 20
475.355
 11
336.902
 21
475.336
  0
LINE
  8
0
 10
336.902
 20
475.336
 11
336.743
 21
475.324
  0
LINE
  8
0
 10
336.743
 20
475.324
 11
336.583
 21
475.32
  0
LINE
  8
0
 10
336.583
 20
475.32
 11
336.424
 21
475.324
  0
LINE
  8
0
 10
336.424
 20
475.324
 11
336.265
 21
475.336
  0
LINE
  8
0
 10
336.265
 20
475.336
 11
336.106
 21
475.355
  0
LINE
  8
0
 10
336.106
 20
475.355
 11
335.949
 21
475.382
  0
LINE
  8
0
 10
335.949
 20
475.382
 11
335.794
 21
475.417
  0
LINE
  8
0
 10
335.794
 20
475.417
 11
335.64
 21
475.46
  0
LINE
  8
0
 10
335.64
 20
475.46
 11
335.488
 21
475.51
  0
LINE
  8
0
 10
335.488
 20
475.51
 11
335.34
 21
475.567
  0
LINE
  8
0
 10
335.34
 20
475.567
 11
335.194
 21
475.632
  0
LINE
  8
0
 10
335.194
 20
475.632
 11
335.051
 21
475.704
  0
LINE
  8
0
 10
335.051
 20
475.704
 11
334.912
 21
475.782
  0
LINE
  8
0
 10
334.912
 20
475.782
 11
334.778
 21
475.868
  0
LINE
  8
0
 10
334.778
 20
475.868
 11
334.647
 21
475.96
  0
LINE
  8
0
 10
334.647
 20
475.96
 11
334.522
 21
476.058
  0
LINE
  8
0
 10
334.522
 20
476.058
 11
334.401
 21
476.162
  0
LINE
  8
0
 10
334.401
 20
476.162
 11
334.285
 21
476.272
  0
LINE
  8
0
 10
334.285
 20
476.272
 11
334.175
 21
476.387
  0
LINE
  8
0
 10
334.175
 20
476.387
 11
334.071
 21
476.508
  0
LINE
  8
0
 10
334.071
 20
476.508
 11
333.973
 21
476.634
  0
LINE
  8
0
 10
333.973
 20
476.634
 11
333.881
 21
476.764
  0
LINE
  8
0
 10
333.881
 20
476.764
 11
333.796
 21
476.899
  0
LINE
  8
0
 10
333.796
 20
476.899
 11
333.717
 21
477.038
  0
LINE
  8
0
 10
333.717
 20
477.038
 11
333.645
 21
477.18
  0
LINE
  8
0
 10
333.645
 20
477.18
 11
333.581
 21
477.326
  0
LINE
  8
0
 10
333.581
 20
477.326
 11
333.523
 21
477.475
  0
LINE
  8
0
 10
333.523
 20
477.475
 11
333.473
 21
477.627
  0
LINE
  8
0
 10
333.473
 20
477.627
 11
333.431
 21
477.78
  0
LINE
  8
0
 10
333.431
 20
477.78
 11
333.396
 21
477.936
  0
LINE
  8
0
 10
333.396
 20
477.936
 11
333.368
 21
478.093
  0
LINE
  8
0
 10
333.368
 20
478.093
 11
333.349
 21
478.251
  0
LINE
  8
0
 10
333.349
 20
478.251
 11
333.337
 21
478.411
  0
LINE
  8
0
 10
333.337
 20
478.411
 11
333.333
 21
478.57
  0
LINE
  8
0
 10
333.333
 20
478.57
 11
333.333
 21
500
  0
LINE
  8
0
 10
333.333
 20
500
 11
66.6667
 21
500
  0
LINE
  8
0
 10
66.6667
 20
500
 11
66.6667
 21
478.57
  0
LINE
  8
0
 10
66.6667
 20
478.57
 11
66.6628
 21
478.411
  0
LINE
  8
0
 10
66.6628
 20
478.411
 11
66.651
 21
478.251
  0
LINE
  8
0
 10
66.651
 20
478.251
 11
66.6315
 21
478.093
  0
LINE
  8
0
 10
66.6315
 20
478.093
 11
66.6042
 21
477.936
  0
LINE
  8
0
 10
66.6042
 20
477.936
 11
66.5693
 21
477.78
  0
LINE
  8
0
 10
66.5693
 20
477.78
 11
66.5267
 21
477.627
  0
LINE
  8
0
 10
66.5267
 20
477.627
 11
66.4767
 21
477.475
  0
LINE
  8
0
 10
66.4767
 20
477.475
 11
66.4193
 21
477.326
  0
LINE
  8
0
 10
66.4193
 20
477.326
 11
66.3546
 21
477.18
  0
LINE
  8
0
 10
66.3546
 20
477.18
 11
66.2829
 21
477.038
  0
LINE
  8
0
 10
66.2829
 20
477.038
 11
66.2043
 21
476.899
  0
LINE
  8
0
 10
66.2043
 20
476.899
 11
66.1189
 21
476.764
  0
LINE
  8
0
 10
66.1189
 20
476.764
 11
66.0271
 21
476.634
  0
LINE
  8
0
 10
66.0271
 20
476.634
 11
65.9289
 21
476.508
  0
LINE
  8
0
 10
65.9289
 20
476.508
 11
65.8248
 21
476.387
  0
LINE
  8
0
 10
65.8248
 20
476.387
 11
65.7148
 21
476.272
  0
LINE
  8
0
 10
65.7148
 20
476.272
 11
65.5992
 21
476.162
  0
LINE
  8
0
 10
65.5992
 20
476.162
 11
65.4784
 21
476.058
  0
LINE
  8
0
 10
65.4784
 20
476.058
 11
65.3527
 21
475.96
  0
LINE
  8
0
 10
65.3527
 20
475.96
 11
65.2223
 21
475.868
  0
LINE
  8
0
 10
65.2223
 20
475.868
 11
65.0875
 21
475.782
  0
LINE
  8
0
 10
65.0875
 20
475.782
 11
64.9487
 21
475.704
  0
LINE
  8
0
 10
64.9487
 20
475.704
 11
64.8062
 21
475.632
  0
LINE
  8
0
 10
64.8062
 20
475.632
 11
64.6604
 21
475.567
  0
LINE
  8
0
 10
64.6604
 20
475.567
 11
64.5116
 21
475.51
  0
LINE
  8
0
 10
64.5116
 20
475.51
 11
64.3601
 21
475.46
  0
LINE
  8
0
 10
64.3601
 20
475.46
 11
64.2063
 21
475.417
  0
LINE
  8
0
 10
64.2063
 20
475.417
 11
64.0507
 21
475.382
  0
LINE
  8
0
 10
64.0507
 20
475.382
 11
63.8935
 21
475.355
  0
LINE
  8
0
 10
63.8935
 20
475.355
 11
63.7352
 21
475.336
  0
LINE
  8
0
 10
63.7352
 20
475.336
 11
63.5761
 21
475.324
  0
LINE
  8
0
 10
63.5761
 20
475.324
 11
63.4167
 21
475.32
  0
LINE
  8
0
 10
63.4167
 20
475.32
 11
63.2572
 21
475.324
  0
LINE
  8
0
 10
63.2572
 20
475.324
 11
63.0981
 21
475.336
  0
LINE
  8
0
 10
63.0981
 20
475.336
 11
62.9398
 21
475.355
  0
LINE
  8
0
 10
62.9398
 20
475.355
 11
62.7826
 21
475.382
  0
LINE
  8
0
 10
62.7826
 20
475.382
 11
62.627
 21
475.417
  0
LINE
  8
0
 10
62.627
 20
475.417
 11
62.4732
 21
475.46
  0
LINE
  8
0
 10
62.4732
 20
475.46
 11
62.3218
 21
475.51
  0
LINE
  8
0
 10
62.3218
 20
475.51
 11
62.1729
 21
475.567
  0
LINE
  8
0
 10
62.1729
 20
475.567
 11
62.0271
 21
475.632
  0
LINE
  8
0
 10
62.0271
 20
475.632
 11
61.8846
 21
475.704
  0
LINE
  8
0
 10
61.8846
 20
475.704
 11
61.7458
 21
475.782
  0
LINE
  8
0
 10
61.7458
 20
475.782
 11
61.6111
 21
475.868
  0
LINE
  8
0
 10
61.6111
 20
475.868
 11
61.4806
 21
475.96
  0
LINE
  8
0
 10
61.4806
 20
475.96
 11
61.3549
 21
476.058
  0
LINE
  8
0
 10
61.3549
 20
476.058
 11
61.2341
 21
476.162
  0
LINE
  8
0
 10
61.2341
 20
476.162
 11
61.1186
 21
476.272
  0
LINE
  8
0
 10
61.1186
 20
476.272
 11
61.0086
 21
476.387
  0
LINE
  8
0
 10
61.0086
 20
476.387
 11
60.9044
 21
476.508
  0
LINE
  8
0
 10
60.9044
 20
476.508
 11
60.8062
 21
476.634
  0
LINE
  8
0
 10
60.8062
 20
476.634
 11
60.7144
 21
476.764
  0
LINE
  8
0
 10
60.7144
 20
476.764
 11
60.629
 21
476.899
  0
LINE
  8
0
 10
60.629
 20
476.899
 11
60.5504
 21
477.038
  0
LINE
  8
0
 10
60.5504
 20
477.038
 11
60.4787
 21
477.18
  0
LINE
  8
0
 10
60.4787
 20
477.18
 11
60.414
 21
477.326
  0
LINE
  8
0
 10
60.414
 20
477.326
 11
60.3566
 21
477.475
  0
LINE
  8
0
 10
60.3566
 20
477.475
 11
60.3066
 21
477.627
  0
LINE
  8
0
 10
60.3066
 20
477.627
 11
60.2641
 21
477.78
  0
LINE
  8
0
 10
60.2641
 20
477.78
 11
60.2291
 21
477.936
  0
LINE
  8
0
 10
60.2291
 20
477.936
 11
60.2018
 21
478.093
  0
LINE
  8
0
 10
60.2018
 20
478.093
 11
60.1823
 21
478.251
  0
LINE
  8
0
 10
60.1823
 20
478.251
 11
60.1706
 21
478.411
  0
LINE
  8
0
 10
60.1706
 20
478.411
 11
60.1628
 21
478.729
  0
LINE
  8
0
 10
60.1628
 20
478.729
 11
60.151
 21
478.889
  0
LINE
  8
0
 10
60.151
 20
478.889
 11
60.1315
 21
479.047
  0
LINE
  8
0
 10
60.1315
 20
479.047
 11
60.1042
 21
479.204
  0
LINE
  8
0
 10
60.1042
 20
479.204
 11
60.0693
 21
479.36
  0
LINE
  8
0
 10
60.0693
 20
479.36
 11
60.0267
 21
479.513
  0
LINE
  8
0
 10
60.0267
 20
479.513
 11
59.9767
 21
479.665
  0
LINE
  8
0
 10
59.9767
 20
479.665
 11
59.9193
 21
479.814
  0
LINE
  8
0
 10
59.9193
 20
479.814
 11
59.8546
 21
479.96
  0
LINE
  8
0
 10
59.8546
 20
479.96
 11
59.7829
 21
480.102
  0
LINE
  8
0
 10
59.7829
 20
480.102
 11
59.7043
 21
480.241
  0
LINE
  8
0
 10
59.7043
 20
480.241
 11
59.6189
 21
480.376
  0
LINE
  8
0
 10
59.6189
 20
480.376
 11
59.5271
 21
480.506
  0
LINE
  8
0
 10
59.5271
 20
480.506
 11
59.4289
 21
480.632
  0
LINE
  8
0
 10
59.4289
 20
480.632
 11
59.3248
 21
480.753
  0
LINE
  8
0
 10
59.3248
 20
480.753
 11
59.2148
 21
480.868
  0
LINE
  8
0
 10
59.2148
 20
480.868
 11
59.0992
 21
480.978
  0
LINE
  8
0
 10
59.0992
 20
480.978
 11
58.9784
 21
481.082
  0
LINE
  8
0
 10
58.9784
 20
481.082
 11
58.8527
 21
481.18
  0
LINE
  8
0
 10
58.8527
 20
481.18
 11
58.7223
 21
481.272
  0
LINE
  8
0
 10
58.7223
 20
481.272
 11
58.5875
 21
481.358
  0
LINE
  8
0
 10
58.5875
 20
481.358
 11
58.4487
 21
481.436
  0
LINE
  8
0
 10
58.4487
 20
481.436
 11
58.3062
 21
481.508
  0
LINE
  8
0
 10
58.3062
 20
481.508
 11
58.1604
 21
481.573
  0
LINE
  8
0
 10
58.1604
 20
481.573
 11
58.0116
 21
481.63
  0
LINE
  8
0
 10
58.0116
 20
481.63
 11
57.8601
 21
481.68
  0
LINE
  8
0
 10
57.8601
 20
481.68
 11
57.7063
 21
481.723
  0
LINE
  8
0
 10
57.7063
 20
481.723
 11
57.5507
 21
481.758
  0
LINE
  8
0
 10
57.5507
 20
481.758
 11
57.3935
 21
481.785
  0
LINE
  8
0
 10
57.3935
 20
481.785
 11
57.2352
 21
481.804
  0
LINE
  8
0
 10
57.2352
 20
481.804
 11
57.0761
 21
481.816
  0
LINE
  8
0
 10
57.0761
 20
481.816
 11
56.9167
 21
481.82
  0
LINE
  8
0
 10
56.9167
 20
481.82
 11
18.18
 21
481.82
  0
LINE
  8
0
 10
18.18
 20
481.82
 11
18.18
 21
426.417
  0
LINE
  8
0
 10
18.18
 20
426.417
 11
18.1839
 21
426.257
  0
LINE
  8
0
 10
18.1839
 20
426.257
 11
18.1956
 21
426.098
  0
LINE
  8
0
 10
18.1956
 20
426.098
 11
18.2152
 21
425.94
  0
LINE
  8
0
 10
18.2152
 20
425.94
 11
18.2424
 21
425.783
  0
LINE
  8
0
 10
18.2424
 20
425.783
 11
18.2774
 21
425.627
  0
LINE
  8
0
 10
18.2774
 20
425.627
 11
18.3199
 21
425.473
  0
LINE
  8
0
 10
18.3199
 20
425.473
 11
18.37
 21
425.322
  0
LINE
  8
0
 10
18.37
 20
425.322
 11
18.4274
 21
425.173
  0
LINE
  8
0
 10
18.4274
 20
425.173
 11
18.492
 21
425.027
  0
LINE
  8
0
 10
18.492
 20
425.027
 11
18.5638
 21
424.885
  0
LINE
  8
0
 10
18.5638
 20
424.885
 11
18.6424
 21
424.746
  0
LINE
  8
0
 10
18.6424
 20
424.746
 11
18.7277
 21
424.611
  0
LINE
  8
0
 10
18.7277
 20
424.611
 11
18.8196
 21
424.481
  0
LINE
  8
0
 10
18.8196
 20
424.481
 11
18.9177
 21
424.355
  0
LINE
  8
0
 10
18.9177
 20
424.355
 11
19.0219
 21
424.234
  0
LINE
  8
0
 10
19.0219
 20
424.234
 11
19.1319
 21
424.119
  0
LINE
  8
0
 10
19.1319
 20
424.119
 11
19.2474
 21
424.009
  0
LINE
  8
0
 10
19.2474
 20
424.009
 11
19.3682
 21
423.904
  0
LINE
  8
0
 10
19.3682
 20
423.904
 11
19.494
 21
423.806
  0
LINE
  8
0
 10
19.494
 20
423.806
 11
19.6244
 21
423.714
  0
LINE
  8
0
 10
19.6244
 20
423.714
 11
19.7592
 21
423.629
  0
LINE
  8
0
 10
19.7592
 20
423.629
 11
19.8979
 21
423.55
  0
LINE
  8
0
 10
19.8979
 20
423.55
 11
20.0404
 21
423.479
  0
LINE
  8
0
 10
20.0404
 20
423.479
 11
20.1863
 21
423.414
  0
LINE
  8
0
 10
20.1863
 20
423.414
 11
20.3351
 21
423.357
  0
LINE
  8
0
 10
20.3351
 20
423.357
 11
20.4866
 21
423.307
  0
LINE
  8
0
 10
20.4866
 20
423.307
 11
20.6403
 21
423.264
  0
LINE
  8
0
 10
20.6403
 20
423.264
 11
20.7959
 21
423.229
  0
LINE
  8
0
 10
20.7959
 20
423.229
 11
20.9531
 21
423.202
  0
LINE
  8
0
 10
20.9531
 20
423.202
 11
21.1114
 21
423.182
  0
LINE
  8
0
 10
21.1114
 20
423.182
 11
21.2705
 21
423.171
  0
LINE
  8
0
 10
21.2705
 20
423.171
 11
21.5895
 21
423.163
  0
LINE
  8
0
 10
21.5895
 20
423.163
 11
21.7486
 21
423.151
  0
LINE
  8
0
 10
21.7486
 20
423.151
 11
21.9069
 21
423.131
  0
LINE
  8
0
 10
21.9069
 20
423.131
 11
22.064
 21
423.104
  0
LINE
  8
0
 10
22.064
 20
423.104
 11
22.2197
 21
423.069
  0
LINE
  8
0
 10
22.2197
 20
423.069
 11
22.3734
 21
423.027
  0
LINE
  8
0
 10
22.3734
 20
423.027
 11
22.5249
 21
422.977
  0
LINE
  8
0
 10
22.5249
 20
422.977
 11
22.6737
 21
422.919
  0
LINE
  8
0
 10
22.6737
 20
422.919
 11
22.8195
 21
422.855
  0
LINE
  8
0
 10
22.8195
 20
422.855
 11
22.962
 21
422.783
  0
LINE
  8
0
 10
22.962
 20
422.783
 11
23.1008
 21
422.704
  0
LINE
  8
0
 10
23.1008
 20
422.704
 11
23.2356
 21
422.619
  0
LINE
  8
0
 10
23.2356
 20
422.619
 11
23.366
 21
422.527
  0
LINE
  8
0
 10
23.366
 20
422.527
 11
23.4918
 21
422.429
  0
LINE
  8
0
 10
23.4918
 20
422.429
 11
23.6126
 21
422.325
  0
LINE
  8
0
 10
23.6126
 20
422.325
 11
23.7281
 21
422.215
  0
LINE
  8
0
 10
23.7281
 20
422.215
 11
23.8381
 21
422.099
  0
LINE
  8
0
 10
23.8381
 20
422.099
 11
23.9423
 21
421.978
  0
LINE
  8
0
 10
23.9423
 20
421.978
 11
24.0404
 21
421.853
  0
LINE
  8
0
 10
24.0404
 20
421.853
 11
24.1323
 21
421.722
  0
LINE
  8
0
 10
24.1323
 20
421.722
 11
24.2176
 21
421.587
  0
LINE
  8
0
 10
24.2176
 20
421.587
 11
24.2962
 21
421.449
  0
LINE
  8
0
 10
24.2962
 20
421.449
 11
24.368
 21
421.306
  0
LINE
  8
0
 10
24.368
 20
421.306
 11
24.4326
 21
421.16
  0
LINE
  8
0
 10
24.4326
 20
421.16
 11
24.49
 21
421.012
  0
LINE
  8
0
 10
24.49
 20
421.012
 11
24.5401
 21
420.86
  0
LINE
  8
0
 10
24.5401
 20
420.86
 11
24.5826
 21
420.706
  0
LINE
  8
0
 10
24.5826
 20
420.706
 11
24.6175
 21
420.551
  0
LINE
  8
0
 10
24.6175
 20
420.551
 11
24.6448
 21
420.394
  0
LINE
  8
0
 10
24.6448
 20
420.394
 11
24.6643
 21
420.235
  0
LINE
  8
0
 10
24.6643
 20
420.235
 11
24.6761
 21
420.076
  0
LINE
  8
0
 10
24.6761
 20
420.076
 11
24.68
 21
419.917
  0
LINE
  8
0
 10
24.68
 20
419.917
 11
24.6761
 21
419.757
  0
LINE
  8
0
 10
24.6761
 20
419.757
 11
24.6643
 21
419.598
  0
LINE
  8
0
 10
24.6643
 20
419.598
 11
24.6448
 21
419.44
  0
LINE
  8
0
 10
24.6448
 20
419.44
 11
24.6175
 21
419.283
  0
LINE
  8
0
 10
24.6175
 20
419.283
 11
24.5826
 21
419.127
  0
LINE
  8
0
 10
24.5826
 20
419.127
 11
24.5401
 21
418.973
  0
LINE
  8
0
 10
24.5401
 20
418.973
 11
24.49
 21
418.822
  0
LINE
  8
0
 10
24.49
 20
418.822
 11
24.4326
 21
418.673
  0
LINE
  8
0
 10
24.4326
 20
418.673
 11
24.368
 21
418.527
  0
LINE
  8
0
 10
24.368
 20
418.527
 11
24.2962
 21
418.385
  0
LINE
  8
0
 10
24.2962
 20
418.385
 11
24.2176
 21
418.246
  0
LINE
  8
0
 10
24.2176
 20
418.246
 11
24.1323
 21
418.111
  0
LINE
  8
0
 10
24.1323
 20
418.111
 11
24.0404
 21
417.981
  0
LINE
  8
0
 10
24.0404
 20
417.981
 11
23.9423
 21
417.855
  0
LINE
  8
0
 10
23.9423
 20
417.855
 11
23.8381
 21
417.734
  0
LINE
  8
0
 10
23.8381
 20
417.734
 11
23.7281
 21
417.619
  0
LINE
  8
0
 10
23.7281
 20
417.619
 11
23.6126
 21
417.509
  0
LINE
  8
0
 10
23.6126
 20
417.509
 11
23.4918
 21
417.404
  0
LINE
  8
0
 10
23.4918
 20
417.404
 11
23.366
 21
417.306
  0
LINE
  8
0
 10
23.366
 20
417.306
 11
23.2356
 21
417.214
  0
LINE
  8
0
 10
23.2356
 20
417.214
 11
23.1008
 21
417.129
  0
LINE
  8
0
 10
23.1008
 20
417.129
 11
22.962
 21
417.05
  0
LINE
  8
0
 10
22.962
 20
417.05
 11
22.8195
 21
416.979
  0
LINE
  8
0
 10
22.8195
 20
416.979
 11
22.6737
 21
416.914
  0
LINE
  8
0
 10
22.6737
 20
416.914
 11
22.5249
 21
416.857
  0
LINE
  8
0
 10
22.5249
 20
416.857
 11
22.3734
 21
416.807
  0
LINE
  8
0
 10
22.3734
 20
416.807
 11
22.2197
 21
416.764
  0
LINE
  8
0
 10
22.2197
 20
416.764
 11
22.064
 21
416.729
  0
LINE
  8
0
 10
22.064
 20
416.729
 11
21.9069
 21
416.702
  0
LINE
  8
0
 10
21.9069
 20
416.702
 11
21.7486
 21
416.682
  0
LINE
  8
0
 10
21.7486
 20
416.682
 11
21.5895
 21
416.671
  0
LINE
  8
0
 10
21.5895
 20
416.671
 11
21.43
 21
416.667
  0
LINE
  8
0
 10
21.43
 20
416.667
 11
0
 21
416.667
  0
LINE
  8
0
 10
0
 20
416.667
 11
0
 21
83.3333
  0
LINE
  8
0
 10
0
 20
83.3333
 11
21.43
 21
83.3333
  0
LINE
  8
0
 10
21.43
 20
83.3333
 11
21.5895
 21
83.3294
  0
LINE
  8
0
 10
21.5895
 20
83.3294
 11
21.7486
 21
83.3177
  0
LINE
  8
0
 10
21.7486
 20
83.3177
 11
21.9069
 21
83.2982
  0
LINE
  8
0
 10
21.9069
 20
83.2982
 11
22.064
 21
83.2709
  0
LINE
  8
0
 10
22.064
 20
83.2709
 11
22.2197
 21
83.2359
  0
LINE
  8
0
 10
22.2197
 20
83.2359
 11
22.3734
 21
83.1934
  0
LINE
  8
0
 10
22.3734
 20
83.1934
 11
22.5249
 21
83.1433
  0
LINE
  8
0
 10
22.5249
 20
83.1433
 11
22.6737
 21
83.0859
  0
LINE
  8
0
 10
22.6737
 20
83.0859
 11
22.8195
 21
83.0213
  0
LINE
  8
0
 10
22.8195
 20
83.0213
 11
22.962
 21
82.9496
  0
LINE
  8
0
 10
22.962
 20
82.9496
 11
23.1008
 21
82.8709
  0
LINE
  8
0
 10
23.1008
 20
82.8709
 11
23.2356
 21
82.7856
  0
LINE
  8
0
 10
23.2356
 20
82.7856
 11
23.366
 21
82.6938
  0
LINE
  8
0
 10
23.366
 20
82.6938
 11
23.4918
 21
82.5956
  0
LINE
  8
0
 10
23.4918
 20
82.5956
 11
23.6126
 21
82.4914
  0
LINE
  8
0
 10
23.6126
 20
82.4914
 11
23.7281
 21
82.3814
  0
LINE
  8
0
 10
23.7281
 20
82.3814
 11
23.8381
 21
82.2659
  0
LINE
  8
0
 10
23.8381
 20
82.2659
 11
23.9423
 21
82.1451
  0
LINE
  8
0
 10
23.9423
 20
82.1451
 11
24.0404
 21
82.0193
  0
LINE
  8
0
 10
24.0404
 20
82.0193
 11
24.1323
 21
81.8889
  0
LINE
  8
0
 10
24.1323
 20
81.8889
 11
24.2176
 21
81.7542
  0
LINE
  8
0
 10
24.2176
 20
81.7542
 11
24.2962
 21
81.6154
  0
LINE
  8
0
 10
24.2962
 20
81.6154
 11
24.368
 21
81.4729
  0
LINE
  8
0
 10
24.368
 20
81.4729
 11
24.4326
 21
81.327
  0
LINE
  8
0
 10
24.4326
 20
81.327
 11
24.49
 21
81.1782
  0
LINE
  8
0
 10
24.49
 20
81.1782
 11
24.5401
 21
81.0267
  0
LINE
  8
0
 10
24.5401
 20
81.0267
 11
24.5826
 21
80.873
  0
LINE
  8
0
 10
24.5826
 20
80.873
 11
24.6175
 21
80.7174
  0
LINE
  8
0
 10
24.6175
 20
80.7174
 11
24.6448
 21
80.5602
  0
LINE
  8
0
 10
24.6448
 20
80.5602
 11
24.6643
 21
80.4019
  0
LINE
  8
0
 10
24.6643
 20
80.4019
 11
24.6761
 21
80.2428
  0
LINE
  8
0
 10
24.6761
 20
80.2428
 11
24.68
 21
80.0833
  0
LINE
  8
0
 10
24.68
 20
80.0833
 11
24.6761
 21
79.9239
  0
LINE
  8
0
 10
24.6761
 20
79.9239
 11
24.6643
 21
79.7648
  0
LINE
  8
0
 10
24.6643
 20
79.7648
 11
24.6448
 21
79.6064
  0
LINE
  8
0
 10
24.6448
 20
79.6064
 11
24.6175
 21
79.4493
  0
LINE
  8
0
 10
24.6175
 20
79.4493
 11
24.5826
 21
79.2936
  0
LINE
  8
0
 10
24.5826
 20
79.2936
 11
24.5401
 21
79.1399
  0
LINE
  8
0
 10
24.5401
 20
79.1399
 11
24.49
 21
78.9884
  0
LINE
  8
0
 10
24.49
 20
78.9884
 11
24.4326
 21
78.8396
  0
LINE
  8
0
 10
24.4326
 20
78.8396
 11
24.368
 21
78.6938
  0
LINE
  8
0
 10
24.368
 20
78.6938
 11
24.2962
 21
78.5513
  0
LINE
  8
0
 10
24.2962
 20
78.5513
 11
24.2176
 21
78.4125
  0
LINE
  8
0
 10
24.2176
 20
78.4125
 11
24.1323
 21
78.2777
  0
LINE
  8
0
 10
24.1323
 20
78.2777
 11
24.0404
 21
78.1473
  0
LINE
  8
0
 10
24.0404
 20
78.1473
 11
23.9423
 21
78.0215
  0
LINE
  8
0
 10
23.9423
 20
78.0215
 11
23.8381
 21
77.9008
  0
LINE
  8
0
 10
23.8381
 20
77.9008
 11
23.7281
 21
77.7852
  0
LINE
  8
0
 10
23.7281
 20
77.7852
 11
23.6126
 21
77.6752
  0
LINE
  8
0
 10
23.6126
 20
77.6752
 11
23.4918
 21
77.571
  0
LINE
  8
0
 10
23.4918
 20
77.571
 11
23.366
 21
77.4729
  0
LINE
  8
0
 10
23.366
 20
77.4729
 11
23.2356
 21
77.381
  0
LINE
  8
0
 10
23.2356
 20
77.381
 11
23.1008
 21
77.2957
  0
LINE
  8
0
 10
23.1008
 20
77.2957
 11
22.962
 21
77.2171
  0
LINE
  8
0
 10
22.962
 20
77.2171
 11
22.8195
 21
77.1454
  0
LINE
  8
0
 10
22.8195
 20
77.1454
 11
22.6737
 21
77.0807
  0
LINE
  8
0
 10
22.6737
 20
77.0807
 11
22.5249
 21
77.0233
  0
LINE
  8
0
 10
22.5249
 20
77.0233
 11
22.3734
 21
76.9733
  0
LINE
  8
0
 10
22.3734
 20
76.9733
 11
22.2197
 21
76.9307
  0
LINE
  8
0
 10
22.2197
 20
76.9307
 11
22.064
 21
76.8958
  0
LINE
  8
0
 10
22.064
 20
76.8958
 11
21.9069
 21
76.8685
  0
LINE
  8
0
 10
21.9069
 20
76.8685
 11
21.7486
 21
76.849
  0
LINE
  8
0
 10
21.7486
 20
76.849
 11
21.5895
 21
76.8372
  0
LINE
  8
0
 10
21.5895
 20
76.8372
 11
21.2705
 21
76.8294
  0
LINE
  8
0
 10
21.2705
 20
76.8294
 11
21.1114
 21
76.8177
  0
LINE
  8
0
 10
21.1114
 20
76.8177
 11
20.9531
 21
76.7982
  0
LINE
  8
0
 10
20.9531
 20
76.7982
 11
20.7959
 21
76.7709
  0
LINE
  8
0
 10
20.7959
 20
76.7709
 11
20.6403
 21
76.7359
  0
LINE
  8
0
 10
20.6403
 20
76.7359
 11
20.4866
 21
76.6934
  0
LINE
  8
0
 10
20.4866
 20
76.6934
 11
20.3351
 21
76.6433
  0
LINE
  8
0
 10
20.3351
 20
76.6433
 11
20.1863
 21
76.5859
  0
LINE
  8
0
 10
20.1863
 20
76.5859
 11
20.0404
 21
76.5213
  0
LINE
  8
0
 10
20.0404
 20
76.5213
 11
19.8979
 21
76.4496
  0
LINE
  8
0
 10
19.8979
 20
76.4496
 11
19.7592
 21
76.3709
  0
LINE
  8
0
 10
19.7592
 20
76.3709
 11
19.6244
 21
76.2856
  0
LINE
  8
0
 10
19.6244
 20
76.2856
 11
19.494
 21
76.1938
  0
LINE
  8
0
 10
19.494
 20
76.1938
 11
19.3682
 21
76.0956
  0
LINE
  8
0
 10
19.3682
 20
76.0956
 11
19.2474
 21
75.9914
  0
LINE
  8
0
 10
19.2474
 20
75.9914
 11
19.1319
 21
75.8814
  0
LINE
  8
0
 10
19.1319
 20
75.8814
 11
19.0219
 21
75.7659
  0
LINE
  8
0
 10
19.0219
 20
75.7659
 11
18.9177
 21
75.6451
  0
LINE
  8
0
 10
18.9177
 20
75.6451
 11
18.8196
 21
75.5193
  0
LINE
  8
0
 10
18.8196
 20
75.5193
 11
18.7277
 21
75.3889
  0
LINE
  8
0
 10
18.7277
 20
75.3889
 11
18.6424
 21
75.2542
  0
LINE
  8
0
 10
18.6424
 20
75.2542
 11
18.5638
 21
75.1154
  0
LINE
  8
0
 10
18.5638
 20
75.1154
 11
18.492
 21
74.9729
  0
LINE
  8
0
 10
18.492
 20
74.9729
 11
18.4274
 21
74.827
  0
LINE
  8
0
 10
18.4274
 20
74.827
 11
18.37
 21
74.6782
  0
LINE
  8
0
 10
18.37
 20
74.6782
 11
18.3199
 21
74.5267
  0
LINE
  8
0
 10
18.3199
 20
74.5267
 11
18.2774
 21
74.373
  0
LINE
  8
0
 10
18.2774
 20
74.373
 11
18.2424
 21
74.2174
  0
LINE
  8
0
 10
18.2424
 20
74.2174
 11
18.2152
 21
74.0602
  0
LINE
  8
0
 10
18.2152
 20
74.0602
 11
18.1956
 21
73.9019
  0
LINE
  8
0
 10
18.1956
 20
73.9019
 11
18.1839
 21
73.7428
  0
LINE
  8
0
 10
18.1839
 20
73.7428
 11
18.18
 21
73.5833
  0
LINE
  8
0
 10
18.18
 20
73.5833
 11
18.18
 21
18.18
  0
LINE
  8
0
 10
18.18
 20
18.18
 11
56.9167
 21
18.18
  0
LINE
  8
0
 10
56.9167
 20
18.18
 11
57.0761
 21
18.1839
  0
LINE
  8
0
 10
57.0761
 20
18.1839
 11
57.2352
 21
18.1956
  0
LINE
  8
0
 10
57.2352
 20
18.1956
 11
57.3935
 21
18.2152
  0
LINE
  8
0
 10
57.3935
 20
18.2152
 11
57.5507
 21
18.2424
  0
LINE
  8
0
 10
57.5507
 20
18.2424
 11
57.7063
 21
18.2774
  0
LINE
  8
0
 10
57.7063
 20
18.2774
 11
57.8601
 21
18.3199
  0
LINE
  8
0
 10
57.8601
 20
18.3199
 11
58.0116
 21
18.37
  0
LINE
  8
0
 10
58.0116
 20
18.37
 11
58.1604
 21
18.4274
  0
LINE
  8
0
 10
58.1604
 20
18.4274
 11
58.3062
 21
18.492
  0
LINE
  8
0
 10
58.3062
 20
18.492
 11
58.4487
 21
18.5638
  0
LINE
  8
0
 10
58.4487
 20
18.5638
 11
58.5875
 21
18.6424
  0
LINE
  8
0
 10
58.5875
 20
18.6424
 11
58.7223
 21
18.7277
  0
LINE
  8
0
 10
58.7223
 20
18.7277
 11
58.8527
 21
18.8196
  0
LINE
  8
0
 10
58.8527
 20
18.8196
 11
58.9784
 21
18.9177
  0
LINE
  8
0
 10
58.9784
 20
18.9177
 11
59.0992
 21
19.0219
  0
LINE
  8
0
 10
59.0992
 20
19.0219
 11
59.2148
 21
19.1319
  0
LINE
  8
0
 10
59.2148
 20
19.1319
 11
59.3248
 21
19.2474
  0
LINE
  8
0
 10
59.3248
 20
19.2474
 11
59.4289
 21
19.3682
  0
LINE
  8
0
 10
59.4289
 20
19.3682
 11
59.5271
 21
19.494
  0
LINE
  8
0
 10
59.5271
 20
19.494
 11
59.6189
 21
19.6244
  0
LINE
  8
0
 10
59.6189
 20
19.6244
 11
59.7043
 21
19.7592
  0
LINE
  8
0
 10
59.7043
 20
19.7592
 11
59.7829
 21
19.8979
  0
LINE
  8
0
 10
59.7829
 20
19.8979
 11
59.8546
 21
20.0404
  0
LINE
  8
0
 10
59.8546
 20
20.0404
 11
59.9193
 21
20.1863
  0
LINE
  8
0
 10
59.9193
 20
20.1863
 11
59.9767
 21
20.3351
  0
LINE
  8
0
 10
59.9767
 20
20.3351
 11
60.0267
 21
20.4866
  0
LINE
  8
0
 10
60.0267
 20
20.4866
 11
60.0693
 21
20.6403
  0
LINE
  8
0
 10
60.0693
 20
20.6403
 11
60.1042
 21
20.7959
  0
LINE
  8
0
 10
60.1042
 20
20.7959
 11
60.1315
 21
20.9531
  0
LINE
  8
0
 10
60.1315
 20
20.9531
 11
60.151
 21
21.1114
  0
LINE
  8
0
 10
60.151
 20
21.1114
 11
60.1628
 21
21.2705
  0
LINE
  8
0
 10
60.1628
 20
21.2705
 11
60.1706
 21
21.5895
  0
LINE
  8
0
 10
60.1706
 20
21.5895
 11
60.1823
 21
21.7486
  0
LINE
  8
0
 10
60.1823
 20
21.7486
 11
60.2018
 21
21.9069
  0
LINE
  8
0
 10
60.2018
 20
21.9069
 11
60.2291
 21
22.064
  0
LINE
  8
0
 10
60.2291
 20
22.064
 11
60.2641
 21
22.2197
  0
LINE
  8
0
 10
60.2641
 20
22.2197
 11
60.3066
 21
22.3734
  0
LINE
  8
0
 10
60.3066
 20
22.3734
 11
60.3566
 21
22.5249
  0
LINE
  8
0
 10
60.3566
 20
22.5249
 11
60.414
 21
22.6737
  0
LINE
  8
0
 10
60.414
 20
22.6737
 11
60.4787
 21
22.8195
  0
LINE
  8
0
 10
60.4787
 20
22.8195
 11
60.5504
 21
22.962
  0
LINE
  8
0
 10
60.5504
 20
22.962
 11
60.629
 21
23.1008
  0
LINE
  8
0
 10
60.629
 20
23.1008
 11
60.7144
 21
23.2356
  0
LINE
  8
0
 10
60.7144
 20
23.2356
 11
60.8062
 21
23.366
  0
LINE
  8
0
 10
60.8062
 20
23.366
 11
60.9044
 21
23.4918
  0
LINE
  8
0
 10
60.9044
 20
23.4918
 11
61.0086
 21
23.6126
  0
LINE
  8
0
 10
61.0086
 20
23.6126
 11
61.1186
 21
23.7281
  0
LINE
  8
0
 10
61.1186
 20
23.7281
 11
61.2341
 21
23.8381
  0
LINE
  8
0
 10
61.2341
 20
23.8381
 11
61.3549
 21
23.9423
  0
LINE
  8
0
 10
61.3549
 20
23.9423
 11
61.4806
 21
24.0404
  0
LINE
  8
0
 10
61.4806
 20
24.0404
 11
61.6111
 21
24.1323
  0
LINE
  8
0
 10
61.6111
 20
24.1323
 11
61.7458
 21
24.2176
  0
LINE
  8
0
 10
61.7458
 20
24.2176
 11
61.8846
 21
24.2962
  0
LINE
  8
0
 10
61.8846
 20
24.2962
 11
62.0271
 21
24.368
  0
LINE
  8
0
 10
62.0271
 20
24.368
 11
62.1729
 21
24.4326
  0
LINE
  8
0
 10
62.1729
 20
24.4326
 11
62.3218
 21
24.49
  0
LINE
  8
0
 10
62.3218
 20
24.49
 11
62.4732
 21
24.5401
  0
LINE
  8
0
 10
62.4732
 20
24.5401
 11
62.627
 21
24.5826
  0
LINE
  8
0
 10
62.627
 20
24.5826
 11
62.7826
 21
24.6175
  0
LINE
  8
0
 10
62.7826
 20
24.6175
 11
62.9398
 21
24.6448
  0
LINE
  8
0
 10
62.9398
 20
24.6448
 11
63.0981
 21
24.6643
  0
LINE
  8
0
 10
63.0981
 20
24.6643
 11
63.2572
 21
24.6761
  0
LINE
  8
0
 10
63.2572
 20
24.6761
 11
63.4167
 21
24.68
  0
LINE
  8
0
 10
63.4167
 20
24.68
 11
63.5761
 21
24.6761
  0
LINE
  8
0
 10
63.5761
 20
24.6761
 11
63.7352
 21
24.6643
  0
LINE
  8
0
 10
63.7352
 20
24.6643
 11
63.8935
 21
24.6448
  0
LINE
  8
0
 10
63.8935
 20
24.6448
 11
64.0507
 21
24.6175
  0
LINE
  8
0
 10
64.0507
 20
24.6175
 11
64.2063
 21
24.5826
  0
LINE
  8
0
 10
64.2063
 20
24.5826
 11
64.3601
 21
24.5401
  0
LINE
  8
0
 10
64.3601
 20
24.5401
 11
64.5116
 21
24.49
  0
LINE
  8
0
 10
64.5116
 20
24.49
 11
64.6604
 21
24.4326
  0
LINE
  8
0
 10
64.6604
 20
24.4326
 11
64.8062
 21
24.368
  0
LINE
  8
0
 10
64.8062
 20
24.368
 11
64.9487
 21
24.2962
  0
LINE
  8
0
 10
64.9487
 20
24.2962
 11
65.0875
 21
24.2176
  0
LINE
  8
0
 10
65.0875
 20
24.2176
 11
65.2223
 21
24.1323
  0
LINE
  8
0
 10
65.2223
 20
24.1323
 11
65.3527
 21
24.0404
  0
LINE
  8
0
 10
65.3527
 20
24.0404
 11
65.4784
 21
23.9423
  0
LINE
  8
0
 10
65.4784
 20
23.9423
 11
65.5992
 21
23.8381
  0
LINE
  8
0
 10
65.5992
 20
23.8381
 11
65.7148
 21
23.7281
  0
LINE
  8
0
 10
65.7148
 20
23.7281
 11
65.8248
 21
23.6126
  0
LINE
  8
0
 10
65.8248
 20
23.6126
 11
65.9289
 21
23.4918
  0
LINE
  8
0
 10
65.9289
 20
23.4918
 11
66.0271
 21
23.366
  0
LINE
  8
0
 10
66.0271
 20
23.366
 11
66.1189
 21
23.2356
  0
LINE
  8
0
 10
66.1189
 20
23.2356
 11
66.2043
 21
23.1008
  0
LINE
  8
0
 10
66.2043
 20
23.1008
 11
66.2829
 21
22.962
  0
LINE
  8
0
 10
66.2829
 20
22.962
 11
66.3546
 21
22.8195
  0
LINE
  8
0
 10
66.3546
 20
22.8195
 11
66.4193
 21
22.6737
  0
LINE
  8
0
 10
66.4193
 20
22.6737
 11
66.4767
 21
22.5249
  0
LINE
  8
0
 10
66.4767
 20
22.5249
 11
66.5267
 21
22.3734
  0
LINE
  8
0
 10
66.5267
 20
22.3734
 11
66.5693
 21
22.2197
  0
LINE
  8
0
 10
66.5693
 20
22.2197
 11
66.6042
 21
22.064
  0
LINE
  8
0
 10
66.6042
 20
22.064
 11
66.6315
 21
21.9069
  0
LINE
  8
0
 10
66.6315
 20
21.9069
 11
66.651
 21
21.7486
  0
LINE
  8
0
 10
66.651
 20
21.7486
 11
66.6628
 21
21.5895
  0
LINE
  8
0
 10
66.6628
 20
21.5895
 11
66.6667
 21
21.43
  0
LINE
  8
0
 10
66.6667
 20
21.43
 11
66.6667
 21
0
  0
LINE
  8
0
 10
66.6667
 20
0
 11
333.333
 21
0
  0
LINE
  8
0
 10
333.333
 20
0
 11
333.333
 21
21.43
  0
ENDSEC
  0
SECTION
  2
OBJECTS
  0
DICTIONARY
  0
ENDSEC
  0
EOF
