  0
SECTION
  2
BLOCKS
  0
ENDSEC
  0
SECTION
  2
ENTITIES
  0
LINE
  8
0
 10
400
 20
166.487
 11
378.57
 21
166.487
  0
LINE
  8
0
 10
378.57
 20
166.487
 11
378.411
 21
166.491
  0
LINE
  8
0
 10
378.411
 20
166.491
 11
378.251
 21
166.502
  0
LINE
  8
0
 10
378.251
 20
166.502
 11
378.093
 21
166.522
  0
LINE
  8
0
 10
378.093
 20
166.522
 11
377.936
 21
166.549
  0
LINE
  8
0
 10
377.936
 20
166.549
 11
377.78
 21
166.584
  0
LINE
  8
0
 10
377.78
 20
166.584
 11
377.627
 21
166.627
  0
LINE
  8
0
 10
377.627
 20
166.627
 11
377.475
 21
166.677
  0
LINE
  8
0
 10
377.475
 20
166.677
 11
377.326
 21
166.734
  0
LINE
  8
0
 10
377.326
 20
166.734
 11
377.18
 21
166.799
  0
LINE
  8
0
 10
377.18
 20
166.799
 11
377.038
 21
166.87
  0
LINE
  8
0
 10
377.038
 20
166.87
 11
376.899
 21
166.949
  0
LINE
  8
0
 10
376.899
 20
166.949
 11
376.764
 21
167.034
  0
LINE
  8
0
 10
376.764
 20
167.034
 11
376.634
 21
167.126
  0
LINE
  8
0
 10
376.634
 20
167.126
 11
376.508
 21
167.224
  0
LINE
  8
0
 10
376.508
 20
167.224
 11
376.387
 21
167.329
  0
LINE
  8
0
 10
376.387
 20
167.329
 11
376.272
 21
167.439
  0
LINE
  8
0
 10
376.272
 20
167.439
 11
376.162
 21
167.554
  0
LINE
  8
0
 10
376.162
 20
167.554
 11
376.058
 21
167.675
  0
LINE
  8
0
 10
376.058
 20
167.675
 11
375.96
 21
167.801
  0
LINE
  8
0
 10
375.96
 20
167.801
 11
375.868
 21
167.931
  0
LINE
  8
0
 10
375.868
 20
167.931
 11
375.782
 21
168.066
  0
LINE
  8
0
 10
375.782
 20
168.066
 11
375.704
 21
168.205
  0
LINE
  8
0
 10
375.704
 20
168.205
 11
375.632
 21
168.347
  0
LINE
  8
0
 10
375.632
 20
168.347
 11
375.567
 21
168.493
  0
LINE
  8
0
 10
375.567
 20
168.493
 11
375.51
 21
168.642
  0
LINE
  8
0
 10
375.51
 20
168.642
 11
375.46
 21
168.793
  0
LINE
  8
0
 10
375.46
 20
168.793
 11
375.417
 21
168.947
  0
LINE
  8
0
 10
375.417
 20
168.947
 11
375.382
 21
169.103
  0
LINE
  8
0
 10
375.382
 20
169.103
 11
375.355
 21
169.26
  0
LINE
  8
0
 10
375.355
 20
169.26
 11
375.336
 21
169.418
  0
LINE
  8
0
 10
375.336
 20
169.418
 11
375.324
 21
169.577
  0
LINE
  8
0
 10
375.324
 20
169.577
 11
375.32
 21
169.737
  0
LINE
  8
0
 10
375.32
 20
169.737
 11
375.324
 21
169.896
  0
LINE
  8
0
 10
375.324
 20
169.896
 11
375.336
 21
170.055
  0
LINE
  8
0
 10
375.336
 20
170.055
 11
375.355
 21
170.214
  0
LINE
  8
0
 10
375.355
 20
170.214
 11
375.382
 21
170.371
  0
LINE
  8
0
 10
375.382
 20
170.371
 11
375.417
 21
170.526
  0
LINE
  8
0
 10
375.417
 20
170.526
 11
375.46
 21
170.68
  0
LINE
  8
0
 10
375.46
 20
170.68
 11
375.51
 21
170.832
  0
LINE
  8
0
 10
375.51
 20
170.832
 11
375.567
 21
170.98
  0
LINE
  8
0
 10
375.567
 20
170.98
 11
375.632
 21
171.126
  0
LINE
  8
0
 10
375.632
 20
171.126
 11
375.704
 21
171.269
  0
LINE
  8
0
 10
375.704
 20
171.269
 11
375.782
 21
171.407
  0
LINE
  8
0
 10
375.782
 20
171.407
 11
375.868
 21
171.542
  0
LINE
  8
0
 10
375.868
 20
171.542
 11
375.96
 21
171.673
  0
LINE
  8
0
 10
375.96
 20
171.673
 11
376.058
 21
171.798
  0
LINE
  8
0
 10
376.058
 20
171.798
 11
376.162
 21
171.919
  0
LINE
  8
0
 10
376.162
 20
171.919
 11
376.272
 21
172.035
  0
LINE
  8
0
 10
376.272
 20
172.035
 11
376.387
 21
172.145
  0
LINE
  8
0
 10
376.387
 20
172.145
 11
376.508
 21
172.249
  0
LINE
  8
0
 10
376.508
 20
172.249
 11
376.634
 21
172.347
  0
LINE
  8
0
 10
376.634
 20
172.347
 11
376.764
 21
172.439
  0
LINE
  8
0
 10
376.764
 20
172.439
 11
376.899
 21
172.524
  0
LINE
  8
0
 10
376.899
 20
172.524
 11
377.038
 21
172.603
  0
LINE
  8
0
 10
377.038
 20
172.603
 11
377.18
 21
172.675
  0
LINE
  8
0
 10
377.18
 20
172.675
 11
377.326
 21
172.739
  0
LINE
  8
0
 10
377.326
 20
172.739
 11
377.475
 21
172.797
  0
LINE
  8
0
 10
377.475
 20
172.797
 11
377.627
 21
172.847
  0
LINE
  8
0
 10
377.627
 20
172.847
 11
377.78
 21
172.889
  0
LINE
  8
0
 10
377.78
 20
172.889
 11
377.936
 21
172.924
  0
LINE
  8
0
 10
377.936
 20
172.924
 11
378.093
 21
172.951
  0
LINE
  8
0
 10
378.093
 20
172.951
 11
378.251
 21
172.971
  0
LINE
  8
0
 10
378.251
 20
172.971
 11
378.411
 21
172.983
  0
LINE
  8
0
 10
378.411
 20
172.983
 11
378.729
 21
172.991
  0
LINE
  8
0
 10
378.729
 20
172.991
 11
378.889
 21
173.002
  0
LINE
  8
0
 10
378.889
 20
173.002
 11
379.047
 21
173.022
  0
LINE
  8
0
 10
379.047
 20
173.022
 11
379.204
 21
173.049
  0
LINE
  8
0
 10
379.204
 20
173.049
 11
379.36
 21
173.084
  0
LINE
  8
0
 10
379.36
 20
173.084
 11
379.513
 21
173.127
  0
LINE
  8
0
 10
379.513
 20
173.127
 11
379.665
 21
173.177
  0
LINE
  8
0
 10
379.665
 20
173.177
 11
379.814
 21
173.234
  0
LINE
  8
0
 10
379.814
 20
173.234
 11
379.96
 21
173.299
  0
LINE
  8
0
 10
379.96
 20
173.299
 11
380.102
 21
173.37
  0
LINE
  8
0
 10
380.102
 20
173.37
 11
380.241
 21
173.449
  0
LINE
  8
0
 10
380.241
 20
173.449
 11
380.376
 21
173.534
  0
LINE
  8
0
 10
380.376
 20
173.534
 11
380.506
 21
173.626
  0
LINE
  8
0
 10
380.506
 20
173.626
 11
380.632
 21
173.724
  0
LINE
  8
0
 10
380.632
 20
173.724
 11
380.753
 21
173.829
  0
LINE
  8
0
 10
380.753
 20
173.829
 11
380.868
 21
173.939
  0
LINE
  8
0
 10
380.868
 20
173.939
 11
380.978
 21
174.054
  0
LINE
  8
0
 10
380.978
 20
174.054
 11
381.082
 21
174.175
  0
LINE
  8
0
 10
381.082
 20
174.175
 11
381.18
 21
174.301
  0
LINE
  8
0
 10
381.18
 20
174.301
 11
381.272
 21
174.431
  0
LINE
  8
0
 10
381.272
 20
174.431
 11
381.358
 21
174.566
  0
LINE
  8
0
 10
381.358
 20
174.566
 11
381.436
 21
174.705
  0
LINE
  8
0
 10
381.436
 20
174.705
 11
381.508
 21
174.847
  0
LINE
  8
0
 10
381.508
 20
174.847
 11
381.573
 21
174.993
  0
LINE
  8
0
 10
381.573
 20
174.993
 11
381.63
 21
175.142
  0
LINE
  8
0
 10
381.63
 20
175.142
 11
381.68
 21
175.293
  0
LINE
  8
0
 10
381.68
 20
175.293
 11
381.723
 21
175.447
  0
LINE
  8
0
 10
381.723
 20
175.447
 11
381.758
 21
175.603
  0
LINE
  8
0
 10
381.758
 20
175.603
 11
381.785
 21
175.76
  0
LINE
  8
0
 10
381.785
 20
175.76
 11
381.804
 21
175.918
  0
LINE
  8
0
 10
381.804
 20
175.918
 11
381.816
 21
176.077
  0
LINE
  8
0
 10
381.816
 20
176.077
 11
381.82
 21
176.237
  0
LINE
  8
0
 10
381.82
 20
176.237
 11
381.82
 21
323.403
  0
LINE
  8
0
 10
381.82
 20
323.403
 11
381.816
 21
323.563
  0
LINE
  8
0
 10
381.816
 20
323.563
 11
381.804
 21
323.722
  0
LINE
  8
0
 10
381.804
 20
323.722
 11
381.785
 21
323.88
  0
LINE
  8
0
 10
381.785
 20
323.88
 11
381.758
 21
324.037
  0
LINE
  8
0
 10
381.758
 20
324.037
 11
381.723
 21
324.193
  0
LINE
  8
0
 10
381.723
 20
324.193
 11
381.68
 21
324.347
  0
LINE
  8
0
 10
381.68
 20
324.347
 11
381.63
 21
324.498
  0
LINE
  8
0
 10
381.63
 20
324.498
 11
381.573
 21
324.647
  0
LINE
  8
0
 10
381.573
 20
324.647
 11
381.508
 21
324.793
  0
LINE
  8
0
 10
381.508
 20
324.793
 11
381.436
 21
324.935
  0
LINE
  8
0
 10
381.436
 20
324.935
 11
381.358
 21
325.074
  0
LINE
  8
0
 10
381.358
 20
325.074
 11
381.272
 21
325.209
  0
LINE
  8
0
 10
381.272
 20
325.209
 11
381.18
 21
325.339
  0
LINE
  8
0
 10
381.18
 20
325.339
 11
381.082
 21
325.465
  0
LINE
  8
0
 10
381.082
 20
325.465
 11
380.978
 21
325.586
  0
LINE
  8
0
 10
380.978
 20
325.586
 11
380.868
 21
325.701
  0
LINE
  8
0
 10
380.868
 20
325.701
 11
380.753
 21
325.811
  0
LINE
  8
0
 10
380.753
 20
325.811
 11
380.632
 21
325.916
  0
LINE
  8
0
 10
380.632
 20
325.916
 11
380.506
 21
326.014
  0
LINE
  8
0
 10
380.506
 20
326.014
 11
380.376
 21
326.106
  0
LINE
  8
0
 10
380.376
 20
326.106
 11
380.241
 21
326.191
  0
LINE
  8
0
 10
380.241
 20
326.191
 11
380.102
 21
326.27
  0
LINE
  8
0
 10
380.102
 20
326.27
 11
379.96
 21
326.341
  0
LINE
  8
0
 10
379.96
 20
326.341
 11
379.814
 21
326.406
  0
LINE
  8
0
 10
379.814
 20
326.406
 11
379.665
 21
326.463
  0
LINE
  8
0
 10
379.665
 20
326.463
 11
379.513
 21
326.513
  0
LINE
  8
0
 10
379.513
 20
326.513
 11
379.36
 21
326.556
  0
LINE
  8
0
 10
379.36
 20
326.556
 11
379.204
 21
326.591
  0
LINE
  8
0
 10
379.204
 20
326.591
 11
379.047
 21
326.618
  0
LINE
  8
0
 10
379.047
 20
326.618
 11
378.889
 21
326.638
  0
LINE
  8
0
 10
378.889
 20
326.638
 11
378.729
 21
326.649
  0
LINE
  8
0
 10
378.729
 20
326.649
 11
378.411
 21
326.657
  0
LINE
  8
0
 10
378.411
 20
326.657
 11
378.251
 21
326.669
  0
LINE
  8
0
 10
378.251
 20
326.669
 11
378.093
 21
326.689
  0
LINE
  8
0
 10
378.093
 20
326.689
 11
377.936
 21
326.716
  0
LINE
  8
0
 10
377.936
 20
326.716
 11
377.78
 21
326.751
  0
LINE
  8
0
 10
377.78
 20
326.751
 11
377.627
 21
326.793
  0
LINE
  8
0
 10
377.627
 20
326.793
 11
377.475
 21
326.843
  0
LINE
  8
0
 10
377.475
 20
326.843
 11
377.326
 21
326.901
  0
LINE
  8
0
 10
377.326
 20
326.901
 11
377.18
 21
326.965
  0
LINE
  8
0
 10
377.18
 20
326.965
 11
377.038
 21
327.037
  0
LINE
  8
0
 10
377.038
 20
327.037
 11
376.899
 21
327.116
  0
LINE
  8
0
 10
376.899
 20
327.116
 11
376.764
 21
327.201
  0
LINE
  8
0
 10
376.764
 20
327.201
 11
376.634
 21
327.293
  0
LINE
  8
0
 10
376.634
 20
327.293
 11
376.508
 21
327.391
  0
LINE
  8
0
 10
376.508
 20
327.391
 11
376.387
 21
327.495
  0
LINE
  8
0
 10
376.387
 20
327.495
 11
376.272
 21
327.605
  0
LINE
  8
0
 10
376.272
 20
327.605
 11
376.162
 21
327.721
  0
LINE
  8
0
 10
376.162
 20
327.721
 11
376.058
 21
327.842
  0
LINE
  8
0
 10
376.058
 20
327.842
 11
375.96
 21
327.967
  0
LINE
  8
0
 10
375.96
 20
327.967
 11
375.868
 21
328.098
  0
LINE
  8
0
 10
375.868
 20
328.098
 11
375.782
 21
328.232
  0
LINE
  8
0
 10
375.782
 20
328.232
 11
375.704
 21
328.371
  0
LINE
  8
0
 10
375.704
 20
328.371
 11
375.632
 21
328.514
  0
LINE
  8
0
 10
375.632
 20
328.514
 11
375.567
 21
328.66
  0
LINE
  8
0
 10
375.567
 20
328.66
 11
375.51
 21
328.808
  0
LINE
  8
0
 10
375.51
 20
328.808
 11
375.46
 21
328.96
  0
LINE
  8
0
 10
375.46
 20
328.96
 11
375.417
 21
329.114
  0
LINE
  8
0
 10
375.417
 20
329.114
 11
375.382
 21
329.269
  0
LINE
  8
0
 10
375.382
 20
329.269
 11
375.355
 21
329.426
  0
LINE
  8
0
 10
375.355
 20
329.426
 11
375.336
 21
329.585
  0
LINE
  8
0
 10
375.336
 20
329.585
 11
375.324
 21
329.744
  0
LINE
  8
0
 10
375.324
 20
329.744
 11
375.32
 21
329.903
  0
LINE
  8
0
 10
375.32
 20
329.903
 11
375.324
 21
330.063
  0
LINE
  8
0
 10
375.324
 20
330.063
 11
375.336
 21
330.222
  0
LINE
  8
0
 10
375.336
 20
330.222
 11
375.355
 21
330.38
  0
LINE
  8
0
 10
375.355
 20
330.38
 11
375.382
 21
330.537
  0
LINE
  8
0
 10
375.382
 20
330.537
 11
375.417
 21
330.693
  0
LINE
  8
0
 10
375.417
 20
330.693
 11
375.46
 21
330.847
  0
LINE
  8
0
 10
375.46
 20
330.847
 11
375.51
 21
330.998
  0
LINE
  8
0
 10
375.51
 20
330.998
 11
375.567
 21
331.147
  0
LINE
  8
0
 10
375.567
 20
331.147
 11
375.632
 21
331.293
  0
LINE
  8
0
 10
375.632
 20
331.293
 11
375.704
 21
331.435
  0
LINE
  8
0
 10
375.704
 20
331.435
 11
375.782
 21
331.574
  0
LINE
  8
0
 10
375.782
 20
331.574
 11
375.868
 21
331.709
  0
LINE
  8
0
 10
375.868
 20
331.709
 11
375.96
 21
331.839
  0
LINE
  8
0
 10
375.96
 20
331.839
 11
376.058
 21
331.965
  0
LINE
  8
0
 10
376.058
 20
331.965
 11
376.162
 21
332.086
  0
LINE
  8
0
 10
376.162
 20
332.086
 11
376.272
 21
332.201
  0
LINE
  8
0
 10
376.272
 20
332.201
 11
376.387
 21
332.311
  0
LINE
  8
0
 10
376.387
 20
332.311
 11
376.508
 21
332.416
  0
LINE
  8
0
 10
376.508
 20
332.416
 11
376.634
 21
332.514
  0
LINE
  8
0
 10
376.634
 20
332.514
 11
376.764
 21
332.606
  0
LINE
  8
0
 10
376.764
 20
332.606
 11
376.899
 21
332.691
  0
LINE
  8
0
 10
376.899
 20
332.691
 11
377.038
 21
332.77
  0
LINE
  8
0
 10
377.038
 20
332.77
 11
377.18
 21
332.841
  0
LINE
  8
0
 10
377.18
 20
332.841
 11
377.326
 21
332.906
  0
LINE
  8
0
 10
377.326
 20
332.906
 11
377.475
 21
332.963
  0
LINE
  8
0
 10
377.475
 20
332.963
 11
377.627
 21
333.013
  0
LINE
  8
0
 10
377.627
 20
333.013
 11
377.78
 21
333.056
  0
LINE
  8
0
 10
377.78
 20
333.056
 11
377.936
 21
333.091
  0
LINE
  8
0
 10
377.936
 20
333.091
 11
378.093
 21
333.118
  0
LINE
  8
0
 10
378.093
 20
333.118
 11
378.251
 21
333.138
  0
LINE
  8
0
 10
378.251
 20
333.138
 11
378.411
 21
333.149
  0
LINE
  8
0
 10
378.411
 20
333.149
 11
378.57
 21
333.153
  0
LINE
  8
0
 10
378.57
 20
333.153
 11
381.82
 21
333.153
  0
LINE
  8
0
 10
381.82
 20
333.153
 11
400
 21
333.513
  0
LINE
  8
0
 10
400
 20
333.513
 11
400
 21
500
  0
LINE
  8
0
 10
400
 20
500
 11
266.847
 21
500
  0
LINE
  8
0
 10
266.847
 20
500
 11
266.847
 21
478.57
  0
LINE
  8
0
 10
266.847
 20
478.57
 11
266.843
 21
478.411
  0
LINE
  8
0
 10
266.843
 20
478.411
 11
266.831
 21
478.251
  0
LINE
  8
0
 10
266.831
 20
478.251
 11
266.811
 21
478.093
  0
LINE
  8
0
 10
266.811
 20
478.093
 11
266.784
 21
477.936
  0
LINE
  8
0
 10
266.784
 20
477.936
 11
266.749
 21
477.78
  0
LINE
  8
0
 10
266.749
 20
477.78
 11
266.707
 21
477.627
  0
LINE
  8
0
 10
266.707
 20
477.627
 11
266.657
 21
477.475
  0
LINE
  8
0
 10
266.657
 20
477.475
 11
266.599
 21
477.326
  0
LINE
  8
0
 10
266.599
 20
477.326
 11
266.535
 21
477.18
  0
LINE
  8
0
 10
266.535
 20
477.18
 11
266.463
 21
477.038
  0
LINE
  8
0
 10
266.463
 20
477.038
 11
266.384
 21
476.899
  0
LINE
  8
0
 10
266.384
 20
476.899
 11
266.299
 21
476.764
  0
LINE
  8
0
 10
266.299
 20
476.764
 11
266.207
 21
476.634
  0
LINE
  8
0
 10
266.207
 20
476.634
 11
266.109
 21
476.508
  0
LINE
  8
0
 10
266.109
 20
476.508
 11
266.005
 21
476.387
  0
LINE
  8
0
 10
266.005
 20
476.387
 11
265.895
 21
476.272
  0
LINE
  8
0
 10
265.895
 20
476.272
 11
265.779
 21
476.162
  0
LINE
  8
0
 10
265.779
 20
476.162
 11
265.658
 21
476.058
  0
LINE
  8
0
 10
265.658
 20
476.058
 11
265.533
 21
475.96
  0
LINE
  8
0
 10
265.533
 20
475.96
 11
265.402
 21
475.868
  0
LINE
  8
0
 10
265.402
 20
475.868
 11
265.267
 21
475.782
  0
LINE
  8
0
 10
265.267
 20
475.782
 11
265.129
 21
475.704
  0
LINE
  8
0
 10
265.129
 20
475.704
 11
264.986
 21
475.632
  0
LINE
  8
0
 10
264.986
 20
475.632
 11
264.84
 21
475.567
  0
LINE
  8
0
 10
264.84
 20
475.567
 11
264.692
 21
475.51
  0
LINE
  8
0
 10
264.692
 20
475.51
 11
264.54
 21
475.46
  0
LINE
  8
0
 10
264.54
 20
475.46
 11
264.386
 21
475.417
  0
LINE
  8
0
 10
264.386
 20
475.417
 11
264.231
 21
475.382
  0
LINE
  8
0
 10
264.231
 20
475.382
 11
264.074
 21
475.355
  0
LINE
  8
0
 10
264.074
 20
475.355
 11
263.915
 21
475.336
  0
LINE
  8
0
 10
263.915
 20
475.336
 11
263.756
 21
475.324
  0
LINE
  8
0
 10
263.756
 20
475.324
 11
263.597
 21
475.32
  0
LINE
  8
0
 10
263.597
 20
475.32
 11
263.437
 21
475.324
  0
LINE
  8
0
 10
263.437
 20
475.324
 11
263.278
 21
475.336
  0
LINE
  8
0
 10
263.278
 20
475.336
 11
263.12
 21
475.355
  0
LINE
  8
0
 10
263.12
 20
475.355
 11
262.963
 21
475.382
  0
LINE
  8
0
 10
262.963
 20
475.382
 11
262.807
 21
475.417
  0
LINE
  8
0
 10
262.807
 20
475.417
 11
262.653
 21
475.46
  0
LINE
  8
0
 10
262.653
 20
475.46
 11
262.502
 21
475.51
  0
LINE
  8
0
 10
262.502
 20
475.51
 11
262.353
 21
475.567
  0
LINE
  8
0
 10
262.353
 20
475.567
 11
262.207
 21
475.632
  0
LINE
  8
0
 10
262.207
 20
475.632
 11
262.065
 21
475.704
  0
LINE
  8
0
 10
262.065
 20
475.704
 11
261.926
 21
475.782
  0
LINE
  8
0
 10
261.926
 20
475.782
 11
261.791
 21
475.868
  0
LINE
  8
0
 10
261.791
 20
475.868
 11
261.661
 21
475.96
  0
LINE
  8
0
 10
261.661
 20
475.96
 11
261.535
 21
476.058
  0
LINE
  8
0
 10
261.535
 20
476.058
 11
261.414
 21
476.162
  0
LINE
  8
0
 10
261.414
 20
476.162
 11
261.299
 21
476.272
  0
LINE
  8
0
 10
261.299
 20
476.272
 11
261.189
 21
476.387
  0
LINE
  8
0
 10
261.189
 20
476.387
 11
261.084
 21
476.508
  0
LINE
  8
0
 10
261.084
 20
476.508
 11
260.986
 21
476.634
  0
LINE
  8
0
 10
260.986
 20
476.634
 11
260.894
 21
476.764
  0
LINE
  8
0
 10
260.894
 20
476.764
 11
260.809
 21
476.899
  0
LINE
  8
0
 10
260.809
 20
476.899
 11
260.73
 21
477.038
  0
LINE
  8
0
 10
260.73
 20
477.038
 11
260.659
 21
477.18
  0
LINE
  8
0
 10
260.659
 20
477.18
 11
260.594
 21
477.326
  0
LINE
  8
0
 10
260.594
 20
477.326
 11
260.537
 21
477.475
  0
LINE
  8
0
 10
260.537
 20
477.475
 11
260.487
 21
477.627
  0
LINE
  8
0
 10
260.487
 20
477.627
 11
260.444
 21
477.78
  0
LINE
  8
0
 10
260.444
 20
477.78
 11
260.409
 21
477.936
  0
LINE
  8
0
 10
260.409
 20
477.936
 11
260.382
 21
478.093
  0
LINE
  8
0
 10
260.382
 20
478.093
 11
260.362
 21
478.251
  0
LINE
  8
0
 10
260.362
 20
478.251
 11
260.351
 21
478.411
  0
LINE
  8
0
 10
260.351
 20
478.411
 11
260.343
 21
478.729
  0
LINE
  8
0
 10
260.343
 20
478.729
 11
260.331
 21
478.889
  0
LINE
  8
0
 10
260.331
 20
478.889
 11
260.311
 21
479.047
  0
LINE
  8
0
 10
260.311
 20
479.047
 11
260.284
 21
479.204
  0
LINE
  8
0
 10
260.284
 20
479.204
 11
260.249
 21
479.36
  0
LINE
  8
0
 10
260.249
 20
479.36
 11
260.207
 21
479.513
  0
LINE
  8
0
 10
260.207
 20
479.513
 11
260.157
 21
479.665
  0
LINE
  8
0
 10
260.157
 20
479.665
 11
260.099
 21
479.814
  0
LINE
  8
0
 10
260.099
 20
479.814
 11
260.035
 21
479.96
  0
LINE
  8
0
 10
260.035
 20
479.96
 11
259.963
 21
480.102
  0
LINE
  8
0
 10
259.963
 20
480.102
 11
259.884
 21
480.241
  0
LINE
  8
0
 10
259.884
 20
480.241
 11
259.799
 21
480.376
  0
LINE
  8
0
 10
259.799
 20
480.376
 11
259.707
 21
480.506
  0
LINE
  8
0
 10
259.707
 20
480.506
 11
259.609
 21
480.632
  0
LINE
  8
0
 10
259.609
 20
480.632
 11
259.505
 21
480.753
  0
LINE
  8
0
 10
259.505
 20
480.753
 11
259.395
 21
480.868
  0
LINE
  8
0
 10
259.395
 20
480.868
 11
259.279
 21
480.978
  0
LINE
  8
0
 10
259.279
 20
480.978
 11
259.158
 21
481.082
  0
LINE
  8
0
 10
259.158
 20
481.082
 11
259.033
 21
481.18
  0
LINE
  8
0
 10
259.033
 20
481.18
 11
258.902
 21
481.272
  0
LINE
  8
0
 10
258.902
 20
481.272
 11
258.767
 21
481.358
  0
LINE
  8
0
 10
258.767
 20
481.358
 11
258.629
 21
481.436
  0
LINE
  8
0
 10
258.629
 20
481.436
 11
258.486
 21
481.508
  0
LINE
  8
0
 10
258.486
 20
481.508
 11
258.34
 21
481.573
  0
LINE
  8
0
 10
258.34
 20
481.573
 11
258.192
 21
481.63
  0
LINE
  8
0
 10
258.192
 20
481.63
 11
258.04
 21
481.68
  0
LINE
  8
0
 10
258.04
 20
481.68
 11
257.886
 21
481.723
  0
LINE
  8
0
 10
257.886
 20
481.723
 11
257.731
 21
481.758
  0
LINE
  8
0
 10
257.731
 20
481.758
 11
257.574
 21
481.785
  0
LINE
  8
0
 10
257.574
 20
481.785
 11
257.415
 21
481.804
  0
LINE
  8
0
 10
257.415
 20
481.804
 11
257.256
 21
481.816
  0
LINE
  8
0
 10
257.256
 20
481.816
 11
257.097
 21
481.82
  0
LINE
  8
0
 10
257.097
 20
481.82
 11
142.903
 21
481.82
  0
LINE
  8
0
 10
142.903
 20
481.82
 11
142.744
 21
481.816
  0
LINE
  8
0
 10
142.744
 20
481.816
 11
142.585
 21
481.804
  0
LINE
  8
0
 10
142.585
 20
481.804
 11
142.426
 21
481.785
  0
LINE
  8
0
 10
142.426
 20
481.785
 11
142.269
 21
481.758
  0
LINE
  8
0
 10
142.269
 20
481.758
 11
142.114
 21
481.723
  0
LINE
  8
0
 10
142.114
 20
481.723
 11
141.96
 21
481.68
  0
LINE
  8
0
 10
141.96
 20
481.68
 11
141.808
 21
481.63
  0
LINE
  8
0
 10
141.808
 20
481.63
 11
141.66
 21
481.573
  0
LINE
  8
0
 10
141.66
 20
481.573
 11
141.514
 21
481.508
  0
LINE
  8
0
 10
141.514
 20
481.508
 11
141.371
 21
481.436
  0
LINE
  8
0
 10
141.371
 20
481.436
 11
141.232
 21
481.358
  0
LINE
  8
0
 10
141.232
 20
481.358
 11
141.098
 21
481.272
  0
LINE
  8
0
 10
141.098
 20
481.272
 11
140.967
 21
481.18
  0
LINE
  8
0
 10
140.967
 20
481.18
 11
140.842
 21
481.082
  0
LINE
  8
0
 10
140.842
 20
481.082
 11
140.721
 21
480.978
  0
LINE
  8
0
 10
140.721
 20
480.978
 11
140.605
 21
480.868
  0
LINE
  8
0
 10
140.605
 20
480.868
 11
140.495
 21
480.753
  0
LINE
  8
0
 10
140.495
 20
480.753
 11
140.391
 21
480.632
  0
LINE
  8
0
 10
140.391
 20
480.632
 11
140.293
 21
480.506
  0
LINE
  8
0
 10
140.293
 20
480.506
 11
140.201
 21
480.376
  0
LINE
  8
0
 10
140.201
 20
480.376
 11
140.116
 21
480.241
  0
LINE
  8
0
 10
140.116
 20
480.241
 11
140.037
 21
480.102
  0
LINE
  8
0
 10
140.037
 20
480.102
 11
139.965
 21
479.96
  0
LINE
  8
0
 10
139.965
 20
479.96
 11
139.901
 21
479.814
  0
LINE
  8
0
 10
139.901
 20
479.814
 11
139.843
 21
479.665
  0
LINE
  8
0
 10
139.843
 20
479.665
 11
139.793
 21
479.513
  0
LINE
  8
0
 10
139.793
 20
479.513
 11
139.751
 21
479.36
  0
LINE
  8
0
 10
139.751
 20
479.36
 11
139.716
 21
479.204
  0
LINE
  8
0
 10
139.716
 20
479.204
 11
139.689
 21
479.047
  0
LINE
  8
0
 10
139.689
 20
479.047
 11
139.669
 21
478.889
  0
LINE
  8
0
 10
139.669
 20
478.889
 11
139.657
 21
478.729
  0
LINE
  8
0
 10
139.657
 20
478.729
 11
139.649
 21
478.411
  0
LINE
  8
0
 10
139.649
 20
478.411
 11
139.638
 21
478.251
  0
LINE
  8
0
 10
139.638
 20
478.251
 11
139.618
 21
478.093
  0
LINE
  8
0
 10
139.618
 20
478.093
 11
139.591
 21
477.936
  0
LINE
  8
0
 10
139.591
 20
477.936
 11
139.556
 21
477.78
  0
LINE
  8
0
 10
139.556
 20
477.78
 11
139.513
 21
477.627
  0
LINE
  8
0
 10
139.513
 20
477.627
 11
139.463
 21
477.475
  0
LINE
  8
0
 10
139.463
 20
477.475
 11
139.406
 21
477.326
  0
LINE
  8
0
 10
139.406
 20
477.326
 11
139.341
 21
477.18
  0
LINE
  8
0
 10
139.341
 20
477.18
 11
139.27
 21
477.038
  0
LINE
  8
0
 10
139.27
 20
477.038
 11
139.191
 21
476.899
  0
LINE
  8
0
 10
139.191
 20
476.899
 11
139.106
 21
476.764
  0
LINE
  8
0
 10
139.106
 20
476.764
 11
139.014
 21
476.634
  0
LINE
  8
0
 10
139.014
 20
476.634
 11
138.916
 21
476.508
  0
LINE
  8
0
 10
138.916
 20
476.508
 11
138.811
 21
476.387
  0
LINE
  8
0
 10
138.811
 20
476.387
 11
138.701
 21
476.272
  0
LINE
  8
0
 10
138.701
 20
476.272
 11
138.586
 21
476.162
  0
LINE
  8
0
 10
138.586
 20
476.162
 11
138.465
 21
476.058
  0
LINE
  8
0
 10
138.465
 20
476.058
 11
138.339
 21
475.96
  0
LINE
  8
0
 10
138.339
 20
475.96
 11
138.209
 21
475.868
  0
LINE
  8
0
 10
138.209
 20
475.868
 11
138.074
 21
475.782
  0
LINE
  8
0
 10
138.074
 20
475.782
 11
137.935
 21
475.704
  0
LINE
  8
0
 10
137.935
 20
475.704
 11
137.793
 21
475.632
  0
LINE
  8
0
 10
137.793
 20
475.632
 11
137.647
 21
475.567
  0
LINE
  8
0
 10
137.647
 20
475.567
 11
137.498
 21
475.51
  0
LINE
  8
0
 10
137.498
 20
475.51
 11
137.347
 21
475.46
  0
LINE
  8
0
 10
137.347
 20
475.46
 11
137.193
 21
475.417
  0
LINE
  8
0
 10
137.193
 20
475.417
 11
137.037
 21
475.382
  0
LINE
  8
0
 10
137.037
 20
475.382
 11
136.88
 21
475.355
  0
LINE
  8
0
 10
136.88
 20
475.355
 11
136.722
 21
475.336
  0
LINE
  8
0
 10
136.722
 20
475.336
 11
136.563
 21
475.324
  0
LINE
  8
0
 10
136.563
 20
475.324
 11
136.403
 21
475.32
  0
LINE
  8
0
 10
136.403
 20
475.32
 11
136.244
 21
475.324
  0
LINE
  8
0
 10
136.244
 20
475.324
 11
136.085
 21
475.336
  0
LINE
  8
0
 10
136.085
 20
475.336
 11
135.926
 21
475.355
  0
LINE
  8
0
 10
135.926
 20
475.355
 11
135.769
 21
475.382
  0
LINE
  8
0
 10
135.769
 20
475.382
 11
135.614
 21
475.417
  0
LINE
  8
0
 10
135.614
 20
475.417
 11
135.46
 21
475.46
  0
LINE
  8
0
 10
135.46
 20
475.46
 11
135.308
 21
475.51
  0
LINE
  8
0
 10
135.308
 20
475.51
 11
135.16
 21
475.567
  0
LINE
  8
0
 10
135.16
 20
475.567
 11
135.014
 21
475.632
  0
LINE
  8
0
 10
135.014
 20
475.632
 11
134.871
 21
475.704
  0
LINE
  8
0
 10
134.871
 20
475.704
 11
134.732
 21
475.782
  0
LINE
  8
0
 10
134.732
 20
475.782
 11
134.598
 21
475.868
  0
LINE
  8
0
 10
134.598
 20
475.868
 11
134.467
 21
475.96
  0
LINE
  8
0
 10
134.467
 20
475.96
 11
134.342
 21
476.058
  0
LINE
  8
0
 10
134.342
 20
476.058
 11
134.221
 21
476.162
  0
LINE
  8
0
 10
134.221
 20
476.162
 11
134.105
 21
476.272
  0
LINE
  8
0
 10
134.105
 20
476.272
 11
133.995
 21
476.387
  0
LINE
  8
0
 10
133.995
 20
476.387
 11
133.891
 21
476.508
  0
LINE
  8
0
 10
133.891
 20
476.508
 11
133.793
 21
476.634
  0
LINE
  8
0
 10
133.793
 20
476.634
 11
133.701
 21
476.764
  0
LINE
  8
0
 10
133.701
 20
476.764
 11
133.616
 21
476.899
  0
LINE
  8
0
 10
133.616
 20
476.899
 11
133.537
 21
477.038
  0
LINE
  8
0
 10
133.537
 20
477.038
 11
133.465
 21
477.18
  0
LINE
  8
0
 10
133.465
 20
477.18
 11
133.401
 21
477.326
  0
LINE
  8
0
 10
133.401
 20
477.326
 11
133.343
 21
477.475
  0
LINE
  8
0
 10
133.343
 20
477.475
 11
133.293
 21
477.627
  0
LINE
  8
0
 10
133.293
 20
477.627
 11
133.251
 21
477.78
  0
LINE
  8
0
 10
133.251
 20
477.78
 11
133.216
 21
477.936
  0
LINE
  8
0
 10
133.216
 20
477.936
 11
133.189
 21
478.093
  0
LINE
  8
0
 10
133.189
 20
478.093
 11
133.169
 21
478.251
  0
LINE
  8
0
 10
133.169
 20
478.251
 11
133.157
 21
478.411
  0
LINE
  8
0
 10
133.157
 20
478.411
 11
133.153
 21
478.57
  0
LINE
  8
0
 10
133.153
 20
478.57
 11
133.153
 21
500
  0
LINE
  8
0
 10
133.153
 20
500
 11
0
 21
500
  0
LINE
  8
0
 10
0
 20
500
 11
0
 21
333.513
  0
LINE
  8
0
 10
0
 20
333.513
 11
21.43
 21
333.513
  0
LINE
  8
0
 10
21.43
 20
333.513
 11
21.5895
 21
333.509
  0
LINE
  8
0
 10
21.5895
 20
333.509
 11
21.7486
 21
333.498
  0
LINE
  8
0
 10
21.7486
 20
333.498
 11
21.9069
 21
333.478
  0
LINE
  8
0
 10
21.9069
 20
333.478
 11
22.064
 21
333.451
  0
LINE
  8
0
 10
22.064
 20
333.451
 11
22.2197
 21
333.416
  0
LINE
  8
0
 10
22.2197
 20
333.416
 11
22.3734
 21
333.373
  0
LINE
  8
0
 10
22.3734
 20
333.373
 11
22.5249
 21
333.323
  0
LINE
  8
0
 10
22.5249
 20
333.323
 11
22.6737
 21
333.266
  0
LINE
  8
0
 10
22.6737
 20
333.266
 11
22.8195
 21
333.201
  0
LINE
  8
0
 10
22.8195
 20
333.201
 11
22.962
 21
333.13
  0
LINE
  8
0
 10
22.962
 20
333.13
 11
23.1008
 21
333.051
  0
LINE
  8
0
 10
23.1008
 20
333.051
 11
23.2356
 21
332.966
  0
LINE
  8
0
 10
23.2356
 20
332.966
 11
23.366
 21
332.874
  0
LINE
  8
0
 10
23.366
 20
332.874
 11
23.4918
 21
332.776
  0
LINE
  8
0
 10
23.4918
 20
332.776
 11
23.6126
 21
332.671
  0
LINE
  8
0
 10
23.6126
 20
332.671
 11
23.7281
 21
332.561
  0
LINE
  8
0
 10
23.7281
 20
332.561
 11
23.8381
 21
332.446
  0
LINE
  8
0
 10
23.8381
 20
332.446
 11
23.9423
 21
332.325
  0
LINE
  8
0
 10
23.9423
 20
332.325
 11
24.0404
 21
332.199
  0
LINE
  8
0
 10
24.0404
 20
332.199
 11
24.1323
 21
332.069
  0
LINE
  8
0
 10
24.1323
 20
332.069
 11
24.2176
 21
331.934
  0
LINE
  8
0
 10
24.2176
 20
331.934
 11
24.2962
 21
331.795
  0
LINE
  8
0
 10
24.2962
 20
331.795
 11
24.368
 21
331.653
  0
LINE
  8
0
 10
24.368
 20
331.653
 11
24.4326
 21
331.507
  0
LINE
  8
0
 10
24.4326
 20
331.507
 11
24.49
 21
331.358
  0
LINE
  8
0
 10
24.49
 20
331.358
 11
24.5401
 21
331.207
  0
LINE
  8
0
 10
24.5401
 20
331.207
 11
24.5826
 21
331.053
  0
LINE
  8
0
 10
24.5826
 20
331.053
 11
24.6175
 21
330.897
  0
LINE
  8
0
 10
24.6175
 20
330.897
 11
24.6448
 21
330.74
  0
LINE
  8
0
 10
24.6448
 20
330.74
 11
24.6643
 21
330.582
  0
LINE
  8
0
 10
24.6643
 20
330.582
 11
24.6761
 21
330.423
  0
LINE
  8
0
 10
24.6761
 20
330.423
 11
24.68
 21
330.263
  0
LINE
  8
0
 10
24.68
 20
330.263
 11
24.6761
 21
330.104
  0
LINE
  8
0
 10
24.6761
 20
330.104
 11
24.6643
 21
329.945
  0
LINE
  8
0
 10
24.6643
 20
329.945
 11
24.6448
 21
329.786
  0
LINE
  8
0
 10
24.6448
 20
329.786
 11
24.6175
 21
329.629
  0
LINE
  8
0
 10
24.6175
 20
329.629
 11
24.5826
 21
329.474
  0
LINE
  8
0
 10
24.5826
 20
329.474
 11
24.5401
 21
329.32
  0
LINE
  8
0
 10
24.5401
 20
329.32
 11
24.49
 21
329.168
  0
LINE
  8
0
 10
24.49
 20
329.168
 11
24.4326
 21
329.02
  0
LINE
  8
0
 10
24.4326
 20
329.02
 11
24.368
 21
328.874
  0
LINE
  8
0
 10
24.368
 20
328.874
 11
24.2962
 21
328.731
  0
LINE
  8
0
 10
24.2962
 20
328.731
 11
24.2176
 21
328.592
  0
LINE
  8
0
 10
24.2176
 20
328.592
 11
24.1323
 21
328.458
  0
LINE
  8
0
 10
24.1323
 20
328.458
 11
24.0404
 21
328.327
  0
LINE
  8
0
 10
24.0404
 20
328.327
 11
23.9423
 21
328.202
  0
LINE
  8
0
 10
23.9423
 20
328.202
 11
23.8381
 21
328.081
  0
LINE
  8
0
 10
23.8381
 20
328.081
 11
23.7281
 21
327.965
  0
LINE
  8
0
 10
23.7281
 20
327.965
 11
23.6126
 21
327.855
  0
LINE
  8
0
 10
23.6126
 20
327.855
 11
23.4918
 21
327.751
  0
LINE
  8
0
 10
23.4918
 20
327.751
 11
23.366
 21
327.653
  0
LINE
  8
0
 10
23.366
 20
327.653
 11
23.2356
 21
327.561
  0
LINE
  8
0
 10
23.2356
 20
327.561
 11
23.1008
 21
327.476
  0
LINE
  8
0
 10
23.1008
 20
327.476
 11
22.962
 21
327.397
  0
LINE
  8
0
 10
22.962
 20
327.397
 11
22.8195
 21
327.325
  0
LINE
  8
0
 10
22.8195
 20
327.325
 11
22.6737
 21
327.261
  0
LINE
  8
0
 10
22.6737
 20
327.261
 11
22.5249
 21
327.203
  0
LINE
  8
0
 10
22.5249
 20
327.203
 11
22.3734
 21
327.153
  0
LINE
  8
0
 10
22.3734
 20
327.153
 11
22.2197
 21
327.111
  0
LINE
  8
0
 10
22.2197
 20
327.111
 11
22.064
 21
327.076
  0
LINE
  8
0
 10
22.064
 20
327.076
 11
21.9069
 21
327.049
  0
LINE
  8
0
 10
21.9069
 20
327.049
 11
21.7486
 21
327.029
  0
LINE
  8
0
 10
21.7486
 20
327.029
 11
21.5895
 21
327.017
  0
LINE
  8
0
 10
21.5895
 20
327.017
 11
21.2705
 21
327.009
  0
LINE
  8
0
 10
21.2705
 20
327.009
 11
21.1114
 21
326.998
  0
LINE
  8
0
 10
21.1114
 20
326.998
 11
20.9531
 21
326.978
  0
LINE
  8
0
 10
20.9531
 20
326.978
 11
20.7959
 21
326.951
  0
LINE
  8
0
 10
20.7959
 20
326.951
 11
20.6403
 21
326.916
  0
LINE
  8
0
 10
20.6403
 20
326.916
 11
20.4866
 21
326.873
  0
LINE
  8
0
 10
20.4866
 20
326.873
 11
20.3351
 21
326.823
  0
LINE
  8
0
 10
20.3351
 20
326.823
 11
20.1863
 21
326.766
  0
LINE
  8
0
 10
20.1863
 20
326.766
 11
20.0404
 21
326.701
  0
LINE
  8
0
 10
20.0404
 20
326.701
 11
19.8979
 21
326.63
  0
LINE
  8
0
 10
19.8979
 20
326.63
 11
19.7592
 21
326.551
  0
LINE
  8
0
 10
19.7592
 20
326.551
 11
19.6244
 21
326.466
  0
LINE
  8
0
 10
19.6244
 20
326.466
 11
19.494
 21
326.374
  0
LINE
  8
0
 10
19.494
 20
326.374
 11
19.3682
 21
326.276
  0
LINE
  8
0
 10
19.3682
 20
326.276
 11
19.2474
 21
326.171
  0
LINE
  8
0
 10
19.2474
 20
326.171
 11
19.1319
 21
326.061
  0
LINE
  8
0
 10
19.1319
 20
326.061
 11
19.0219
 21
325.946
  0
LINE
  8
0
 10
19.0219
 20
325.946
 11
18.9177
 21
325.825
  0
LINE
  8
0
 10
18.9177
 20
325.825
 11
18.8196
 21
325.699
  0
LINE
  8
0
 10
18.8196
 20
325.699
 11
18.7277
 21
325.569
  0
LINE
  8
0
 10
18.7277
 20
325.569
 11
18.6424
 21
325.434
  0
LINE
  8
0
 10
18.6424
 20
325.434
 11
18.5638
 21
325.295
  0
LINE
  8
0
 10
18.5638
 20
325.295
 11
18.492
 21
325.153
  0
LINE
  8
0
 10
18.492
 20
325.153
 11
18.4274
 21
325.007
  0
LINE
  8
0
 10
18.4274
 20
325.007
 11
18.37
 21
324.858
  0
LINE
  8
0
 10
18.37
 20
324.858
 11
18.3199
 21
324.707
  0
LINE
  8
0
 10
18.3199
 20
324.707
 11
18.2774
 21
324.553
  0
LINE
  8
0
 10
18.2774
 20
324.553
 11
18.2424
 21
324.397
  0
LINE
  8
0
 10
18.2424
 20
324.397
 11
18.2152
 21
324.24
  0
LINE
  8
0
 10
18.2152
 20
324.24
 11
18.1956
 21
324.082
  0
LINE
  8
0
 10
18.1956
 20
324.082
 11
18.1839
 21
323.923
  0
LINE
  8
0
 10
18.1839
 20
323.923
 11
18.18
 21
323.763
  0
LINE
  8
0
 10
18.18
 20
323.763
 11
18.18
 21
176.237
  0
LINE
  8
0
 10
18.18
 20
176.237
 11
18.1839
 21
176.077
  0
LINE
  8
0
 10
18.1839
 20
176.077
 11
18.1956
 21
175.918
  0
LINE
  8
0
 10
18.1956
 20
175.918
 11
18.2152
 21
175.76
  0
LINE
  8
0
 10
18.2152
 20
175.76
 11
18.2424
 21
175.603
  0
LINE
  8
0
 10
18.2424
 20
175.603
 11
18.2774
 21
175.447
  0
LINE
  8
0
 10
18.2774
 20
175.447
 11
18.3199
 21
175.293
  0
LINE
  8
0
 10
18.3199
 20
175.293
 11
18.37
 21
175.142
  0
LINE
  8
0
 10
18.37
 20
175.142
 11
18.4274
 21
174.993
  0
LINE
  8
0
 10
18.4274
 20
174.993
 11
18.492
 21
174.847
  0
LINE
  8
0
 10
18.492
 20
174.847
 11
18.5638
 21
174.705
  0
LINE
  8
0
 10
18.5638
 20
174.705
 11
18.6424
 21
174.566
  0
LINE
  8
0
 10
18.6424
 20
174.566
 11
18.7277
 21
174.431
  0
LINE
  8
0
 10
18.7277
 20
174.431
 11
18.8196
 21
174.301
  0
LINE
  8
0
 10
18.8196
 20
174.301
 11
18.9177
 21
174.175
  0
LINE
  8
0
 10
18.9177
 20
174.175
 11
19.0219
 21
174.054
  0
LINE
  8
0
 10
19.0219
 20
174.054
 11
19.1319
 21
173.939
  0
LINE
  8
0
 10
19.1319
 20
173.939
 11
19.2474
 21
173.829
  0
LINE
  8
0
 10
19.2474
 20
173.829
 11
19.3682
 21
173.724
  0
LINE
  8
0
 10
19.3682
 20
173.724
 11
19.494
 21
173.626
  0
LINE
  8
0
 10
19.494
 20
173.626
 11
19.6244
 21
173.534
  0
LINE
  8
0
 10
19.6244
 20
173.534
 11
19.7592
 21
173.449
  0
LINE
  8
0
 10
19.7592
 20
173.449
 11
19.8979
 21
173.37
  0
LINE
  8
0
 10
19.8979
 20
173.37
 11
20.0404
 21
173.299
  0
LINE
  8
0
 10
20.0404
 20
173.299
 11
20.1863
 21
173.234
  0
LINE
  8
0
 10
20.1863
 20
173.234
 11
20.3351
 21
173.177
  0
LINE
  8
0
 10
20.3351
 20
173.177
 11
20.4866
 21
173.127
  0
LINE
  8
0
 10
20.4866
 20
173.127
 11
20.6403
 21
173.084
  0
LINE
  8
0
 10
20.6403
 20
173.084
 11
20.7959
 21
173.049
  0
LINE
  8
0
 10
20.7959
 20
173.049
 11
20.9531
 21
173.022
  0
LINE
  8
0
 10
20.9531
 20
173.022
 11
21.1114
 21
173.002
  0
LINE
  8
0
 10
21.1114
 20
173.002
 11
21.2705
 21
172.991
  0
LINE
  8
0
 10
21.2705
 20
172.991
 11
21.5895
 21
172.983
  0
LINE
  8
0
 10
21.5895
 20
172.983
 11
21.7486
 21
172.971
  0
LINE
  8
0
 10
21.7486
 20
172.971
 11
21.9069
 21
172.951
  0
LINE
  8
0
 10
21.9069
 20
172.951
 11
22.064
 21
172.924
  0
LINE
  8
0
 10
22.064
 20
172.924
 11
22.2197
 21
172.889
  0
LINE
  8
0
 10
22.2197
 20
172.889
 11
22.3734
 21
172.847
  0
LINE
  8
0
 10
22.3734
 20
172.847
 11
22.5249
 21
172.797
  0
LINE
  8
0
 10
22.5249
 20
172.797
 11
22.6737
 21
172.739
  0
LINE
  8
0
 10
22.6737
 20
172.739
 11
22.8195
 21
172.675
  0
LINE
  8
0
 10
22.8195
 20
172.675
 11
22.962
 21
172.603
  0
LINE
  8
0
 10
22.962
 20
172.603
 11
23.1008
 21
172.524
  0
LINE
  8
0
 10
23.1008
 20
172.524
 11
23.2356
 21
172.439
  0
LINE
  8
0
 10
23.2356
 20
172.439
 11
23.366
 21
172.347
  0
LINE
  8
0
 10
23.366
 20
172.347
 11
23.4918
 21
172.249
  0
LINE
  8
0
 10
23.4918
 20
172.249
 11
23.6126
 21
172.145
  0
LINE
  8
0
 10
23.6126
 20
172.145
 11
23.7281
 21
172.035
  0
LINE
  8
0
 10
23.7281
 20
172.035
 11
23.8381
 21
171.919
  0
LINE
  8
0
 10
23.8381
 20
171.919
 11
23.9423
 21
171.798
  0
LINE
  8
0
 10
23.9423
 20
171.798
 11
24.0404
 21
171.673
  0
LINE
  8
0
 10
24.0404
 20
171.673
 11
24.1323
 21
171.542
  0
LINE
  8
0
 10
24.1323
 20
171.542
 11
24.2176
 21
171.407
  0
LINE
  8
0
 10
24.2176
 20
171.407
 11
24.2962
 21
171.269
  0
LINE
  8
0
 10
24.2962
 20
171.269
 11
24.368
 21
171.126
  0
LINE
  8
0
 10
24.368
 20
171.126
 11
24.4326
 21
170.98
  0
LINE
  8
0
 10
24.4326
 20
170.98
 11
24.49
 21
170.832
  0
LINE
  8
0
 10
24.49
 20
170.832
 11
24.5401
 21
170.68
  0
LINE
  8
0
 10
24.5401
 20
170.68
 11
24.5826
 21
170.526
  0
LINE
  8
0
 10
24.5826
 20
170.526
 11
24.6175
 21
170.371
  0
LINE
  8
0
 10
24.6175
 20
170.371
 11
24.6448
 21
170.214
  0
LINE
  8
0
 10
24.6448
 20
170.214
 11
24.6643
 21
170.055
  0
LINE
  8
0
 10
24.6643
 20
170.055
 11
24.6761
 21
169.896
  0
LINE
  8
0
 10
24.6761
 20
169.896
 11
24.68
 21
169.737
  0
LINE
  8
0
 10
24.68
 20
169.737
 11
24.6761
 21
169.577
  0
LINE
  8
0
 10
24.6761
 20
169.577
 11
24.6643
 21
169.418
  0
LINE
  8
0
 10
24.6643
 20
169.418
 11
24.6448
 21
169.26
  0
LINE
  8
0
 10
24.6448
 20
169.26
 11
24.6175
 21
169.103
  0
LINE
  8
0
 10
24.6175
 20
169.103
 11
24.5826
 21
168.947
  0
LINE
  8
0
 10
24.5826
 20
168.947
 11
24.5401
 21
168.793
  0
LINE
  8
0
 10
24.5401
 20
168.793
 11
24.49
 21
168.642
  0
LINE
  8
0
 10
24.49
 20
168.642
 11
24.4326
 21
168.493
  0
LINE
  8
0
 10
24.4326
 20
168.493
 11
24.368
 21
168.347
  0
LINE
  8
0
 10
24.368
 20
168.347
 11
24.2962
 21
168.205
  0
LINE
  8
0
 10
24.2962
 20
168.205
 11
24.2176
 21
168.066
  0
LINE
  8
0
 10
24.2176
 20
168.066
 11
24.1323
 21
167.931
  0
LINE
  8
0
 10
24.1323
 20
167.931
 11
24.0404
 21
167.801
  0
LINE
  8
0
 10
24.0404
 20
167.801
 11
23.9423
 21
167.675
  0
LINE
  8
0
 10
23.9423
 20
167.675
 11
23.8381
 21
167.554
  0
LINE
  8
0
 10
23.8381
 20
167.554
 11
23.7281
 21
167.439
  0
LINE
  8
0
 10
23.7281
 20
167.439
 11
23.6126
 21
167.329
  0
LINE
  8
0
 10
23.6126
 20
167.329
 11
23.4918
 21
167.224
  0
LINE
  8
0
 10
23.4918
 20
167.224
 11
23.366
 21
167.126
  0
LINE
  8
0
 10
23.366
 20
167.126
 11
23.2356
 21
167.034
  0
LINE
  8
0
 10
23.2356
 20
167.034
 11
23.1008
 21
166.949
  0
LINE
  8
0
 10
23.1008
 20
166.949
 11
22.962
 21
166.87
  0
LINE
  8
0
 10
22.962
 20
166.87
 11
22.8195
 21
166.799
  0
LINE
  8
0
 10
22.8195
 20
166.799
 11
22.6737
 21
166.734
  0
LINE
  8
0
 10
22.6737
 20
166.734
 11
22.5249
 21
166.677
  0
LINE
  8
0
 10
22.5249
 20
166.677
 11
22.3734
 21
166.627
  0
LINE
  8
0
 10
22.3734
 20
166.627
 11
22.2197
 21
166.584
  0
LINE
  8
0
 10
22.2197
 20
166.584
 11
22.064
 21
166.549
  0
LINE
  8
0
 10
22.064
 20
166.549
 11
21.9069
 21
166.522
  0
LINE
  8
0
 10
21.9069
 20
166.522
 11
21.7486
 21
166.502
  0
LINE
  8
0
 10
21.7486
 20
166.502
 11
21.5895
 21
166.491
  0
LINE
  8
0
 10
21.5895
 20
166.491
 11
21.43
 21
166.487
  0
LINE
  8
0
 10
21.43
 20
166.487
 11
0
 21
166.487
  0
LINE
  8
0
 10
0
 20
166.487
 11
0
 21
0
  0
LINE
  8
0
 10
0
 20
0
 11
400
 21
0
  0
LINE
  8
0
 10
400
 20
0
 11
400
 21
166.487
  0
LINE
  8
0
 10
333.247
 20
489.252
 11
333.162
 21
489.258
  0
LINE
  8
0
 10
333.162
 20
489.258
 11
333.077
 21
489.269
  0
LINE
  8
0
 10
333.077
 20
489.269
 11
332.992
 21
489.284
  0
LINE
  8
0
 10
332.992
 20
489.284
 11
332.908
 21
489.302
  0
LINE
  8
0
 10
332.908
 20
489.302
 11
332.825
 21
489.325
  0
LINE
  8
0
 10
332.825
 20
489.325
 11
332.744
 21
489.352
  0
LINE
  8
0
 10
332.744
 20
489.352
 11
332.664
 21
489.383
  0
LINE
  8
0
 10
332.664
 20
489.383
 11
332.585
 21
489.418
  0
LINE
  8
0
 10
332.585
 20
489.418
 11
332.508
 21
489.457
  0
LINE
  8
0
 10
332.508
 20
489.457
 11
332.434
 21
489.499
  0
LINE
  8
0
 10
332.434
 20
489.499
 11
332.361
 21
489.545
  0
LINE
  8
0
 10
332.361
 20
489.545
 11
332.291
 21
489.594
  0
LINE
  8
0
 10
332.291
 20
489.594
 11
332.223
 21
489.647
  0
LINE
  8
0
 10
332.223
 20
489.647
 11
332.158
 21
489.703
  0
LINE
  8
0
 10
332.158
 20
489.703
 11
332.096
 21
489.763
  0
LINE
  8
0
 10
332.096
 20
489.763
 11
332.037
 21
489.825
  0
LINE
  8
0
 10
332.037
 20
489.825
 11
331.981
 21
489.89
  0
LINE
  8
0
 10
331.981
 20
489.89
 11
331.928
 21
489.958
  0
LINE
  8
0
 10
331.928
 20
489.958
 11
331.878
 21
490.028
  0
LINE
  8
0
 10
331.878
 20
490.028
 11
331.832
 21
490.1
  0
LINE
  8
0
 10
331.832
 20
490.1
 11
331.79
 21
490.175
  0
LINE
  8
0
 10
331.79
 20
490.175
 11
331.751
 21
490.252
  0
LINE
  8
0
 10
331.751
 20
490.252
 11
331.717
 21
490.33
  0
LINE
  8
0
 10
331.717
 20
490.33
 11
331.686
 21
490.41
  0
LINE
  8
0
 10
331.686
 20
490.41
 11
331.659
 21
490.492
  0
LINE
  8
0
 10
331.659
 20
490.492
 11
331.636
 21
490.575
  0
LINE
  8
0
 10
331.636
 20
490.575
 11
331.617
 21
490.659
  0
LINE
  8
0
 10
331.617
 20
490.659
 11
331.602
 21
490.743
  0
LINE
  8
0
 10
331.602
 20
490.743
 11
331.592
 21
490.828
  0
LINE
  8
0
 10
331.592
 20
490.828
 11
331.585
 21
490.914
  0
LINE
  8
0
 10
331.585
 20
490.914
 11
331.583
 21
491
  0
LINE
  8
0
 10
331.583
 20
491
 11
331.585
 21
491.086
  0
LINE
  8
0
 10
331.585
 20
491.086
 11
331.592
 21
491.172
  0
LINE
  8
0
 10
331.592
 20
491.172
 11
331.602
 21
491.257
  0
LINE
  8
0
 10
331.602
 20
491.257
 11
331.617
 21
491.341
  0
LINE
  8
0
 10
331.617
 20
491.341
 11
331.636
 21
491.425
  0
LINE
  8
0
 10
331.636
 20
491.425
 11
331.659
 21
491.508
  0
LINE
  8
0
 10
331.659
 20
491.508
 11
331.686
 21
491.59
  0
LINE
  8
0
 10
331.686
 20
491.59
 11
331.717
 21
491.67
  0
LINE
  8
0
 10
331.717
 20
491.67
 11
331.751
 21
491.748
  0
LINE
  8
0
 10
331.751
 20
491.748
 11
331.79
 21
491.825
  0
LINE
  8
0
 10
331.79
 20
491.825
 11
331.832
 21
491.9
  0
LINE
  8
0
 10
331.832
 20
491.9
 11
331.878
 21
491.972
  0
LINE
  8
0
 10
331.878
 20
491.972
 11
331.928
 21
492.042
  0
LINE
  8
0
 10
331.928
 20
492.042
 11
331.981
 21
492.11
  0
LINE
  8
0
 10
331.981
 20
492.11
 11
332.037
 21
492.175
  0
LINE
  8
0
 10
332.037
 20
492.175
 11
332.096
 21
492.237
  0
LINE
  8
0
 10
332.096
 20
492.237
 11
332.158
 21
492.297
  0
LINE
  8
0
 10
332.158
 20
492.297
 11
332.223
 21
492.353
  0
LINE
  8
0
 10
332.223
 20
492.353
 11
332.291
 21
492.406
  0
LINE
  8
0
 10
332.291
 20
492.406
 11
332.361
 21
492.455
  0
LINE
  8
0
 10
332.361
 20
492.455
 11
332.434
 21
492.501
  0
LINE
  8
0
 10
332.434
 20
492.501
 11
332.508
 21
492.543
  0
LINE
  8
0
 10
332.508
 20
492.543
 11
332.585
 21
492.582
  0
LINE
  8
0
 10
332.585
 20
492.582
 11
332.664
 21
492.617
  0
LINE
  8
0
 10
332.664
 20
492.617
 11
332.744
 21
492.648
  0
LINE
  8
0
 10
332.744
 20
492.648
 11
332.825
 21
492.675
  0
LINE
  8
0
 10
332.825
 20
492.675
 11
332.908
 21
492.698
  0
LINE
  8
0
 10
332.908
 20
492.698
 11
332.992
 21
492.716
  0
LINE
  8
0
 10
332.992
 20
492.716
 11
333.077
 21
492.731
  0
LINE
  8
0
 10
333.077
 20
492.731
 11
333.162
 21
492.742
  0
LINE
  8
0
 10
333.162
 20
492.742
 11
333.247
 21
492.748
  0
LINE
  8
0
 10
333.247
 20
492.748
 11
333.333
 21
492.75
  0
LINE
  8
0
 10
333.333
 20
492.75
 11
333.419
 21
492.748
  0
LINE
  8
0
 10
333.419
 20
492.748
 11
333.505
 21
492.742
  0
LINE
  8
0
 10
333.505
 20
492.742
 11
333.59
 21
492.731
  0
LINE
  8
0
 10
333.59
 20
492.731
 11
333.675
 21
492.716
  0
LINE
  8
0
 10
333.675
 20
492.716
 11
333.759
 21
492.698
  0
LINE
  8
0
 10
333.759
 20
492.698
 11
333.841
 21
492.675
  0
LINE
  8
0
 10
333.841
 20
492.675
 11
333.923
 21
492.648
  0
LINE
  8
0
 10
333.923
 20
492.648
 11
334.003
 21
492.617
  0
LINE
  8
0
 10
334.003
 20
492.617
 11
334.082
 21
492.582
  0
LINE
  8
0
 10
334.082
 20
492.582
 11
334.158
 21
492.543
  0
LINE
  8
0
 10
334.158
 20
492.543
 11
334.233
 21
492.501
  0
LINE
  8
0
 10
334.233
 20
492.501
 11
334.306
 21
492.455
  0
LINE
  8
0
 10
334.306
 20
492.455
 11
334.376
 21
492.406
  0
LINE
  8
0
 10
334.376
 20
492.406
 11
334.444
 21
492.353
  0
LINE
  8
0
 10
334.444
 20
492.353
 11
334.509
 21
492.297
  0
LINE
  8
0
 10
334.509
 20
492.297
 11
334.571
 21
492.237
  0
LINE
  8
0
 10
334.571
 20
492.237
 11
334.63
 21
492.175
  0
LINE
  8
0
 10
334.63
 20
492.175
 11
334.686
 21
492.11
  0
LINE
  8
0
 10
334.686
 20
492.11
 11
334.739
 21
492.042
  0
LINE
  8
0
 10
334.739
 20
492.042
 11
334.788
 21
491.972
  0
LINE
  8
0
 10
334.788
 20
491.972
 11
334.834
 21
491.9
  0
LINE
  8
0
 10
334.834
 20
491.9
 11
334.877
 21
491.825
  0
LINE
  8
0
 10
334.877
 20
491.825
 11
334.915
 21
491.748
  0
LINE
  8
0
 10
334.915
 20
491.748
 11
334.95
 21
491.67
  0
LINE
  8
0
 10
334.95
 20
491.67
 11
334.981
 21
491.59
  0
LINE
  8
0
 10
334.981
 20
491.59
 11
335.008
 21
491.508
  0
LINE
  8
0
 10
335.008
 20
491.508
 11
335.031
 21
491.425
  0
LINE
  8
0
 10
335.031
 20
491.425
 11
335.05
 21
491.341
  0
LINE
  8
0
 10
335.05
 20
491.341
 11
335.064
 21
491.257
  0
LINE
  8
0
 10
335.064
 20
491.257
 11
335.075
 21
491.172
  0
LINE
  8
0
 10
335.075
 20
491.172
 11
335.081
 21
491.086
  0
LINE
  8
0
 10
335.081
 20
491.086
 11
335.083
 21
491
  0
LINE
  8
0
 10
335.083
 20
491
 11
335.081
 21
490.914
  0
LINE
  8
0
 10
335.081
 20
490.914
 11
335.075
 21
490.828
  0
LINE
  8
0
 10
335.075
 20
490.828
 11
335.064
 21
490.743
  0
LINE
  8
0
 10
335.064
 20
490.743
 11
335.05
 21
490.659
  0
LINE
  8
0
 10
335.05
 20
490.659
 11
335.031
 21
490.575
  0
LINE
  8
0
 10
335.031
 20
490.575
 11
335.008
 21
490.492
  0
LINE
  8
0
 10
335.008
 20
490.492
 11
334.981
 21
490.41
  0
LINE
  8
0
 10
334.981
 20
490.41
 11
334.95
 21
490.33
  0
LINE
  8
0
 10
334.95
 20
490.33
 11
334.915
 21
490.252
  0
LINE
  8
0
 10
334.915
 20
490.252
 11
334.877
 21
490.175
  0
LINE
  8
0
 10
334.877
 20
490.175
 11
334.834
 21
490.1
  0
LINE
  8
0
 10
334.834
 20
490.1
 11
334.788
 21
490.028
  0
LINE
  8
0
 10
334.788
 20
490.028
 11
334.739
 21
489.958
  0
LINE
  8
0
 10
334.739
 20
489.958
 11
334.686
 21
489.89
  0
LINE
  8
0
 10
334.686
 20
489.89
 11
334.63
 21
489.825
  0
LINE
  8
0
 10
334.63
 20
489.825
 11
334.571
 21
489.763
  0
LINE
  8
0
 10
334.571
 20
489.763
 11
334.509
 21
489.703
  0
LINE
  8
0
 10
334.509
 20
489.703
 11
334.444
 21
489.647
  0
LINE
  8
0
 10
334.444
 20
489.647
 11
334.376
 21
489.594
  0
LINE
  8
0
 10
334.376
 20
489.594
 11
334.306
 21
489.545
  0
LINE
  8
0
 10
334.306
 20
489.545
 11
334.233
 21
489.499
  0
LINE
  8
0
 10
334.233
 20
489.499
 11
334.158
 21
489.457
  0
LINE
  8
0
 10
334.158
 20
489.457
 11
334.082
 21
489.418
  0
LINE
  8
0
 10
334.082
 20
489.418
 11
334.003
 21
489.383
  0
LINE
  8
0
 10
334.003
 20
489.383
 11
333.923
 21
489.352
  0
LINE
  8
0
 10
333.923
 20
489.352
 11
333.841
 21
489.325
  0
LINE
  8
0
 10
333.841
 20
489.325
 11
333.759
 21
489.302
  0
LINE
  8
0
 10
333.759
 20
489.302
 11
333.675
 21
489.284
  0
LINE
  8
0
 10
333.675
 20
489.284
 11
333.59
 21
489.269
  0
LINE
  8
0
 10
333.59
 20
489.269
 11
333.505
 21
489.258
  0
LINE
  8
0
 10
333.505
 20
489.258
 11
333.419
 21
489.252
  0
LINE
  8
0
 10
333.419
 20
489.252
 11
333.333
 21
489.25
  0
LINE
  8
0
 10
333.333
 20
489.25
 11
333.247
 21
489.252
  0
LINE
  8
0
 10
66.5808
 20
489.252
 11
66.4951
 21
489.258
  0
LINE
  8
0
 10
66.4951
 20
489.258
 11
66.4099
 21
489.269
  0
LINE
  8
0
 10
66.4099
 20
489.269
 11
66.3253
 21
489.284
  0
LINE
  8
0
 10
66.3253
 20
489.284
 11
66.2414
 21
489.302
  0
LINE
  8
0
 10
66.2414
 20
489.302
 11
66.1587
 21
489.325
  0
LINE
  8
0
 10
66.1587
 20
489.325
 11
66.0771
 21
489.352
  0
LINE
  8
0
 10
66.0771
 20
489.352
 11
65.997
 21
489.383
  0
LINE
  8
0
 10
65.997
 20
489.383
 11
65.9184
 21
489.418
  0
LINE
  8
0
 10
65.9184
 20
489.418
 11
65.8417
 21
489.457
  0
LINE
  8
0
 10
65.8417
 20
489.457
 11
65.767
 21
489.499
  0
LINE
  8
0
 10
65.767
 20
489.499
 11
65.6944
 21
489.545
  0
LINE
  8
0
 10
65.6944
 20
489.545
 11
65.6242
 21
489.594
  0
LINE
  8
0
 10
65.6242
 20
489.594
 11
65.5565
 21
489.647
  0
LINE
  8
0
 10
65.5565
 20
489.647
 11
65.4914
 21
489.703
  0
LINE
  8
0
 10
65.4914
 20
489.703
 11
65.4292
 21
489.763
  0
LINE
  8
0
 10
65.4292
 20
489.763
 11
65.37
 21
489.825
  0
LINE
  8
0
 10
65.37
 20
489.825
 11
65.3139
 21
489.89
  0
LINE
  8
0
 10
65.3139
 20
489.89
 11
65.261
 21
489.958
  0
LINE
  8
0
 10
65.261
 20
489.958
 11
65.2116
 21
490.028
  0
LINE
  8
0
 10
65.2116
 20
490.028
 11
65.1656
 21
490.1
  0
LINE
  8
0
 10
65.1656
 20
490.1
 11
65.1233
 21
490.175
  0
LINE
  8
0
 10
65.1233
 20
490.175
 11
65.0847
 21
490.252
  0
LINE
  8
0
 10
65.0847
 20
490.252
 11
65.0499
 21
490.33
  0
LINE
  8
0
 10
65.0499
 20
490.33
 11
65.019
 21
490.41
  0
LINE
  8
0
 10
65.019
 20
490.41
 11
64.992
 21
490.492
  0
LINE
  8
0
 10
64.992
 20
490.492
 11
64.9691
 21
490.575
  0
LINE
  8
0
 10
64.9691
 20
490.575
 11
64.9503
 21
490.659
  0
LINE
  8
0
 10
64.9503
 20
490.659
 11
64.9356
 21
490.743
  0
LINE
  8
0
 10
64.9356
 20
490.743
 11
64.9251
 21
490.828
  0
LINE
  8
0
 10
64.9251
 20
490.828
 11
64.9188
 21
490.914
  0
LINE
  8
0
 10
64.9188
 20
490.914
 11
64.9167
 21
491
  0
LINE
  8
0
 10
64.9167
 20
491
 11
64.9188
 21
491.086
  0
LINE
  8
0
 10
64.9188
 20
491.086
 11
64.9251
 21
491.172
  0
LINE
  8
0
 10
64.9251
 20
491.172
 11
64.9356
 21
491.257
  0
LINE
  8
0
 10
64.9356
 20
491.257
 11
64.9503
 21
491.341
  0
LINE
  8
0
 10
64.9503
 20
491.341
 11
64.9691
 21
491.425
  0
LINE
  8
0
 10
64.9691
 20
491.425
 11
64.992
 21
491.508
  0
LINE
  8
0
 10
64.992
 20
491.508
 11
65.019
 21
491.59
  0
LINE
  8
0
 10
65.019
 20
491.59
 11
65.0499
 21
491.67
  0
LINE
  8
0
 10
65.0499
 20
491.67
 11
65.0847
 21
491.748
  0
LINE
  8
0
 10
65.0847
 20
491.748
 11
65.1233
 21
491.825
  0
LINE
  8
0
 10
65.1233
 20
491.825
 11
65.1656
 21
491.9
  0
LINE
  8
0
 10
65.1656
 20
491.9
 11
65.2116
 21
491.972
  0
LINE
  8
0
 10
65.2116
 20
491.972
 11
65.261
 21
492.042
  0
LINE
  8
0
 10
65.261
 20
492.042
 11
65.3139
 21
492.11
  0
LINE
  8
0
 10
65.3139
 20
492.11
 11
65.37
 21
492.175
  0
LINE
  8
0
 10
65.37
 20
492.175
 11
65.4292
 21
492.237
  0
LINE
  8
0
 10
65.4292
 20
492.237
 11
65.4914
 21
492.297
  0
LINE
  8
0
 10
65.4914
 20
492.297
 11
65.5565
 21
492.353
  0
LINE
  8
0
 10
65.5565
 20
492.353
 11
65.6242
 21
492.406
  0
LINE
  8
0
 10
65.6242
 20
492.406
 11
65.6944
 21
492.455
  0
LINE
  8
0
 10
65.6944
 20
492.455
 11
65.767
 21
492.501
  0
LINE
  8
0
 10
65.767
 20
492.501
 11
65.8417
 21
492.543
  0
LINE
  8
0
 10
65.8417
 20
492.543
 11
65.9184
 21
492.582
  0
LINE
  8
0
 10
65.9184
 20
492.582
 11
65.997
 21
492.617
  0
LINE
  8
0
 10
65.997
 20
492.617
 11
66.0771
 21
492.648
  0
LINE
  8
0
 10
66.0771
 20
492.648
 11
66.1587
 21
492.675
  0
LINE
  8
0
 10
66.1587
 20
492.675
 11
66.2414
 21
492.698
  0
LINE
  8
0
 10
66.2414
 20
492.698
 11
66.3253
 21
492.716
  0
LINE
  8
0
 10
66.3253
 20
492.716
 11
66.4099
 21
492.731
  0
LINE
  8
0
 10
66.4099
 20
492.731
 11
66.4951
 21
492.742
  0
LINE
  8
0
 10
66.4951
 20
492.742
 11
66.5808
 21
492.748
  0
LINE
  8
0
 10
66.5808
 20
492.748
 11
66.6667
 21
492.75
  0
LINE
  8
0
 10
66.6667
 20
492.75
 11
66.7525
 21
492.748
  0
LINE
  8
0
 10
66.7525
 20
492.748
 11
66.8382
 21
492.742
  0
LINE
  8
0
 10
66.8382
 20
492.742
 11
66.9234
 21
492.731
  0
LINE
  8
0
 10
66.9234
 20
492.731
 11
67.0081
 21
492.716
  0
LINE
  8
0
 10
67.0081
 20
492.716
 11
67.0919
 21
492.698
  0
LINE
  8
0
 10
67.0919
 20
492.698
 11
67.1747
 21
492.675
  0
LINE
  8
0
 10
67.1747
 20
492.675
 11
67.2562
 21
492.648
  0
LINE
  8
0
 10
67.2562
 20
492.648
 11
67.3363
 21
492.617
  0
LINE
  8
0
 10
67.3363
 20
492.617
 11
67.4149
 21
492.582
  0
LINE
  8
0
 10
67.4149
 20
492.582
 11
67.4916
 21
492.543
  0
LINE
  8
0
 10
67.4916
 20
492.543
 11
67.5663
 21
492.501
  0
LINE
  8
0
 10
67.5663
 20
492.501
 11
67.6389
 21
492.455
  0
LINE
  8
0
 10
67.6389
 20
492.455
 11
67.7091
 21
492.406
  0
LINE
  8
0
 10
67.7091
 20
492.406
 11
67.7768
 21
492.353
  0
LINE
  8
0
 10
67.7768
 20
492.353
 11
67.8419
 21
492.297
  0
LINE
  8
0
 10
67.8419
 20
492.297
 11
67.9041
 21
492.237
  0
LINE
  8
0
 10
67.9041
 20
492.237
 11
67.9633
 21
492.175
  0
LINE
  8
0
 10
67.9633
 20
492.175
 11
68.0194
 21
492.11
  0
LINE
  8
0
 10
68.0194
 20
492.11
 11
68.0723
 21
492.042
  0
LINE
  8
0
 10
68.0723
 20
492.042
 11
68.1217
 21
491.972
  0
LINE
  8
0
 10
68.1217
 20
491.972
 11
68.1677
 21
491.9
  0
LINE
  8
0
 10
68.1677
 20
491.9
 11
68.21
 21
491.825
  0
LINE
  8
0
 10
68.21
 20
491.825
 11
68.2486
 21
491.748
  0
LINE
  8
0
 10
68.2486
 20
491.748
 11
68.2834
 21
491.67
  0
LINE
  8
0
 10
68.2834
 20
491.67
 11
68.3144
 21
491.59
  0
LINE
  8
0
 10
68.3144
 20
491.59
 11
68.3413
 21
491.508
  0
LINE
  8
0
 10
68.3413
 20
491.508
 11
68.3642
 21
491.425
  0
LINE
  8
0
 10
68.3642
 20
491.425
 11
68.383
 21
491.341
  0
LINE
  8
0
 10
68.383
 20
491.341
 11
68.3977
 21
491.257
  0
LINE
  8
0
 10
68.3977
 20
491.257
 11
68.4082
 21
491.172
  0
LINE
  8
0
 10
68.4082
 20
491.172
 11
68.4146
 21
491.086
  0
LINE
  8
0
 10
68.4146
 20
491.086
 11
68.4167
 21
491
  0
LINE
  8
0
 10
68.4167
 20
491
 11
68.4146
 21
490.914
  0
LINE
  8
0
 10
68.4146
 20
490.914
 11
68.4082
 21
490.828
  0
LINE
  8
0
 10
68.4082
 20
490.828
 11
68.3977
 21
490.743
  0
LINE
  8
0
 10
68.3977
 20
490.743
 11
68.383
 21
490.659
  0
LINE
  8
0
 10
68.383
 20
490.659
 11
68.3642
 21
490.575
  0
LINE
  8
0
 10
68.3642
 20
490.575
 11
68.3413
 21
490.492
  0
LINE
  8
0
 10
68.3413
 20
490.492
 11
68.3144
 21
490.41
  0
LINE
  8
0
 10
68.3144
 20
490.41
 11
68.2834
 21
490.33
  0
LINE
  8
0
 10
68.2834
 20
490.33
 11
68.2486
 21
490.252
  0
LINE
  8
0
 10
68.2486
 20
490.252
 11
68.21
 21
490.175
  0
LINE
  8
0
 10
68.21
 20
490.175
 11
68.1677
 21
490.1
  0
LINE
  8
0
 10
68.1677
 20
490.1
 11
68.1217
 21
490.028
  0
LINE
  8
0
 10
68.1217
 20
490.028
 11
68.0723
 21
489.958
  0
LINE
  8
0
 10
68.0723
 20
489.958
 11
68.0194
 21
489.89
  0
LINE
  8
0
 10
68.0194
 20
489.89
 11
67.9633
 21
489.825
  0
LINE
  8
0
 10
67.9633
 20
489.825
 11
67.9041
 21
489.763
  0
LINE
  8
0
 10
67.9041
 20
489.763
 11
67.8419
 21
489.703
  0
LINE
  8
0
 10
67.8419
 20
489.703
 11
67.7768
 21
489.647
  0
LINE
  8
0
 10
67.7768
 20
489.647
 11
67.7091
 21
489.594
  0
LINE
  8
0
 10
67.7091
 20
489.594
 11
67.6389
 21
489.545
  0
LINE
  8
0
 10
67.6389
 20
489.545
 11
67.5663
 21
489.499
  0
LINE
  8
0
 10
67.5663
 20
489.499
 11
67.4916
 21
489.457
  0
LINE
  8
0
 10
67.4916
 20
489.457
 11
67.4149
 21
489.418
  0
LINE
  8
0
 10
67.4149
 20
489.418
 11
67.3363
 21
489.383
  0
LINE
  8
0
 10
67.3363
 20
489.383
 11
67.2562
 21
489.352
  0
LINE
  8
0
 10
67.2562
 20
489.352
 11
67.1747
 21
489.325
  0
LINE
  8
0
 10
67.1747
 20
489.325
 11
67.0919
 21
489.302
  0
LINE
  8
0
 10
67.0919
 20
489.302
 11
67.0081
 21
489.284
  0
LINE
  8
0
 10
67.0081
 20
489.284
 11
66.9234
 21
489.269
  0
LINE
  8
0
 10
66.9234
 20
489.269
 11
66.8382
 21
489.258
  0
LINE
  8
0
 10
66.8382
 20
489.258
 11
66.7525
 21
489.252
  0
LINE
  8
0
 10
66.7525
 20
489.252
 11
66.6667
 21
489.25
  0
LINE
  8
0
 10
66.6667
 20
489.25
 11
66.5808
 21
489.252
  0
LINE
  8
0
 10
390.914
 20
414.919
 11
390.828
 21
414.925
  0
LINE
  8
0
 10
390.828
 20
414.925
 11
390.743
 21
414.936
  0
LINE
  8
0
 10
390.743
 20
414.936
 11
390.659
 21
414.95
  0
LINE
  8
0
 10
390.659
 20
414.95
 11
390.575
 21
414.969
  0
LINE
  8
0
 10
390.575
 20
414.969
 11
390.492
 21
414.992
  0
LINE
  8
0
 10
390.492
 20
414.992
 11
390.41
 21
415.019
  0
LINE
  8
0
 10
390.41
 20
415.019
 11
390.33
 21
415.05
  0
LINE
  8
0
 10
390.33
 20
415.05
 11
390.252
 21
415.085
  0
LINE
  8
0
 10
390.252
 20
415.085
 11
390.175
 21
415.123
  0
LINE
  8
0
 10
390.175
 20
415.123
 11
390.1
 21
415.166
  0
LINE
  8
0
 10
390.1
 20
415.166
 11
390.028
 21
415.212
  0
LINE
  8
0
 10
390.028
 20
415.212
 11
389.958
 21
415.261
  0
LINE
  8
0
 10
389.958
 20
415.261
 11
389.89
 21
415.314
  0
LINE
  8
0
 10
389.89
 20
415.314
 11
389.825
 21
415.37
  0
LINE
  8
0
 10
389.825
 20
415.37
 11
389.763
 21
415.429
  0
LINE
  8
0
 10
389.763
 20
415.429
 11
389.703
 21
415.491
  0
LINE
  8
0
 10
389.703
 20
415.491
 11
389.647
 21
415.556
  0
LINE
  8
0
 10
389.647
 20
415.556
 11
389.594
 21
415.624
  0
LINE
  8
0
 10
389.594
 20
415.624
 11
389.545
 21
415.694
  0
LINE
  8
0
 10
389.545
 20
415.694
 11
389.499
 21
415.767
  0
LINE
  8
0
 10
389.499
 20
415.767
 11
389.457
 21
415.842
  0
LINE
  8
0
 10
389.457
 20
415.842
 11
389.418
 21
415.918
  0
LINE
  8
0
 10
389.418
 20
415.918
 11
389.383
 21
415.997
  0
LINE
  8
0
 10
389.383
 20
415.997
 11
389.352
 21
416.077
  0
LINE
  8
0
 10
389.352
 20
416.077
 11
389.325
 21
416.159
  0
LINE
  8
0
 10
389.325
 20
416.159
 11
389.302
 21
416.241
  0
LINE
  8
0
 10
389.302
 20
416.241
 11
389.284
 21
416.325
  0
LINE
  8
0
 10
389.284
 20
416.325
 11
389.269
 21
416.41
  0
LINE
  8
0
 10
389.269
 20
416.41
 11
389.258
 21
416.495
  0
LINE
  8
0
 10
389.258
 20
416.495
 11
389.252
 21
416.581
  0
LINE
  8
0
 10
389.252
 20
416.581
 11
389.25
 21
416.667
  0
LINE
  8
0
 10
389.25
 20
416.667
 11
389.252
 21
416.753
  0
LINE
  8
0
 10
389.252
 20
416.753
 11
389.258
 21
416.838
  0
LINE
  8
0
 10
389.258
 20
416.838
 11
389.269
 21
416.923
  0
LINE
  8
0
 10
389.269
 20
416.923
 11
389.284
 21
417.008
  0
LINE
  8
0
 10
389.284
 20
417.008
 11
389.302
 21
417.092
  0
LINE
  8
0
 10
389.302
 20
417.092
 11
389.325
 21
417.175
  0
LINE
  8
0
 10
389.325
 20
417.175
 11
389.352
 21
417.256
  0
LINE
  8
0
 10
389.352
 20
417.256
 11
389.383
 21
417.336
  0
LINE
  8
0
 10
389.383
 20
417.336
 11
389.418
 21
417.415
  0
LINE
  8
0
 10
389.418
 20
417.415
 11
389.457
 21
417.492
  0
LINE
  8
0
 10
389.457
 20
417.492
 11
389.499
 21
417.566
  0
LINE
  8
0
 10
389.499
 20
417.566
 11
389.545
 21
417.639
  0
LINE
  8
0
 10
389.545
 20
417.639
 11
389.594
 21
417.709
  0
LINE
  8
0
 10
389.594
 20
417.709
 11
389.647
 21
417.777
  0
LINE
  8
0
 10
389.647
 20
417.777
 11
389.703
 21
417.842
  0
LINE
  8
0
 10
389.703
 20
417.842
 11
389.763
 21
417.904
  0
LINE
  8
0
 10
389.763
 20
417.904
 11
389.825
 21
417.963
  0
LINE
  8
0
 10
389.825
 20
417.963
 11
389.89
 21
418.019
  0
LINE
  8
0
 10
389.89
 20
418.019
 11
389.958
 21
418.072
  0
LINE
  8
0
 10
389.958
 20
418.072
 11
390.028
 21
418.122
  0
LINE
  8
0
 10
390.028
 20
418.122
 11
390.1
 21
418.168
  0
LINE
  8
0
 10
390.1
 20
418.168
 11
390.175
 21
418.21
  0
LINE
  8
0
 10
390.175
 20
418.21
 11
390.252
 21
418.249
  0
LINE
  8
0
 10
390.252
 20
418.249
 11
390.33
 21
418.283
  0
LINE
  8
0
 10
390.33
 20
418.283
 11
390.41
 21
418.314
  0
LINE
  8
0
 10
390.41
 20
418.314
 11
390.492
 21
418.341
  0
LINE
  8
0
 10
390.492
 20
418.341
 11
390.575
 21
418.364
  0
LINE
  8
0
 10
390.575
 20
418.364
 11
390.659
 21
418.383
  0
LINE
  8
0
 10
390.659
 20
418.383
 11
390.743
 21
418.398
  0
LINE
  8
0
 10
390.743
 20
418.398
 11
390.828
 21
418.408
  0
LINE
  8
0
 10
390.828
 20
418.408
 11
390.914
 21
418.415
  0
LINE
  8
0
 10
390.914
 20
418.415
 11
391
 21
418.417
  0
LINE
  8
0
 10
391
 20
418.417
 11
391.086
 21
418.415
  0
LINE
  8
0
 10
391.086
 20
418.415
 11
391.172
 21
418.408
  0
LINE
  8
0
 10
391.172
 20
418.408
 11
391.257
 21
418.398
  0
LINE
  8
0
 10
391.257
 20
418.398
 11
391.341
 21
418.383
  0
LINE
  8
0
 10
391.341
 20
418.383
 11
391.425
 21
418.364
  0
LINE
  8
0
 10
391.425
 20
418.364
 11
391.508
 21
418.341
  0
LINE
  8
0
 10
391.508
 20
418.341
 11
391.59
 21
418.314
  0
LINE
  8
0
 10
391.59
 20
418.314
 11
391.67
 21
418.283
  0
LINE
  8
0
 10
391.67
 20
418.283
 11
391.748
 21
418.249
  0
LINE
  8
0
 10
391.748
 20
418.249
 11
391.825
 21
418.21
  0
LINE
  8
0
 10
391.825
 20
418.21
 11
391.9
 21
418.168
  0
LINE
  8
0
 10
391.9
 20
418.168
 11
391.972
 21
418.122
  0
LINE
  8
0
 10
391.972
 20
418.122
 11
392.042
 21
418.072
  0
LINE
  8
0
 10
392.042
 20
418.072
 11
392.11
 21
418.019
  0
LINE
  8
0
 10
392.11
 20
418.019
 11
392.175
 21
417.963
  0
LINE
  8
0
 10
392.175
 20
417.963
 11
392.237
 21
417.904
  0
LINE
  8
0
 10
392.237
 20
417.904
 11
392.297
 21
417.842
  0
LINE
  8
0
 10
392.297
 20
417.842
 11
392.353
 21
417.777
  0
LINE
  8
0
 10
392.353
 20
417.777
 11
392.406
 21
417.709
  0
LINE
  8
0
 10
392.406
 20
417.709
 11
392.455
 21
417.639
  0
LINE
  8
0
 10
392.455
 20
417.639
 11
392.501
 21
417.566
  0
LINE
  8
0
 10
392.501
 20
417.566
 11
392.543
 21
417.492
  0
LINE
  8
0
 10
392.543
 20
417.492
 11
392.582
 21
417.415
  0
LINE
  8
0
 10
392.582
 20
417.415
 11
392.617
 21
417.336
  0
LINE
  8
0
 10
392.617
 20
417.336
 11
392.648
 21
417.256
  0
LINE
  8
0
 10
392.648
 20
417.256
 11
392.675
 21
417.175
  0
LINE
  8
0
 10
392.675
 20
417.175
 11
392.698
 21
417.092
  0
LINE
  8
0
 10
392.698
 20
417.092
 11
392.716
 21
417.008
  0
LINE
  8
0
 10
392.716
 20
417.008
 11
392.731
 21
416.923
  0
LINE
  8
0
 10
392.731
 20
416.923
 11
392.742
 21
416.838
  0
LINE
  8
0
 10
392.742
 20
416.838
 11
392.748
 21
416.753
  0
LINE
  8
0
 10
392.748
 20
416.753
 11
392.75
 21
416.667
  0
LINE
  8
0
 10
392.75
 20
416.667
 11
392.748
 21
416.581
  0
LINE
  8
0
 10
392.748
 20
416.581
 11
392.742
 21
416.495
  0
LINE
  8
0
 10
392.742
 20
416.495
 11
392.731
 21
416.41
  0
LINE
  8
0
 10
392.731
 20
416.41
 11
392.716
 21
416.325
  0
LINE
  8
0
 10
392.716
 20
416.325
 11
392.698
 21
416.241
  0
LINE
  8
0
 10
392.698
 20
416.241
 11
392.675
 21
416.159
  0
LINE
  8
0
 10
392.675
 20
416.159
 11
392.648
 21
416.077
  0
LINE
  8
0
 10
392.648
 20
416.077
 11
392.617
 21
415.997
  0
LINE
  8
0
 10
392.617
 20
415.997
 11
392.582
 21
415.918
  0
LINE
  8
0
 10
392.582
 20
415.918
 11
392.543
 21
415.842
  0
LINE
  8
0
 10
392.543
 20
415.842
 11
392.501
 21
415.767
  0
LINE
  8
0
 10
392.501
 20
415.767
 11
392.455
 21
415.694
  0
LINE
  8
0
 10
392.455
 20
415.694
 11
392.406
 21
415.624
  0
LINE
  8
0
 10
392.406
 20
415.624
 11
392.353
 21
415.556
  0
LINE
  8
0
 10
392.353
 20
415.556
 11
392.297
 21
415.491
  0
LINE
  8
0
 10
392.297
 20
415.491
 11
392.237
 21
415.429
  0
LINE
  8
0
 10
392.237
 20
415.429
 11
392.175
 21
415.37
  0
LINE
  8
0
 10
392.175
 20
415.37
 11
392.11
 21
415.314
  0
LINE
  8
0
 10
392.11
 20
415.314
 11
392.042
 21
415.261
  0
LINE
  8
0
 10
392.042
 20
415.261
 11
391.972
 21
415.212
  0
LINE
  8
0
 10
391.972
 20
415.212
 11
391.9
 21
415.166
  0
LINE
  8
0
 10
391.9
 20
415.166
 11
391.825
 21
415.123
  0
LINE
  8
0
 10
391.825
 20
415.123
 11
391.748
 21
415.085
  0
LINE
  8
0
 10
391.748
 20
415.085
 11
391.67
 21
415.05
  0
LINE
  8
0
 10
391.67
 20
415.05
 11
391.59
 21
415.019
  0
LINE
  8
0
 10
391.59
 20
415.019
 11
391.508
 21
414.992
  0
LINE
  8
0
 10
391.508
 20
414.992
 11
391.425
 21
414.969
  0
LINE
  8
0
 10
391.425
 20
414.969
 11
391.341
 21
414.95
  0
LINE
  8
0
 10
391.341
 20
414.95
 11
391.257
 21
414.936
  0
LINE
  8
0
 10
391.257
 20
414.936
 11
391.172
 21
414.925
  0
LINE
  8
0
 10
391.172
 20
414.925
 11
391.086
 21
414.919
  0
LINE
  8
0
 10
391.086
 20
414.919
 11
391
 21
414.917
  0
LINE
  8
0
 10
391
 20
414.917
 11
390.914
 21
414.919
  0
LINE
  8
0
 10
8.91412
 20
414.919
 11
8.82846
 21
414.925
  0
LINE
  8
0
 10
8.82846
 20
414.925
 11
8.74321
 21
414.936
  0
LINE
  8
0
 10
8.74321
 20
414.936
 11
8.65858
 21
414.95
  0
LINE
  8
0
 10
8.65858
 20
414.95
 11
8.57478
 21
414.969
  0
LINE
  8
0
 10
8.57478
 20
414.969
 11
8.49199
 21
414.992
  0
LINE
  8
0
 10
8.49199
 20
414.992
 11
8.41043
 21
415.019
  0
LINE
  8
0
 10
8.41043
 20
415.019
 11
8.33029
 21
415.05
  0
LINE
  8
0
 10
8.33029
 20
415.05
 11
8.25177
 21
415.085
  0
LINE
  8
0
 10
8.25177
 20
415.085
 11
8.17505
 21
415.123
  0
LINE
  8
0
 10
8.17505
 20
415.123
 11
8.10031
 21
415.166
  0
LINE
  8
0
 10
8.10031
 20
415.166
 11
8.02774
 21
415.212
  0
LINE
  8
0
 10
8.02774
 20
415.212
 11
7.95752
 21
415.261
  0
LINE
  8
0
 10
7.95752
 20
415.261
 11
7.8898
 21
415.314
  0
LINE
  8
0
 10
7.8898
 20
415.314
 11
7.82477
 21
415.37
  0
LINE
  8
0
 10
7.82477
 20
415.37
 11
7.76256
 21
415.429
  0
LINE
  8
0
 10
7.76256
 20
415.429
 11
7.70332
 21
415.491
  0
LINE
  8
0
 10
7.70332
 20
415.491
 11
7.64722
 21
415.556
  0
LINE
  8
0
 10
7.64722
 20
415.556
 11
7.59438
 21
415.624
  0
LINE
  8
0
 10
7.59438
 20
415.624
 11
7.54492
 21
415.694
  0
LINE
  8
0
 10
7.54492
 20
415.694
 11
7.49896
 21
415.767
  0
LINE
  8
0
 10
7.49896
 20
415.767
 11
7.45663
 21
415.842
  0
LINE
  8
0
 10
7.45663
 20
415.842
 11
7.41801
 21
415.918
  0
LINE
  8
0
 10
7.41801
 20
415.918
 11
7.38321
 21
415.997
  0
LINE
  8
0
 10
7.38321
 20
415.997
 11
7.35229
 21
416.077
  0
LINE
  8
0
 10
7.35229
 20
416.077
 11
7.32535
 21
416.159
  0
LINE
  8
0
 10
7.32535
 20
416.159
 11
7.30244
 21
416.241
  0
LINE
  8
0
 10
7.30244
 20
416.241
 11
7.28362
 21
416.325
  0
LINE
  8
0
 10
7.28362
 20
416.325
 11
7.26894
 21
416.41
  0
LINE
  8
0
 10
7.26894
 20
416.41
 11
7.25842
 21
416.495
  0
LINE
  8
0
 10
7.25842
 20
416.495
 11
7.25211
 21
416.581
  0
LINE
  8
0
 10
7.25211
 20
416.581
 11
7.25
 21
416.667
  0
LINE
  8
0
 10
7.25
 20
416.667
 11
7.25211
 21
416.753
  0
LINE
  8
0
 10
7.25211
 20
416.753
 11
7.25842
 21
416.838
  0
LINE
  8
0
 10
7.25842
 20
416.838
 11
7.26894
 21
416.923
  0
LINE
  8
0
 10
7.26894
 20
416.923
 11
7.28362
 21
417.008
  0
LINE
  8
0
 10
7.28362
 20
417.008
 11
7.30244
 21
417.092
  0
LINE
  8
0
 10
7.30244
 20
417.092
 11
7.32535
 21
417.175
  0
LINE
  8
0
 10
7.32535
 20
417.175
 11
7.35229
 21
417.256
  0
LINE
  8
0
 10
7.35229
 20
417.256
 11
7.38321
 21
417.336
  0
LINE
  8
0
 10
7.38321
 20
417.336
 11
7.41801
 21
417.415
  0
LINE
  8
0
 10
7.41801
 20
417.415
 11
7.45663
 21
417.492
  0
LINE
  8
0
 10
7.45663
 20
417.492
 11
7.49896
 21
417.566
  0
LINE
  8
0
 10
7.49896
 20
417.566
 11
7.54492
 21
417.639
  0
LINE
  8
0
 10
7.54492
 20
417.639
 11
7.59438
 21
417.709
  0
LINE
  8
0
 10
7.59438
 20
417.709
 11
7.64722
 21
417.777
  0
LINE
  8
0
 10
7.64722
 20
417.777
 11
7.70332
 21
417.842
  0
LINE
  8
0
 10
7.70332
 20
417.842
 11
7.76256
 21
417.904
  0
LINE
  8
0
 10
7.76256
 20
417.904
 11
7.82477
 21
417.963
  0
LINE
  8
0
 10
7.82477
 20
417.963
 11
7.8898
 21
418.019
  0
LINE
  8
0
 10
7.8898
 20
418.019
 11
7.95752
 21
418.072
  0
LINE
  8
0
 10
7.95752
 20
418.072
 11
8.02774
 21
418.122
  0
LINE
  8
0
 10
8.02774
 20
418.122
 11
8.10031
 21
418.168
  0
LINE
  8
0
 10
8.10031
 20
418.168
 11
8.17505
 21
418.21
  0
LINE
  8
0
 10
8.17505
 20
418.21
 11
8.25177
 21
418.249
  0
LINE
  8
0
 10
8.25177
 20
418.249
 11
8.33029
 21
418.283
  0
LINE
  8
0
 10
8.33029
 20
418.283
 11
8.41043
 21
418.314
  0
LINE
  8
0
 10
8.41043
 20
418.314
 11
8.49199
 21
418.341
  0
LINE
  8
0
 10
8.49199
 20
418.341
 11
8.57478
 21
418.364
  0
LINE
  8
0
 10
8.57478
 20
418.364
 11
8.65858
 21
418.383
  0
LINE
  8
0
 10
8.65858
 20
418.383
 11
8.74321
 21
418.398
  0
LINE
  8
0
 10
8.74321
 20
418.398
 11
8.82846
 21
418.408
  0
LINE
  8
0
 10
8.82846
 20
418.408
 11
8.91412
 21
418.415
  0
LINE
  8
0
 10
8.91412
 20
418.415
 11
9
 21
418.417
  0
LINE
  8
0
 10
9
 20
418.417
 11
9.08586
 21
418.415
  0
LINE
  8
0
 10
9.08586
 20
418.415
 11
9.17152
 21
418.408
  0
LINE
  8
0
 10
9.17152
 20
418.408
 11
9.25677
 21
418.398
  0
LINE
  8
0
 10
9.25677
 20
418.398
 11
9.3414
 21
418.383
  0
LINE
  8
0
 10
9.3414
 20
418.383
 11
9.4252
 21
418.364
  0
LINE
  8
0
 10
9.4252
 20
418.364
 11
9.508
 21
418.341
  0
LINE
  8
0
 10
9.508
 20
418.341
 11
9.58955
 21
418.314
  0
LINE
  8
0
 10
9.58955
 20
418.314
 11
9.66969
 21
418.283
  0
LINE
  8
0
 10
9.66969
 20
418.283
 11
9.74821
 21
418.249
  0
LINE
  8
0
 10
9.74821
 20
418.249
 11
9.82494
 21
418.21
  0
LINE
  8
0
 10
9.82494
 20
418.21
 11
9.89967
 21
418.168
  0
LINE
  8
0
 10
9.89967
 20
418.168
 11
9.97224
 21
418.122
  0
LINE
  8
0
 10
9.97224
 20
418.122
 11
10.0425
 21
418.072
  0
LINE
  8
0
 10
10.0425
 20
418.072
 11
10.1102
 21
418.019
  0
LINE
  8
0
 10
10.1102
 20
418.019
 11
10.1752
 21
417.963
  0
LINE
  8
0
 10
10.1752
 20
417.963
 11
10.2374
 21
417.904
  0
LINE
  8
0
 10
10.2374
 20
417.904
 11
10.2967
 21
417.842
  0
LINE
  8
0
 10
10.2967
 20
417.842
 11
10.3528
 21
417.777
  0
LINE
  8
0
 10
10.3528
 20
417.777
 11
10.4056
 21
417.709
  0
LINE
  8
0
 10
10.4056
 20
417.709
 11
10.4551
 21
417.639
  0
LINE
  8
0
 10
10.4551
 20
417.639
 11
10.501
 21
417.566
  0
LINE
  8
0
 10
10.501
 20
417.566
 11
10.5434
 21
417.492
  0
LINE
  8
0
 10
10.5434
 20
417.492
 11
10.582
 21
417.415
  0
LINE
  8
0
 10
10.582
 20
417.415
 11
10.6168
 21
417.336
  0
LINE
  8
0
 10
10.6168
 20
417.336
 11
10.6477
 21
417.256
  0
LINE
  8
0
 10
10.6477
 20
417.256
 11
10.6746
 21
417.175
  0
LINE
  8
0
 10
10.6746
 20
417.175
 11
10.6975
 21
417.092
  0
LINE
  8
0
 10
10.6975
 20
417.092
 11
10.7164
 21
417.008
  0
LINE
  8
0
 10
10.7164
 20
417.008
 11
10.731
 21
416.923
  0
LINE
  8
0
 10
10.731
 20
416.923
 11
10.7416
 21
416.838
  0
LINE
  8
0
 10
10.7416
 20
416.838
 11
10.7479
 21
416.753
  0
LINE
  8
0
 10
10.7479
 20
416.753
 11
10.75
 21
416.667
  0
LINE
  8
0
 10
10.75
 20
416.667
 11
10.7479
 21
416.581
  0
LINE
  8
0
 10
10.7479
 20
416.581
 11
10.7416
 21
416.495
  0
LINE
  8
0
 10
10.7416
 20
416.495
 11
10.731
 21
416.41
  0
LINE
  8
0
 10
10.731
 20
416.41
 11
10.7164
 21
416.325
  0
LINE
  8
0
 10
10.7164
 20
416.325
 11
10.6975
 21
416.241
  0
LINE
  8
0
 10
10.6975
 20
416.241
 11
10.6746
 21
416.159
  0
LINE
  8
0
 10
10.6746
 20
416.159
 11
10.6477
 21
416.077
  0
LINE
  8
0
 10
10.6477
 20
416.077
 11
10.6168
 21
415.997
  0
LINE
  8
0
 10
10.6168
 20
415.997
 11
10.582
 21
415.918
  0
LINE
  8
0
 10
10.582
 20
415.918
 11
10.5434
 21
415.842
  0
LINE
  8
0
 10
10.5434
 20
415.842
 11
10.501
 21
415.767
  0
LINE
  8
0
 10
10.501
 20
415.767
 11
10.4551
 21
415.694
  0
LINE
  8
0
 10
10.4551
 20
415.694
 11
10.4056
 21
415.624
  0
LINE
  8
0
 10
10.4056
 20
415.624
 11
10.3528
 21
415.556
  0
LINE
  8
0
 10
10.3528
 20
415.556
 11
10.2967
 21
415.491
  0
LINE
  8
0
 10
10.2967
 20
415.491
 11
10.2374
 21
415.429
  0
LINE
  8
0
 10
10.2374
 20
415.429
 11
10.1752
 21
415.37
  0
LINE
  8
0
 10
10.1752
 20
415.37
 11
10.1102
 21
415.314
  0
LINE
  8
0
 10
10.1102
 20
415.314
 11
10.0425
 21
415.261
  0
LINE
  8
0
 10
10.0425
 20
415.261
 11
9.97224
 21
415.212
  0
LINE
  8
0
 10
9.97224
 20
415.212
 11
9.89967
 21
415.166
  0
LINE
  8
0
 10
9.89967
 20
415.166
 11
9.82494
 21
415.123
  0
LINE
  8
0
 10
9.82494
 20
415.123
 11
9.74821
 21
415.085
  0
LINE
  8
0
 10
9.74821
 20
415.085
 11
9.66969
 21
415.05
  0
LINE
  8
0
 10
9.66969
 20
415.05
 11
9.58955
 21
415.019
  0
LINE
  8
0
 10
9.58955
 20
415.019
 11
9.508
 21
414.992
  0
LINE
  8
0
 10
9.508
 20
414.992
 11
9.4252
 21
414.969
  0
LINE
  8
0
 10
9.4252
 20
414.969
 11
9.3414
 21
414.95
  0
LINE
  8
0
 10
9.3414
 20
414.95
 11
9.25677
 21
414.936
  0
LINE
  8
0
 10
9.25677
 20
414.936
 11
9.17152
 21
414.925
  0
LINE
  8
0
 10
9.17152
 20
414.925
 11
9.08586
 21
414.919
  0
LINE
  8
0
 10
9.08586
 20
414.919
 11
9
 21
414.917
  0
LINE
  8
0
 10
9
 20
414.917
 11
8.91412
 21
414.919
  0
LINE
  8
0
 10
390.914
 20
81.5854
 11
390.828
 21
81.5918
  0
LINE
  8
0
 10
390.828
 20
81.5918
 11
390.743
 21
81.6023
  0
LINE
  8
0
 10
390.743
 20
81.6023
 11
390.659
 21
81.617
  0
LINE
  8
0
 10
390.659
 20
81.617
 11
390.575
 21
81.6358
  0
LINE
  8
0
 10
390.575
 20
81.6358
 11
390.492
 21
81.6587
  0
LINE
  8
0
 10
390.492
 20
81.6587
 11
390.41
 21
81.6856
  0
LINE
  8
0
 10
390.41
 20
81.6856
 11
390.33
 21
81.7165
  0
LINE
  8
0
 10
390.33
 20
81.7165
 11
390.252
 21
81.7513
  0
LINE
  8
0
 10
390.252
 20
81.7513
 11
390.175
 21
81.79
  0
LINE
  8
0
 10
390.175
 20
81.79
 11
390.1
 21
81.8323
  0
LINE
  8
0
 10
390.1
 20
81.8323
 11
390.028
 21
81.8783
  0
LINE
  8
0
 10
390.028
 20
81.8783
 11
389.958
 21
81.9277
  0
LINE
  8
0
 10
389.958
 20
81.9277
 11
389.89
 21
81.9806
  0
LINE
  8
0
 10
389.89
 20
81.9806
 11
389.825
 21
82.0367
  0
LINE
  8
0
 10
389.825
 20
82.0367
 11
389.763
 21
82.0959
  0
LINE
  8
0
 10
389.763
 20
82.0959
 11
389.703
 21
82.1581
  0
LINE
  8
0
 10
389.703
 20
82.1581
 11
389.647
 21
82.2231
  0
LINE
  8
0
 10
389.647
 20
82.2231
 11
389.594
 21
82.2908
  0
LINE
  8
0
 10
389.594
 20
82.2908
 11
389.545
 21
82.3611
  0
LINE
  8
0
 10
389.545
 20
82.3611
 11
389.499
 21
82.4336
  0
LINE
  8
0
 10
389.499
 20
82.4336
 11
389.457
 21
82.5084
  0
LINE
  8
0
 10
389.457
 20
82.5084
 11
389.418
 21
82.5851
  0
LINE
  8
0
 10
389.418
 20
82.5851
 11
389.383
 21
82.6636
  0
LINE
  8
0
 10
389.383
 20
82.6636
 11
389.352
 21
82.7438
  0
LINE
  8
0
 10
389.352
 20
82.7438
 11
389.325
 21
82.8253
  0
LINE
  8
0
 10
389.325
 20
82.8253
 11
389.302
 21
82.9081
  0
LINE
  8
0
 10
389.302
 20
82.9081
 11
389.284
 21
82.9919
  0
LINE
  8
0
 10
389.284
 20
82.9919
 11
389.269
 21
83.0766
  0
LINE
  8
0
 10
389.269
 20
83.0766
 11
389.258
 21
83.1618
  0
LINE
  8
0
 10
389.258
 20
83.1618
 11
389.252
 21
83.2475
  0
LINE
  8
0
 10
389.252
 20
83.2475
 11
389.25
 21
83.3333
  0
LINE
  8
0
 10
389.25
 20
83.3333
 11
389.252
 21
83.4192
  0
LINE
  8
0
 10
389.252
 20
83.4192
 11
389.258
 21
83.5049
  0
LINE
  8
0
 10
389.258
 20
83.5049
 11
389.269
 21
83.5901
  0
LINE
  8
0
 10
389.269
 20
83.5901
 11
389.284
 21
83.6747
  0
LINE
  8
0
 10
389.284
 20
83.6747
 11
389.302
 21
83.7585
  0
LINE
  8
0
 10
389.302
 20
83.7585
 11
389.325
 21
83.8413
  0
LINE
  8
0
 10
389.325
 20
83.8413
 11
389.352
 21
83.9229
  0
LINE
  8
0
 10
389.352
 20
83.9229
 11
389.383
 21
84.003
  0
LINE
  8
0
 10
389.383
 20
84.003
 11
389.418
 21
84.0815
  0
LINE
  8
0
 10
389.418
 20
84.0815
 11
389.457
 21
84.1583
  0
LINE
  8
0
 10
389.457
 20
84.1583
 11
389.499
 21
84.233
  0
LINE
  8
0
 10
389.499
 20
84.233
 11
389.545
 21
84.3056
  0
LINE
  8
0
 10
389.545
 20
84.3056
 11
389.594
 21
84.3758
  0
LINE
  8
0
 10
389.594
 20
84.3758
 11
389.647
 21
84.4435
  0
LINE
  8
0
 10
389.647
 20
84.4435
 11
389.703
 21
84.5086
  0
LINE
  8
0
 10
389.703
 20
84.5086
 11
389.763
 21
84.5708
  0
LINE
  8
0
 10
389.763
 20
84.5708
 11
389.825
 21
84.63
  0
LINE
  8
0
 10
389.825
 20
84.63
 11
389.89
 21
84.6861
  0
LINE
  8
0
 10
389.89
 20
84.6861
 11
389.958
 21
84.7389
  0
LINE
  8
0
 10
389.958
 20
84.7389
 11
390.028
 21
84.7884
  0
LINE
  8
0
 10
390.028
 20
84.7884
 11
390.1
 21
84.8344
  0
LINE
  8
0
 10
390.1
 20
84.8344
 11
390.175
 21
84.8767
  0
LINE
  8
0
 10
390.175
 20
84.8767
 11
390.252
 21
84.9153
  0
LINE
  8
0
 10
390.252
 20
84.9153
 11
390.33
 21
84.9501
  0
LINE
  8
0
 10
390.33
 20
84.9501
 11
390.41
 21
84.981
  0
LINE
  8
0
 10
390.41
 20
84.981
 11
390.492
 21
85.008
  0
LINE
  8
0
 10
390.492
 20
85.008
 11
390.575
 21
85.0309
  0
LINE
  8
0
 10
390.575
 20
85.0309
 11
390.659
 21
85.0497
  0
LINE
  8
0
 10
390.659
 20
85.0497
 11
390.743
 21
85.0644
  0
LINE
  8
0
 10
390.743
 20
85.0644
 11
390.828
 21
85.0749
  0
LINE
  8
0
 10
390.828
 20
85.0749
 11
390.914
 21
85.0812
  0
LINE
  8
0
 10
390.914
 20
85.0812
 11
391
 21
85.0833
  0
LINE
  8
0
 10
391
 20
85.0833
 11
391.086
 21
85.0812
  0
LINE
  8
0
 10
391.086
 20
85.0812
 11
391.172
 21
85.0749
  0
LINE
  8
0
 10
391.172
 20
85.0749
 11
391.257
 21
85.0644
  0
LINE
  8
0
 10
391.257
 20
85.0644
 11
391.341
 21
85.0497
  0
LINE
  8
0
 10
391.341
 20
85.0497
 11
391.425
 21
85.0309
  0
LINE
  8
0
 10
391.425
 20
85.0309
 11
391.508
 21
85.008
  0
LINE
  8
0
 10
391.508
 20
85.008
 11
391.59
 21
84.981
  0
LINE
  8
0
 10
391.59
 20
84.981
 11
391.67
 21
84.9501
  0
LINE
  8
0
 10
391.67
 20
84.9501
 11
391.748
 21
84.9153
  0
LINE
  8
0
 10
391.748
 20
84.9153
 11
391.825
 21
84.8767
  0
LINE
  8
0
 10
391.825
 20
84.8767
 11
391.9
 21
84.8344
  0
LINE
  8
0
 10
391.9
 20
84.8344
 11
391.972
 21
84.7884
  0
LINE
  8
0
 10
391.972
 20
84.7884
 11
392.042
 21
84.7389
  0
LINE
  8
0
 10
392.042
 20
84.7389
 11
392.11
 21
84.6861
  0
LINE
  8
0
 10
392.11
 20
84.6861
 11
392.175
 21
84.63
  0
LINE
  8
0
 10
392.175
 20
84.63
 11
392.237
 21
84.5708
  0
LINE
  8
0
 10
392.237
 20
84.5708
 11
392.297
 21
84.5086
  0
LINE
  8
0
 10
392.297
 20
84.5086
 11
392.353
 21
84.4435
  0
LINE
  8
0
 10
392.353
 20
84.4435
 11
392.406
 21
84.3758
  0
LINE
  8
0
 10
392.406
 20
84.3758
 11
392.455
 21
84.3056
  0
LINE
  8
0
 10
392.455
 20
84.3056
 11
392.501
 21
84.233
  0
LINE
  8
0
 10
392.501
 20
84.233
 11
392.543
 21
84.1583
  0
LINE
  8
0
 10
392.543
 20
84.1583
 11
392.582
 21
84.0815
  0
LINE
  8
0
 10
392.582
 20
84.0815
 11
392.617
 21
84.003
  0
LINE
  8
0
 10
392.617
 20
84.003
 11
392.648
 21
83.9229
  0
LINE
  8
0
 10
392.648
 20
83.9229
 11
392.675
 21
83.8413
  0
LINE
  8
0
 10
392.675
 20
83.8413
 11
392.698
 21
83.7585
  0
LINE
  8
0
 10
392.698
 20
83.7585
 11
392.716
 21
83.6747
  0
LINE
  8
0
 10
392.716
 20
83.6747
 11
392.731
 21
83.5901
  0
LINE
  8
0
 10
392.731
 20
83.5901
 11
392.742
 21
83.5049
  0
LINE
  8
0
 10
392.742
 20
83.5049
 11
392.748
 21
83.4192
  0
LINE
  8
0
 10
392.748
 20
83.4192
 11
392.75
 21
83.3333
  0
LINE
  8
0
 10
392.75
 20
83.3333
 11
392.748
 21
83.2475
  0
LINE
  8
0
 10
392.748
 20
83.2475
 11
392.742
 21
83.1618
  0
LINE
  8
0
 10
392.742
 20
83.1618
 11
392.731
 21
83.0766
  0
LINE
  8
0
 10
392.731
 20
83.0766
 11
392.716
 21
82.9919
  0
LINE
  8
0
 10
392.716
 20
82.9919
 11
392.698
 21
82.9081
  0
LINE
  8
0
 10
392.698
 20
82.9081
 11
392.675
 21
82.8253
  0
LINE
  8
0
 10
392.675
 20
82.8253
 11
392.648
 21
82.7438
  0
LINE
  8
0
 10
392.648
 20
82.7438
 11
392.617
 21
82.6636
  0
LINE
  8
0
 10
392.617
 20
82.6636
 11
392.582
 21
82.5851
  0
LINE
  8
0
 10
392.582
 20
82.5851
 11
392.543
 21
82.5084
  0
LINE
  8
0
 10
392.543
 20
82.5084
 11
392.501
 21
82.4336
  0
LINE
  8
0
 10
392.501
 20
82.4336
 11
392.455
 21
82.3611
  0
LINE
  8
0
 10
392.455
 20
82.3611
 11
392.406
 21
82.2908
  0
LINE
  8
0
 10
392.406
 20
82.2908
 11
392.353
 21
82.2231
  0
LINE
  8
0
 10
392.353
 20
82.2231
 11
392.297
 21
82.1581
  0
LINE
  8
0
 10
392.297
 20
82.1581
 11
392.237
 21
82.0959
  0
LINE
  8
0
 10
392.237
 20
82.0959
 11
392.175
 21
82.0367
  0
LINE
  8
0
 10
392.175
 20
82.0367
 11
392.11
 21
81.9806
  0
LINE
  8
0
 10
392.11
 20
81.9806
 11
392.042
 21
81.9277
  0
LINE
  8
0
 10
392.042
 20
81.9277
 11
391.972
 21
81.8783
  0
LINE
  8
0
 10
391.972
 20
81.8783
 11
391.9
 21
81.8323
  0
LINE
  8
0
 10
391.9
 20
81.8323
 11
391.825
 21
81.79
  0
LINE
  8
0
 10
391.825
 20
81.79
 11
391.748
 21
81.7513
  0
LINE
  8
0
 10
391.748
 20
81.7513
 11
391.67
 21
81.7165
  0
LINE
  8
0
 10
391.67
 20
81.7165
 11
391.59
 21
81.6856
  0
LINE
  8
0
 10
391.59
 20
81.6856
 11
391.508
 21
81.6587
  0
LINE
  8
0
 10
391.508
 20
81.6587
 11
391.425
 21
81.6358
  0
LINE
  8
0
 10
391.425
 20
81.6358
 11
391.341
 21
81.617
  0
LINE
  8
0
 10
391.341
 20
81.617
 11
391.257
 21
81.6023
  0
LINE
  8
0
 10
391.257
 20
81.6023
 11
391.172
 21
81.5918
  0
LINE
  8
0
 10
391.172
 20
81.5918
 11
391.086
 21
81.5854
  0
LINE
  8
0
 10
391.086
 20
81.5854
 11
391
 21
81.5833
  0
LINE
  8
0
 10
391
 20
81.5833
 11
390.914
 21
81.5854
  0
LINE
  8
0
 10
8.91412
 20
81.5854
 11
8.82846
 21
81.5918
  0
LINE
  8
0
 10
8.82846
 20
81.5918
 11
8.74321
 21
81.6023
  0
LINE
  8
0
 10
8.74321
 20
81.6023
 11
8.65858
 21
81.617
  0
LINE
  8
0
 10
8.65858
 20
81.617
 11
8.57478
 21
81.6358
  0
LINE
  8
0
 10
8.57478
 20
81.6358
 11
8.49199
 21
81.6587
  0
LINE
  8
0
 10
8.49199
 20
81.6587
 11
8.41043
 21
81.6856
  0
LINE
  8
0
 10
8.41043
 20
81.6856
 11
8.33029
 21
81.7165
  0
LINE
  8
0
 10
8.33029
 20
81.7165
 11
8.25177
 21
81.7513
  0
LINE
  8
0
 10
8.25177
 20
81.7513
 11
8.17505
 21
81.79
  0
LINE
  8
0
 10
8.17505
 20
81.79
 11
8.10031
 21
81.8323
  0
LINE
  8
0
 10
8.10031
 20
81.8323
 11
8.02774
 21
81.8783
  0
LINE
  8
0
 10
8.02774
 20
81.8783
 11
7.95752
 21
81.9277
  0
LINE
  8
0
 10
7.95752
 20
81.9277
 11
7.8898
 21
81.9806
  0
LINE
  8
0
 10
7.8898
 20
81.9806
 11
7.82477
 21
82.0367
  0
LINE
  8
0
 10
7.82477
 20
82.0367
 11
7.76256
 21
82.0959
  0
LINE
  8
0
 10
7.76256
 20
82.0959
 11
7.70332
 21
82.1581
  0
LINE
  8
0
 10
7.70332
 20
82.1581
 11
7.64722
 21
82.2231
  0
LINE
  8
0
 10
7.64722
 20
82.2231
 11
7.59438
 21
82.2908
  0
LINE
  8
0
 10
7.59438
 20
82.2908
 11
7.54492
 21
82.3611
  0
LINE
  8
0
 10
7.54492
 20
82.3611
 11
7.49896
 21
82.4336
  0
LINE
  8
0
 10
7.49896
 20
82.4336
 11
7.45663
 21
82.5084
  0
LINE
  8
0
 10
7.45663
 20
82.5084
 11
7.41801
 21
82.5851
  0
LINE
  8
0
 10
7.41801
 20
82.5851
 11
7.38321
 21
82.6636
  0
LINE
  8
0
 10
7.38321
 20
82.6636
 11
7.35229
 21
82.7438
  0
LINE
  8
0
 10
7.35229
 20
82.7438
 11
7.32535
 21
82.8253
  0
LINE
  8
0
 10
7.32535
 20
82.8253
 11
7.30244
 21
82.9081
  0
LINE
  8
0
 10
7.30244
 20
82.9081
 11
7.28362
 21
82.9919
  0
LINE
  8
0
 10
7.28362
 20
82.9919
 11
7.26894
 21
83.0766
  0
LINE
  8
0
 10
7.26894
 20
83.0766
 11
7.25842
 21
83.1618
  0
LINE
  8
0
 10
7.25842
 20
83.1618
 11
7.25211
 21
83.2475
  0
LINE
  8
0
 10
7.25211
 20
83.2475
 11
7.25
 21
83.3333
  0
LINE
  8
0
 10
7.25
 20
83.3333
 11
7.25211
 21
83.4192
  0
LINE
  8
0
 10
7.25211
 20
83.4192
 11
7.25842
 21
83.5049
  0
LINE
  8
0
 10
7.25842
 20
83.5049
 11
7.26894
 21
83.5901
  0
LINE
  8
0
 10
7.26894
 20
83.5901
 11
7.28362
 21
83.6747
  0
LINE
  8
0
 10
7.28362
 20
83.6747
 11
7.30244
 21
83.7585
  0
LINE
  8
0
 10
7.30244
 20
83.7585
 11
7.32535
 21
83.8413
  0
LINE
  8
0
 10
7.32535
 20
83.8413
 11
7.35229
 21
83.9229
  0
LINE
  8
0
 10
7.35229
 20
83.9229
 11
7.38321
 21
84.003
  0
LINE
  8
0
 10
7.38321
 20
84.003
 11
7.41801
 21
84.0815
  0
LINE
  8
0
 10
7.41801
 20
84.0815
 11
7.45663
 21
84.1583
  0
LINE
  8
0
 10
7.45663
 20
84.1583
 11
7.49896
 21
84.233
  0
LINE
  8
0
 10
7.49896
 20
84.233
 11
7.54492
 21
84.3056
  0
LINE
  8
0
 10
7.54492
 20
84.3056
 11
7.59438
 21
84.3758
  0
LINE
  8
0
 10
7.59438
 20
84.3758
 11
7.64722
 21
84.4435
  0
LINE
  8
0
 10
7.64722
 20
84.4435
 11
7.70332
 21
84.5086
  0
LINE
  8
0
 10
7.70332
 20
84.5086
 11
7.76256
 21
84.5708
  0
LINE
  8
0
 10
7.76256
 20
84.5708
 11
7.82477
 21
84.63
  0
LINE
  8
0
 10
7.82477
 20
84.63
 11
7.8898
 21
84.6861
  0
LINE
  8
0
 10
7.8898
 20
84.6861
 11
7.95752
 21
84.7389
  0
LINE
  8
0
 10
7.95752
 20
84.7389
 11
8.02774
 21
84.7884
  0
LINE
  8
0
 10
8.02774
 20
84.7884
 11
8.10031
 21
84.8344
  0
LINE
  8
0
 10
8.10031
 20
84.8344
 11
8.17505
 21
84.8767
  0
LINE
  8
0
 10
8.17505
 20
84.8767
 11
8.25177
 21
84.9153
  0
LINE
  8
0
 10
8.25177
 20
84.9153
 11
8.33029
 21
84.9501
  0
LINE
  8
0
 10
8.33029
 20
84.9501
 11
8.41043
 21
84.981
  0
LINE
  8
0
 10
8.41043
 20
84.981
 11
8.49199
 21
85.008
  0
LINE
  8
0
 10
8.49199
 20
85.008
 11
8.57478
 21
85.0309
  0
LINE
  8
0
 10
8.57478
 20
85.0309
 11
8.65858
 21
85.0497
  0
LINE
  8
0
 10
8.65858
 20
85.0497
 11
8.74321
 21
85.0644
  0
LINE
  8
0
 10
8.74321
 20
85.0644
 11
8.82846
 21
85.0749
  0
LINE
  8
0
 10
8.82846
 20
85.0749
 11
8.91412
 21
85.0812
  0
LINE
  8
0
 10
8.91412
 20
85.0812
 11
9
 21
85.0833
  0
LINE
  8
0
 10
9
 20
85.0833
 11
9.08586
 21
85.0812
  0
LINE
  8
0
 10
9.08586
 20
85.0812
 11
9.17152
 21
85.0749
  0
LINE
  8
0
 10
9.17152
 20
85.0749
 11
9.25677
 21
85.0644
  0
LINE
  8
0
 10
9.25677
 20
85.0644
 11
9.3414
 21
85.0497
  0
LINE
  8
0
 10
9.3414
 20
85.0497
 11
9.4252
 21
85.0309
  0
LINE
  8
0
 10
9.4252
 20
85.0309
 11
9.508
 21
85.008
  0
LINE
  8
0
 10
9.508
 20
85.008
 11
9.58955
 21
84.981
  0
LINE
  8
0
 10
9.58955
 20
84.981
 11
9.66969
 21
84.9501
  0
LINE
  8
0
 10
9.66969
 20
84.9501
 11
9.74821
 21
84.9153
  0
LINE
  8
0
 10
9.74821
 20
84.9153
 11
9.82494
 21
84.8767
  0
LINE
  8
0
 10
9.82494
 20
84.8767
 11
9.89967
 21
84.8344
  0
LINE
  8
0
 10
9.89967
 20
84.8344
 11
9.97224
 21
84.7884
  0
LINE
  8
0
 10
9.97224
 20
84.7884
 11
10.0425
 21
84.7389
  0
LINE
  8
0
 10
10.0425
 20
84.7389
 11
10.1102
 21
84.6861
  0
LINE
  8
0
 10
10.1102
 20
84.6861
 11
10.1752
 21
84.63
  0
LINE
  8
0
 10
10.1752
 20
84.63
 11
10.2374
 21
84.5708
  0
LINE
  8
0
 10
10.2374
 20
84.5708
 11
10.2967
 21
84.5086
  0
LINE
  8
0
 10
10.2967
 20
84.5086
 11
10.3528
 21
84.4435
  0
LINE
  8
0
 10
10.3528
 20
84.4435
 11
10.4056
 21
84.3758
  0
LINE
  8
0
 10
10.4056
 20
84.3758
 11
10.4551
 21
84.3056
  0
LINE
  8
0
 10
10.4551
 20
84.3056
 11
10.501
 21
84.233
  0
LINE
  8
0
 10
10.501
 20
84.233
 11
10.5434
 21
84.1583
  0
LINE
  8
0
 10
10.5434
 20
84.1583
 11
10.582
 21
84.0815
  0
LINE
  8
0
 10
10.582
 20
84.0815
 11
10.6168
 21
84.003
  0
LINE
  8
0
 10
10.6168
 20
84.003
 11
10.6477
 21
83.9229
  0
LINE
  8
0
 10
10.6477
 20
83.9229
 11
10.6746
 21
83.8413
  0
LINE
  8
0
 10
10.6746
 20
83.8413
 11
10.6975
 21
83.7585
  0
LINE
  8
0
 10
10.6975
 20
83.7585
 11
10.7164
 21
83.6747
  0
LINE
  8
0
 10
10.7164
 20
83.6747
 11
10.731
 21
83.5901
  0
LINE
  8
0
 10
10.731
 20
83.5901
 11
10.7416
 21
83.5049
  0
LINE
  8
0
 10
10.7416
 20
83.5049
 11
10.7479
 21
83.4192
  0
LINE
  8
0
 10
10.7479
 20
83.4192
 11
10.75
 21
83.3333
  0
LINE
  8
0
 10
10.75
 20
83.3333
 11
10.7479
 21
83.2475
  0
LINE
  8
0
 10
10.7479
 20
83.2475
 11
10.7416
 21
83.1618
  0
LINE
  8
0
 10
10.7416
 20
83.1618
 11
10.731
 21
83.0766
  0
LINE
  8
0
 10
10.731
 20
83.0766
 11
10.7164
 21
82.9919
  0
LINE
  8
0
 10
10.7164
 20
82.9919
 11
10.6975
 21
82.9081
  0
LINE
  8
0
 10
10.6975
 20
82.9081
 11
10.6746
 21
82.8253
  0
LINE
  8
0
 10
10.6746
 20
82.8253
 11
10.6477
 21
82.7438
  0
LINE
  8
0
 10
10.6477
 20
82.7438
 11
10.6168
 21
82.6636
  0
LINE
  8
0
 10
10.6168
 20
82.6636
 11
10.582
 21
82.5851
  0
LINE
  8
0
 10
10.582
 20
82.5851
 11
10.5434
 21
82.5084
  0
LINE
  8
0
 10
10.5434
 20
82.5084
 11
10.501
 21
82.4336
  0
LINE
  8
0
 10
10.501
 20
82.4336
 11
10.4551
 21
82.3611
  0
LINE
  8
0
 10
10.4551
 20
82.3611
 11
10.4056
 21
82.2908
  0
LINE
  8
0
 10
10.4056
 20
82.2908
 11
10.3528
 21
82.2231
  0
LINE
  8
0
 10
10.3528
 20
82.2231
 11
10.2967
 21
82.1581
  0
LINE
  8
0
 10
10.2967
 20
82.1581
 11
10.2374
 21
82.0959
  0
LINE
  8
0
 10
10.2374
 20
82.0959
 11
10.1752
 21
82.0367
  0
LINE
  8
0
 10
10.1752
 20
82.0367
 11
10.1102
 21
81.9806
  0
LINE
  8
0
 10
10.1102
 20
81.9806
 11
10.0425
 21
81.9277
  0
LINE
  8
0
 10
10.0425
 20
81.9277
 11
9.97224
 21
81.8783
  0
LINE
  8
0
 10
9.97224
 20
81.8783
 11
9.89967
 21
81.8323
  0
LINE
  8
0
 10
9.89967
 20
81.8323
 11
9.82494
 21
81.79
  0
LINE
  8
0
 10
9.82494
 20
81.79
 11
9.74821
 21
81.7513
  0
LINE
  8
0
 10
9.74821
 20
81.7513
 11
9.66969
 21
81.7165
  0
LINE
  8
0
 10
9.66969
 20
81.7165
 11
9.58955
 21
81.6856
  0
LINE
  8
0
 10
9.58955
 20
81.6856
 11
9.508
 21
81.6587
  0
LINE
  8
0
 10
9.508
 20
81.6587
 11
9.4252
 21
81.6358
  0
LINE
  8
0
 10
9.4252
 20
81.6358
 11
9.3414
 21
81.617
  0
LINE
  8
0
 10
9.3414
 20
81.617
 11
9.25677
 21
81.6023
  0
LINE
  8
0
 10
9.25677
 20
81.6023
 11
9.17152
 21
81.5918
  0
LINE
  8
0
 10
9.17152
 20
81.5918
 11
9.08586
 21
81.5854
  0
LINE
  8
0
 10
9.08586
 20
81.5854
 11
9
 21
81.5833
  0
LINE
  8
0
 10
9
 20
81.5833
 11
8.91412
 21
81.5854
  0
ENDSEC
  0
SECTION
  2
OBJECTS
  0
DICTIONARY
  0
ENDSEC
  0
EOF
